/* XPM */
static char *result[] = {
/* columns rows colors chars-per-pixel */
"64 64 199 2 ",
"   c #9F7100",
".  c #9F790E",
"X  c #9D7C13",
"o  c #A27400",
"O  c #A77800",
"+  c #AB7C00",
"@  c #A27D0F",
"#  c #AF8100",
"$  c #AA850D",
"%  c #B28300",
"&  c #B78800",
"*  c #BB8C00",
"=  c #B58D0F",
"-  c #BE9100",
";  c #BD9D00",
":  c #B6910F",
">  c #BB950E",
",  c #AA8A17",
"<  c #B79616",
"1  c #BB9812",
"2  c #BFA00B",
"3  c #9A913A",
"4  c #A48F27",
"5  c #A88E21",
"6  c #B39A23",
"7  c #B28D34",
"8  c #A59A35",
"9  c #B7A42E",
"0  c #ACA137",
"q  c #ADA43C",
"w  c #B9AB35",
"e  c #B5AA3B",
"r  c #BBB33B",
"t  c #BCBD3F",
"y  c #C39400",
"u  c #C69901",
"i  c #CA9A00",
"p  c #C1990A",
"a  c #C49E10",
"s  c #C5A400",
"d  c #CDA301",
"f  c #CBAB01",
"g  c #CBA30C",
"h  c #CAA90E",
"j  c #D3A400",
"k  c #D5AA01",
"l  c #DCAC00",
"z  c #D5AB09",
"x  c #CCB200",
"c  c #D3B300",
"v  c #DDB201",
"b  c #D4BD00",
"n  c #DCBB00",
"m  c #D8B10E",
"M  c #CEAB12",
"N  c #C4A519",
"B  c #CAAB1B",
"V  c #DEB51B",
"C  c #D1BD19",
"Z  c #E2B200",
"A  c #E6BA00",
"S  c #EBBB00",
"D  c #E4BC0B",
"F  c #E8BF09",
"G  c #C4AC26",
"H  c #C8BA29",
"J  c #DCBF2A",
"K  c #CCB436",
"L  c #D6C201",
"P  c #D9C400",
"I  c #DCCB00",
"U  c #D6C41D",
"Y  c #DBD31B",
"T  c #E4C301",
"R  c #ECC400",
"E  c #E3CC00",
"W  c #EBCB00",
"Q  c #E7CB0A",
"!  c #F4C400",
"~  c #F3CC01",
"^  c #FECD00",
"/  c #FFCF0B",
"(  c #E2D400",
")  c #ECD300",
"_  c #E7DB00",
"`  c #F4D401",
"'  c #FED300",
"]  c #F4DA00",
"[  c #FEDC00",
"{  c #E7C912",
"}  c #E1D31F",
"|  c #FFD113",
" . c #FEDF15",
".. c #FFD41C",
"X. c #FEDF1C",
"o. c #EDE402",
"O. c #EEE70A",
"+. c #FEE400",
"@. c #FBE605",
"#. c #F2EB00",
"$. c #FEEC00",
"%. c #F7F200",
"&. c #FEF500",
"*. c #FEFD01",
"=. c #FCF70C",
"-. c #FEFC0A",
";. c #EFE810",
":. c #FEE415",
">. c #FEF014",
",. c #FEFD14",
"<. c #FFFE1C",
"1. c #CFC921",
"2. c #CFD029",
"3. c #C7C233",
"4. c #E2D429",
"5. c #FFD428",
"6. c #FFD83C",
"7. c #FFE027",
"8. c #FFFE22",
"9. c #FFF827",
"0. c #FEE43A",
"q. c #FFF738",
"w. c #FEFC3C",
"e. c #9C9943",
"r. c #999C4D",
"t. c #9AA356",
"y. c #A5A446",
"u. c #ABA744",
"i. c #A4A44E",
"p. c #AAAA4C",
"a. c #B1AF4B",
"s. c #B6B446",
"d. c #A5AB55",
"f. c #ADAE51",
"g. c #A4AD5C",
"h. c #ACB154",
"j. c #ACBA59",
"k. c #B0B85A",
"l. c #96AB68",
"z. c #95B376",
"x. c #9AB572",
"c. c #9DBC7E",
"v. c #A4B262",
"b. c #A8B461",
"n. c #A3B66E",
"m. c #A5BB6C",
"M. c #A0B670",
"N. c #A0BA76",
"B. c #A1BD7C",
"V. c #B8C04D",
"C. c #EBD44F",
"Z. c #FEDA41",
"A. c #E2D452",
"S. c #FFDF5D",
"D. c #FEFE43",
"F. c #FFF44B",
"G. c #FEFB4B",
"H. c #FFEC5E",
"J. c #FAF854",
"K. c #FFFD5B",
"L. c #FFDF60",
"P. c #F3DA77",
"I. c #FEE469",
"U. c #FFFD6D",
"Y. c #FFE47A",
"T. c #FEFE75",
"R. c #95BD85",
"E. c #9FBF81",
"W. c #94BE8A",
"Q. c #9FC185",
"!. c #94C08D",
"~. c #9FC58C",
"^. c #93C596",
"/. c #9EC790",
"(. c #9ECA96",
"). c #9FCC98",
"_. c #A0C58A",
"`. c #E1D281",
"'. c #FFF889",
"]. c #FFE991",
"[. c #FFEB9A",
"{. c #FFF996",
"}. c #FEFD9D",
"|. c #FEEEAE",
" X c #FEFEA3",
".X c #FFFCB3",
"XX c #FEF5B9",
"oX c #FFFEB9",
"OX c #FBF3C6",
"+X c #FEFDC3",
"@X c #FFF5CD",
"#X c #FFFDCE",
"$X c #FFF6D6",
"%X c #FFFED4",
"&X c #FEFDDA",
"*X c #FFFCE3",
"=X c #FFFDEB",
"-X c #FFFDF4",
";X c #FFFEFD",
/* pixels */
"^.^.^.^.^.^.^.^.^.^.^.^.^.^.^.^.^.^.^.^.^.W.x.h.w N g d d g i i g j z R Q Q U 3.V.m.!.^.!.^.^.^.^.^.^.^.^.^.^.^.^.^.^.^.^.^.^.^.",
"(.^.^.^.^.^.^.^.^.^.^.^.^.^.^.^.^.^.^.R.u.N l Z Z Z Z Z l l ! ^ ^ ^ [ [ [ [ [ [ [ [ Q V.c.^.^.^.^.^.^.^.^.^.^.^.^.^.^.^.^.^.^.(.",
").).^.^.^.^.^.^.^.^.^.^.^.^.^.^.^.W.r F ! ! ^ ! ! ! A Z ! ^ ^ ^ ^ ' [ [ [ [ [ [ [ [ [ [ ) 3.W.^.^.^.^.^.^.^.^.^.^.^.^.^.^.^.(.).",
").).).^.^.^.^.^.^.^.^.^.^.^.^.^.v.D ^ ^ ^ ^ ^ ^ ^ A ! ^ ^ ^ ' ^ ^ [ $.$.&.&.&.F.F.@.+.[ +.[ Q j.^.^.^.^.^.^.^.^.^.^.^.^.^.^.).).",
").).).(.^.^.^.^.^.^.^.^.^.^.^.e ~ ^ ^ ^ ^ ^ ^ ~ l ^ ^ ^ ^ ^ ' $.&.&.&.&.&.*.*.8.#X%XU.=.@.[ [ ] H !.^.^.^.^.^.^.^.^.^.^.).).).).",
").).).).(.^.^.^.^.^.^.^.^.W.H ~ ^ ^ ^ ^ ^ ^ S l S ^ ^ ^ ' +.+.' ' [ [ [ +.[ [ +.>.].;X%XT.$.[ [ [ 1.R.^.^.^.^.^.^.^.^.).).).).).",
").).).).).(.^.^.^.^.^.^.!.1.+.+.$.+.+.$.+.` Z S S ^ ^ ' [ ^ ^ ^ ` W n n c n T W ` [ 0.XX-X%Xq.[ [ [ C R.^.^.^.^.^.^.).).).).).).",
").).).).).).(.^.^.^.^.!.2.-.-.-.*.-.-.-.#.v S S ! ^ ^ ^ ^ ^ j % & ; ; ; ; ; ; ; ; f W [ 0.XX=XD.+.[ ` C R.^.^.^.^.).).).).).).).",
").).).).).).).).^.^.!.).&X&X&X&X&X&X&XOXV S S S ! ^ ^ ^ l +   o u n E W ` W W n f ; ; s T :.X.>.&.+.[ ~ H !.^.^.).).).).).).).).",
").).).).).).).).(.^.j.D.D.D.D.D.D.D.D.J S S S S ~ ^ ! *   O u ~ $.&.&.&.&.&.$.+.+.` c ; ; J [ [ $.&.+.] E t ^.(.).).).).).).).).",
").).).).).).).).(.N.#.*.*.*.*.*.*.*.E S S S S S S l O   - ! ^ ' +.$.&.*.*.*.*.q.G.$.+.` x K h ` [ $.&.[ W T m.).).).).).).).).).",
").).).).).).).)./.Y *.*.*.*.*.*.*.#.v S S S Z j j O o l ^ ^ ^ ^ ' [ [ +.$.*.*.<.%X#XK.$.[ C.2 s ` [ &.&.` R M _.).).).).).).).).",
").).).).).).).).k.^ ' ' ' ' ^ ' ^ j A S S l j i o O S ^ ^ ^ ^ ^ ' [ [ [ [ [ &.&.,.oX;X.X9.I.{ ; s ] [ &.+.W Z a.).).).).).).).).",
").).).).).).)._.D ^ ^ ^ ^ ' ^ ^ S j S S l j j O o S ^ ^ ^ ^ ^ ^ ^ [ [ [ +.[ [ +.&.-.K.=X=XoXX.T ; f [ [ &.) Z z E.).).).).).).).",
").).).).).).).s.^ ^ ^ ' ^ ^ ^ ^ j l S Z j j %   l ^ ^ ^ ^ ^ ^ ^ ^ [ [ [ [ [ [ [ [ $.*.,.T.=X{. .T ; n [ +.] v Z e (.).).).).).).",
").).).).).)./.m S S S ! S ! S Z j Z S j j y   y ! ^ ^ ^ S Z A ! ^ ' [ [ [ [ [ [ [ [ ) ( _ &XT.F.[ c ; W [ +.A Z z Q.).).).).).).",
").).).).).).f.Z Z Z Z Z Z Z Z i j S l j j O + S ! ^ ! s _ #.O.b l ' [ [ [ [ [ [ E x o.#.O.;XJ.*.$.[ s s ] ' S Z Z p.).).).).).).",
").).).).)./.B Z Z Z Z Z Z Z l i j l j l &   i S S R c &.$.$.>.G.} k ' [ [ [ [ T L J.'.}. X;X`.( &.+.T ; v ^ ! v Z M _.).).).).).",
").).).).).B.l Z Z Z Z Z Z Z j j j j j i O + S S A s &.' ^ ^ ^ +.G.4.Z [ [ [ W c *.w.{.%X;X;X+XL o.&.[ ; O ! ^ Z Z l m.(.).).).).",
").).).).).a.Z Z Z Z Z Z Z Z i j j j j %   i S S u ] ^ ^ ^ ^ ^ ^ ' -.b R [ [ f *.*.*.*.=.+X;X;Xw.x &.$.Z   u ^ Z l Z e (.).).).).",
").).).).(.N Z Z Z Z Z Z Z l y j j j y o + Z S l u A ^ ^ ^ ^ ^ ^ ^ [ &.f ' f #.*.*.$.@.H.;X;X;X%X;.I %.~ # + ! S j l a (.).).).).",
").).).).B.l Z Z Z Z Z Z Z j i j j l +   y S Z y l Z ^ ^ ^ ^ ^ ^ ' ^ +.( j b *.-.7.I.@X;X;X;X;X;XoXK =.+.i o j S j j j M.).).).).",
").).).).b.Z Z Z Z Z Z Z Z i i j j y + o j S l i j l S ! ^ ^ ^ ^ ^ ^ ' &.h J.}.&X;X;X;X;X;X;X;X;X;X-X&X.XP.7 = F i j l a.).).).).",
").).).(.s.Z Z Z Z Z Z Z Z y i i j y O + Z S i j j i l Z ! ^ ^ ^ ^ ^ ^ [ &.&.^ / 6.Y.$X;X;X;X;X;X-X#XA.,.[ % O l i i j 9 ).).).).",
").).).).G Z Z Z Z Z Z Z Z y i i i + O y S S & j i i l Z S ! ^ ^ ^ ^ ^ ^ $.' ^ ^ ^ ' / [.;X;X;X$X8.8.Y #.$.i o i j y j a (.).).).",
").).)./.M Z Z Z Z Z Z Z j y i i y +   i S l y i i y j Z S S ^ ^ ^ ^ ' ^ ^ ^ ^ ^ ^ ^ ^ | -X;X;X6.&.*.#.I &.v o * i & j a _.).).).",
").).)._.z Z Z Z Z Z Z Z j i i i + +   l S j y i i i j Z Z Z ! ^ ^ ^ ^ ^ ^ ^ ^ ^ ^ ^ ^ ^ OX;X$X^ %.*.&.x &.R   # j & j j E.).).).",
").).).B.l Z Z Z Z Z Z Z i i i y + O + l S i y i y i i Z Z Z S ! ^ ^ ^ ^ ^ ^ ^ ' ^ ^ ^ ^ [.;X].^ $.*.*.x *.[ O + i % j j n.).).).",
").).).n.Z Z Z Z Z Z Z Z i i i y y o + S S i i & i y i Z Z Z Z S ^ ^ ^ ^ ^ ^ ^ ' ^ ^ ^ ^ Y.;XL.^ $.*.*.x *.) O + y & j j b.).).).",
").).).b.y y y y y y y y y i i * + o + Z S i i + y i y Z Z Z Z Z S ^ ^ ^ ^ ^ ^ ^ ^ ^ ^ ^ S.;X6.^ +.*.*.s #.) + O y % i j h.).).).",
").).).g.y y y y y y y y * i i & + o + Z S j y + % y i l Z Z Z Z Z S ^ ^ ^ ^ ^ ^ ^ ^ ^ ^ Z.-X5.^ &.*.*.u ] W + O y + i j f.).).).",
").).).d.y y y * y y y * * i i & y o + Z S l y + O i y j Z Z Z Z Z Z Z S ! ! ^ ! S Z Z ^ 5.=X..^ &.*.%.i ) R + o y & i l a.).).).",
").).).d.* y y y y & y y y i i + + o % l Z Z + y   y i i Z Z Z Z Z Z Z Z Z Z Z Z Z Z Z S | *X| ^ *.*.( l W n % O % % i j a.).).).",
").).).g.y y * * y y y & y i i y % o & j l Z y y O + y y j Z Z Z Z Z Z Z Z Z Z Z Z Z Z Z ^ @X^ [ *.*.b S W c # + % & i j f.).).).",
").).).v.y * y y y y y y & i i + + + + j l l y y + o y y i l Z Z Z Z Z Z Z Z Z Z Z Z Z Z S |.^ +.*.*.d S A k + + & % j j h.).).).",
").).).M.* y y * & y y y y i i + + O + i l l j y y   + i y i Z Z Z Z Z Z Z Z Z Z Z Z Z Z S ].^ $.*.o.j S l j O + & & i j b.).).).",
").).).E.y y * y y y y & y y y y % + O i l l l & y     & y i i l Z Z Z Z Z Z Z Z Z Z Z Z Z I.' *.*.f S S j j o + % & j u n.).).).",
").).).~.& y y y y y y y & i i + % + o i j l l i y +   O i i i j Z Z Z Z Z Z Z Z Z Z A Z Z Z.$.*.%.d S Z j i o % & & u u E.).).).",
").).).).= y y y y y y & & y i + * +   y j l l l + y     + i i y i Z Z Z Z Z Z Z Z Z Z Z S ..&.*.n Z A j j y o % & & u p _.).).).",
").).).).5 y y y & y y y y y i y + + o + i j l Z i y O     y y i y i Z Z Z Z Z Z Z Z Z Z S [ *.#.u S v j j & o % + & i a (.).).).",
").).).).q y y y & y y y y + i y & + O + i i Z l l & *     O y i i i i l Z Z Z Z Z Z Z Z ! &.*.x S S j j j O O & + i i 9 (.).).).",
").).).).g.y y & y y y y y y i y % & O o y i j l l j * +     % y i y i y j Z Z Z Z Z Z Z [ *.o.d S j j j i o + + + i i p.(.).).).",
").).).).E.y y y y y y y y y y i % + + o * i i l l l * *     o y y i i y y j Z Z Z Z Z S &.&.u S j j j i & o + & & i y N.).).).).",
").).).).).5 & y y y y i y + y i y + & O O i i i l l l % % o   o y y i i i y i Z Z Z Z ^ *.b Z l j i i i O O & + y i < ).).).).).",
").).).).).i.+ & & + & + % % * i y % % +   y i i i l l j & O     + i i i i y y j Z Z S &._ u d i i i i y o + + + y i q ).).).).).",
").).).).).N.+ + + & + & % + + i i % % % o + i y i i j l i * o o   & y i i i i y l Z ] &.- i i i i i i o O & + y i i n.).).).).).",
").).).).).(.5 & & + + & + & + i i * % % + o y i i i i i j & & o   o y y y i y y l R &.; u i i i i i &   + + + y i p /.).).).).).",
").).).).).).d.+ + & + + & + + % i y % + + o O y i i i i i i % y o o + y i i i i l +.f y u i i i i i o o & + + y i i.).).).).).).",
").).).).).)./.$ + & % % % % % + u i & % % +   % i i i i i i u % y O   % y i u d ` b y i i i i i i + o + + & & i p _.(.).).).).).",
").).).).).).).i.+ + % % + % % % & i y % % % O   * i i i i i i y % y %   y y i A P * i i i i i i + O + + % % y i q ).).).).).).).",
").).).).).).).Q.= + & + # % % + % y i % % % % O o y i i i i i y y % i y % i k P * i i i i i i * o + + y % & i p E.).).).).).).).",
").).).).).).).).g.+ + & % % % % % % i y + % % + o o * i i i i i i y % y i i k * i i i i i i & o O + + + + y i p.).).).).).).).).",
").).).).).).).)./., # % # # % # # # y i % % % % + o   & i i i i i i y % i u * i u i i i i % o o + + + & y i 1 ~.).).).).).).).).",
").).).).).).).).).c.$ % # % # % # # # u y % % % % +     + y i i i i i y % * i i i i u y +   o + + & % + i y M.).).).).).).).).).",
").).).).).).).).(.^.t.% # # # % % # % % i y % % % % % O o o % y i i i i i i i i i y # o   O % % & + y y i u.^.).).).).).).).).).",
").).).).).).).).^.^.^.3 # # % # # % # % & i * % % % % % + o     O % & y - - & % O     o + % % % + & y i 7 W.^.^.).).).).).).).).",
").).).).).).(.^.^.^.^.^.4 # # # % # % # # * i & % & % % % % + o   o               O + + % % % % + y p 6 W.^.^.^./.(.).).).).).).",
").).).).).(.^.^.^.^.^.^.W.4 # # % % # # # % * i y + % % % % % % + + + + + + + + % % % % % % % % i i 6 W.^.^.^.^.^.^.(.).).).).).",
").).).).^.^.^.^.^.^.^.^.^.W.4 # + % % + # # # * y y + % % % % % % % % % % % + % % % % % % % & y i 6 W.^.^.^.^.^.^.^.^.).).).).).",
").).).).^.^.^.^.^.^.^.^.^.^.^.e.+ O + o + O + O % i i y % + % % % % % % % % % % % % % % % y i i 8 W.W.^.^.^.^.^.^.^.^.^.(.).).).",
").).).^.^.^.^.^.^.^.^.^.^.^.^.^.l.X               O y i y y % + % + % % % % % % # % % y i i p l.^.^.^.^.^.^.^.^.^.^.^.^.^.).).).",
").).^.^.^.^.^.^.^.^.^.^.^.^.^.^.^.W.r.@ o             % y i i y y y & % & & & y y y i i > q R.^.^.^.^.^.^.^.^.^.^.^.^.^.^.^.(.).",
").^.^.^.^.^.^.^.^.^.^.^.^.^.^.^.^.^.^.W.r.X         o     + y i i i i i i i i i i u > y.R.^.^.^.^.^.^.^.^.^.^.^.^.^.^.^.^.^.^.(.",
"^.^.^.^.^.^.^.^.^.^.^.^.^.^.^.^.^.^.^.^.^.W.z.t.3 4 X . . . . @ @ = = : p : 6 0 d.x.W.^.^.^.^.^.^.^.^.^.^.^.^.^.^.^.^.^.^.^.^.^."
};
