/* XPM */
static char *result[] = {
/* columns rows colors chars-per-pixel */
"64 64 176 2 ",
"   c #9F7100",
".  c #A27400",
"X  c #A77900",
"o  c #AA7B00",
"O  c #AF8000",
"+  c #B28300",
"@  c #B78800",
"#  c #BB8C00",
"$  c #BE9100",
"%  c #BC9C00",
"&  c #BC950C",
"*  c #B99713",
"=  c #BC9A14",
"-  c #B69A1D",
";  c #B99B1B",
":  c #AF9D2D",
">  c #B39B24",
",  c #B89F23",
"<  c #B29E2A",
"1  c #AD9F33",
"2  c #BCA426",
"3  c #BDA729",
"4  c #AFA136",
"5  c #A7A13F",
"6  c #ACA33C",
"7  c #B3A535",
"8  c #B9A933",
"9  c #B1A439",
"0  c #B4A839",
"q  c #B9B53D",
"w  c #C39401",
"e  c #C69901",
"r  c #CA9B00",
"t  c #C1990B",
"y  c #C5A200",
"u  c #CBA301",
"i  c #C7A800",
"p  c #CBAA00",
"a  c #D4A400",
"s  c #D8A700",
"d  c #D5AC00",
"f  c #DCAC00",
"g  c #D0AA0F",
"h  c #CCB100",
"j  c #D5B300",
"k  c #DBB400",
"l  c #DCBB00",
"z  c #DBBA0D",
"x  c #CEA912",
"c  c #C2A41C",
"v  c #CAAC1C",
"b  c #DBBB15",
"n  c #DABC19",
"m  c #E0AF00",
"M  c #E3B300",
"N  c #E8B700",
"B  c #E3BC01",
"V  c #ECBC00",
"C  c #C1A621",
"Z  c #C5A926",
"A  c #C5AE27",
"S  c #C9B929",
"D  c #C9A53A",
"F  c #C1B736",
"G  c #D6C202",
"H  c #DEC000",
"J  c #DAC61A",
"K  c #E4C400",
"L  c #E9C501",
"P  c #E5CD00",
"I  c #EBCB01",
"U  c #E5C90C",
"Y  c #F4C401",
"T  c #F8C700",
"R  c #F2CC00",
"E  c #FECD00",
"W  c #EBD500",
"Q  c #E6DA00",
"!  c #EBDD00",
"~  c #F4D401",
"^  c #FDD300",
"/  c #F1D900",
"(  c #FEDC00",
")  c #FEDE0B",
"_  c #E2CA12",
"`  c #FED819",
"'  c #ECE300",
"]  c #EFE800",
"[  c #FEE300",
"{  c #F3ED00",
"}  c #FEEB00",
"|  c #FFEC0A",
" . c #FEF400",
".. c #FFFC00",
"X. c #FEE510",
"o. c #FFEC15",
"O. c #FFFE10",
"+. c #FFF618",
"@. c #FFFE1E",
"#. c #CFC327",
"$. c #D6C822",
"%. c #C2C23B",
"&. c #E5D933",
"*. c #FEE020",
"=. c #FFF522",
"-. c #FFFE22",
";. c #FEF329",
":. c #FEE334",
">. c #FFF135",
",. c #FFFD33",
"<. c #FFFB3C",
"1. c #9FA857",
"2. c #9EAC5C",
"3. c #A5A446",
"4. c #ABA644",
"5. c #ABAC4E",
"6. c #B1AA42",
"7. c #ACB54E",
"8. c #B7B840",
"9. c #B4B54C",
"0. c #B5B848",
"q. c #A1A752",
"w. c #A9AC53",
"e. c #A5AD59",
"r. c #ADB053",
"t. c #B1BE55",
"y. c #9AAF69",
"u. c #9BB26B",
"i. c #9AB573",
"p. c #96B77B",
"a. c #9BBD7E",
"s. c #A5B465",
"d. c #A6B664",
"f. c #A3BB6C",
"g. c #A1B772",
"h. c #A1B975",
"j. c #A1BD7B",
"k. c #B5C052",
"l. c #FCF056",
"z. c #FFFE55",
"x. c #FFF55C",
"c. c #D8C573",
"v. c #FFF566",
"b. c #FFFE61",
"n. c #FFFE6A",
"m. c #FEEC76",
"M. c #FFFE77",
"N. c #FFF07D",
"B. c #95BD84",
"V. c #9FBF81",
"C. c #94BF8A",
"Z. c #94C18D",
"A. c #9FC68D",
"S. c #93C596",
"D. c #9FC791",
"F. c #9ECA97",
"G. c #9FCC98",
"H. c #A0C286",
"J. c #DFD08C",
"K. c #FFEF81",
"L. c #FEEE88",
"P. c #FFFE8A",
"I. c #FFFE96",
"U. c #FFFD9C",
"Y. c #FEF2AB",
"T. c #FEF0B0",
"R. c #FFFFB0",
"E. c #FDF2BD",
"W. c #FFFEB9",
"Q. c #FFF7CD",
"!. c #FFFED5",
"~. c #FFFCDE",
"^. c #FFFDE5",
"/. c #FFFEED",
"(. c #FFFEF5",
"). c #FFFEF9",
/* pixels */
"S.S.S.S.S.S.S.S.S.S.S.S.S.S.S.S.S.S.S.S.S.S.S.S.B.f.k.%.#.J U U I U b S F 9.d.a.C.S.S.S.S.S.S.S.S.S.S.S.S.S.S.S.S.S.S.S.S.S.S.S.",
"F.S.S.S.S.S.S.S.S.S.S.S.S.S.S.S.S.S.S.S.Z.a.0.J W ( ( ( ( ( ( ( ( ( ( E E E T Y b 8.p.C.S.S.S.S.S.S.S.S.S.S.S.S.S.S.S.S.S.S.S.F.",
"G.F.S.S.S.S.S.S.S.S.S.S.S.S.S.S.Z.S.S.t.$.~ ( ( ( ( ( ( ( ( ( ( ( ( ( ( E E E E E E T n 9.C.S.S.S.S.S.S.S.S.S.S.S.S.S.S.S.S.F.F.",
"G.G.G.S.S.S.S.S.S.S.S.S.S.S.S.S.Z.t.J ( [ ( ( [ [ | >.v.=. . . . .} } [ ^ ^ E E E E E E E B 9.B.S.S.S.S.S.S.S.S.S.S.S.S.S.F.G.G.",
"G.G.G.F.S.S.S.S.S.S.S.S.S.S.S.d._ ( ( ( ( [  .,.U.^.^.b........... . . ... .} [ ^ E E E E E T z w.S.S.S.S.S.S.S.S.S.S.S.F.G.G.G.",
"G.G.G.G.F.S.S.S.S.S.S.S.S.Z.F / ( ( ( [ +.M.!.).^.N.o.[ [ ( ( [ [ ( ( ( ( E ^ ( [ [ ^ E E E E Y N v p.S.S.S.S.S.S.S.S.G.G.G.G.G.",
"G.G.G.G.G.F.S.S.S.S.S.S.f.z ( [ ( ( =.P.(.(.Q.m.) ( ( W L H l j k l K K I R E E E E ( ^ E E E T V V M e.S.S.S.S.S.S.S.G.G.G.G.G.",
"G.G.G.G.G.G.F.S.S.S.S.7.K ~ ( ( } <.^.~.L.:.) / l i % % % % % % % % % % % O O e N E E E ^ E E E V V V N 8 S.S.S.S.G.G.G.G.G.G.G.",
"G.G.G.G.G.G.F.F.S.S.8.K ~ ( (  ...o.*.( ( P p e % % i j B P I ~ I I I K l $   .   O a T E E E E L V V V V A C.S.G.G.G.G.G.G.G.G.",
"G.G.G.G.G.G.G.G.F.q I I ( [ .. .[ ( ( I i % % i B ~ [ [ } }  . . ... . . .[ ~ s @ X   X d T E E V V V V N V A A.G.G.G.G.G.G.G.G.",
"G.G.G.G.G.G.G.G.q L I ( [ .. .( ( ~ h % % j W ( [  .<.n........... . . .} ( ^ E E L r .   o s V V V V N V N V A F.F.F.G.G.G.G.G.",
"G.G.G.G.G.G.G.r.K P I [ ..} ( ( K y % p I ( [ =.P.!./.z....... .} [ ( [ ( ^ E E E E E Y w . . $ s s M V V V V N 0 F.G.G.G.G.G.G.",
"G.G.G.G.G.G.f.f B I ( ..} ( ( l % % H ( [ ;.I.(.(.R.-... . .( ( ~ j k j j Y E ^ E E E E E M o   + a a s N V V V f w.G.G.G.G.G.G.",
"G.G.G.G.G.H.g m M I ..[ ( ( j % y R ( X.U./.).U.,... .} ( ( ( ( p P G H h N E E E E E E E E Y +   o a a a M V V N a h.G.G.G.G.G.",
"G.G.G.G.F.8 M k M { } ( ( j % i ~ X.K.!.W.n.@.....} [ ( ( ( ( u { K u o r N E E E E E ^ E E E T @ . o r a a m V V s c H.G.G.G.G.",
"G.G.G.G.d.f M M V [ ( ( l % i ~ ( x.z.O..... . .[ ( ( ( ( ( p ] [ M r o a N E E E E E E E E E E V @ . + a a a m V k a 5.G.G.G.G.",
"G.G.G.F.v m m M R E ( K % y ~ (  ......... .} ( ( ( ( ( ( d ' [ E N r o r V E E E E E E E E E E V N o . @ a a a M M s r V.G.G.G.",
"G.G.G.r.m m M M ^ E N % % I (  ......... .[ ( ( ( ( ( ( k &.[ E E N r X a N E E E ^ E E E E E T V V s X . w a a a M a a 0 G.G.G.",
"G.G.H.x m M m V E T O X K (  .........} ( [ ( ( [ ( ( z J.T.E E E M a o r N E E E E E E E E E Y V N N e   . r a a a a a r H.G.G.",
"G.G.d.f M f f R E e   + T } ........} ( ( ( ( ( ( ( B c.E.` E E E N r X a N E E E E E ^ E E E V V V V M @ . O r a a a a s 9 G.G.",
"G.G.2 a m a M T M X   N ^ ...... .[ ( ( ( ( ( ( ( I G l.T E E E E M r o r V E E ^ E E E E E T V V V V N a .   @ a a a a a t D.G.",
"G.V.r a s e k T @   # ^  .......[ ( ( ( ( ( ( ( I h  .M N E E E E N r o r V E E E E E E E E V N V V V V f #   o w a a a r r s.F.",
"G.5.s a r r M f X   N [ ......( ^ ^ ^ ( ( ( ( ~ p  .N e s E E E E N a o r V E E E E ^ E E Y V V V Y V N N a X . @ r a a r r 9 G.",
"G.C a a # a N w   O ^ ......} E E E E E ^ ^ R p  .B r o f E E E E M r X u N E E E E E E E V V V V V V V V s +   o w a r r r & F.",
"H.t s a @ a a o . s ( .... .^ E E ^ E E E T u { B a o w % ( E E E M r o r N E E E E E T V V V V V V V V V N w   X @ r r r r r g.",
"j.a s r @ a w X . V } ....( E E E E E E E u { l a o w r u } E E E M r o a V E E E E E V V V V V V V V V N N s X   @ # r r r r 5.",
"e.a a r @ a @ . o T .... .E E E E E E E r Q l a r e r ^ u } E E E M r X r N E E E T V V V V V V V V V V V V m o   o @ r r r r 4 ",
"6.a a # @ r @ . @ [ ....( E ^ E E E E Y a a a a s s E E Z m.E E E M a X a N E E Y V V V V V V V V V V V V V m #   o + w r r r , ",
"8 s a # @ r o   $ /  . .^ ^ E E E E E E E E E E E E E E D Y.E E E m r X r N T Y V V V V V V V V V V V V V V M w   o o # w r r * ",
"Z a a # + r o   w W ] ( E E E E E E ^ E E E ^ E E E E E D v.E E E m a o r m V N V V Y V V V Y V Y V V V V V V r . o + + r r r t ",
"C a r @ @ w X   e W ' L Y E E E E E E E E E E E ^ E E E u  .E E E m a o u s V V V V V V V V V V V V V V V V N w   X + + w w r t ",
"C a a @ + w X   e P ! V V V Y T E E E E E E E E E E E E u ..E E E f r o r f V V V V V V V V V V V V V V V M f w . . + o w r r w ",
"c a a @ @ @ X   e l W V V V V V V T T E E E E E T T T T u  .E E E f r o r f V V V V V V V V V V V V V V M f f w . X + + w r r w ",
"C a a @ + @ o   w j I V V V V V V V N V N V V V L V V V y  .E E E f r X a f V V L V V V V V V V V V V N m f s w . . + + @ e e w ",
"3 a a @ @ @ o . w a N V V V V V V V V V V V V V V V V V y  .E E E f a o r s V V V V V V V V V V V N m f f f r w   X o + # r r t ",
"7 a a @ @ + o   @ a k V V V V V V V V V V V V V V V V V i  .E ^ E s r o a f V V V V V V V V V V M f f m m m r w   o + + # r r ; ",
"6.r a w @ + +   o a a M V V V V V V V V V V V V V V V V y  .E E E f r X r f V V V V V V V V N M m f m f f f e @ . o + + # r w , ",
"e.e r w @ + @ . X a a a N V V V V V V V V V V Y V V V V i  .E E E f r o r f V V V V V V N M f f f f f f f a r o . o + + w r e 9 ",
"h.r r w + @ @ X . r a a f N V V V V V V V V V V V V V V y  .E E T s a X r s V V V V N N f f f M m m f f s r e . . o + + w r r w.",
"D.t e w + + @ o   $ a a a m V V V V Y V V V V V V V V Y y  .E E T s r o a f V V V N f f f M f f f f f f r r w   o + + o w r r g.",
"G.< r r @ + + o   X a a a a m V V V V V V V V Y V V V V u  .E E T s u o a f N M m f f f f m f f f m m a r r o   o + + @ r r & D.",
"G.5.r r w o + + .   r a a a a M V V V V V V V V V V V V i  .E E T s r X r s m f f m m f f f f m f f a r r r . . + + o w r r 4 F.",
"G.j.w r r + + + o . o r r a a s m V V V V V V V V V V V i  .E E Y s r o a r f f m f f f f m m f f a r r r o . o + + + w e e s.G.",
"G.G.< e r # + + + .   w r r r r a s N V V V V V V V V V y  .E E Y s a o r r f f f f f m f f f m a r r r r . . o + + + r r t A.G.",
"G.G.s.r r w o + + o . X r e r r r e r f M N M M N M k m e  .E E V s a X r r f m f m f f f f s r r r r r o . o @ @ o w w r 6 G.G.",
"G.G.H.= r r @ + + o X . @ w r r r r r e r s f f f f f f e } E E V f r X r a f f f f f f s a r r r w r @   X o @ o @ w r t H.G.G.",
"G.G.F.e.r r w o + + o .   w r r r r r r r e r a s f f f %  .E E N s a o a a m f f f s a e r r r r r w . . o o @ @ w r r 6.F.G.G.",
"G.G.F.F.; r r # + + + o   . r e r r r r r r r r e u a s e } E E M s r o r r s a r r r r r r r e r r o   o o @ @ o w e w V.G.G.G.",
"G.G.G.G.s.w r w + + o @ o   X w r r r r r r r r r w r r % [ E E m f r o r w r r r r r r r r w r w o   X @ o @ o w r r w.F.G.G.G.",
"G.G.G.G.G.9 r e w o + + + X   X w r r r r r r r r r r r % ( E T a a a o r w r e r r r r r r e r o   o o o + @ @ r r ; D.F.G.G.G.",
"G.G.G.G.G.H.t r e @ o @ o @ X   X w r r r r r r r r r r % ^ E m s f w . r w w r r w r r e r w o   . o @ o @ + w r t h.G.G.G.G.G.",
"G.G.G.G.G.G.h.w r w @ o @ @ o X . . o r w r r r r r r r w E N a f r . X r w r r r e r r r # . . . @ o @ @ o w r r w.G.G.G.G.G.G.",
"G.G.G.G.G.G.F.e.e r w o o @ @ o o X . X w r r r r r r r @ a w r r @ o w w # r r r r r w o . . o @ o o @ o w w r 9 D.G.G.G.G.G.G.",
"G.G.G.G.G.G.G.G.4.w r w @ o o @ @ o X     X w r r w r r w w w w w w w w w r r r r w o   . . o + o @ @ o @ r r < D.G.G.G.G.G.G.G.",
"G.G.G.G.G.G.G.G.F.5 r r w o @ o @ o @ o     . o @ w r r r r r r r w w r r r r @ o . . . o + + o @ @ o @ r r < D.G.G.G.G.G.G.G.G.",
"G.G.G.G.G.G.G.F.S.C.3.r r w @ @ @ o @ o o o X o     . o o w @ w w w w o o X     . X o o + + + + o @ w w w < C.S.F.G.G.G.G.G.G.G.",
"G.G.G.G.G.G.G.S.S.S.S.e.t r w @ o @ @ o @ o o o o X . X             X . . X X o o + + + + + @ + o @ r w 5 S.S.S.S.F.G.G.G.G.G.G.",
"G.G.G.G.G.G.S.S.S.S.S.S.i.* r r w o o @ @ @ @ @ o @ o o o o o o o . o o o o @ o + + + + + + o + r r t y.C.S.S.S.S.S.F.G.G.G.G.G.",
"G.G.G.G.S.S.S.S.S.S.S.S.S.C.1 w r w w o o @ @ o @ @ @ o o @ @ @ o o @ o @ o o @ + + + + + + w r r > B.S.S.S.S.S.S.S.S.G.G.G.G.G.",
"G.G.G.G.S.S.S.S.S.S.S.S.S.S.C.y.; e r e w o o @ @ o o @ @ o o @ @ @ o @ o @ @ o + @ o @ w w r & 1.C.S.S.S.S.S.S.S.S.S.S.F.G.G.G.",
"G.G.S.S.S.S.S.S.S.S.S.S.S.S.S.S.C.y.; e r e w @ @ o @ o @ o @ o @ o @ o @ o o @ @ w w e r & q.C.S.S.S.S.S.S.S.S.S.S.S.S.S.G.G.G.",
"G.G.S.S.S.S.S.S.S.S.S.S.S.S.S.S.S.S.C.2.< w r r r w w w @ @ @ @ @ @ @ @ w w w r e w w , q.C.S.S.S.S.S.S.S.S.S.S.S.S.S.S.S.S.F.G.",
"G.S.S.S.S.S.S.S.S.S.S.S.S.S.S.S.S.S.S.C.C.B.e.> t w r r w r r r r r r w r r r w - 3.B.C.S.S.S.S.S.S.S.S.S.S.S.S.S.S.S.S.S.S.S.F.",
"S.G.S.S.S.S.S.S.S.S.S.S.S.S.S.S.S.S.S.S.S.S.S.C.C.u.e.4.< - * * * t > : 6 w.y.B.S.S.C.S.S.S.S.S.S.S.S.S.S.S.S.S.S.S.S.S.S.S.S.S."
};
