/* XPM */
static char *result[] = {
/* columns rows colors chars-per-pixel */
"64 64 196 2 ",
"   c #9D6F00",
".  c #9F7100",
"X  c #9E790F",
"o  c #9E7E16",
"O  c #A27300",
"+  c #A77800",
"@  c #AB7C00",
"#  c #A57E0C",
"$  c #AF8100",
"%  c #AB840C",
"&  c #AF8A0F",
"*  c #B28300",
"=  c #B78800",
"-  c #BB8C00",
";  c #B58F0F",
":  c #BE9100",
">  c #BD9C00",
",  c #BA930C",
"<  c #A98712",
"1  c #AA8915",
"2  c #A78818",
"3  c #B99612",
"4  c #B5991E",
"5  c #BA9B1A",
"6  c #BFA000",
"7  c #9B8E33",
"8  c #A78E23",
"9  c #B29922",
"0  c #B29E2B",
"q  c #A79A36",
"w  c #BFA827",
"e  c #AEA239",
"r  c #B5A636",
"t  c #B5AA3C",
"y  c #BDBC3C",
"u  c #C39400",
"i  c #C69901",
"p  c #C99A00",
"a  c #C19808",
"s  c #C4A400",
"d  c #CDA202",
"f  c #CCAB00",
"g  c #C4A50D",
"h  c #CDA50B",
"j  c #D4A400",
"k  c #D4AB01",
"l  c #DCAC00",
"z  c #D4AB0B",
"x  c #CEB000",
"c  c #D2B200",
"v  c #DDB201",
"b  c #D2BB01",
"n  c #DCBB00",
"m  c #CAA714",
"M  c #CCAB17",
"N  c #C7A618",
"B  c #D0BB19",
"V  c #E2B200",
"C  c #E6BC00",
"Z  c #EBBB00",
"A  c #E0BB11",
"S  c #C2A825",
"D  c #C8AD22",
"F  c #C8B729",
"G  c #DDBE2A",
"H  c #C1BA35",
"J  c #D8BD3A",
"K  c #BFC53C",
"L  c #D7C200",
"P  c #DBC500",
"I  c #DCCB00",
"U  c #D9CE14",
"Y  c #DAC61A",
"T  c #D3D01F",
"R  c #E4C301",
"E  c #ECC301",
"W  c #E2CB00",
"Q  c #ECCB01",
"!  c #E8C90B",
"~  c #F4C400",
"^  c #F3CA00",
"/  c #FECD00",
"(  c #FCCD08",
")  c #E3D501",
"_  c #ECD404",
"`  c #E7DB00",
"'  c #EADC00",
"]  c #F4D301",
"[  c #FED300",
"{  c #F5DC00",
"}  c #FEDC00",
"|  c #FEDC0B",
" . c #FFD014",
".. c #EDE501",
"X. c #EFE800",
"o. c #ECE30A",
"O. c #F1E500",
"+. c #FEE400",
"@. c #F2EB00",
"#. c #FEEB00",
"$. c #FEE209",
"%. c #F7F200",
"&. c #FEF400",
"*. c #FEFD00",
"=. c #FEF10F",
"-. c #FFFA0C",
";. c #E4E115",
":. c #FEEC1A",
">. c #FFFE13",
",. c #FBF518",
"<. c #FEFD1A",
"1. c #CBC22D",
"2. c #DEDA2A",
"3. c #D0C435",
"4. c #E5DA20",
"5. c #FFD52E",
"6. c #FFD631",
"7. c #FFE727",
"8. c #FFFE23",
"9. c #FCF529",
"0. c #FFFE2A",
"q. c #FAE737",
"w. c #FEFE33",
"e. c #FFFC3A",
"r. c #999B4A",
"t. c #A49C40",
"y. c #9AA457",
"u. c #A7A343",
"i. c #A9A749",
"p. c #B2AE46",
"a. c #ACB04E",
"s. c #B5B74B",
"d. c #A1A855",
"f. c #AAAC52",
"g. c #A5AF5E",
"h. c #ADB052",
"j. c #A6B15E",
"k. c #A9B25B",
"l. c #99AC65",
"z. c #9DB26A",
"x. c #95B173",
"c. c #95B77D",
"v. c #96B97E",
"b. c #9ABB7B",
"n. c #A5B264",
"m. c #A8BC65",
"M. c #A2B56C",
"N. c #A5B96E",
"B. c #A2BA76",
"V. c #BCC246",
"C. c #FFDB4C",
"Z. c #FFDC54",
"A. c #FEE547",
"S. c #FEFD44",
"D. c #FFF54C",
"F. c #FFFC4D",
"G. c #FFEC56",
"H. c #FDF956",
"J. c #FFDF64",
"K. c #FEEA6D",
"L. c #FFFD61",
"P. c #FFFE6C",
"I. c #FFE57C",
"U. c #FEFE74",
"Y. c #FFFE7D",
"T. c #95BC84",
"R. c #94BE89",
"E. c #99BE88",
"W. c #A0BF81",
"Q. c #9BC38B",
"!. c #9EC48B",
"~. c #93C596",
"^. c #9EC792",
"/. c #9ECA96",
"(. c #9FCC98",
"). c #A0C388",
"_. c #FFE684",
"`. c #F1EB83",
"'. c #FEFE84",
"]. c #FFFE8C",
"[. c #FFEB9C",
"{. c #FEFE94",
"}. c #F1EBAC",
"|. c #FEFEA2",
" X c #FEF3AD",
".X c #FFFEAC",
"XX c #FFF0B4",
"oX c #FEF8BE",
"OX c #E4E2C1",
"+X c #FFFAC9",
"@X c #FEFBD3",
"#X c #FEFEDB",
"$X c #FFFDE4",
"%X c #FFFEEC",
"&X c #FFFDF6",
"*X c #FFFEFB",
/* pixels */
"~.~.~.~.~.~.~.~.~.~.~.~.~.~.~.~.~.~.~.~.~.b.m.V.1.Y ! W Q R z d h p p h h N w p.n.c.Q.~.~.~.~.~.~.~.~.~.~.~.~.~.~.~.~.~.~.~.~.~.",
"/.~.~.~.~.~.~.~.~.~.~.~.~.~.~.~.~.~.R.s.Y ] } } } } } } } } [ / / / ~ V j v V V v l m i.c.~.~.~.~.~.~.~.~.~.~.~.~.~.~.~.~.~.~.~.",
"(.(.~.~.~.~.~.~.~.~.~.~.~.~.~.~.b.1._ } +.} } | } } } } } } } / / / / / / Z V Z / ~ ~ ~ E F z.~.~.~.~.~.~.~.~.~.~.~.~.~.~.~.(.(.",
"(.(.(.~.~.~.~.~.~.~.~.~.~.~.R.V.] } | } } #.:.D.D.&.&.&.#.#.+.} / / / / / / / Z V / / / / / ~ F v.~.~.~.~.~.~.~.~.~.~.~.~./.(.(.",
"(.(.(./.~.~.~.~.~.~.~.~.~.j.! +.} } +.&.e..X%X.X>.*.*.*.&.&.&.*.*.#.} / / / / / / V Z / / / / / ! a.~.~.~.~.~.~.~.~.~.~.(.(.(.(.",
"(.(.(.(./.~.~.~.~.~.~.Q.y _ } } } &.L.+X*X@XG.#.+.} } } } } } } [ [ } +.} / / / / Z V V / / / / / / F R.~.~.~.~.~.~.~./.(.(.(.(.",
"(.(.(.(.(./.~.~.~.~.R.F ] } } +.F.@X*X@XK.| } ] Q P n v n n R Q ~ / / / [ } [ / / ~ Z C v } #.+.+.#.#.U b.~.~.~.~.~./.(.(.(.(.(.",
"(.(.(.(.(.(./.~.~.T.B ] } } &.Y.%X XA.| ] v s > > > > > > > > > = $ p ~ / / / / / ~ Z C C n &.&.&.-.-.*.;.b.~.~.~.(.(.(.(.(.(.(.",
"(.(.(.(.(.(.(.(.R.B Q } } &.*.:.| } Q c > > > f C W Q ^ ^ Q R n > O   O : Z / / / ~ C Z Z Z J @X#X#X#X#X#XOXE.~.(.(.(.(.(.(.(.(.",
"(.(.(.(.(.(.(.).F W ] } *.&.} } ] c > > f R } +.+.#.&.&.*.*.&.&.#.] j * O . p / / / Z Z Z Z Z G S.S.S.S.S.S.2.!.(.(.(.(.(.(.(.(.",
"(.(.(.(.(.(./.H Q Q } &.&.} } Q g > f Q } $.>.L.8.*.*.*.*.*.&.#.+.[ / / v @ . @ l Z Z Z Z Z Z V W *.*.*.*.*.*.T ~.(.(.(.(.(.(.(.",
"(.(.(.(.(.(.k.C E { &.&.} } R > g R } +.9.{.%X.X-.*.*.&.+.} } } [ / / / / / p . O p j V Z Z Z Z V ' *.*.*.*.*.*.K (.(.(.(.(.(.(.",
"(.(.(.(.(.B.z C Q #.&.} } n > s 4.} :.].*X%XY.*.*.#.+.} } } } } / / / / / / / l + O u j j V Z Z C j / [ [ [ / [ / N.(.(.(.(.(.(.",
"(.(.(.(.(.w V C { &.} } n > f { 7.H.$X&X{.8.*.&.+.} } } } } } } / / / / / / / / Z + O u j j V Z Z l j / / / / / / A ).(.(.(.(.(.",
"(.(.(.(.j.V V V &.} } W > f ] q.oX@X'.8.*.*.+.} } } } } } } } [ / / / / / / / / / C + O p j j V Z V j Z / / / / / / s.(.(.(.(.(.",
"(.(.(./.M V V Q +.} ^ > s ] } P.'.&.' I ) ] } } } } } } } } } [ / / C v C ~ / / / / l O @ j j j V V j d Z ~ Z ~ Z Z v ).(.(.(.(.",
"(.(.(.k.V V l ^ [ ] f > ^ +.&.*.`.b ..X.X.I s { } } } } } } } / l b o.O.X.I p / / Z Z p   * j j l Z j j l V V V V V V t (.(.(.(.",
"(.(.^.M V V V / / j > n } &.*.b }.0.'.|.{.U.9.x Q } } } } } / f 4.F.9.#.#.&.%.f Z Z Z V *   u j j l l j p V V V V V V z W.(.(.(.",
"(.(.N.l V V C [ C O > } +.*.b o.#X*X*X$X.XP.<.*.f Q } } } [ d q.S.+./ / / / } &.k Z Z Z j O + j j j j j p l V V V V V l h.(.(.(.",
"(.(.r V l j ^ / = . v } *.P ` U.*X@XF.>.*.*.*.*.*.f } } [ k ..-.[ / / / / / / / { u Z Z Z -   * j j j j j p V V V V V V m /.(.(.",
"(.).p V j v ~ l O * ( =.,.3.U.*X*X$X'.G.q.7.-.*.*.%.f [ V I *.[ / / / / / / [ / V k p Z Z j O O u j j j j p l V V V V V V B./.(.",
"(.n.j j p V ~ = . V $.8.J {.%X%X*X&XXXI.Z.6. .+.*.*.) V c *.[ / / / [ / / / / / V l u V Z V -   @ j j j j u l V V V V V V s.(.(.",
"(.r j j p V V + @ ^ &.` ) .X0.S.*X_./ / / / / / [ &.*.6 X.+./ / / / / / / / Z Z l j j i Z Z p   @ u j j p p p V V V V V V S (.(.",
"^.N j p u V u O u $.*.b H.w.*.| %XZ./ / / [ / / / [ %.&.#./ / / / / / / / Z V l p j j u V Z l @ O * p j p p i V V V V V V z W.(.",
").p j u u j @ . V #.%.b w.*.&.( +X5./ / / / / [ / / [ &.[ / / / / / / / ~ V V j u p j j p Z V u O @ i p p p u V V V V V V V n.(.",
"N.j j - p u @ + / &.I ..*.*.+./ XX ./ / / / / / / / / / [ / / / / [ / / V V V j p u p j u Z Z p O @ = p p p u l V V V V V V p.(.",
"f.j j - p u O = } *.b *.*.*.[ / [./ / / [ / / / / / / / / / / / / / / C V V V p p p p p u Z Z j + + @ p p p u j V V V V V V S (.",
"p.j j = u u . u +.*.b *.*.*.[ / _./ / / / / / / / / / / / / / / / / ~ V V V V p u p u u - V Z l @ O @ u p p p j l V V V V V D (.",
"r j d = i * O p O.*.b *.*.*.[ / J./ / / / / / / / / / / / / / / / Z V V V V l p p p @ u u V Z V @ O @ = p p p p V V V l V V M (.",
"S j p = i @ . p ' X.x *.*.*.[ / C./ / / / / [ / / [ / / / / / / Z V V V V V l i u u @ p u Z Z V = O @ @ u p p u u u u u a u a (.",
"S j p = u @ O p ' ' p *.*.*.} / 5./ / / / / / / / / / / / / ~ C V V V V V V j i u u + u @ Z Z V u O = @ u p u = u u u u u u ; /.",
"S j p = - @ O i _ Q d O.*.*.} /  ./ / / Z V V Z ~ / ~ ~ Z C V V V V V V V V p i p @ @ p u Z V l @ O @ = u u p u u u = u u u a ^.",
"S j p @ u @ . u W E V L *.*.#./ / / Z Z V V V V V V V V V V V V V V V V V l p i u   - u u V l j -   @ * u u p - u u - u u u @ ^.",
"S j j u @ @ . i n E C d *.*.&./ / / / Z V V V V V V V V V V V V V V V V V p u p @ O u - j l l j * O @ * - p p u u u u u u - a ^.",
"S j p @ = @   u k C Z j %.*.*.[ / / Z V V V V V V V V V V V V V V V V V j p p u O + p * l l l j * O * * - u p - - - u u u u a E.",
"r j j = = =   u k V C V P *.*.+./ / Z V V V V V V V V V V V V V V V V j u u u . + @ u u l l l j @ O * * - p p - u u u - u u 9 (.",
"u.p j = @ = O = j k C Z i &.*.*./ / V V V V V V V V V V V V V V V V j u u u @ O + u = j l l l p + O * * u p p u u u u u u u 8 (.",
"f.p p = = = O @ j j V Z V P *.*.[ / V V V V V V V V V V V V V V l j p p u u O O @ u u l l l j u O + * * u p u - = u = u u u q (.",
"M.u p u - = + O j j j V C p &.*.#./ Z V V V V V V V V V V l V l p p p u u + O O u @ j l l l p u O @ * * u p u - u u u u u u i.(.",
"E.u u u @ * @ . i j j l C C f *.*.} ~ V V V V V V V V V V V l p u p p u @ . . @ u u l l l j p =   @ @ * u u u u u u = u u u M.(.",
"(.5 p u @ = @ + * j j j V C j ' *.&./ V V V V V V V V V l j p u p u p *   O O u - l l l l p p + + @ = @ u p @ u = u u = u u E.(.",
"(.u.p p = @ @ + O j j j j V Z i %.*.} C V V V V V V V l p u u p p u u O O   @ - j l l l p p u   @ = @ = p u u u u u u u u 8 (.(.",
"(.n.j p u @ @ @ . - p j j j V V f *.*.~ V V V V V V j p p p u u u u       + u p l l l p p p @ O @ @ @ u p u u = u u u u u f.(.(.",
"(.W.a u u = @ = . + p p p j j V l b *.#.V V l V V p p u p p p p u + O   O - - l l l j p p p + O u @ = u p u u u = u u = u W.E.(.",
"(./.e p p @ @ @ @ . - p p p p p d p ) *.[ V V l p u p u i p p p @ O   O - * l l j p p p p * O @ @ u @ j p @ = u @ @ @ = o (.(.(.",
"(./.M.a p u @ u $ . O p p p p p p p : ..&.C V j p p p p u i p @ O     - @ l l j p p p p u O @ @ @ @ u p a @ @ @ @ u @ @ d.(.(.(.",
"(.(.^.N p u @ @ * @ . * p p p p p p p : O.@.V j p u p u p u = .     * - j j p p p p p p @ O @ * = @ u p u @ = @ u @ @ & W.(.(.(.",
"(.(.(.g.u j @ u * * O O : p p p p p p p - @.] l p p u p u u . . + u * u p p p p p p p - O + @ * @ u p u = @ @ = @ @ @ t.(.(.(.(.",
"(.(.(.^.5 p u @ @ @ @ O O u p p p p p p p - O.E p p p i u O . @ u * i p p p p p p p - O O @ * * u u p = $ $ * * $ $ $ !.(.(.(.(.",
"(.(.(.(.n.u p u @ = u @ O + u p p p p p p p : ' V i p i + O = p * u p p p p p p p u O O @ * * $ u u u @ * * $ $ $ $ d.(.(.(.(.(.",
"(.(.(.(./.0 j u = @ u @ @ . + u u p p p p p p - W j i - = p i * u p p p p p p p u O O @ * * $ = j p = @ @ * * @ $ 1 !.(.(.(.(.(.",
"(.(.(.(./.W.a p u @ @ @ @ @ . + u p p p p p p p : k j i i i @ i p p p p p p p - O   @ * * * * u u u @ @ * * * * % M.(.(.(.(.(.(.",
"(.(.(.(.(.(.g.u p = @ u @ @ @ O O = u p p p p p p - u p : = p p p p p p p p @ . O @ * * * * - p u @ = @ = @ @ * t.(.(.(.(.(.(.(.",
"(.(.(.(.(.(./.r p p = @ @ u @ @ O O + u p p p p p p u = = p i p p p p p - O O O @ * * * $ = i p @ = @ @ * * * 8 ^.(.(.(.(.(.(.(.",
"(.(.(.(.(.(.(.^.0 p p @ @ u @ u @ @ . . + = u p p i p p p p p p p i = O . O @ * * * * * * i p = @ = @ = @ @ 1 W.(.(.(.(.(.(.(.(.",
"(.(.(.(.(.(.(./.E.4 p u = @ @ @ = @ @ + O O O @ * - - : : - - * + .   O + * @ * * * * * u p = $ = @ = @ * 1 b.~.(.(.(.(.(.(.(.(.",
"(.(.(.(.(.(.(.~.E.R.9 p u = @ @ = * @ @ * @ O O . . . O . . O + O O @ @ * * * * * $ = i i = $ $ $ $ $ $ < T.~.~.~./.(.(.(.(.(.(.",
"(.(.(.(.(.(.~.~.~.~.R.e p p u = @ = = * @ * = @ @ @ @ @ + @ @ @ * @ = @ * * = @ $ = i i * $ $ $ $ $ $ 2 T.~.~.~.~.~.(.(.(.(.(.(.",
"(.(.(.(.(.~.~.~.~.~.~.R.t.a p u = @ * * = = @ = @ @ @ = @ @ @ = * * * * = @ * = : p u $ $ $ $ $ $ $ 7 R.R.~.~.~.~.~.~.(.(.(.(.(.",
"(.(.(.(.~.~.~.~.~.~.~.~.E.x.a p i u * * = @ = @ @ u = @ = = = @ * * * * @ @ u p p - + @ @ + + + # y.~.~.~.~.~.~.~.~.~.~./.(.(.(.",
"(.(.(.~.~.~.~.~.~.~.~.~.~.~.R.i.u p p u u = @ @ @ @ @ @ @ @ = @ = @ @ - i i p u + . . . . . . 7 T.~.~.~.~.~.~.~.~.~.~.~.~./.(.(.",
"(.~.~.~.~.~.~.~.~.~.~.~.~.~.~.~.T.t.a p u p u u u u @ u = = u = u i p p p u @   . . . . X 7 x.~.~.~.~.~.~.~.~.~.~.~.~.~.~.~././.",
"(.~.~.~.~.~.~.~.~.~.~.~.~.~.~.~.~.~.R.d.9 a p p p u p p p p p p p i u @ #   . .   . o r.c.~.~.~.~.~.~.~.~.~.~.~.~.~.~.~.~.~.~./.",
"~.~.~.~.~.~.~.~.~.~.~.~.~.~.~.~.~.~.~.~.E.T.z.i.e 0 a a 3 , ; & < X X X o o 8 r.l.c.~.~.~.~.~.~.~.~.~.~.~.~.~.~.~.~.~.~.~.~.~.~."
};
