/* XPM */
static char *result[] = {
/* columns rows colors chars-per-pixel */
"64 64 218 2 ",
"   c #9F7100",
".  c #9F7200",
"X  c #9F7201",
"o  c #9F770A",
"O  c #9E790D",
"+  c #9E790E",
"@  c #9D7B12",
"#  c #9E7F18",
"$  c #A07200",
"%  c #A57700",
"&  c #A47701",
"*  c #A67800",
"=  c #A77900",
"-  c #A87A00",
";  c #A97B00",
":  c #AA7C00",
">  c #AB7D00",
",  c #AF8100",
"<  c #AE8001",
"1  c #AE8101",
"2  c #AF8101",
"3  c #AF8200",
"4  c #AF8201",
"5  c #AD8103",
"6  c #AA8008",
"7  c #B08200",
"8  c #B28400",
"9  c #BA9009",
"0  c #B9910B",
"q  c #B9920B",
"w  c #BF9509",
"e  c #B9920C",
"r  c #B9930E",
"t  c #B8930F",
"y  c #AC8B16",
"u  c #A78D1E",
"i  c #AA8B18",
"p  c #AA8B19",
"a  c #AA8C1C",
"s  c #B89411",
"d  c #B89513",
"f  c #9C8625",
"g  c #A68E22",
"h  c #A59128",
"j  c #A4922C",
"k  c #AF9B2A",
"l  c #B09A27",
"z  c #B09B27",
"x  c #B49E27",
"c  c #B19C2B",
"v  c #B19D2C",
"b  c #B09E2F",
"n  c #A39431",
"m  c #A29636",
"M  c #AF9F32",
"N  c #A79B38",
"B  c #A69B3B",
"V  c #A0993C",
"C  c #A59C3D",
"Z  c #A49D3F",
"A  c #B09F30",
"S  c #B9A52A",
"D  c #AFA035",
"F  c #BEAF35",
"G  c #BDAF37",
"H  c #BBAF3A",
"J  c #BAAF3C",
"K  c #B8AF3F",
"L  c #C09100",
"P  c #C09200",
"I  c #C19200",
"U  c #C69800",
"Y  c #C79800",
"T  c #C19F13",
"R  c #CBA50F",
"E  c #D7A802",
"W  c #D2AB0B",
"Q  c #D3AB0B",
"!  c #D2AA0C",
"~  c #D2AC0E",
"^  c #D2AC0F",
"/  c #CFAC13",
"(  c #CDAC17",
")  c #CFAC16",
"_  c #CBAC19",
"`  c #CDAC19",
"'  c #CCAD1B",
"]  c #CAAD1E",
"[  c #D1AC11",
"{  c #DCBB15",
"}  c #E1B100",
"|  c #E1B200",
" . c #E2B200",
".. c #ECBD00",
"X. c #EFBF00",
"o. c #C8AD21",
"O. c #C1AD2A",
"+. c #C0AD2B",
"@. c #C0AD2C",
"#. c #C1AE2F",
"$. c #CCB526",
"%. c #CCBB2E",
"&. c #D0BD2B",
"*. c #C1AF30",
"=. c #C0AF32",
"-. c #C7BB33",
";. c #BDC73E",
":. c #EFC307",
">. c #EAC20B",
",. c #F0C000",
"<. c #F6C500",
"1. c #F6C801",
"2. c #F9CA01",
"3. c #FCCC01",
"4. c #FECD00",
"5. c #FECE00",
"6. c #FFCE00",
"7. c #FDD100",
"8. c #FFD100",
"9. c #FED201",
"0. c #F2D903",
"q. c #E5C110",
"w. c #FEE300",
"e. c #FFE300",
"r. c #FEE400",
"t. c #FFE400",
"y. c #F5F106",
"u. c #FAF901",
"i. c #FBFB00",
"p. c #FFFE00",
"a. c yellow",
"s. c #FEFE01",
"d. c #FDFE06",
"f. c #FEFE06",
"g. c #FFFE06",
"h. c #C1CB39",
"j. c #9F9B42",
"k. c #9E9E46",
"l. c #9D9E48",
"z. c #A09C42",
"x. c #9DA04D",
"c. c #9CA251",
"v. c #9CA453",
"b. c #9BA659",
"n. c #9AA65B",
"m. c #9AA95F",
"M. c #B4AF46",
"N. c #B6B042",
"B. c #B0B24A",
"V. c #ADB656",
"C. c #ABBB53",
"Z. c #A6B65B",
"A. c #A9B65C",
"S. c #B0B551",
"D. c #97AA65",
"F. c #99AC67",
"G. c #97B06E",
"H. c #9BB36D",
"J. c #96B070",
"K. c #96B476",
"L. c #9DBA76",
"P. c #96B478",
"I. c #95B67D",
"U. c #95B87D",
"Y. c #98BC7F",
"T. c #A0B264",
"R. c #A5BC62",
"E. c #A0BB69",
"W. c #B7C35B",
"Q. c #F9F649",
"!. c #FFFF4C",
"~. c #FEFE4D",
"^. c #93B883",
"/. c #94BB84",
"(. c #96BE84",
"). c #9ABB87",
"_. c #94BD88",
"`. c #94BE89",
"'. c #94BF8B",
"]. c #91BD8C",
"[. c #B2BE87",
"{. c #97C089",
"}. c #95C08B",
"|. c #93C08E",
" X c #94C08D",
".X c #93C190",
"XX c #93C291",
"oX c #93C292",
"OX c #93C392",
"+X c #93C393",
"@X c #95C492",
"#X c #95C493",
"$X c #92C394",
"%X c #93C494",
"&X c #92C495",
"*X c #93C495",
"=X c #93C596",
"-X c #94C595",
";X c #94C596",
":X c #94C696",
">X c #95C696",
",X c #9BC997",
"<X c #9CC894",
"1X c #9DC994",
"2X c #9ECA95",
"3X c #9FCA95",
"4X c #9DCA96",
"5X c #9CCA97",
"6X c #9DCA97",
"7X c #9FCA96",
"8X c #9FCB96",
"9X c #9FCB97",
"0X c #9DCB98",
"qX c #9ECC98",
"wX c #9FCC98",
"eX c #F7F4C8",
"rX c #FFFFD5",
"tX c #FEFED6",
/* pixels */
";X=X=X=X=X=X=X=X=X=X=X=X=X=X=X=X=X=X=X=X=X=X=X=X=X=X$XT R R R R R R R R S &X=X=X=X=X=X=X=X=X=X=X=X=X=X=X=X=X=X=X=X=X=X=X=X=X=X;X",
"5X>X=X=X=X=X=X=X=X=X=X=X=X=X=X=X=X=X=X=X=X=X=X=X=X=X].E } } } } } } } } _ oX=X=X=X=X=X=X=X=X=X=X=X=X=X=X=X=X=X=X=X=X=X=X=X=X>X5X",
"qX5X>X=X=X=X=X=X=X=X=X=X=X=X=X=X=X=X=X=X=X=X=X=X=X=X^...<.<.<.<.<.<.<.<.{ .X=X=X=X=X=X=X=X=X=X=X=X=X=X=X=X=X=X=X=X=X=X=X=X>X5XqX",
"wXqX5X>X=X=X=X=X=X=X=X=X=X=X=X=X=X=X=X=X=X=X=X=X=X=XP.1.4.4.4.4.4.4.4.4.q. X=X=X=X=X=X=X=X=X=X=X=X=X=X=X=X=X=X=X=X=X=X=X>X5XqXwX",
"wXwXqX5X>X=X=X=X=X=X=X=X=X=X=X=X=X=X=X=X=X=X=X=X=X=XH.2.6.6.6.6.6.6.6.4.>.}.=X=X=X=X=X=X=X=X=X=X=X=X=X=X=X=X=X=X=X=X=X>X5XqXwXwX",
"wXwXwXqX5X>X=X=X=X=X=X=X=X=X=X=X=X=X=X=X=X=X=X=X=X=XT.3.6.6.6.6.6.6.6.5.:.{.=X=X=X=X=X=X=X=X=X=X=X=X=X=X=X=X=X=X=X=X>X5XqXwXwXwX",
"wXwXwXwXqX5X>X=X=X=X=X=X=X=X=X=X=X=X=X=X=X=X=X=X=X=XZ.w.t.t.t.e.t.t.t.r.0.(.=X=X=X=X=X=X=X=X=X=X=X=X=X=X=X=X=X=X=X>X5XqXwXwXwXwX",
"wXwXwXwXwXqX5X>X=X=X=X=X=X=X=X=X=X=X=X=X=X=X=X=X=X=XC.d.g.g.g.g.g.g.g.f.y.Y.=X=X=X=X=X=X=X=X=X=X=X=X=X=X=X=X=X=X>X5XqXwXwXwXwXwX",
"wXwXwXwXwXwXqX5X>X=X=X=X=X=X=X=X=X=X=X=X=X=X=X=X=X=X[.tXrXrXrXrXrXrXrXrXeX).=X=X=X=X=X=X=X=X=X=X=X=X=X=X=X=X=X>X5XqXwXwXwXwXwXwX",
"wXwXwXwXwXwXwXqX5X>X=X=X=X=X=X=X=X=X=X=X=X=X=X=X=X=XW.~.!.!.!.!.!.!.!.!.Q.L.=X=X=X=X=X=X=X=X=X=X=X=X=X=X=X=X>X5XqXwXwXwXwXwXwXwX",
"wXwXwXwXwXwXwXwXqX5X>X=X=X=X=X=X=X=X=X=X=X=X=X=X=X=X;.s.a.a.a.a.a.a.a.a.u.E.=X=X=X=X=X=X=X=X=X=X=X=X=X=X=X>X5XqXwXwXwXwXwXwXwXwX",
"wXwXwXwXwXwXwXwXwXqX5X>X=X=X=X=X=X=X=X=X=X=X=X=X=X=Xh.s.p.p.p.p.p.p.p.p.i.R.=X=X=X=X=X=X=X=X=X=X=X=X=X=X>X5XqXwXwXwXwXwXwXwXwXwX",
"wXwXwXwXwXwXwXwXwXwXqX5X>X=X=X=X=X=X=X=X=X=X=X=X=X=X-.9.8.8.8.8.8.8.8.8.7.A.=X=X=X=X=X=X=X=X=X=X=X=X=X>X5XqXwXwXwXwXwXwXwXwXwXwX",
"wXwXwXwXwXwXwXwXwXwXwXqX5X>X=X=X=X=X=X=X=X=X=X=X=X=X%.5.6.6.6.6.6.6.6.6.4.V.=X=X=X=X=X=X=X=X=X=X=X=X>X5XqXwXwXwXwXwXwXwXwXwXwXwX",
"wXwXwXwXwXwXwXwXwXwXwXwXqX5X>X=X=X=X=X=X=X=X=X=X=X=X&.4.6.6.6.6.6.6.6.6.5.S.=X=X=X=X=X=X=X=X=X=X=X>X5XqXwXwXwXwXwXwXwXwXwXwXwXwX",
"wXwXwXwXwXwXwXwXwXwXwXwXwXqX5X>X=X;X:X:X:X:X:X:X:X;X$.X.,.,.,.,.,.,.,.,.,.B.:X:X:X:X:X:X:X:X;X=X>X5XqXwXwXwXwXwXwXwXwXwXwXwXwXwX",
"wXwXwXwXwXwXwXwXwXwXwXwXwXwXqX5X>X,X0X0X0X0X0X0X0X6Xo.}  . . . . . . . . .M.0X0X0X0X0X0X0X0X,X>X5XqXwXwXwXwXwXwXwXwXwXwXwXwXwXwX",
"wXwXwXwXwXwXwXwXwXwXwXwXwXwXwX0X:X>X5XqXwXwXwXwXwX9X] }  . . . . . . . . .N.wXwXwXwXwXwXqX5X>X:X0XwXwXwXwXwXwXwXwXwXwXwXwXwXwXwX",
"wXwXwXwXwXwXwXwXwXwXwXwXwXwXwX0X:X=X>X5XqXwXwXwXwX8X' }  . . . . . . . . .K wXwXwXwXwXqX5X>X=X:X0XwXwXwXwXwXwXwXwXwXwXwXwXwXwXwX",
"wXwXwXwXwXwXwXwXwXwXwXwXwXwXwX0X:X=X=X>X5XqXwXwXwX8X` }  . . . . . . . . .J wXwXwXwXqX5X>X=X=X:X0XwXwXwXwXwXwXwXwXwXwXwXwXwXwXwX",
"wXwXwXwXwXwXwXwXwXwXwXwXwXwXwX0X:X=X=X=X>X5XqXwXwX8X( }  . . . . . . . . .H wXwXwXqX5X>X=X=X=X:X0XwXwXwXwXwXwXwXwXwXwXwXwXwXwXwX",
"wXwXwXwXwXwXwXwXwXwXwXwXwXwXwX0X:X=X=X=X=X>X5XqXwX7X) }  . . . . . . . . .G wXwXqX5X>X=X=X=X=X:X0XwXwXwXwXwXwXwXwXwXwXwXwXwXwXwX",
"wXwXwXwXwXwXwXwXwXwXwXwXwXwXwX0X:X=X=X=X=X=X>X5XqX3X/ }  . . . . . . . . .F wXqX5X>X=X=X=X=X=X:X0XwXwXwXwXwXwXwXwXwXwXwXwXwXwXwX",
"wXwXwXwXwXwXwXwXwXwXwXwXwXwXwX0X:X=X=X=X=X=X=X>X5X2X[ }  . . . . . . . .| =.qX5X>X=X=X=X=X=X=X:X0XwXwXwXwXwXwXwXwXwXwXwXwXwXwXwX",
"wXwXwXwXwXwXwXwXwXwXwXwXwXwXwX0X:X=X=X=X=X=X=X=X>X1X^ }  . . . . . . . .} *.5X>X=X=X=X=X=X=X=X:X0XwXwXwXwXwXwXwXwXwXwXwXwXwXwXwX",
"wXwXwXwXwXwXwXwXwXwXwXwXwXwXwX0X:X=X=X=X=X=X=X=X=X#X~ }  . . . . . . . .} #.>X=X=X=X=X=X=X=X=X:X0XwXwXwXwXwXwXwXwXwXwXwXwXwXwXwX",
"wXwXwXwXwXwXwXwXwXwXwXwXwXwXwX0X:X=X=X=X=X=X=X=X=XOX! }  . . . . . . . .| @.=X=X=X=X=X=X=X=X=X:X0XwXwXwXwXwXwXwXwXwXwXwXwXwXwXwX",
"wXwXwXwXwXwXwXwXwXwXwXwXwXwXwX0X:X=X=X=X=X=X=X=X=XOXW }  . . . . . . . .| +.=X=X=X=X=X=X=X=X=X:X0XwXwXwXwXwXwXwXwXwXwXwXwXwXwXwX",
"wXwXwXwXwXwXwXwXwXwXwXwXwXwXwX0X:X=X=X=X=X=X=X=X=XOXQ  . . . . . . . . . .O.=X=X=X=X=X=X=X=X=X:X0XwXwXwXwXwXwXwXwXwXwXwXwXwXwXwX",
"wXwXwXwXwXwXwXwXwXwXwXwXwXwXwX0X:X=X=X=X=X=X=X=X=XOXw Y Y Y Y Y Y Y Y Y U x =X=X=X=X=X=X=X=X=X:X0XwXwXwXwXwXwXwXwXwXwXwXwXwXwXwX",
"wXwXwXwXwXwXwXwXwXwXwXwXwXwXwX0X:X=X=X=X=X=X=X=X=XOX9 L I I I I I I I I L z =X=X=X=X=X=X=X=X=X:X0XwXwXwXwXwXwXwXwXwXwXwXwXwXwXwX",
"wXwXwXwXwXwXwXwXwXwXwXwXwXwXwX0X:X=X=X=X=X=X=X=X=XOX9 L I I I I I I I I L z =X=X=X=X=X=X=X=X=X:X0XwXwXwXwXwXwXwXwXwXwXwXwXwXwXwX",
"wXwXwXwXwXwXwXwXwXwXwXwXwXwXwX0X:X=X=X=X=X=X=X=X=XOX9 L I I I I I I I I L z =X=X=X=X=X=X=X=X=X:X0XwXwXwXwXwXwXwXwXwXwXwXwXwXwXwX",
"wXwXwXwXwXwXwXwXwXwXwXwXwXwXwX0X:X=X=X=X=X=X=X=X=XOX9 L I I I I I I I I L z =X=X=X=X=X=X=X=X=X:X0XwXwXwXwXwXwXwXwXwXwXwXwXwXwXwX",
"wXwXwXwXwXwXwXwXwXwXwXwXwXwXwX0X:X=X=X=X=X=X=X=X=XOX9 L I I I I I I I I L z =X=X=X=X=X=X=X=X=X:X0XwXwXwXwXwXwXwXwXwXwXwXwXwXwXwX",
"wXwXwXwXwXwXwXwXwXwXwXwXwXwXwX0X:X=X=X=X=X=X=X=X=XOX9 L I I I I I I I I L z =X=X=X=X=X=X=X=X=X:X0XwXwXwXwXwXwXwXwXwXwXwXwXwXwXwX",
"wXwXwXwXwXwXwXwXwXwXwXwXwXwXwX0X:X=X=X=X=X=X=X=X=XOX9 L I I I I I I I I L l =X=X=X=X=X=X=X=X=X:X0XwXwXwXwXwXwXwXwXwXwXwXwXwXwXwX",
"wXwXwXwXwXwXwXwXwXwXwXwXwXwXwX0X:X=X=X=X=X=X=X=X=XOX0 L I I I I I I I I P k =X=X=X=X=X=X=X=X=X:X0XwXwXwXwXwXwXwXwXwXwXwXwXwXwXwX",
"wXwXwXwXwXwXwXwXwXwXwXwXwXwXwX0X:X=X=X=X=X=X=X=X=X@Xq L I I I I I I I I P c >X=X=X=X=X=X=X=X=X:X0XwXwXwXwXwXwXwXwXwXwXwXwXwXwXwX",
"wXwXwXwXwXwXwXwXwXwXwXwXwXwXwX0X:X=X=X=X=X=X=X=X>X<Xe L I I I I I I I I P v 5X>X=X=X=X=X=X=X=X:X0XwXwXwXwXwXwXwXwXwXwXwXwXwXwXwX",
"wXwXwXwXwXwXwXwXwXwXwXwXwXwXwX0X:X=X=X=X=X=X=X>X5X2Xr L I I I I I I I I P b qX5X>X=X=X=X=X=X=X:X0XwXwXwXwXwXwXwXwXwXwXwXwXwXwXwX",
"wXwXwXwXwXwXwXwXwXwXwXwXwXwXwX0X:X=X=X=X=X=X>X5XqX3Xt L I I I I I I I I P A wXqX5X>X=X=X=X=X=X:X0XwXwXwXwXwXwXwXwXwXwXwXwXwXwXwX",
"wXwXwXwXwXwXwXwXwXwXwXwXwXwXwX0X:X=X=X=X=X>X5XqXwX3Xs L I I I I I I I I P M wXwXqX5X>X=X=X=X=X:X0XwXwXwXwXwXwXwXwXwXwXwXwXwXwXwX",
"wXwXwXwXwXwXwXwXwXwXwXwXwXwXwX0X:X=X=X=X>X5XqXwXwX3Xd L L L L L L L L L P D wXwXwXqX5X>X=X=X=X:X0XwXwXwXwXwXwXwXwXwXwXwXwXwXwXwX",
"wXwXwXwXwXwXwXwXwXwXwXwXwXwXwX0X:X=X=X>X5XqXwXwXwX7Xy 8 8 8 8 8 8 8 8 8 8 N wXwXwXwXqX5X>X=X=X:X0XwXwXwXwXwXwXwXwXwXwXwXwXwXwXwX",
"wXwXwXwXwXwXwXwXwXwXwXwXwXwXwX0X:X=X>X5XqXwXwXwXwX8Xi , 7 7 7 7 7 7 7 7 3 B wXwXwXwXwXqX5X>X=X:X0XwXwXwXwXwXwXwXwXwXwXwXwXwXwXwX",
"wXwXwXwXwXwXwXwXwXwXwXwXwXwXwX0X:X>X5XqXwXwXwXwXwX8Xp , 7 7 7 7 7 7 7 7 3 C wXwXwXwXwXwXqX5X>X:X0XwXwXwXwXwXwXwXwXwXwXwXwXwXwXwX",
"wXwXwXwXwXwXwXwXwXwXwXwXwXwXqX5X>X,X0X0X0X0X0X0X0X4Xa , 7 7 7 7 7 7 7 7 , Z 0X0X0X0X0X0X0X0X,X>X5XqXwXwXwXwXwXwXwXwXwXwXwXwXwXwX",
"wXwXwXwXwXwXwXwXwXwXwXwXwXqX5X>X=X;X:X:X:X:X:X:X:X-Xu , 7 7 7 7 7 7 7 7 3 z.:X:X:X:X:X:X:X:X;X=X>X5XqXwXwXwXwXwXwXwXwXwXwXwXwXwX",
"wXwXwXwXwXwXwXwXwXwXwXwXqX5X>X=X=X=X=X=X=X=X=X=X=X*Xg , 7 7 7 7 7 7 7 7 , k.=X=X=X=X=X=X=X=X=X=X=X>X5XqXwXwXwXwXwXwXwXwXwXwXwXwX",
"wXwXwXwXwXwXwXwXwXwXwXqX5X>X=X=X=X=X=X=X=X=X=X=X=X=Xh , 7 7 7 7 7 7 7 7 , x.=X=X=X=X=X=X=X=X=X=X=X=X>X5XqXwXwXwXwXwXwXwXwXwXwXwX",
"wXwXwXwXwXwXwXwXwXwXqX5X>X=X=X=X=X=X=X=X=X=X=X=X=X=Xj 3 7 7 7 7 7 7 7 7 , v.=X=X=X=X=X=X=X=X=X=X=X=X=X>X5XqXwXwXwXwXwXwXwXwXwXwX",
"wXwXwXwXwXwXwXwXwXqX5X>X=X=X=X=X=X=X=X=X=X=X=X=X=X=Xn 4 7 7 7 7 7 7 7 7 , b.=X=X=X=X=X=X=X=X=X=X=X=X=X=X>X5XqXwXwXwXwXwXwXwXwXwX",
"wXwXwXwXwXwXwXwXqX5X>X=X=X=X=X=X=X=X=X=X=X=X=X=X=X=Xm 4 7 7 7 7 7 7 7 7 , m.=X=X=X=X=X=X=X=X=X=X=X=X=X=X=X>X5XqXwXwXwXwXwXwXwXwX",
"wXwXwXwXwXwXwXqX5X>X=X=X=X=X=X=X=X=X=X=X=X=X=X=X=X=XV 4 7 7 7 7 7 7 7 7 2 F.=X=X=X=X=X=X=X=X=X=X=X=X=X=X=X=X>X5XqXwXwXwXwXwXwXwX",
"wXwXwXwXwXwXqX5X>X=X=X=X=X=X=X=X=X=X=X=X=X=X=X=X=X=Xj.3 7 7 7 7 7 7 7 7 1 G.=X=X=X=X=X=X=X=X=X=X=X=X=X=X=X=X=X>X5XqXwXwXwXwXwXwX",
"wXwXwXwXwXqX5X>X=X=X=X=X=X=X=X=X=X=X=X=X=X=X=X=X=X=Xl.3 7 7 7 7 7 7 7 7 < K.=X=X=X=X=X=X=X=X=X=X=X=X=X=X=X=X=X=X>X5XqXwXwXwXwXwX",
"wXwXwXwXqX5X>X=X=X=X=X=X=X=X=X=X=X=X=X=X=X=X=X=X=X=Xc., 7 7 7 7 7 7 7 , < U.=X=X=X=X=X=X=X=X=X=X=X=X=X=X=X=X=X=X=X>X5XqXwXwXwXwX",
"wXwXwXqX5X>X=X=X=X=X=X=X=X=X=X=X=X=X=X=X=X=X=X=X=X=Xn.3 7 7 7 7 , , , , 5 /.=X=X=X=X=X=X=X=X=X=X=X=X=X=X=X=X=X=X=X=X>X5XqXwXwXwX",
"wXwXqX5X>X=X=X=X=X=X=X=X=X=X=X=X=X=X=X=X=X=X=X=X=X=XD.& % * = - ; : : > 6 `.=X=X=X=X=X=X=X=X=X=X=X=X=X=X=X=X=X=X=X=X=X>X5XqXwXwX",
"wXqX5X>X=X=X=X=X=X=X=X=X=X=X=X=X=X=X=X=X=X=X=X=X=X=XJ.X $ $ $ $ $       O '.=X=X=X=X=X=X=X=X=X=X=X=X=X=X=X=X=X=X=X=X=X=X>X5XqXwX",
"qX5X>X=X=X=X=X=X=X=X=X=X=X=X=X=X=X=X=X=X=X=X=X=X=X=XI.X $ $ $ $ $ $ $ . @ |.=X=X=X=X=X=X=X=X=X=X=X=X=X=X=X=X=X=X=X=X=X=X=X>X5XqX",
"5X>X=X=X=X=X=X=X=X=X=X=X=X=X=X=X=X=X=X=X=X=X=X=X=X=X_.X $ $ $ $ $ $ $ $ # XX=X=X=X=X=X=X=X=X=X=X=X=X=X=X=X=X=X=X=X=X=X=X=X=X>X5X",
";X=X=X=X=X=X=X=X=X=X=X=X=X=X=X=X=X=X=X=X=X=X=X=X=X=X+X+ o o o o o o o o f %X=X=X=X=X=X=X=X=X=X=X=X=X=X=X=X=X=X=X=X=X=X=X=X=X=X;X"
};
