/* XPM */
static char *result[] = {
/* columns rows colors chars-per-pixel */
"64 64 193 2 ",
"   c #9F7100",
".  c #9F7608",
"X  c #9E790E",
"o  c #9E7C12",
"O  c #A27400",
"+  c #A77800",
"@  c #AB7C00",
"#  c #A37E0F",
"$  c #AF8100",
"%  c #AC850B",
"&  c #B28300",
"*  c #B78800",
"=  c #BB8C00",
"-  c #B18C0F",
";  c #BF9000",
":  c #BD9D00",
">  c #B7910F",
",  c #BD950C",
"<  c #A78919",
"1  c #B69515",
"2  c #B89614",
"3  c #B99816",
"4  c #B89B1D",
"5  c #9D8320",
"6  c #9D9236",
"7  c #9B923B",
"8  c #A58C21",
"9  c #A3902A",
"0  c #AE9C2E",
"q  c #BE9729",
"w  c #AB9E33",
"e  c #A69B3A",
"r  c #B8A32A",
"t  c #BDAB2D",
"y  c #ADA63D",
"u  c #B4A839",
"i  c #C29300",
"p  c #C69901",
"a  c #CA9B00",
"s  c #C59708",
"d  c #C29909",
"f  c #C49C18",
"g  c #C3A300",
"h  c #CCA201",
"j  c #CDA900",
"k  c #CCA40B",
"l  c #D3A400",
"z  c #D3AC01",
"x  c #DCAC00",
"c  c #D3AB0C",
"v  c #D5B201",
"b  c #D6B507",
"n  c #DEB100",
"m  c #DCBC00",
"M  c #CEAA14",
"N  c #C3A319",
"B  c #DDBA12",
"V  c #D4B81D",
"C  c #E2B200",
"Z  c #E2BC02",
"A  c #ECBC00",
"S  c #E1B708",
"D  c #E8BF09",
"F  c #F0BF00",
"G  c #E6BB11",
"H  c #C29A2F",
"J  c #C1AC2A",
"K  c #C2B22E",
"L  c #C2B535",
"P  c #DBBC32",
"I  c #D7C300",
"U  c #D9C701",
"Y  c #DBC900",
"T  c #DACE15",
"R  c #DAD619",
"E  c #E3C201",
"W  c #EBC201",
"Q  c #E5CB03",
"!  c #ECCA00",
"~  c #E5C30C",
"^  c #EBC208",
"/  c #F5C400",
"(  c #F8C700",
")  c #F4CA01",
"_  c #FECD00",
"`  c #FECF0C",
"'  c #E5D500",
"]  c #EAD400",
"[  c #EBDB00",
"{  c #F4D300",
"}  c #FED200",
"|  c #F7DC00",
" . c #FEDC00",
".. c #FED109",
"X. c #FFDD0D",
"o. c #E2C417",
"O. c #FFDF15",
"+. c #FED91D",
"@. c #EDE200",
"#. c #F5E500",
"$. c #FEE400",
"%. c #FEEA00",
"&. c #FEE90B",
"*. c #F5F303",
"=. c #FEF400",
"-. c #FFFD01",
";. c #FEF30D",
":. c #FFFE09",
">. c #FFEC19",
",. c #FFF417",
"<. c #FFFC1C",
"1. c #ECE029",
"2. c #FEE027",
"3. c #FFF926",
"4. c #FFFC2D",
"5. c #FFE232",
"6. c #FEE53B",
"7. c #FFF638",
"8. c #FFFE3C",
"9. c #9C9944",
"0. c #98A359",
"q. c #A4A145",
"w. c #AFAB42",
"e. c #A3A54B",
"r. c #ADAF4E",
"t. c #B8B843",
"y. c #B1B14B",
"u. c #A3A954",
"i. c #AAAD52",
"p. c #A6B05D",
"a. c #A9B25A",
"s. c #B1B753",
"d. c #9DAD61",
"f. c #9DB46E",
"g. c #99B573",
"h. c #98B678",
"j. c #A6B363",
"k. c #A3B56A",
"l. c #A6BA6F",
"z. c #A3BB75",
"x. c #A1BA76",
"c. c #CCA946",
"v. c #D5B547",
"b. c #D5B967",
"n. c #D5BE79",
"m. c #A7C06C",
"M. c #FFD943",
"N. c #E9C957",
"B. c #FFE544",
"V. c #FEE54C",
"C. c #FEFD42",
"Z. c #FEE859",
"A. c #FFF352",
"S. c #FFFD5A",
"D. c #D9C768",
"F. c #EACC66",
"G. c #E1D47F",
"H. c #FEEE63",
"J. c #FFEB6A",
"K. c #FEFA65",
"L. c #FFFD68",
"P. c #FEE871",
"I. c #FFFD78",
"U. c #95BB84",
"Y. c #9BBF82",
"T. c #93BE8A",
"R. c #9EC185",
"E. c #93C08E",
"W. c #9EC48C",
"Q. c #93C596",
"!. c #9EC791",
"~. c #9DCA97",
"^. c #9FCC98",
"/. c #A1C183",
"(. c #E6D88D",
"). c #FEEC8E",
"_. c #FFFD8C",
"`. c #FEEF92",
"'. c #FEF093",
"]. c #CCCDA7",
"[. c #FCEAA3",
"{. c #FFF8A2",
"}. c #FFFEAE",
"|. c #EEE4BF",
" X c #FEF3B5",
".X c #FFFEC1",
"XX c #FFFECB",
"oX c #FFF6D3",
"OX c #FEFEDB",
"+X c #FFFDE4",
"@X c #FFFDE9",
"#X c #FFFDF4",
"$X c #FFFEFE",
/* pixels */
"Q.Q.Q.Q.Q.Q.Q.Q.Q.Q.Q.Q.Q.Q.Q.Q.Q.Q.Q.Q.Q.T.h.s.L V ~ Q ~ E b z k a l l k k N t r.f.T.Q.Q.Q.Q.Q.Q.Q.Q.Q.Q.Q.Q.Q.Q.Q.Q.Q.Q.Q.Q.Q.",
"~.Q.Q.Q.Q.Q.Q.Q.Q.Q.Q.Q.Q.Q.Q.Q.Q.Q.Q.T.y.B ) _ _ }  .$. . . . .| { Z x C C n C C x c y U.Q.Q.Q.Q.Q.Q.Q.Q.Q.Q.Q.Q.Q.Q.Q.Q.Q.Q.Q.",
"^.^.Q.Q.Q.Q.Q.Q.Q.Q.Q.Q.Q.Q.Q.Q.Q.T.t.~ _ _ _ _ _  . . . . . . . . . .| W A / ( ( ( / ( D L U.Q.Q.Q.Q.Q.Q.Q.Q.Q.Q.Q.Q.Q.Q.Q.^.^.",
"^.^.^.Q.Q.Q.Q.Q.Q.Q.Q.Q.Q.Q.Q.Q.k.B _ _ _ _ _ _  .$.%.=.=.-.7.A.>.$. . . .{ W ( _ _ _ _ _ _ D a.E.Q.Q.Q.Q.Q.Q.Q.Q.Q.Q.Q.Q.^.^.^.",
"^.^.^.~.Q.Q.Q.Q.Q.Q.Q.Q.Q.Q.Q.w./ ( _ _ _ _ $.=.-.=.=.-.-.-.:.{.+X_.<.$. . . .W / _ _ _ _ _ _ _ K E.Q.Q.Q.Q.Q.Q.Q.Q.Q.Q.^.^.^.^.",
"^.^.^.^.~.Q.Q.Q.Q.Q.Q.Q.Q.E.t S ( _ _ _ $.$. .}  . . . . . .$.%.H.@X@X_.,.$. .$.! W _ _ _ _ _ _ _ V U.Q.Q.Q.Q.Q.Q.Q.Q.^.^.^.^.^.",
"^.^.^.^.^.~.Q.Q.Q.Q.Q.Q.E.t Z A _ _ _  ._ _ _ ) ! E m v m m W { | O.{.#X@XS.$. . .W ! %.%.$.$.$.$.%.T U.Q.Q.Q.Q.Q.Q.Q.^.^.^.^.^.",
"^.^.^.^.^.~.~.Q.Q.Q.Q.E.J A A A _ _ } _ ( A = @ : : : : : : : : g Z } 2.`.@XI.%. . .Q @.:.-.:.:.-.:.:.R T.Q.Q.Q.Q.^.^.^.^.^.^.^.",
"^.^.^.^.^.^.^.^.Q.Q.T.w.A A A A } _ _ A & O   * m E ! { ! ! U c g : g m | X.>.-.%. .{ o.|.OXOXOXOXOXOXOX].Q.Q.Q.^.^.^.^.^.^.^.^.",
"^.^.^.^.^.^.^.^.^.Q.p.A A A A / _ ( l   O = A $.=.=.-.=.=.%.&.$.| m g : j {  .$.-.$. .! T C.C.C.C.C.C.C.8.t.Q.^.^.^.^.^.^.^.^.^.",
"^.^.^.^.^.^.^.^.^.Y.b A A A A A A &   & A _ }  .$.=.-.-.-.-.<.L.;. .| m : g !  .$.-.$.) Q ' -.-.-.-.-.-.-.*.m.^.^.^.^.^.^.^.^.^.",
"^.^.^.^.^.^.^.^.~.J A A A C x l @ O p ( _ _ _ _  . . .%.-.-.<.}.@XI.;. .! g : !  .%.=.| W m @.-.-.-.-.-.-.-.R /.^.^.^.^.^.^.^.^.",
"^.^.^.^.^.^.^.^.j.x A A C l l @ O a _ _ } _ _ ( z v v {  .%.4.3._.#XOXC. .{ g : !  .%.%.! Z x } } } } } } } } t.^.^.^.^.^.^.^.^.",
"^.^.^.^.^.^.^./.f C A A l l & O l _ _ _ _ _ _ A j I Y j  . .B.3.-.8.XX#X_.$.{ g g {  .=.| C x C _ _ _ _ _ _ _ ^ W.^.^.^.^.^.^.^.",
"^.^.^.^.^.^.^.a.x A C l l i O i _ _ _ _ _ _ _ W i = m ' m | Z.6.%.-.:.S..X X5.] g j | $.=.C n x ( _ _ _ _ _ _ _ L ^.^.^.^.^.^.^.",
"^.^.^.^.^.^.~.3 x A x l h + @ F } _ _ } _ _ _ / i & x $.m { P.V. .$.=.-.-.4.K. .E : Z  .$.A C n C A A / F F W A S /.^.^.^.^.^.^.",
"^.^.^.^.^.^.j.h x C l l @ O x A ( ( _ _ _ } _ A i * x _ %.j ).J. . .$.=.-.-.-.=.| v g ! _ ! x C l C C C C C C C C y.^.^.^.^.^.^.",
"^.^.^.^.^.^.r l C l l a   i A A _ ( _ _ _ _ _ / i & x _ } 1.|.`. . . . .=.-.-.-.$.{ : j _ _ C C x l C C C C x C C s !.^.^.^.^.^.",
"^.^.^.^.^./.k l l l l @ O x A A ( _ _ _ _ _ _ A i & x ` +.[.$X+X6.X. . . .=.-.-.-. .v + C _ C C C l C C C C C C C C j.^.^.^.^.^.",
"^.^.^.^.^.a.l l l l i   i C A A / _ _ _ _ } _ A s H N.).oX$X$X$X#X XJ.5.O.$.=.-.-.=.) O * _ A l C a n C C C C C C C u ^.^.^.^.^.",
"^.^.^.^.^.q l l l l @ O l A A A A _ _ _ _ _ _ A i & x _ _ M.#XOXP  . . . . .$.-.-.-.} p O C F l x l x C C C C C C C M ^.^.^.^.^.",
"^.^.^.^.R.s a l l i O @ C A A A A ( _ } _ } _ / i * C _ _ ( oX'.Y !  . . . . .$.-.-.%.Z O i F x l l h C C C C C C C x x.^.^.^.^.",
"^.^.^.^.l.a a l l @   i C A A A A / _ _ _ _ _ A p & x _ _ _  XF.#.j  . . . .} _ %.-.-.} + + C x a l a C C C C C C C C r.^.^.^.^.",
"^.^.^.^.i.a a l i @ O l A A A A A A ( _ _ } _ A i & x _ _ _ [.c.x @.z } } _ _ _  .-.-.%.p O h x i l h x x C C C C C C J ^.^.^.^.",
"^.^.^.^.u p a l * + @ C A A A A A A A _ _ _ _ / i & x _ _ } (.H i Q Y A _ _ _ _ _ %.-.=.C   i l i l l x C C C C C C C M ~.^.^.^.",
"^.^.^.^.4 p a i @ + * C A A A A A A A / _ _ _ A i & x _ _  .G.f @ h ] j ( _ _ _ } } -.-.) O & l @ l l l C C C C C C C c /.^.^.^.",
"^.^.^.~.s p a i @   i A A A A A A A A A / _ _ F p & x _ _ $.D.G i a x ' l _ } _ _ _ =.-.| $ @ a i a l l C C C C C C C x R.^.^.^.",
"^.^.^.W.i a a * @   l A A A A A A A A A A / _ A i & x _ _ V.n...C x l l l ( _ _ _ _ $.-.%.* + p * a l a C C C C C C x C z.^.^.^.",
"^.^.^.Y.p a a & @ O l F A A A A A A A A A A / A i * x _ _ P.b..._ _ _ _ _ _ _ _ _ _ } -.$.@   i i i l l C C C C C C C C l.^.^.^.",
"^.^.^.k.p a a @ @ O x A A A A A A A A A A A A C i & x _ _ 6.v.} _ } _ _ _ } _ _ _ _ _ #.{ i   i @ a l i i i i i i i i s l.^.^.^.",
"^.^.^.k.p a i & @ O l A A A A A A A A A A A A x i * x _ _ $.c _ _ _ _ _ _ } _ _ _ _ / ] [ i   i * i l i i i i i i i i i j.^.^.^.",
"^.^.^.k.a a = @ + + l C A A A A A A A A A A A x p & x _ _ $.v _ _ _ _ _ _ _ _ _ / A A ! ] = O i @ i l i i i i i i i i i a.^.^.^.",
"^.^.^.j.a a i @ @ O l x C F A A A A A A A A A x i & x _ _ %.z ( ( _ _ _ ( ( / W A A A F Q = O & * i l i i i i i i i i i p.^.^.^.",
"^.^.^.k.p s = * + O l x x C A A A A A A A A A C i & x _ _ $.j A A A A A A A A A A A A A m = + & & i l i i i = i i i = i j.~.^.^.",
"^.^.^.x.p a = @ @ O a x x x C A A A A A A A A x i & x ( _ %.j A A A A A A A A A A A A C z = + & * i x i i = i i = i i i k.^.^.^.",
"^.^.^.x.i a = & @   i x x C C C A A A A A A A C i & x _ _ $.z A A A A A A A A A A F A C l & + & & p l = i i i = i i i = l.^.^.^.",
"^.^.^.!.i a * & @   i x x x x x C A A A A A A x i * x _ _ %.j A A F A A F A A A A A A x l @ @ @ * a a i i i i i * i i i x.^.^.^.",
"^.^.^.~.s a * @ @ O i a x x x x x C A A A A A x i * x ( _ %.j A A A A A A A A A A A C l l @ @ * & p a = i i i i i i i i Y.^.^.^.",
"^.^.^.^.f a i @ @ O @ a x x x x x x x A A A A C i & x ( _ $.z A A A A A A A A A A A x l l O @ * & a p = = i i i i i i > /.^.^.^.",
"^.^.^.^.u a i * @ + @ a l x x C x x x x C A A x i & x ( _ %.j A A A A A A A A A F C l l i   @ i * a p i i i = i i i i 1 ~.^.^.^.",
"^.^.^.^.i.a s @ * @ O i a l x x x x C x x C A x i * x ( ( $.j A A A A A A A A A C l l l * O @ @ * a i i * i i i i i i 0 ~.^.^.^.",
"^.^.^.^.l.a a * @ @ O i a l x x x x x x x x x x i & x / _ %.z A A A A A A A A A x l l l + @ @ * i a * i i i i i i i i e.~.^.^.^.",
"^.^.^.^.W.s a * * * + + a a l x x x C x x x x h i * x ( _ $.j A A A A A F A F x l l l i O @ * @ i a * i i i i i i i * /.^.^.^.^.",
"^.^.^.^.~.q a i @ @ + O i a a l x x x x x x x l i & l / _ $.j A A F A A A A x l a a a @ + @ @ * a i i * i i i i * i 1 !.^.^.^.^.",
"^.^.^.^.~.p.p p @ * @   * a a a l x x x x x x l i * x F _ $.h n x C C C x l a a a a a O + @ @ i a i @ @ * * @ * * @ e ^.^.^.^.^.",
"^.^.^.^.~./.d p * * * + O i a a a a x x x x x l i & x A _ $.g x x x x x a a a a a a @ O @ * @ a a * @ * @ * * @ @ @ k.^.^.^.^.^.",
"^.^.^.^.^.^.r p i @ & @ O @ a a a a a l x x x l i & l A _ $.h x x x l a a a a a a i + + @ * * a a @ @ * * @ * @ @ - !.^.^.^.^.^.",
"^.^.^.^.^.^.k.p a * & & + O i a a a a a p l l l i & x A _  .j l h a a a a a a a a + O @ * @ i a * @ * @ @ * @ @ @ i.^.^.^.^.^.^.",
"^.^.^.^.^.^.^.3 a i & @ & O + a a a a a a a a i i * l C _  .p a a a a a a a p a =   @ & $ $ p p * * @ * & $ & $ % R.^.^.^.^.^.^.",
"^.^.^.^.^.^.^.j.p p * @ & @ O @ a a a a a a a i i * x x _ } : p a a a a a a a = O O $ & & ; a = @ @ & @ $ $ $ $ e ^.^.^.^.^.^.^.",
"^.^.^.^.^.^.^./.3 a i & * @ + O * p a a a a a i i + l x F _ i a a a a a a a i +   $ & $ & p p $ & & & & $ & & % R.~.^.^.^.^.^.^.",
"^.^.^.^.^.^.^.^.k.p i & @ * @ O O & p a a a a i i + i l x ( i a a a a a a i O O @ & & & ; a = $ & & @ & & $ $ e.^.^.^.^.^.^.^.^.",
"^.^.^.^.^.^.^.^.^.0 p i * * @ * +   @ p a p a i i * @ a l l i a a a a a * +   @ & & & & a p $ $ & @ & $ $ $ < /.^.^.^.^.^.^.^.^.",
"^.^.^.^.^.^.^.^.^.Y.d i * @ * @ & + O + i a a p i i i i i i a a a a p & O O @ & & & & p a $ $ $ & & $ & $ $ f.^.^.^.^.^.^.^.^.^.",
"^.^.^.^.^.^.^.^.~.Q.d.a a @ @ * & & @ O O @ = p a a a i i a a a p & +   + @ & & & & i p = $ $ $ & $ $ $ $ 9.Q.^.^.^.^.^.^.^.^.^.",
"^.^.^.^.^.^.^.!.Q.Q.!.q.a i * @ & @ & @ O     + @ * i i i * @ @       @ & & & & & = p i $ $ & $ & & $ $ 9 Q.Q.Q.~.^.^.^.^.^.^.^.",
"^.^.^.^.^.^.^.Q.Q.Q.Q.T.w i i @ & & & & & @ +         O O O O O O @ * @ * * * @ ; a ; $ $ $ $ $ $ $ $ 5 T.Q.Q.Q.Q.^.^.^.^.^.^.^.",
"^.^.^.^.^.^.Q.Q.Q.Q.Q.Q.T.u a i & & & & & & & & @ @ @ @ + @ @ @ & @ @ * & @ @ i a ; $ $ $ $ $ $ $ $ < U.Q.Q.Q.Q.Q.Q.~.^.^.^.^.^.",
"^.^.^.^.^.Q.Q.Q.Q.Q.Q.Q.Q.T.w a i * & & & & & & @ @ @ * @ @ @ * & & & @ @ * a a ; $ $ $ $ $ $ $ $ 8 T.Q.Q.Q.Q.Q.Q.Q.Q.^.^.^.^.^.",
"^.^.^.^.Q.Q.Q.Q.Q.Q.Q.Q.Q.Q.T.e.s p i & & & & & @ i * @ * * * @ & & & * i a a * + @ @ @ $ + @ + 6 E.Q.Q.Q.Q.Q.Q.Q.Q.Q.Q.~.^.^.^.",
"^.^.~.Q.Q.Q.Q.Q.Q.Q.Q.Q.Q.Q.Q.Q.g.1 p i i * & @ @ @ @ * @ * @ @ @ * i a a i @ O             X 0.Q.Q.Q.Q.Q.Q.Q.Q.Q.Q.Q.Q.Q.^.^.^.",
"^.~.Q.Q.Q.Q.Q.Q.Q.Q.Q.Q.Q.Q.Q.Q.Q.T.e.d p a p i i i @ i * * i i i p a s *     O         . 7 T.Q.Q.Q.Q.Q.Q.Q.Q.Q.Q.Q.Q.Q.Q.Q.~.^.",
"^.Q.Q.Q.Q.Q.Q.Q.Q.Q.Q.Q.Q.Q.Q.Q.Q.Q.Q.U.u.2 p s p a a a a a p a a i @ O   .   O     X 7 T.Q.Q.Q.Q.Q.Q.Q.Q.Q.Q.Q.Q.Q.Q.Q.Q.Q.Q.~.",
"Q.Q.Q.Q.Q.Q.Q.Q.Q.Q.Q.Q.Q.Q.Q.Q.Q.Q.Q.Q.Q.Q.h.p.e q 1 s , > - % # # X X X o o 6 0.g.E.Q.Q.Q.Q.Q.Q.Q.Q.Q.Q.Q.Q.Q.Q.Q.Q.Q.Q.Q.Q.Q."
};
