/* XPM */
static char *result[] = {
/* columns rows colors chars-per-pixel */
"64 64 190 2 ",
"   c #9F7100",
".  c #9F7608",
"X  c #9E790E",
"o  c #9E7C12",
"O  c #A27400",
"+  c #A77800",
"@  c #AB7C00",
"#  c #A37E0F",
"$  c #AF8100",
"%  c #AC850B",
"&  c #B28300",
"*  c #B78800",
"=  c #BB8C00",
"-  c #B18C0F",
";  c #BF9000",
":  c #BD9D00",
">  c #B7910F",
",  c #BD950C",
"<  c #AA8814",
"1  c #A78919",
"2  c #B69515",
"3  c #B89614",
"4  c #B99816",
"5  c #B89B1D",
"6  c #9D9236",
"7  c #9B923B",
"8  c #A58C21",
"9  c #A3902A",
"0  c #AE9C2E",
"q  c #B39C26",
"w  c #BE9729",
"e  c #B39E2A",
"r  c #AB9E33",
"t  c #A69B3A",
"y  c #BDAB2D",
"u  c #ADA63D",
"i  c #B4A839",
"p  c #C29300",
"a  c #C69901",
"s  c #CA9B00",
"d  c #C59708",
"f  c #C29909",
"g  c #C49C18",
"h  c #C3A300",
"j  c #CCA201",
"k  c #CDA900",
"l  c #CCA40B",
"z  c #D3A400",
"x  c #D3AC01",
"c  c #DCAC00",
"v  c #D3AB0C",
"b  c #D5B201",
"n  c #D6B507",
"m  c #DEB100",
"M  c #DCBC00",
"N  c #CEAA14",
"B  c #C3A319",
"V  c #DDBA12",
"C  c #D4B81D",
"Z  c #E2B200",
"A  c #E2BC02",
"S  c #ECBC00",
"D  c #E1B708",
"F  c #E8BF09",
"G  c #F0BF00",
"H  c #C29A2F",
"J  c #C1AC2A",
"K  c #C2B535",
"L  c #DBBC32",
"P  c #D7C300",
"I  c #D9C701",
"U  c #DBC900",
"Y  c #DACE15",
"T  c #DAD619",
"R  c #E3C201",
"E  c #EBC201",
"W  c #E5CB03",
"Q  c #ECCA00",
"!  c #E5C30C",
"~  c #EBC208",
"^  c #F5C400",
"/  c #F8C700",
"(  c #F4CA01",
")  c #FECD00",
"_  c #FECF0C",
"`  c #E5D500",
"'  c #EAD400",
"]  c #EBDB00",
"[  c #F4D300",
"{  c #FED200",
"}  c #F7DC00",
"|  c #FEDC00",
" . c #FED109",
".. c #FFDD0D",
"X. c #FED91D",
"o. c #EDE200",
"O. c #F5E500",
"+. c #FEE400",
"@. c #FEEA00",
"#. c #FEE90B",
"$. c #F5F303",
"%. c #FEF400",
"&. c #FFFD01",
"*. c #FEF30D",
"=. c #FFFE09",
"-. c #FFEC19",
";. c #FFF417",
":. c #FFFC1C",
">. c #ECE029",
",. c #FEE026",
"<. c #FFF926",
"1. c #FFFC2D",
"2. c #FFE232",
"3. c #FEE53B",
"4. c #FFF638",
"5. c #FFFE3C",
"6. c #9C9944",
"7. c #98A359",
"8. c #A4A145",
"9. c #AFAB42",
"0. c #A3A54B",
"q. c #ADAF4E",
"w. c #B8B843",
"e. c #B1B14B",
"r. c #A4A851",
"t. c #A9AC52",
"y. c #A5AE59",
"u. c #A6B05D",
"i. c #A9B25A",
"p. c #B1B753",
"a. c #9DAD61",
"s. c #9DB46E",
"d. c #9BB776",
"f. c #98B678",
"g. c #A5B364",
"h. c #ABB863",
"j. c #A2B56B",
"k. c #A5B96E",
"l. c #A2B973",
"z. c #A1BC7A",
"x. c #CCA946",
"c. c #D5B547",
"v. c #D5B967",
"b. c #D5BE79",
"n. c #A7C06C",
"m. c #FFD943",
"M. c #E9C957",
"N. c #FFE544",
"B. c #FEE54C",
"V. c #FEFD42",
"C. c #FEE859",
"Z. c #FFF352",
"A. c #FFFD5A",
"S. c #D9C768",
"D. c #EACC66",
"F. c #FEEE63",
"G. c #FFEB6A",
"H. c #FEFA65",
"J. c #FFFD68",
"K. c #FEE871",
"L. c #FFFD78",
"P. c #95BB84",
"I. c #9DBF83",
"U. c #93BE8A",
"Y. c #93C08E",
"T. c #9EC58C",
"R. c #93C596",
"E. c #9EC791",
"W. c #9DCA97",
"Q. c #9FCC98",
"!. c #A0C285",
"~. c #E6D88D",
"^. c #FEEC8E",
"/. c #FCF58F",
"(. c #FFFD8C",
"). c #FEEF92",
"_. c #CCCDA7",
"`. c #FCEAA3",
"'. c #FFF8A2",
"]. c #FFFEAE",
"[. c #FEF3B5",
"{. c #FAF4B9",
"}. c #FFFEC1",
"|. c #FFFECB",
" X c #FFF6D3",
".X c #FEFEDB",
"XX c #FFFDE4",
"oX c #FFFDE9",
"OX c #FFFDF4",
"+X c #FFFEFE",
/* pixels */
"R.R.R.R.R.R.R.R.R.R.R.R.R.R.R.R.R.R.R.R.R.U.s.q.y B l v z z l l x n R W ~ ! C K p.d.Y.R.R.R.R.R.R.R.R.R.R.R.R.R.R.R.R.R.R.R.R.R.",
"W.R.R.R.R.R.R.R.R.R.R.R.R.R.R.R.R.R.R.P.u l c c Z m Z Z c A ( } } | | | | | { { ) ( V e.P.R.R.R.R.R.R.R.R.R.R.R.R.R.R.R.R.R.R.R.",
"Q.Q.R.R.R.R.R.R.R.R.R.R.R.R.R.R.R.f.K ~ ( ) / / / / S R } | | | | | | | | | | { ) ) ) ) ! w.U.R.R.R.R.R.R.R.R.R.R.R.R.R.R.R.Q.Q.",
"Q.Q.Q.R.R.R.R.R.R.R.R.R.R.R.R.R.i.F ) ) ) ) ) ) ( S [ | | | +.-.Z.4.%.%.%.@.+.| ) ) ) ) ) ) V j.R.R.R.R.R.R.R.R.R.R.R.R.R.W.Q.Q.",
"Q.Q.Q.W.R.R.R.R.R.R.R.R.R.R.U.y ) ) ) ) ) ) ) ^ Q | | | @.:.(.XX'.=.&.&.%.&.%.&.%.+.) ) ) ) ) S 9.U.R.R.R.R.R.R.R.R.R.R.W.Q.Q.Q.",
"Q.Q.Q.Q.W.R.R.R.R.R.R.R.R.U.C { ) ) ) ) ) ) S ( | | | ;.(.oXoXF.@.| | +.| | | | { | +.+.) ) ) / S i U.R.R.R.R.R.R.R.R.W.Q.Q.Q.Q.",
"Q.Q.Q.Q.Q.W.R.R.R.R.R.R.f.Y @.@.@.+.+.+.+.' Q | | +.A.XXOX`.-.| [ Q P m b M A Q ( ) ) { | ) ) ) S S y Y.R.R.R.R.R.R.W.W.Q.Q.Q.Q.",
"Q.Q.Q.Q.Q.W.W.R.R.R.R.U.T =.=.=.=.=.=.=.o.R } | @.L.oX).,.} A h : : : : : : : : @ * S ) ) ) ) ) S S S y R.R.R.R.R.W.Q.Q.Q.Q.Q.Q.",
"Q.Q.Q.Q.Q.Q.Q.W.R.R.R._..X.X.X.X.X.X.X}.V ( | @.=.-.#.} P h : a b M Q Q [ Q R M &     * S ) ) ) G S S Z i R.R.R.W.Q.Q.Q.Q.Q.Q.Q.",
"Q.Q.Q.Q.Q.Q.Q.Q.R.R.w.5.V.V.V.V.V.V.V.Y W { +.&.+.| [ k : h M } #.#.%.%.%.&.%.%.+.S =     z ) ) ^ S S S A u.R.W.Q.Q.Q.Q.Q.Q.Q.Q.",
"Q.Q.Q.Q.Q.Q.Q.Q.Q.n.$.&.&.&.&.&.&.&.` Q ( +.&.+.| Q : : M { +.*.J.:.&.&.&.&.%.@.| { ) S @ O & S S S S S S n I.W.Q.Q.Q.Q.Q.Q.Q.Q.",
"Q.Q.Q.Q.Q.Q.Q.Q.E.T &.&.&.&.&.&.&.o.m Q } &.+.| Q : h Q | *.L.XX].<.&.%.@.| | | ) { ) ) ) p O @ z c S S S S y E.Q.Q.Q.Q.Q.Q.Q.Q.",
"Q.Q.Q.Q.Q.Q.Q.Q.w.{ { { { { { ) { c A Q %.@.| Q : h [ | V..XOX(.<.1.@.| [ b b x / ) { ) ) ) j O @ z z Z S S c g.Q.Q.Q.Q.Q.Q.Q.Q.",
"Q.Q.Q.Q.Q.Q.Q.!.~ ) ) ) ) { ) ) Z Z Z } %.| [ h h [ | (.OX|.5.&.<.N.| } x I I k S ) ) ) ) ) ) z   & z c Z S S g E.Q.Q.Q.Q.Q.Q.Q.",
"Q.Q.Q.Q.Q.Q.Q.K ) ) ) ) ) ) ) ) c c Z %.| } k h ' 2.{.}.A.=.&.+.3.C.| M ` M * p E ) { ) ) ) ) ) p   p z z S S z i.Q.Q.Q.Q.Q.Q.Q.",
"Q.Q.Q.Q.Q.Q.I.D G G E S ^ S S Z m m S +.| A : R | H.1.&.&.%.+.| B.K.[ M +.c * p S ) ) ) ) { ) ) G @ O j z c S z B W.Q.Q.Q.Q.Q.Q.",
"Q.Q.Q.Q.Q.Q.e.Z c Z Z Z Z Z c z Z c ^ ) [ : b } %.&.&.&.%.+.| | G.^.h +.) c & p E ) ) ) ) ) ) ) G c O & z z c c z u.Q.Q.Q.Q.Q.Q.",
"Q.Q.Q.Q.Q.T.l Z Z Z Z Z Z Z c c Z Z ) ) h a [ @.&.&.&.%.| | +.| ^. X>.) ) Z * p G ) ) ) ) ) ) ) S S = O s z z Z z H W.Q.Q.Q.Q.Q.",
"Q.Q.Q.Q.Q.g.Z Z Z Z Z Z Z Z z Z c Z ) Z + b | &.&.&.%.| | | ..2..X+X`.X._ Z & p S ) { ) ) ) ) ) S S c O @ z z z z l I.Q.Q.Q.Q.Q.",
"Q.Q.Q.Q.Q.i Z Z Z Z Z Z Z c z c c S ) & + ( %.&.&.%.| -.2.G.[.OX+X+X+X X^.M.H d E ) ) ) ) ) ) ^ S G Z = O p z z z z i.Q.Q.Q.Q.Q.",
"Q.Q.Q.Q.W.N Z Z Z Z c Z c c z c z E Z + p { &.&.&.| | | | | | L  XOXm.( ) c & p G ) ) ) ) ) ) S S S S s O @ s z z z w W.Q.Q.Q.Q.",
"Q.Q.Q.Q.z.c Z Z Z Z Z Z Z s z z z ^ ;   Z %.&.&.+.| | | | | Q I /. X_ ) ) Z & p G ) { ) ) ) / S S S S Z @ O p z z s f T.Q.Q.Q.Q.",
"Q.Q.Q.Q.t.Z Z Z Z Z Z Z Z s z s c Z + + { &.&.@.) { | | | | k O.D.[.) ) ) c * p E ) ) ) ) ) G S S S S S s O @ z z s s j.Q.Q.Q.Q.",
"Q.Q.W.W.J Z Z Z Z Z Z c c z s p c z + a @.&.&.| ) ) ) { { x o.m x.`.) ) ) Z & p G ) ) ) ) ^ S S S S S Z z O @ s z s s q.Q.Q.Q.Q.",
"Q.Q.Q.W.N Z Z Z Z Z Z Z c s z p z p   Z %.&.@.) ) ) { ) S U R p w ~.{ ) ) m & p G ) ) ) ) S S S S S S S Z @ + = z s s i W.Q.Q.Q.",
"Q.Q.Q.!.v Z Z Z Z Z Z c z z z p j @ O / &.&.{ { ) ) ) / k ' z & g ~.| ) ) c * p S ) ) ) ^ S S S S S S S Z * O & p s s 5 W.Q.Q.Q.",
"Q.Q.Q.z.c Z Z Z Z Z Z Z z z z @ s @ @ | &.%.) ) ) ) ) z ` z s p D S.| ) ) c & p G ) ) G S S S S S S S S S p   & p s s , W.Q.Q.Q.",
"Q.Q.Q.k.c Z Z Z Z Z Z Z z z s p s + * @.&.+.) ) ) ) ( z z z c Z _ b.B.) ) c * p G ) ^ S S S S S S S S S S j   @ * s s p !.Q.Q.Q.",
"Q.Q.Q.h.Z Z Z Z Z Z Z Z s z a * p O = O.&.{ ) ) ) ) ) ) ) ) ) )  .v.K.) ) c & p S G S S S S S S S S S S S c   @ & s s p !.Q.Q.Q.",
"Q.Q.W.i.p p p p p p p p p z a * p O = ] O.) ) ) ) { ) { ) ) ) ) ) c.3.) ) c * p Z S S S S S S S S S S S S c   + & p s d z.W.Q.Q.",
"Q.Q.Q.t.p p p p p p p p p z a * = O = ] ' ^ ) ) ) ) ) ) ) ) { ) { n +.) ) c & p c S S S S G S S S S S S S z O @ & p s s l.Q.Q.Q.",
"Q.Q.Q.t.p p p p p p p p p z p * * O = ] Q S S / ) ) ) ) ) ) ) ) ) x +.) ) c & p Z S S S S S S S S S S S Z z + @ @ = s s l.Q.Q.Q.",
"Q.Q.Q.t.p = p p = p p p p z p * *   ; W S S S S G ^ / / ) ) / ) ) k +.) ) c & p Z S S S S S S S S S S Z c z O + @ p s s l.Q.Q.Q.",
"Q.Q.Q.t.p p p p p p p = p z p * & + = P S S S S S S S S S S S S S k @.) ) c * p c S S S S S S S S S Z c c z O @ @ = s s l.W.Q.Q.",
"Q.Q.Q.y.= p = p p p p p p z p * * O * b S S S S S S S S S S S S S k @.) ) c & p Z S S S S S S S S S c c c s O @ @ & s s z.Q.Q.Q.",
"Q.Q.Q.g.p p p p p p p p p z p * & + & z c S S S S S S S S S S S S z @.) / c * p c S S S S S S S Z c c c c s O @ * p s p I.Q.Q.Q.",
"Q.Q.Q.j.= p p p p p p p p s s * * O @ z c S S S S S S S S S S S S k +.) ) z * p c G S S S S G Z c c c c z p O @ & * s p T.Q.Q.Q.",
"Q.Q.Q.z.= p p p = p p = = s s & * + @ z z Z S S S S S S S S S S S k @.) / c & p c S S S S S Z c c c c c s p O @ @ * s d Q.Q.Q.Q.",
"Q.Q.Q.T.> p = p p p p p = s s & * @ + s z c S S G S S S S S S S S z @.) / c * p Z S S S Z Z c c Z c c c s @ O & & p a w Q.Q.Q.Q.",
"Q.Q.W.W.> p p p p p p = = p s * & & O p z z Z S S S S S S S S S S k @.) / c & p c S S Z c c c c c c c z s @ @ @ @ p a i Q.Q.Q.Q.",
"Q.Q.Q.W.0 p p p p p ; ; = p s = & & O * z z z S S S S S S S S S S k @.{ / c @ p Z S c c c c c c c c c s p O @ & & s s t.Q.Q.Q.Q.",
"Q.Q.Q.Q.r.p p p ; p p p p = s p & & + O z z z c S S S S S S S S S z @.) / z & s z c c c c c Z c c c j s = O @ & & s d l.Q.Q.Q.Q.",
"Q.Q.Q.Q.I.p p p p p p p p * s a & & @ O p j z z c S S S S S S S S k @.) ^ c * p z c c c c Z Z c c z s s @ O & & p s d I.Q.Q.Q.Q.",
"Q.Q.Q.Q.T.- p = ; ; ; ; p = p s * @ & O @ s s s z c S S S S S S S k +.) ^ c & p z c c c c c c c z s s p O @ & & p s q W.Q.Q.Q.Q.",
"Q.Q.Q.Q.W.t @ @ & & $ & & & p s p @ & @ O s s s s s z Z Z Z Z c Z j +.) ^ z & p z c c c c c c z s s s & O @ & & p s u.Q.Q.Q.Q.Q.",
"Q.Q.Q.Q.Q.j.& & & $ $ & & @ & s s & & @ O @ s s s s s s c c c c c h +.) S c * p z c c c c c s s s s s O O & & * s d !.Q.Q.Q.Q.Q.",
"Q.Q.Q.Q.Q.E.< @ & $ & & & @ @ s s & & & O O p s s s s s s z c c c h +.) S z * p z c c c z s s s s s @ O @ & & p s e Q.Q.Q.Q.Q.Q.",
"Q.Q.Q.Q.Q.W.t.& & & @ & & & @ = s p & & @   @ s s s s s s s s z c s | ) S c & p z z j s s s s s s p O + & & & s s g.Q.Q.Q.Q.Q.Q.",
"Q.Q.Q.Q.Q.Q.!.@ & & & & @ & & $ a s & & & @ O * s s s s s s s s s h | ) Z c & p p s s s s s s s s + O @ & & p s 2 W.Q.Q.Q.Q.Q.Q.",
"Q.Q.Q.Q.Q.Q.Q.t & @ & & & & $ $ = s = & & & O O p s s s s s s s s a { ) c c & p p s s s s s s s @   @ & & @ s s u.Q.Q.Q.Q.Q.Q.Q.",
"Q.Q.Q.Q.Q.Q.W.!.% & & & $ & & @ $ a a & & $ @ O + p s s s s s s s a ) S z c @ p p s s s s s s & O @ & & & p s 3 E.Q.Q.Q.Q.Q.Q.Q.",
"Q.Q.Q.Q.Q.Q.Q.Q.0.@ @ & & $ & & $ = s ; & & & @   O p s s s s s s : / c z p O p p s s s s s * O O & @ & @ s s j.Q.Q.Q.Q.Q.Q.Q.Q.",
"Q.Q.Q.Q.Q.Q.Q.Q.!.1 $ $ $ $ & $ $ $ p s * & & $ @ O O = s s s s s * z s s * * = p s s s s @ O O @ & & & p s e Q.Q.Q.Q.Q.Q.Q.Q.Q.",
"Q.Q.Q.Q.Q.Q.Q.Q.Q.j.% $ $ & & $ $ $ & s p & & & & @ O O & p s s s p = p p = p p s s s ; O   O & & & @ = s d I.Q.Q.Q.Q.Q.Q.Q.Q.Q.",
"Q.Q.Q.Q.Q.Q.Q.Q.Q.R.6.$ $ & $ & $ $ & * s p $ & & @ & O O O & p s s s s s s s s s = @ O O @ & & & & & p p a.R.Q.Q.Q.Q.Q.Q.Q.Q.Q.",
"Q.Q.Q.Q.Q.Q.Q.W.R.R.R.9 $ $ $ $ $ & $ $ = s ; & & & & & @ O   O @ * = = p = * & O     + @ & & & & & p s 8.R.R.R.W.Q.Q.Q.Q.Q.Q.Q.",
"Q.Q.Q.Q.Q.Q.W.R.R.R.R.Y.1 $ $ $ & $ $ $ $ p s = & & & @ & & @ O O               O O @ & & @ & & & p d r R.R.R.R.R.W.Q.Q.Q.Q.Q.Q.",
"Q.Q.Q.Q.Q.W.R.R.R.R.R.R.P.1 $ $ $ & & $ $ $ p s p & & & & @ & & & @ @ @ @ + @ @ $ & & * * & & & p s 0 U.R.R.R.R.R.R.W.Q.Q.Q.Q.Q.",
"Q.Q.Q.Q.W.R.R.R.R.R.R.R.R.Y.8 $ $ $ $ @ $ $ $ p s p & & & & & & & & & @ & & & & & & & & & & * p a r U.R.R.R.R.R.R.R.R.Q.Q.Q.Q.Q.",
"Q.Q.Q.W.R.R.R.R.R.R.R.R.R.R.Y.6 + + + + + @ + + * s s p & & & & & & & & & & & & & & & & & = s d 0.R.R.R.R.R.R.R.R.R.R.R.W.Q.Q.Q.",
"Q.Q.W.R.R.R.R.R.R.R.R.R.R.R.R.Y.a..               @ p s p p * & & & & @ & & & & & & * ; a a 2 s.R.R.R.R.R.R.R.R.R.R.R.R.R.Q.Q.Q.",
"Q.W.R.R.R.R.R.R.R.R.R.R.R.R.R.R.R.P.7 .         O   O * s s s p p = * * * * * = ; p s a 4 0.U.R.R.R.R.R.R.R.R.R.R.R.R.R.R.R.R.Q.",
"Q.R.R.R.R.R.R.R.R.R.R.R.R.R.R.R.R.R.R.P.6.X     . O       @ p s s s s s s s s s a a 4 0.U.R.R.R.R.R.R.R.R.R.R.R.R.R.R.R.R.R.R.Q.",
"R.R.R.R.R.R.R.R.R.R.R.R.R.R.R.R.R.R.R.R.R.U.f.7.7 o o # X X X # % - 2 , > > q u y.f.R.R.R.R.R.R.R.R.R.R.R.R.R.R.R.R.R.R.R.R.R.R."
};
