/* XPM */
static char *result[] = {
/* columns rows colors chars-per-pixel */
"64 64 173 2 ",
"   c #9F7100",
".  c #9F7A0F",
"X  c #9E7D14",
"o  c #A27300",
"O  c #A77900",
"+  c #AB7D00",
"@  c #AF8100",
"#  c #AC840A",
"$  c #B18300",
"%  c #B68800",
"&  c #BB8C00",
"*  c #BF9101",
"=  c #BD9C00",
"-  c #B7910F",
";  c #BC970E",
":  c #A78B1B",
">  c #A88B1B",
",  c #B69717",
"<  c #B99613",
"1  c #B69719",
"2  c #B5991D",
"3  c #B99B19",
"4  c #BEA11D",
"5  c #9B8F36",
"6  c #A68C20",
"7  c #AF9E2E",
"8  c #B39C25",
"9  c #B09C2A",
"0  c #A29433",
"q  c #AD9F32",
"w  c #A29738",
"e  c #BAA223",
"r  c #B4A22E",
"t  c #AAA33E",
"y  c #B0A436",
"u  c #B0A53A",
"i  c #B4AC3C",
"p  c #BBAF39",
"a  c #BCB239",
"s  c #C29300",
"d  c #C79800",
"f  c #CA9B00",
"g  c #C0990B",
"h  c #C7A700",
"j  c #CCA201",
"k  c #C6A800",
"l  c #CCAB01",
"z  c #CCA40C",
"x  c #D3A400",
"c  c #D4AB00",
"v  c #DBAC00",
"b  c #D0A70A",
"n  c #D0A90E",
"m  c #CDB200",
"M  c #D3B300",
"N  c #DDB200",
"B  c #D3BC01",
"V  c #DCBB00",
"C  c #DAB508",
"Z  c #DDBB09",
"A  c #CCA914",
"S  c #C0A119",
"D  c #C5A91A",
"F  c #CAAC1D",
"G  c #CBB01D",
"H  c #DBBA17",
"J  c #DEB918",
"K  c #E2B200",
"L  c #E5BA00",
"P  c #EDBD00",
"I  c #C5AC24",
"U  c #C7B026",
"Y  c #C9B022",
"T  c #C9BB25",
"R  c #C4B02A",
"E  c #C3B432",
"W  c #D3BE3C",
"Q  c #D6C200",
"!  c #DAC500",
"~  c #D4C017",
"^  c #DFCF13",
"/  c #DDC918",
"(  c #D6D81E",
")  c #E2C201",
"_  c #EDC400",
"`  c #E3CD00",
"'  c #EDCB00",
"]  c #E2C60B",
"[  c #EDC60A",
"{  c #E4C90C",
"}  c #F5C500",
"|  c #F3CC00",
" . c #FECD00",
".. c #E4D300",
"X. c #ECD300",
"o. c #E7DC00",
"O. c #ECDE01",
"+. c #F4D301",
"@. c #FED200",
"#. c #F6DD00",
"$. c #FDDC00",
"%. c #E3CB10",
"&. c #EDE401",
"*. c #F2E500",
"=. c #FEE400",
"-. c #FEEC00",
";. c #FEE50A",
":. c #FEEC0F",
">. c #F6F203",
",. c #FEF500",
"<. c #FFFE02",
"1. c #FEFC0B",
"2. c #FEE617",
"3. c #FDF114",
"4. c #C4C139",
"5. c #D9C633",
"6. c #F5E627",
"7. c #FCEB26",
"8. c #FBF539",
"9. c #9A9642",
"0. c #9E9F49",
"q. c #9CA555",
"w. c #9EAA5C",
"e. c #A7A546",
"r. c #A8A441",
"t. c #A4A54B",
"y. c #A5A84E",
"u. c #AAAD4E",
"i. c #B2B144",
"p. c #B8BC44",
"a. c #A1A752",
"s. c #A9B052",
"d. c #A7B558",
"f. c #B2BA54",
"g. c #99AC65",
"h. c #9AB16B",
"j. c #97B374",
"k. c #9DBB75",
"l. c #95B77B",
"z. c #95B87E",
"x. c #99BB7B",
"c. c #A0B264",
"v. c #A2BA6C",
"b. c #B4C247",
"n. c #BAC94A",
"m. c #FEE544",
"M. c #FFF443",
"N. c #FFFF43",
"B. c #FEF755",
"V. c #E5D964",
"C. c #E2CE79",
"Z. c #FEEA66",
"A. c #FEF766",
"S. c #FFFE62",
"D. c #F8F669",
"F. c #FFFD69",
"G. c #FDF974",
"H. c #FEFE7D",
"J. c #95BC85",
"K. c #99BF81",
"L. c #93BD89",
"P. c #94C18D",
"I. c #93C596",
"U. c #9CCA97",
"Y. c #9FCC98",
"T. c #FEFD8B",
"R. c #FBFA9D",
"E. c #DCDCB2",
"W. c #FEF9B1",
"Q. c #FFF9CA",
"!. c #FEFED6",
"~. c #FFFFDB",
"^. c #FEFEE6",
/* pixels */
"I.I.I.I.I.I.I.I.I.I.I.I.I.I.I.I.I.I.I.I.I.I.I.I.z.i z b n b b b b b z z Z ] 4.K.I.I.I.I.I.I.I.I.I.I.I.I.I.I.I.I.I.I.I.I.I.I.I.I.",
"U.I.I.I.I.I.I.I.I.I.I.I.I.I.I.I.I.I.I.I.I.I.I.l.n K K N K K K K K K v  .$.$.$.%.x.I.I.I.I.I.I.I.I.I.I.I.I.I.I.I.I.I.I.I.I.I.I.I.",
"Y.U.I.I.I.I.I.I.I.I.I.I.I.I.I.I.I.I.I.I.I.I.L.H } } } } } } } } } K  . .$.$.$.$./ P.I.I.I.I.I.I.I.I.I.I.I.I.I.I.I.I.I.I.I.I.U.U.",
"Y.Y.U.I.I.I.I.I.I.I.I.I.I.I.I.I.I.I.I.I.I.I.a  .@. . . . . . . .P }  . .-.,.M.;.$.p.I.I.I.I.I.I.I.I.I.I.I.I.I.I.I.I.I.I.I.U.U.Y.",
"Y.Y.Y.Y.I.I.I.I.I.I.I.I.I.I.I.I.I.I.I.I.I.k.|  . . . .@. . . . .N  .@.,.,.<.F.H.=.+.x.I.I.I.I.I.I.I.I.I.I.I.I.I.I.I.I.I.Y.Y.Y.Y.",
"Y.Y.Y.Y.U.I.I.I.I.I.I.I.I.I.I.I.I.I.I.I.I.E  . . . . . . . . .L P  .$.@.$.$.;.Q.B.$.b.I.I.I.I.I.I.I.I.I.I.I.I.I.I.I.I.U.Y.Y.Y.Y.",
"Y.Y.Y.Y.Y.Y.I.I.I.I.I.I.I.I.I.I.I.I.I.I.x.#.=.=.=.=.-.=.=.-.=.L } @.@.| V V ' m.~.2.{ P.I.I.I.I.I.I.I.I.I.I.I.I.I.I.U.Y.Y.Y.Y.Y.",
"Y.Y.Y.Y.Y.Y.U.I.I.I.I.I.I.I.I.I.I.I.I.I.n.1.1.<.1.<.1.<.1.<.>.K }  .P % = = = ) Z.A.#.d.I.I.I.I.I.I.I.I.I.I.I.I.I.Y.Y.Y.Y.Y.Y.Y.",
"Y.Y.Y.Y.Y.Y.Y.Y.I.I.I.I.I.I.I.I.I.I.I.I.E.~.~.~.~.~.~.~.~.~.C.P } } $ * ' ' M = ' :.=.T P.I.I.I.I.I.I.I.I.I.I.I.U.Y.Y.Y.Y.Y.Y.Y.",
"Y.Y.Y.Y.Y.Y.Y.Y.I.I.I.I.I.I.I.I.I.I.I.x.8.N.N.N.N.N.N.N.N.M.J P } f $ *.,.,.=.V h $.-.^ P.I.I.I.I.I.I.I.I.I.I.U.Y.Y.Y.Y.Y.Y.Y.Y.",
"Y.Y.Y.Y.Y.Y.Y.Y.Y.U.I.I.I.I.I.I.I.I.I.b.<.<.<.<.<.<.<.<.<.>.K P K O P $.<.<.8.=.h ' -.| v.I.I.I.I.I.I.I.I.I.Y.Y.Y.Y.Y.Y.Y.Y.Y.Y.",
"Y.Y.Y.Y.Y.Y.Y.Y.Y.Y.U.I.I.I.I.I.I.I.I.( <.<.<.<.<.<.<.<.<.O.P K s f  .@.$.,.S.G.' h =.#.i.I.I.I.I.I.I.I.I.Y.Y.Y.Y.Y.Y.Y.Y.Y.Y.Y.",
"Y.Y.Y.Y.Y.Y.Y.Y.Y.Y.Y.U.I.I.I.I.I.I.J.[ @.@.@.@.@.@.@.@. .K P x + _  .@.$.=.1.!.7.k X.=.D I.I.I.I.I.I.I.Y.Y.Y.Y.Y.Y.Y.Y.Y.Y.Y.Y.",
"Y.Y.Y.Y.Y.Y.Y.Y.Y.Y.Y.Y.U.I.I.I.I.I.v.}  . . . . . . . . .v K f $  . .@.$.$.-.S.W.) V =.c L.I.I.I.I.I.U.Y.Y.Y.Y.Y.Y.Y.Y.Y.Y.Y.Y.",
"Y.Y.Y.Y.Y.Y.Y.Y.Y.Y.Y.Y.Y.U.I.I.I.I.f. . . . . . . . . .P v v s v  . .@.$.$.$.,.T.m.l =.K h.I.I.I.I.U.Y.Y.Y.Y.Y.Y.Y.Y.Y.Y.Y.Y.Y.",
"Y.Y.Y.Y.Y.Y.Y.Y.Y.Y.Y.Y.Y.Y.Y.I.I.I.a P } P P P } P P } K v x + } } K } $.$.$.X.&.8.c #.L u.I.I.I.U.Y.Y.Y.Y.Y.Y.Y.Y.Y.Y.Y.Y.Y.Y.",
"Y.Y.Y.Y.Y.Y.Y.Y.Y.Y.Y.Y.Y.Y.Y.U.I.U.F K K K K K K K K K x v x % } j O.j $.$.' Q ! &.V ) P p Y.I.Y.Y.Y.Y.Y.Y.Y.Y.Y.Y.Y.Y.Y.Y.Y.Y.",
"Y.Y.Y.Y.Y.Y.Y.Y.Y.Y.Y.Y.Y.Y.Y.Y.I.I.c K K K K K K K K K x x f s L ` :.5.| $.k G.D.B X.c P I I.I.Y.Y.Y.Y.Y.Y.Y.Y.Y.Y.Y.Y.Y.Y.Y.Y.",
"Y.Y.Y.Y.Y.Y.Y.Y.Y.Y.Y.Y.Y.Y.Y.Y.I.l.v K K K K K K K K K f x s f j +. .6.C +.B T.^.G =.& P A I.I.Y.Y.Y.Y.Y.Y.Y.Y.Y.Y.Y.Y.Y.Y.Y.Y.",
"Y.Y.Y.Y.Y.Y.Y.Y.Y.Y.Y.Y.Y.Y.Y.Y.I.c.K K K K K K K K K K f x + v d @. .$.l ) &.<.H.V.` $ L z L.I.U.Y.Y.Y.Y.Y.Y.Y.Y.Y.Y.Y.Y.Y.Y.Y.",
"Y.Y.Y.Y.Y.Y.Y.Y.Y.Y.Y.Y.Y.Y.Y.Y.I.s.K K K K K K K K K K f x O K s  . .@.m M ,.=.:.R.Q s K x z.I.Y.Y.Y.Y.Y.Y.Y.Y.Y.Y.Y.Y.Y.Y.Y.Y.",
"Y.Y.Y.Y.Y.Y.Y.Y.Y.Y.Y.Y.Y.Y.Y.Y.I.i.K K K K K K K K K v f f + x f  . . .) = -. .@.G.~ c x x h.I.U.Y.Y.Y.Y.Y.Y.Y.Y.Y.Y.Y.Y.Y.Y.Y.",
"Y.Y.Y.Y.Y.Y.Y.Y.Y.Y.Y.Y.Y.Y.Y.Y.I.p K K K K K K K K K v f f + f x }  . .$.m @. . .3.W ! f x d.I.Y.Y.Y.Y.Y.Y.Y.Y.Y.Y.Y.Y.Y.Y.Y.Y.",
"Y.Y.Y.Y.Y.Y.Y.Y.Y.Y.Y.Y.Y.Y.Y.Y.I.E K K K K K K K K K v d s s d x K  . .@... . . .=.5.X.s f y.I.U.Y.Y.Y.Y.Y.Y.Y.Y.Y.Y.Y.Y.Y.Y.Y.",
"Y.Y.Y.Y.Y.Y.Y.Y.Y.Y.Y.Y.Y.Y.Y.Y.I.R K K K K K K K K K x f s d d f v  . . .$. . . .$.^ ` % f t I.Y.Y.Y.Y.Y.Y.Y.Y.Y.Y.Y.Y.Y.Y.Y.Y.",
"Y.Y.Y.Y.Y.Y.Y.Y.Y.Y.Y.Y.Y.Y.Y.Y.I.U K K K K K K K K K x f + f s f v P  . . . . .@.@.o.! $ f u I.Y.Y.Y.Y.Y.Y.Y.Y.Y.Y.Y.Y.Y.Y.Y.Y.",
"Y.Y.Y.Y.Y.Y.Y.Y.Y.Y.Y.Y.Y.Y.Y.Y.I.Y K K K K K K K K K x d + x % d v P  . . . . . .@.&.B $ d r I.Y.Y.Y.Y.Y.Y.Y.Y.Y.Y.Y.Y.Y.Y.Y.Y.",
"Y.Y.Y.Y.Y.Y.Y.Y.Y.Y.Y.Y.Y.Y.Y.Y.I.Y K K K K K K K K K f d + v s d v L  . . . . . . .&.B $ d e I.Y.Y.Y.Y.Y.Y.Y.Y.Y.Y.Y.Y.Y.Y.Y.Y.",
"Y.Y.Y.Y.Y.Y.Y.Y.Y.Y.Y.Y.Y.Y.Y.Y.I.G K K K K K K K K K f d O v % s v K }  . . . . . .*.B $ s e I.Y.Y.Y.Y.Y.Y.Y.Y.Y.Y.Y.Y.Y.Y.Y.Y.",
"Y.Y.Y.Y.Y.Y.Y.Y.Y.Y.Y.Y.Y.Y.Y.Y.I.3 s s d d s s d d s s d O K % & v K P  . .@. . .@.&.B $ s S I.Y.Y.Y.Y.Y.Y.Y.Y.Y.Y.Y.Y.Y.Y.Y.Y.",
"Y.Y.Y.Y.Y.Y.Y.Y.Y.Y.Y.Y.Y.Y.Y.Y.I., s s s s s s s s s % s + K % % x K K  . . . . .@.&.M $ & e I.Y.Y.Y.Y.Y.Y.Y.Y.Y.Y.Y.Y.Y.Y.Y.Y.",
"Y.Y.Y.Y.Y.Y.Y.Y.Y.Y.Y.Y.Y.Y.Y.Y.U., s s s s s s s s s % s O x s $ x K K K } P P  .@.o.M @ & S U.Y.Y.Y.Y.Y.Y.Y.Y.Y.Y.Y.Y.Y.Y.Y.Y.",
"Y.Y.Y.Y.Y.Y.Y.Y.Y.Y.Y.Y.Y.Y.Y.U.I., s s s s s s s s s & s O x s + x K K K K K K  .$...V + % D I.Y.Y.Y.Y.Y.Y.Y.Y.Y.Y.Y.Y.Y.Y.Y.Y.",
"Y.Y.Y.Y.Y.Y.Y.Y.Y.Y.Y.Y.Y.Y.Y.U.I., s & s s & s s s s & & + x & + d K K K K K K } $.! L $ % S I.Y.Y.Y.Y.Y.Y.Y.Y.Y.Y.Y.Y.Y.Y.Y.Y.",
"Y.Y.Y.Y.Y.Y.Y.Y.Y.Y.Y.Y.Y.Y.Y.Y.I.1 s s s s s s s & s % s + x s + s v K K K K v } =.B L + & 4 I.Y.Y.Y.Y.Y.Y.Y.Y.Y.Y.Y.Y.Y.Y.Y.Y.",
"Y.Y.Y.Y.Y.Y.Y.Y.Y.Y.Y.Y.Y.Y.Y.U.I.1 s s s & s s s s s % s O f d $ s x K K K K K P -.M K + & e I.U.Y.Y.Y.Y.Y.Y.Y.Y.Y.Y.Y.Y.Y.Y.Y.",
"Y.Y.Y.Y.Y.Y.Y.Y.Y.Y.Y.Y.Y.Y.Y.Y.I.1 s s s s s & s s s % & + f f + + f K K K K K P -.l v + & 9 I.Y.Y.Y.Y.Y.Y.Y.Y.Y.Y.Y.Y.Y.Y.Y.Y.",
"Y.Y.Y.Y.Y.Y.Y.Y.Y.Y.Y.Y.Y.Y.Y.Y.I.8 & s s s s s s s s % s + d x + + f x K K K K P ,.j x + & y I.U.Y.Y.Y.Y.Y.Y.Y.Y.Y.Y.Y.Y.Y.Y.Y.",
"Y.Y.Y.Y.Y.Y.Y.Y.Y.Y.Y.Y.Y.Y.Y.Y.I.9 s s s & s s s s s & s + & K + + s f K K K K } *.f x + & q I.U.Y.Y.Y.Y.Y.Y.Y.Y.Y.Y.Y.Y.Y.Y.Y.",
"Y.Y.Y.Y.Y.Y.Y.Y.Y.Y.Y.Y.Y.Y.Y.Y.I.7 s s s s s & s s s & s + % v s O s d x K K K | ! x x + & r.I.Y.Y.Y.Y.Y.Y.Y.Y.Y.Y.Y.Y.Y.Y.Y.Y.",
"Y.Y.Y.Y.Y.Y.Y.Y.Y.Y.Y.Y.Y.Y.Y.Y.I.q s s s & s s s s s & s + $ x d O + f f K K K  .h v f + s t.I.Y.Y.Y.Y.Y.Y.Y.Y.Y.Y.Y.Y.Y.Y.Y.Y.",
"Y.Y.Y.Y.Y.Y.Y.Y.Y.Y.Y.Y.Y.Y.Y.Y.I.q & s s s s s s & & * s $ + x f O O f d v K K #.j x d + & w.I.Y.Y.Y.Y.Y.Y.Y.Y.Y.Y.Y.Y.Y.Y.Y.Y.",
"Y.Y.Y.Y.Y.Y.Y.Y.Y.Y.Y.Y.Y.Y.Y.Y.I.t.s s s s s s s s s & s $ + f K +   d d x K K O.x x % + s h.I.Y.Y.Y.Y.Y.Y.Y.Y.Y.Y.Y.Y.Y.Y.Y.Y.",
"Y.Y.Y.Y.Y.Y.Y.Y.Y.Y.Y.Y.Y.Y.Y.Y.I.a.s s & s s & s * s s s $ O d v +   % d d v L ` x f $ $ s z.I.Y.Y.Y.Y.Y.Y.Y.Y.Y.Y.Y.Y.Y.Y.Y.Y.",
"Y.Y.Y.Y.Y.Y.Y.Y.Y.Y.Y.Y.Y.Y.Y.Y.I.g.$ $ $ $ $ $ $ $ $ $ & % + s x s O + f s x | m f f O $ * L.I.Y.Y.Y.Y.Y.Y.Y.Y.Y.Y.Y.Y.Y.Y.Y.Y.",
"Y.Y.Y.Y.Y.Y.Y.Y.Y.Y.Y.Y.Y.Y.Y.U.I.z.@ @ $ $ $ $ $ $ @ @ % % + & f x O   s f f +.% f d o $ 3 I.I.Y.Y.Y.Y.Y.Y.Y.Y.Y.Y.Y.Y.Y.Y.Y.Y.",
"Y.Y.Y.Y.Y.Y.Y.Y.Y.Y.Y.Y.Y.Y.Y.U.I.I.@ @ $ @ @ $ $ $ $ + $ s + $ f f +   s f f L & f & + $ e I.I.Y.Y.Y.Y.Y.Y.Y.Y.Y.Y.Y.Y.Y.Y.Y.Y.",
"Y.Y.Y.Y.Y.Y.Y.Y.Y.Y.Y.Y.Y.Y.Y.U.I.U.> @ @ $ $ @ $ $ $ $ + d $ + f f s + + f x f f f $ @ & u Y.I.Y.Y.Y.Y.Y.Y.Y.Y.Y.Y.Y.Y.Y.Y.Y.Y.",
"Y.Y.Y.Y.Y.Y.Y.Y.Y.Y.Y.Y.Y.Y.Y.I.I.I.w $ $ $ $ @ $ $ @ @ + s $ O d f s $ O d N * d f + $ & a.I.I.U.Y.Y.Y.Y.Y.Y.Y.Y.Y.Y.Y.Y.Y.Y.Y.",
"Y.Y.Y.Y.Y.Y.Y.Y.Y.Y.Y.Y.Y.Y.U.I.I.I.q.+ $ @ $ @ @ $ $ $ @ * $ + % f f $ @ s c s f d O $ s h.I.I.I.I.U.Y.Y.Y.Y.Y.Y.Y.Y.Y.Y.Y.Y.Y.",
"Y.Y.Y.Y.Y.Y.Y.Y.Y.Y.Y.Y.Y.I.I.I.I.I.j.+ @ @ $ $ $ @ @ $ $ % % + O f d & & s & f d % + @ * L.I.I.I.I.I.Y.Y.Y.Y.Y.Y.Y.Y.Y.Y.Y.Y.Y.",
"Y.Y.Y.Y.Y.Y.Y.Y.Y.Y.Y.Y.I.I.I.I.I.I.J.# @ $ $ @ @ $ $ @ $ $ & $ o s f f % d % f f O @ $ 2 I.I.I.I.I.I.I.U.U.Y.Y.Y.Y.Y.Y.Y.Y.Y.Y.",
"Y.Y.Y.Y.Y.Y.Y.Y.Y.Y.U.I.I.I.I.I.I.I.I.: @ @ $ $ $ $ $ @ @ $ * $ + $ f f $ & d f & o $ % e.I.I.I.I.I.I.I.I.U.Y.Y.Y.Y.Y.Y.Y.Y.Y.Y.",
"Y.Y.Y.Y.Y.Y.Y.Y.Y.U.I.I.I.I.I.I.I.I.I.0.@ $ @ @ $ @ $ @ @ @ s $ $   * f s @ f d O + $ s g.I.I.I.I.I.I.I.I.I.U.Y.Y.Y.Y.Y.Y.Y.Y.Y.",
"Y.Y.Y.Y.Y.Y.Y.Y.U.I.I.I.I.I.I.I.I.I.I.z.@ @ @ $ @ @ $ $ @ @ & % $ O O d f d f $ o $ $ g J.I.I.I.I.I.I.I.I.I.I.Y.Y.Y.Y.Y.Y.Y.Y.Y.",
"Y.Y.Y.Y.Y.Y.Y.Y.I.I.I.I.I.I.I.I.I.I.I.I.6 @ $ $ $ $ @ $ $ @ @ * $ $ o O & & + o + $ & 8 I.I.I.I.I.I.I.I.I.I.I.I.Y.Y.Y.Y.Y.Y.Y.Y.",
"Y.Y.Y.Y.Y.Y.I.I.I.I.I.I.I.I.I.I.I.I.I.I.q.+ @ $ $ $ + % % + + s $ + + o o     + $ $ s w.I.I.I.I.I.I.I.I.I.I.I.I.I.Y.Y.Y.Y.Y.Y.Y.",
"Y.Y.Y.Y.Y.Y.I.I.I.I.I.I.I.I.I.I.I.I.I.I.J.+ @ @ + + % + + + + s & $ $ $ + + + + @ % ; I.I.I.I.I.I.I.I.I.I.I.I.I.I.I.Y.Y.Y.Y.Y.Y.",
"Y.Y.Y.Y.U.I.I.I.I.I.I.I.I.I.I.I.I.I.I.I.I.0 + $ % + + % % + + + d $ $ $ + $ % $ @ s r.I.I.I.I.I.I.I.I.I.I.I.I.I.I.I.I.Y.Y.Y.Y.Y.",
"Y.Y.Y.U.I.I.I.I.I.I.I.I.I.I.I.I.I.I.I.I.L.l.O O O O O O O + O O $ s + $ % $ $ $ % * z.I.I.I.I.I.I.I.I.I.I.I.I.I.I.I.I.I.U.Y.Y.Y.",
"Y.Y.U.I.I.I.I.I.I.I.I.I.I.I.I.I.I.I.I.I.I.I.5   o o   o   o     o d s $ % + + s * t.I.I.I.I.I.I.I.I.I.I.I.I.I.I.I.I.I.I.I.Y.Y.Y.",
"Y.U.I.I.I.I.I.I.I.I.I.I.I.I.I.I.I.I.I.I.I.I.L.X o   o         o   + d s % % s d 9 L.I.I.I.I.I.I.I.I.I.I.I.I.I.I.I.I.I.I.I.I.U.Y.",
"Y.I.I.I.I.I.I.I.I.I.I.I.I.I.I.I.I.I.I.I.I.I.I.J.X o       o   o     + f f f d < L.I.I.I.I.I.I.I.I.I.I.I.I.I.I.I.I.I.I.I.I.I.I.U.",
"I.I.I.I.I.I.I.I.I.I.I.I.I.I.I.I.I.I.L.I.I.I.I.I.J.9.X . . . . . . . . . - 1 q J.I.I.I.I.I.I.I.I.I.I.L.I.I.I.I.I.I.I.I.I.I.I.I.I."
};
