/* XPM */
static char *result[] = {
/* columns rows colors chars-per-pixel */
"64 64 199 2 ",
"   c #9F7100",
".  c #9F790E",
"X  c #9D7C13",
"o  c #A27400",
"O  c #A77800",
"+  c #AB7C00",
"@  c #A27D0F",
"#  c #AF8100",
"$  c #AA850D",
"%  c #B28300",
"&  c #B78800",
"*  c #BB8C00",
"=  c #B58D0F",
"-  c #BE9100",
";  c #BD9D00",
":  c #B6910F",
">  c #BB950E",
",  c #AA8A17",
"<  c #BB9812",
"1  c #B69A1D",
"2  c #9D8523",
"3  c #9A913A",
"4  c #A48F27",
"5  c #B39A23",
"6  c #B28D34",
"7  c #A59A35",
"8  c #B7A42E",
"9  c #ADA43C",
"0  c #B9AB35",
"q  c #B5AA3B",
"w  c #BBB33B",
"e  c #BCBD3F",
"r  c #C39400",
"t  c #C69901",
"y  c #CA9A00",
"u  c #C1990A",
"i  c #C49E10",
"p  c #C5A400",
"a  c #CDA301",
"s  c #CBAB01",
"d  c #CBA30C",
"f  c #CAA90E",
"g  c #D3A400",
"h  c #D5AA01",
"j  c #DCAC00",
"k  c #D5AB09",
"l  c #CCB200",
"z  c #D3B300",
"x  c #DDB201",
"c  c #D4BD00",
"v  c #DCBB00",
"b  c #D8B10E",
"n  c #CEAB12",
"m  c #C4A519",
"M  c #CAAB1B",
"N  c #DEB51B",
"B  c #D1BD19",
"V  c #E2B200",
"C  c #E6BA00",
"Z  c #EBBB00",
"A  c #E4BC0B",
"S  c #E8BF09",
"D  c #C4AC26",
"F  c #C8BA29",
"G  c #DCBF2A",
"H  c #CCB436",
"J  c #D6C201",
"K  c #D9C400",
"L  c #DCCB00",
"P  c #D6C41D",
"I  c #DBD31B",
"U  c #E4C301",
"Y  c #ECC400",
"T  c #E3CC00",
"R  c #EBCB00",
"E  c #E7CB0A",
"W  c #F4C400",
"Q  c #F3CC01",
"!  c #FECD00",
"~  c #FFCF0B",
"^  c #E2D400",
"/  c #ECD300",
"(  c #E7DB00",
")  c #EBDE01",
"_  c #F4D401",
"`  c #FED300",
"'  c #F4DA00",
"]  c #FEDC00",
"[  c #E7C912",
"{  c #E1D31F",
"}  c #FFD113",
"|  c #FEDF15",
" . c #FFD41C",
".. c #EDE402",
"X. c #EEE70A",
"o. c #FEE400",
"O. c #FBE605",
"+. c #F2EB00",
"@. c #FEEC00",
"#. c #F7F200",
"$. c #FEF500",
"%. c #FEFD01",
"&. c #FCF70C",
"*. c #FEFC0A",
"=. c #EFE810",
"-. c #FEE415",
";. c #FEF014",
":. c #FEFD14",
">. c #FFFE1C",
",. c #CFC921",
"<. c #CFD029",
"1. c #C7C233",
"2. c #E2D429",
"3. c #FFD428",
"4. c #FFD83C",
"5. c #FFE027",
"6. c #FFFE22",
"7. c #FFF827",
"8. c #FEE43A",
"9. c #FFF738",
"0. c #FEFC3C",
"q. c #9C9943",
"w. c #999C4D",
"e. c #9AA356",
"r. c #9EAD5F",
"t. c #ABA744",
"y. c #A4A44E",
"u. c #AAAA4C",
"i. c #B1AF4B",
"p. c #B6B446",
"a. c #A2A654",
"s. c #A5AB55",
"d. c #ADAE51",
"f. c #A4AD5C",
"g. c #ACB154",
"h. c #ACBA59",
"j. c #B0B85A",
"k. c #96AB68",
"l. c #95B376",
"z. c #9AB572",
"x. c #9DBC7E",
"c. c #A4B262",
"v. c #A8B461",
"b. c #A3B66E",
"n. c #A5BB6C",
"m. c #A0B670",
"M. c #A0BA76",
"N. c #A1BD7C",
"B. c #B8C04D",
"V. c #EBD44F",
"C. c #FEDA41",
"Z. c #E2D452",
"A. c #FFDF5D",
"S. c #FEFE43",
"D. c #FFF44B",
"F. c #FEFB4B",
"G. c #FFEC5E",
"H. c #FAF854",
"J. c #FFFD5B",
"K. c #FFDF60",
"L. c #F3DA77",
"P. c #FEE469",
"I. c #FFFD6D",
"U. c #FEFE75",
"Y. c #95BD85",
"T. c #9FBF81",
"R. c #94BE8A",
"E. c #9FC185",
"W. c #94C08D",
"Q. c #9FC58C",
"!. c #93C596",
"~. c #9EC790",
"^. c #9ECA96",
"/. c #9FCC98",
"(. c #A0C284",
"). c #A0C58A",
"_. c #E1D281",
"`. c #FFE787",
"'. c #FFF889",
"]. c #FFE991",
"[. c #FFEB9A",
"{. c #FFF996",
"}. c #FEFD9D",
"|. c #FEEEAE",
" X c #FEFEA3",
".X c #FFFCB3",
"XX c #FEF5B9",
"oX c #FFFEB9",
"OX c #FBF3C6",
"+X c #FEFDC3",
"@X c #FFF5CD",
"#X c #FFFDCE",
"$X c #FFF6D6",
"%X c #FFFED4",
"&X c #FEFDDA",
"*X c #FFFCE3",
"=X c #FFFDEB",
"-X c #FFFDF4",
";X c #FFFEFD",
/* pixels */
"!.!.!.!.!.!.!.!.!.!.!.!.!.!.!.!.!.!.!.!.!.W.m.B.1.P T E E x a a y d a d g d m 0 g.z.W.!.!.!.!.!.!.!.!.!.!.!.!.!.!.!.!.!.!.!.!.!.",
"^.!.!.!.!.!.!.!.!.!.!.!.!.!.!.!.!.!.!.x.e E ] ] ] ] ] ] ] ] ! ! ! Z j j V V V V V j n t.Y.!.!.!.!.!.!.!.!.!.!.!.!.!.!.!.!.!.!.!.",
"/./.!.!.!.!.!.!.!.!.!.!.!.!.!.!.!.E.H / ' ] ] ] ] ] ] ] ] ] ` ! ! ! ! W V Z W W ! W W W A w R.!.!.!.!.!.!.!.!.!.!.!.!.!.!.!././.",
"/././.!.!.!.!.!.!.!.!.!.!.!.!.!.h.E O.] ] o.O.S.D.$.$.$.@.o.] ` ! ! ! ! ! W V ! ! ! ! ! ! ! b v.!.!.!.!.!.!.!.!.!.!.!.!.!.^././.",
"/././.^.!.!.!.!.!.!.!.!.!.!.W.F ] ] ] o.&.I.%X#X6.%.%.%.$.$.%.$.@.` ! ! ! ! ! j W ! ! ! ! ! ! Q w !.!.!.!.!.!.!.!.!.!.!././././.",
"/./././.^.!.!.!.!.!.!.!.!.R.,.' ] ] @.U.&X;X'.-.o.] ] ] ] ] ] ` ` o.o.! ! ! ! Z x W ! ! ! ! ! ! ! F R.!.!.!.!.!.!.!.!.!././././.",
"/././././.^.!.!.!.!.!.!.Y.B ] ] o.9.$X;XXX8.] _ R U v z v C T Q ! ! ! ] ! ! ! W Z j Q @.o.o.@.o.o.@.,.Y.!.!.!.!.!.!.^./././././.",
"/./././././.^.!.!.!.!.R.B _ ] o.0.=XXX8.] R s ; ; ; ; ; ; ; ; & # j ! ! ! ! ! W Z Z x +.*.*.*.*.*.*.*.<.W.!.!.!.!./././././././.",
"/././././././.^.!.!.W.F R ] o.%.;.-.3.E s ; ; s v R R Q R R v t     + j ! ! ! W Z Z Z N OX&X&X&X&X&X&X&X/.W.!.!././././././././.",
"/./././././././.^.!.p.R _ o.%.@.] ] P ; ; z _ ] o.@.$.%.%.$.$.@.Q y O   * W ! W Z Z Z Z G S.S.S.S.S.S.S.S.B.!.^././././././././.",
"/./././././././.^.n.R R ] %.@.] ] p H s _ ] $.F.9.%.%.%.%.$.@.o._ ! W -   + j Z Z Z Z Z Z T %.%.%.%.%.%.%.+.x.^././././././././.",
"/./././././././.).n R _ $.@.] _ p < V.] @.J.#X%X>.%.%.@.] ] ] ` ! ! ! ! j o O a h V Z Z Z V +.%.%.%.%.%.%.%.I ^././././././././.",
"/./././././././.i.V R o.$.] _ p ; [ P.7..X;XoX:.%.@.] ] ] ] ] ` ` ! ! ! ! Z O o y h V Z Z Z g ! ` ` ` ` ` ` ! j././././././././.",
"/././././././.T.k V Q $.] ] s ; T -.+X=X=XJ.*.%.o.] ] ] ] ] ] ` ! ! ! ` ! ! Z o O g g j Z Z g Z ! ! ! ! ! ! ! A Q./././././././.",
"/././././././.0 V V ..o.] v ; U | [.=XU.:.%.@.] ] ] ] o.] ] ] ! ! ! ! ! ! ! ! j   % g g V Z j g ! ` ! ! ! ! ! ! p./././././././.",
"/././././.^.(.k V V o.] R ; z ] D.U.&X( ^ / ] ] ] ] ] ] ] ] ` ! W C V Z ! ! ! W r   r g g V V g V Z W Z Z Y Z W b ^././././././.",
"/./././././.i.V V Z ` ' p p ' o.%.H.;XX.+...s U ] ] ] ] ] ] ` j c X.+.) p W ! W Z + O y g g Z g y V V V V V V V V d././././././.",
"/././././.).f V V W ! x ; U o.%.^ _.;X X X'.H.J U ] ] ] o.` h { F.;.o.@.$.z Y W Z y o r g g V g g j V V V V V V V M ~./././././.",
"/././././.n.V V V Q W O p ] $...J +X;X;X%X{.0.%.l R ] ] ] V 2.F.] ! ! ! ` #.s V Z Z + + y g g g g g V V V V V V V j N./././././.",
"/././././.q j j V ! y   V o.$.l 0.;X;X+X*.%.%.%.%.s ] ] Y c &.` ! ! ! ! ! ` ' r Z Z y O + g g g g r V V V V V V V V i./././././.",
"/./././.^.i j g Z W + % Q $.L =.%X;X;X;XG.o.@.%.%.+.h ` s $.] ! ! ! ` ! ! ! V y j Z V + O r g g g r j V V V V V V V i ^././././.",
"/./././.m.g g g Z g   y o.&.H oX;X;X;X;X;X@XP.5.&.%.c h ^ @.! ! ! ! ! ! ! ! j j r V V r o + g g g y g V V V V V V V j T././././.",
"/./././.u.g g g S = 6 L..X&X-X;X;X;X;X;X;X;X;X-X&X}.H.f $.! ! ! ! ! ! ! Z Z j j y j Z g o + r g g y y V V V V V V V V j././././.",
"/./././.8 g y y j + + ] :.Z.%X-X;X;X;X;X;X@X`.C.~ ` $.#.] ! ! ! ! ! ! W V j y g g y Z V + o r g y y r V V V V V V V V p././././.",
"/././.~.i g r y y   y ] +.I >.7.$X;X;X;X[.~ ! ! ` ! ` @.! ! ! ! ` ! ! V V j r y j r V Z r   + g y y r V V V V V V V V D ^./././.",
"/././.).i g r y r   V $.K +.%.%.4.;X;X-X} ! ! ! ! ! ! ! ! ! ! ! ! ! W V V g r y y r j Z r   + r y y r g V V V V V V V n ^.^././.",
"/././.N.g g & y + o Y %.l %.%.@.! &X;XOX! ! ! ! ! ` ! ! ! ` ! ! ! ! V V V g y y r r g Z j o + r y y y g V V V V V V V k Q./././.",
"/././.n.g g & y + O _ %.l %.%.@.! ].;X[.! ! ! ! ! ! ! ! ! ! ! ! ! Z V V V y y r y r y Z j O O + y y y y V V V V V V V j T./././.",
"/././.v.g y & y + + / %.s %.%.o.! K.;XL.! ! ! ` ! ! ! ! ! ` ! ! Z V V V V y r r % y y Z V + O % r y y y V V V V V V V j b./././.",
"/././.j.g y + r + + R +.p %.%.@.! 4.;XA.! ! ! ! ! ! ! ! ! ! ! Z V V V V V y y r + y y Z Z % O + & y y r r r r r r r r r c.^././.",
"/././.d.g g % & O % R ) t %.%.@.! 3.-XC.! ! ! ! ! ! ! ! ! ! Z V V V V V j r r & + y g Z j % o % % y y * r * r r r r r r f./././.",
"/././.i.g y & r O + T / a +.%.%.!  .=X3.! V V Z W ! W W Z V V V V V V V g y y O & & h Z j % O + & y y r r * r r r r r r s./././.",
"/././.i.g y & & O # v R j ( %.%.! ~ *X} Z V V V V V V V V V V V V V V V y r r   r % V j j % o % % y y * r r * r * r r * y./././.",
"/././.d.g y & & O # x R Z c %.%.` ! @X~ V V V V V V V V V V V V V V V g r y + O y * V j g % o % % y y * * r r r r r r r f./././.",
"/././.g.g y & % O + h C Z p %.%.] ! |.Z V V V V V V V V V V V V V V j y r r   + r y j j g % o % % y y * r r r r * r * * f./././.",
"/././.v.g y & % + O h j Z g ..%.@.! `.Z V V V V V V V V V V V V V V y y r O   r * g j j y + + % % y y * * r r * r r r r b./././.",
"/././.b.t a & & + o g h Z V s %.*.` K.V V V V V V V V V V V V V j g r y r   o r % V j j y o o % % y y * * r r r r r r r T./././.",
"/././.T.t y & % #   y g V Z g #.%.@.C.C V V V V V V V V V V V j g r y y o   + r y j j g y o + % % y y * r r r * r & r r Q./././.",
"/././.).u y * % %   r g g Z V v %.$.3.Z V V V V V V V V V V j g r y r +     r & j j j y r o + % * y r * * r * r r r r = /./././.",
"/./././.< y * % % o * g g V Z r +.%.] Z V V V V V V V V V V y r y r r     o r y j j j y % o % % * y r * r r r r r & r 6 /./././.",
"/./././.8 y r + % O O g g g V Z z %.$.W x V V V V V V V j y r y y y O     * % j j V g y + o % % r y * * * r * r r r r t.^./././.",
"/./././.u.y y + % +   y g g g Z a ..%.] V V V V V V V g r y y r r %     O * g j j g y r o + % % r r r r r r r r r r r f.^./././.",
"/./././.M.r y & % % o % g g g g Z y $.$.Z V V V V V g y y y y y r o     * r j j g y y *   + % % r y * r r * r r & r & T././././.",
"/././././.: y r % + O O y y y g h V c %.] V V V V y r r y r r r o     % % j j j y y y O o % % * y r * * r r r r r r , /././././.",
"/././././.9 y r % % + o * y y y y a r ( $.C V j y y y y y r y +     O % g j j y y y r   + % + r y * % % & & + & & + y./././././.",
"/././././.b.y y % % % o O y y y y y y - #.o.V j y r r y y y &     o * y j g y y y y + o + % % y y + % + + + & + + + T./././././.",
"/././././.~.u y * % % +   * y y y y y t ; $.R h y y y r r r o   o * * g y y y y y r   + % % * y r + % % + & + & + 1 ~./././././.",
"/./././././.y.y r % % % o o t y y y y t t s O.V y r y y r O o o * % y y y y y y y O   + % % r y * % + % & + & + + a././././././.",
"/./././././.E.u y & r + + O + y y y y y y r c _ a y r y %   O r % t y y y y y y %   + % % & y t + + % % # % # # , ~././././././.",
"/././././././.9 y r + & + +   r y y y y y r - K C t y * o % r % r y y y y y y *   O % % % r t & % % # % % # # # y.^././././././.",
"/././././././.E.u y & + r +     * y y y y y y * v h r % r y % r y y y y y y * o o # % # % y t # # % % # # % # $ )./././././././.",
"/./././././././.u.y r + + + + o o * y y y y y y * s g y r % r y y y y y y * O o + % % % r y & # # # # % # # # f.^./././././././.",
"/./././././././.~.i r r + + + & O o % r y y y y y * y y % r t y y y y y % o o + % % % % y r # # % # # % # # , ^././././././././.",
"/./././././././.^.b.r y r + & + + o o + r y y y y y * % r y y y y y r +   o # % % % % r t # # # % # % # # $ x.^././././././././.",
"/./././././././.^.R.y.y y + + & % % O     + r y y y y t y y y y r # o   O % + % % % r y & # # % # % # # # e.!.^././././././././.",
"/././././././.^.!.!.R.5 y y & + % % + + O     O % * * r * * % +   o o + % % % % % * y * # # # # % # # # 7 !.!.!.^./././././././.",
"/./././././.!.!.!.!.!.R.5 y r + % % % % % + O         o     o o o + % % + % % % & t - # # # # # % # # 2 !.!.!.!.!.^././././././.",
"/./././././.!.!.!.!.!.!.R.5 y y % % % % % % % % + + + + + + + # % % % % % % % * t - # # % # # # # # 4 W.!.!.!.!.!.!.^.^././././.",
"/./././.!.!.!.!.!.!.!.!.!.Y.5 y r * % % % % % % % + % % % + % % % % % % % % r y - # # # # # # # # 7 W.!.!.!.!.!.!.!.!.^././././.",
"/./././.!.!.!.!.!.!.!.!.!.!.!.6 y y r % % + % % % % % % % % % % % % % % * r y % O O O # + + O + q.W.!.!.!.!.!.!.!.!.!.^.^./././.",
"/././.!.!.!.!.!.!.!.!.!.!.!.!.!.r.> y y r & + % % % % % % % % % % % * r y r +               X k.!.!.!.!.!.!.!.!.!.!.!.!.!.^././.",
"/./.!.!.!.!.!.!.!.!.!.!.!.!.!.!.!.Y.7 u y y y r * * & & & & * * r y y r % o             . q.W.!.!.!.!.!.!.!.!.!.!.!.!.!.!.!.!./.",
"/.!.!.!.!.!.!.!.!.!.!.!.!.!.!.!.!.!.!.Y.y.: t y y y y y y y t y y r + o       o     X w.R.!.!.!.!.!.!.!.!.!.!.!.!.!.!.!.!.!.!./.",
"!.!.!.!.!.!.!.!.!.!.!.!.!.!.!.!.!.!.!.!.!.!.z.s.7 5 > > : = = $ @ . . X . X 2 3 e.l.W.!.!.!.!.!.!.!.!.!.!.!.!.!.!.!.!.!.!.!.!.!."
};
