/* XPM */
static char *result[] = {
/* columns rows colors chars-per-pixel */
"64 64 149 2 ",
"   c #2A1720",
".  c #2E1D24",
"X  c #331F27",
"o  c #331D2C",
"O  c #361F31",
"+  c #1F3534",
"@  c #222327",
"#  c #212A2C",
"$  c #322126",
"%  c #352529",
"&  c #3B272A",
"*  c #352D2C",
"=  c #3A2D2E",
"-  c #37302D",
";  c #3A2434",
":  c #3F2836",
">  c #3D253A",
",  c #233333",
"<  c #2D3433",
"1  c #243A39",
"2  c #3C3633",
"3  c #333A35",
"4  c #3C3B35",
"5  c #3B3E38",
"6  c #432B2A",
"7  c #442D33",
"8  c #422A3C",
"9  c #4A333C",
"0  c #433E39",
"q  c #4F383F",
"w  c #503330",
"e  c #503A3F",
"r  c #5A3E3D",
"t  c #2C423C",
"y  c #3C413A",
"u  c #33483F",
"i  c #44443C",
"p  c #48473E",
"a  c #44493F",
"s  c #494B3F",
"d  c #5D413E",
"f  c #60413D",
"g  c #4D3447",
"h  c #523C40",
"j  c #5A3F40",
"k  c #53394B",
"l  c #593F50",
"z  c #344342",
"x  c #3B4F43",
"c  c #444441",
"v  c #4C4540",
"b  c #4B4C42",
"n  c #544243",
"m  c #5D4342",
"M  c #554B46",
"N  c #594E47",
"B  c #564E48",
"V  c #4D5244",
"C  c #4D5749",
"Z  c #4F5849",
"A  c #515747",
"S  c #505947",
"D  c #57534A",
"F  c #535C4A",
"G  c #595B4D",
"H  c #634441",
"J  c #6D4B42",
"K  c #744F43",
"L  c #6F5145",
"P  c #775444",
"I  c #7C5243",
"U  c #7A5846",
"Y  c #635D58",
"T  c #6C5A5E",
"R  c #54624E",
"E  c #5A624F",
"W  c #566551",
"Q  c #5B6651",
"!  c #5C6B53",
"~  c #5C6C58",
"^  c #5F715B",
"/  c #626C56",
"(  c #63615E",
")  c #6D605F",
"_  c #616D59",
"`  c #63745D",
"'  c #6A735D",
"]  c #715562",
"[  c #735C63",
"{  c #636562",
"}  c #6A7C61",
"|  c #717662",
" . c #727863",
".. c #825644",
"X. c #875944",
"o. c #895A45",
"O. c #86716D",
"+. c #8E7973",
"@. c #6D8165",
"#. c #6C8368",
"$. c #6F8C6E",
"%. c #738D6E",
"&. c #77906F",
"*. c #769676",
"=. c #799371",
"-. c #779877",
";. c #7F9B77",
":. c #7B9D7A",
">. c #7EA37E",
",. c #80816D",
"<. c #868471",
"1. c #8C8876",
"2. c #96817C",
"3. c #958D7D",
"4. c #819E79",
"5. c #84A37C",
"6. c #7FA580",
"7. c #998F80",
"8. c #9C9282",
"9. c #A78887",
"0. c #AA8C87",
"q. c #AE8F8B",
"w. c #AE928F",
"e. c #AD9A8D",
"r. c #AE9B91",
"t. c #B39693",
"y. c #BC9F98",
"u. c #81A780",
"i. c #84AA82",
"p. c #8AAC82",
"a. c #8EB286",
"s. c #87B188",
"d. c #89B58B",
"f. c #8CBA8E",
"g. c #92B98B",
"h. c #8EBE91",
"j. c #B4A194",
"k. c #BBA29A",
"l. c #C2A19C",
"z. c #C0A89C",
"x. c #CBABA4",
"c. c #CEB0A6",
"v. c #D5B4AC",
"b. c #D9B6AF",
"n. c #DFBBB3",
"m. c #93C596",
"M. c #9BC593",
"N. c #9CCA97",
"B. c #9FCC98",
/* pixels */
"m.m.m.m.m.m.m.m.m.m.m.m.m.m.m.m.m.m.m.m.m.m.m.m.m.m.m.m.m.m.m.m.m.m.m.m.m.m.m.m.m.m.m.m.m.m.m.m.m.m.m.m.m.m.m.m.m.m.m.m.m.m.m.m.",
"N.m.m.m.m.m.m.m.m.m.m.m.m.m.m.m.m.m.m.m.m.m.m.m.m.m.m.m.m.m.m.m.m.m.m.m.m.m.m.m.m.m.m.m.m.m.m.m.m.m.h.m.m.m.m.m.m.m.m.m.m.m.m.m.",
"B.N.m.m.m.m.m.m.m.m.m.m.m.m.m.m.m.m.m.m.m.m.m.m.m.m.m.m.m.m.m.m.m.m.m.m.m.m.m.m.m.m.m.m.m.m.m.m.m.m.m.m.m.m.m.m.m.m.m.m.m.m.m.B.",
"B.B.N.m.m.m.m.m.m.m.m.m.m.m.m.m.m.m.m.m.m.m.m.m.m.m.m.m.m.m.m.m.m.m.m.m.m.m.m.m.m.h.m.m.m.m.m.m.m.m.m.m.m.m.m.m.m.h.m.m.m.N.B.B.",
"B.B.B.B.m.m.m.m.m.m.m.m.m.m.m.m.m.m.m.m.m.m.m.m.m.m.m.m.m.m.m.m.m.m.m.m.m.m.m.m.m.m.m.m.m.m.m.m.m.m.m.m.m.m.m.m.m.m.m.m.B.B.B.B.",
"B.B.B.B.B.m.m.m.m.m.m.m.m.m.m.m.m.m.m.m.m.m.m.m.m.m.m.m.m.m.m.m.m.m.m.m.m.m.m.m.m.m.m.m.m.m.m.m.m.m.m.m.m.m.m.m.m.m.m.N.B.B.B.B.",
"B.B.B.B.B.N.m.m.m.m.m.m.m.m.m.m.m.m.m.m.m.m.m.m.m.m.m.m.m.m.m.m.m.m.m.m.m.m.m.m.m.m.m.m.m.m.m.m.m.m.m.m.m.m.m.m.m.m.N.B.B.B.B.B.",
"B.B.B.B.B.B.N.m.m.m.m.m.m.m.m.m.m.m.m.m.m.m.m.m.m.m.m.m.m.m.m.m.m.m.m.m.m.m.m.m.m.m.m.m.m.m.m.m.m.m.m.m.m.m.m.m.m.B.B.B.B.B.B.B.",
"B.B.B.B.B.B.B.N.m.m.m.m.m.m.m.m.m.m.m.m.m.m.m.m.m.m.m.m.m.m.m.m.m.m.m.m.m.m.m.m.m.m.m.m.m.m.m.m.m.m.m.m.m.m.m.m.N.B.B.B.B.B.B.B.",
"B.B.B.B.B.B.B.B.N.m.m.m.m.m.m.m.m.m.m.m.m.m.m.m.m.m.m.m.m.m.m.m.m.m.m.m.m.m.m.m.m.m.m.m.m.m.m.m.m.m.m.m.m.m.m.N.B.B.B.B.B.B.B.B.",
"B.B.B.B.B.B.B.B.N.N.m.m.m.m.m.m.m.m.m.m.m.m.m.m.m.m.m.m.m.m.m.m.m.m.m.m.m.m.m.m.m.m.m.m.m.m.m.m.m.m.m.m.m.m.B.B.B.B.B.B.B.B.B.B.",
"B.B.B.B.B.B.B.B.N.N.N.m.m.m.m.m.m.m.m.m.m.m.m.m.m.m.m.m.m.m.m.m.m.m.m.m.m.m.m.m.m.m.m.m.m.m.m.m.m.m.m.m.m.B.B.B.B.B.B.B.B.B.B.B.",
"B.B.B.B.B.B.B.B.B.B.B.N.m.m.m.m.m.m.m.m.m.m.m.m.m.m.m.m.m.m.m.m.m.m.m.m.m.m.m.m.m.m.m.m.m.m.m.m.m.m.m.m.B.B.B.B.B.B.B.B.B.B.B.B.",
"B.B.B.B.B.B.B.B.B.B.B.B.N.N.m.m.m.m.m.m.m.m.m.m.m.m.m.m.m.m.m.m.m.m.m.m.m.m.m.m.m.m.m.m.m.m.m.m.m.m.m.B.B.B.B.B.B.B.B.B.B.B.B.B.",
"B.B.B.B.B.B.B.B.B.B.B.B.N.N.m.m.m.m.m.m.m.m.m.m.m.m.m.m.m.m.m.m.m.m.m.m.m.m.m.m.m.m.m.m.m.m.m.m.m.m.N.B.B.B.B.B.B.B.B.B.B.B.B.B.",
"B.B.B.B.B.B.B.B.B.B.B.B.B.N.N.m.m.m.m.m.m.m.m.m.m.m.m.m.m.m.m.m.m.m.m.m.m.m.m.m.m.m.m.m.m.m.m.m.m.N.B.B.B.B.B.B.B.B.B.B.B.B.B.B.",
"B.B.B.B.B.B.B.B.B.B.B.B.B.B.B.B.N.N.N.N.B.N.B.N.B.B.B.B.N.B.B.N.B.N.N.B.N.B.B.B.N.B.B.B.N.N.N.m.B.B.B.B.B.B.B.B.B.B.B.B.B.B.B.B.",
"B.B.B.B.B.B.B.B.B.B.B.B.B.B.B.B.m.m.N.N.B.B.B.B.B.B.B.B.B.B.B.B.B.B.B.B.B.B.B.B.B.B.B.B.B.N.m.m.B.B.B.B.B.B.B.B.B.B.B.B.B.B.B.B.",
"B.B.B.B.B.B.B.B.B.B.B.B.B.B.B.B.m.m.N.N.B.B.B.B.B.B.B.B.B.B.B.B.B.B.B.B.B.B.B.B.B.B.B.B.N.m.m.m.N.B.B.B.B.B.B.B.B.B.B.B.B.B.B.B.",
"B.B.B.B.B.B.B.B.B.B.B.B.B.B.B.B.m.m.m.m.N.B.B.B.B.B.B.B.B.B.B.B.B.B.B.B.B.B.B.B.B.B.B.N.m.m.m.m.B.B.B.B.B.B.B.B.B.B.B.B.B.B.B.B.",
"B.B.B.B.B.B.B.B.B.B.B.B.B.B.B.B.m.m.m.m.m.N.B.B.B.B.B.B.B.B.B.B.B.B.B.B.B.B.B.B.B.B.N.m.m.m.m.m.N.B.B.B.B.B.B.B.B.B.B.B.B.B.B.B.",
"B.B.B.B.B.B.B.B.B.B.B.B.B.B.B.B.m.m.m.m.m.m.N.B.B.B.B.B.B.B.B.B.B.B.B.B.B.B.B.B.B.N.m.m.m.m.m.m.B.B.B.B.B.B.B.B.B.B.B.B.B.B.B.B.",
"B.B.B.B.B.B.B.B.B.B.B.B.B.B.B.B.m.m.m.m.m.m.N.N.B.B.B.B.B.B.B.B.B.B.B.B.B.B.B.B.B.m.m.m.m.m.m.m.N.B.B.B.B.B.B.B.B.B.B.B.B.B.B.B.",
"B.B.B.B.B.B.B.B.B.B.B.B.B.B.B.B.m.m.m.m.h.6.6.i.a.B.B.B.B.B.B.B.B.B.B.B.B.B.B.N.m.m.m.m.m.m.m.m.B.B.B.B.B.B.B.B.B.B.B.B.B.B.B.B.",
"B.B.B.B.B.B.B.B.B.B.B.B.B.B.B.B.m.m.f.-.` * - * 0 =.5.B.B.B.B.B.B.B.B.B.B.B.N.m.m.m.m.m.m.m.m.m.B.B.B.B.B.B.B.B.B.B.B.B.B.B.B.B.",
"B.B.B.B.B.B.B.B.B.B.B.B.B.B.B.B.m.m.@.2 p ! ! ! R 2 V 5.B.B.B.B.B.B.B.B.B.N.m.m.m.m.m.m.m.m.m.m.B.B.B.B.B.B.B.B.B.B.B.B.B.B.B.B.",
"B.B.B.B.B.B.B.B.B.B.B.B.B.B.B.B.m.` a ! ! ! ! ! ! ! R A 5.B.B.B.B.B.B.B.N.m.m.m.m.m.m.m.m.m.m.m.B.B.B.B.B.B.B.B.B.B.B.B.B.B.B.B.",
"B.B.B.B.B.B.B.B.B.B.B.B.B.B.B.B.` b ` 3.! ! ! ! ! ! ! F S 5.B.B.B.B.B.B.m.m.m.m.m.m.m.m.m.m.m.m.B.B.B.B.B.B.B.B.B.B.B.B.B.B.B.B.",
"B.B.B.B.B.B.B.B.B.B.B.B.B.B.B.B.a 2.T q.[ 1.! ! ! ! ! ! 4 &.B.B.B.B.B.m.m.m.m.m.m.m.m.m.m.m.m.m.B.B.B.B.B.B.B.B.B.B.B.B.B.B.B.B.",
"B.B.B.B.B.B.B.B.B.B.B.B.B.B.B.B.p 2.k k ] 3.! ! ! ! ! ! R i 5.N.B.N.m.m.m.m.m.m.m.m.m.m.m.m.m.m.B.B.B.B.B.B.B.B.B.B.B.B.B.B.B.B.",
"B.B.B.B.B.B.B.B.B.B.B.B.B.B.B.B.i l 8 > g Y ! ! ! ! ! ! ! * ;.N.N.m.m.m.m.m.m.m.m.m.m.m.m.m.m.m.B.B.B.B.B.B.B.B.B.B.B.B.B.B.B.B.",
"B.B.B.B.B.B.B.B.B.B.B.B.B.B.B.B.p 9.l l ] 7.! ! ! ! ! ! ! * :.m.m.m.m.m.m.m.m.m.m.m.6.>.m.m.m.N.B.B.B.B.B.B.B.B.B.B.B.B.B.B.B.B.",
"B.B.B.B.B.B.B.B.B.B.B.B.B.B.B.N._ O.) j.) <.! ! ! ! ! ! Q * >.m.m.m.m.m.m.m.m.m.m.u.i   6.m.m.m.N.B.B.B.B.B.B.B.B.B.B.B.B.B.B.B.",
"B.B.B.B.B.B.B.B.B.B.B.B.B.B.B.N.m.0 / 1.! ! ! ! ! ! ! ! ! * :.B.B.m.m.m.m.m.m.m.u.v O o 6.m.m.m.N.B.B.B.B.B.B.B.B.B.B.B.B.B.B.B.",
"B.B.B.B.B.B.B.B.B.B.B.B.B.B.B.N.` +.e.3.! ! ! ! ! ! ! ! ! - 5.B.B.N.m.m.m.m.m.6.0 8 g 7 F 6.C V =.B.B.B.B.B.B.B.B.B.B.B.B.B.B.B.",
"B.B.B.B.B.B.B.B.B.B.B.B.B.B.B.' < k.n.v.3.! ! ! ! ! ! ! Q - 5.B.B.B.B.m.m.m.m.:.X f I j . 4 O o ' B.B.N.N.N.B.B.B.B.B.B.B.B.B.B.",
"B.B.B.B.B.B.B.B.B.B.B.B.B.B.B.Q < k.n.n.j.^ ! ! ! ! ! ! i @.M.B.B.B.B.B.m.m.-.y f ..X.6   O > O ~ g.p.b 2 G B.B.B.B.B.B.B.B.B.B.",
"B.B.B.B.B.B.B.B.B.B.B.B.B.B.B.p.B k.n.n.v.3.! ! ! ! ! ! 4 } p.M.B.M.a.5.6.b 2 d X.o...6 ; > > o $ * = ; ; c B.B.B.B.B.B.B.B.B.B.",
"B.B.B.B.B.B.B.B.B.B.B.B.B.B.B.F 0.n.n.n.n.e.! ! ! ! ! ! a % * %.5.' 6 6 6 d I o.X...H j j 8 > : 7 q 8 ; ; Q B.B.B.B.B.B.B.B.B.B.",
"B.B.B.B.B.B.B.B.B.B.B.B.B.B.B.S q.n.n.n.n.3.! ! ! ! ! ! ! D h & 6 w f o.o.o.o.o...H j ....9 9 J H h 8 ; ! N.B.B.B.B.B.B.B.B.B.B.",
"B.B.B.B.B.B.B.B.B.B.B.B.B.B.5.y w.n.n.n.n.8.! ! ! ! ! ! ! ! D d f f I U L J J J H m ..X.J j J H h 8 & / M.B.B.B.B.B.B.B.B.B.B.B.",
"B.B.B.B.B.B.B.B.B.B.B.B.B.B.` # e.n.n.n.n.8.! ! ! ! ! ! ! ~ ! E E E G ! M J P J j ..o.J r J H h g 9 % a.B.B.B.B.B.B.B.B.B.B.B.B.",
"B.B.B.B.B.B.B.B.B.B.B.B.B.4.2 + e.n.n.n.k.} ! ! ! ! ! ! ! ! ! ! ! ! ! D J X.o.I H o.J j K I h h q q & 5.B.B.B.B.B.B.B.B.B.B.B.B.",
"B.B.B.B.B.B.B.B.B.B.B.B.B.&.@ 1 t.n.n.n.r.! ! ! ! ! ! ! ! ! ! ! ! ! ! N I o.o.P h m n h P m h h e e $ i a.B.B.B.B.B.B.B.B.B.B.B.",
"B.B.B.B.B.B.B.B.B.B.B.B.B.4.< , 2.b.n.n.r.! ! ! ! ! ! ! ! ! ! ! ! ! G J X...U m D Q Q Q E m n n e e e 9 s a.B.B.B.B.B.B.B.B.B.B.",
"B.B.B.B.B.B.B.B.B.B.B.B.B.N.@.i % y.n.n.r.! ! ! ! ! ! ! ! ! ! ! ! ! D J I d G ! ! ! ! ! ! ! Q G M h e e 9 s B.B.B.B.B.B.B.B.B.B.",
"B.B.B.B.B.B.B.B.B.B.B.B.B.B.B.N.p y.n.n.z. .! ! ! ! ! ! ! ! ! ! ! ! G n e e n G ! ! ! ! ! ! ! ! ! N e e 9 p B.B.B.B.B.B.B.B.B.B.",
"B.B.B.B.B.B.B.B.B.B.B.B.B.B.N.N.#.O.v.n.n.8.! ! ! ! ! ! ! ! ! ! ! ! ! G D n h h G ! ! ! ! ! ! Q D n h h 9 d B.B.B.B.B.B.B.B.B.B.",
"B.B.B.B.B.B.B.B.B.B.B.B.B.B.B.B.h.n x.n.n.8.! ! ! ! ! ! ! ! ! ! ! ! ! ! ! G D h M ! ! ! ! ! ! G e h h h s s B.B.B.B.B.B.B.B.B.B.",
"B.B.B.B.B.B.B.B.B.B.B.B.B.B.m.M.h.5 ( v.n.c.,.! ! ! ! ! ! ! ! ! ! ! ! ! ! ! M n E ! ! ! ! ! ! G N E G E S s M.B.B.B.B.B.B.B.B.B.",
"B.B.B.B.B.B.B.B.B.B.B.B.B.m.m.m.h.4 1 { x.c.l.| ! ! ! ! ! ! ! ! ! ! ! ! ! ! Q Q ! ! ! ! ! ! ! Q E ! ! ! Q s ` B.B.B.B.B.B.B.B.B.",
"B.B.B.B.B.B.B.B.B.B.B.B.m.m.m.m.h.3 + + z z h C ! ! ! W R F S S ! ! ! W R S S F ! ! ! R R S F R ! ! ! R F s E B.B.B.B.B.B.B.B.B.",
"B.B.B.B.B.B.B.B.B.B.N.m.m.m.m.m.h.C + + + ~ m.W V ! Q x , 5 i i C ! W u , 5 i a F ! R t + y a a R ! C i y i ' B.B.B.B.B.B.B.B.B.",
"B.B.B.B.B.B.B.B.B.N.m.m.m.m.m.m.m.d.* # , $.m.6.W s y # t >.m.d.Z s y # x s.m.6.V s < # C f.m.-.V s * i.m.m.N.B.B.B.B.B.B.B.B.B.",
"B.B.B.B.B.B.B.B.B.m.m.m.m.m.m.m.m.f.` ~ $.m.m.m.f.` ~ ~ :.m.m.m.s.~ ! ! i.m.m.m.6.~ ! ^ 6.m.m.m.*.! ^ d.m.m.m.B.B.B.B.B.B.B.B.B.",
"B.B.B.B.B.B.B.B.m.m.m.m.m.m.m.m.m.m.m.m.m.m.m.m.m.m.m.m.m.m.m.m.m.m.m.m.m.m.m.m.m.m.m.m.m.m.m.m.m.m.m.m.m.m.m.m.B.B.B.B.B.B.B.B.",
"B.B.B.B.N.N.N.m.m.m.m.m.m.m.m.m.m.m.m.m.m.m.m.m.m.m.m.m.m.m.m.m.m.m.m.m.m.m.m.m.m.m.m.m.m.m.m.m.m.m.m.m.m.m.m.m.N.N.B.B.B.B.B.B.",
"B.B.B.B.N.N.m.m.m.m.m.m.m.m.m.m.m.m.m.m.m.m.m.m.m.m.m.m.m.m.m.m.m.m.m.m.m.m.m.m.m.m.m.m.m.m.m.m.m.m.m.m.m.m.m.m.m.m.N.B.B.B.B.B.",
"B.B.N.B.N.m.m.m.m.m.m.m.m.m.m.m.m.m.m.m.m.m.m.m.m.m.m.m.m.m.m.m.m.m.m.m.m.m.m.m.m.m.m.m.m.m.m.m.m.m.m.m.m.m.m.m.m.m.m.B.B.B.B.B.",
"B.B.N.N.N.m.m.m.m.m.m.m.m.m.m.m.m.m.m.m.m.m.m.m.m.m.m.m.m.m.m.m.m.m.m.m.m.m.m.m.m.m.m.m.m.m.m.m.m.m.m.m.m.m.m.m.m.m.m.m.N.B.B.B.",
"B.B.N.m.m.m.m.m.m.m.m.m.m.m.m.m.m.m.m.m.m.m.m.m.m.m.m.m.m.m.m.m.m.m.m.m.m.m.m.m.m.m.m.m.m.m.m.m.m.m.m.m.m.m.m.m.m.m.m.m.m.B.B.B.",
"B.N.m.m.m.m.m.m.m.m.m.m.m.m.m.m.m.m.m.m.m.m.m.m.m.m.m.m.m.m.m.m.m.m.m.m.m.m.m.m.m.m.m.m.m.m.m.m.m.m.m.m.m.m.m.m.m.m.m.m.m.m.M.B.",
"N.N.m.m.m.m.m.m.m.m.m.m.m.m.m.m.m.m.m.m.m.m.m.m.m.m.m.m.m.m.m.m.m.m.m.m.m.m.m.m.m.m.m.m.m.m.m.m.m.m.m.m.m.m.m.m.m.m.m.m.m.m.m.B.",
"m.m.m.m.m.m.m.m.m.m.m.m.m.m.m.m.m.m.m.m.m.m.m.m.m.m.m.m.m.m.m.m.m.m.m.m.m.m.m.m.m.m.m.m.m.m.m.m.m.m.m.m.m.m.m.m.m.m.m.m.m.m.m.m."
};
