/* XPM */
static char *result[] = {
/* columns rows colors chars-per-pixel */
"64 64 78 1 ",
"  c #010100",
". c #090602",
"X c #0F0904",
"o c #150D0E",
"O c #1B1112",
"+ c #23160E",
"@ c #26180F",
"# c #2B1A0D",
"$ c #311E0F",
"% c #241711",
"& c #2C1B14",
"* c #241718",
"= c #271919",
"- c #2D1C1C",
"; c #321E15",
": c #341F1D",
"> c #352113",
", c #3C2413",
"< c #36211B",
"1 c #3A231B",
"2 c #211724",
"3 c #241A24",
"4 c #2A1C23",
"5 c #261D2A",
"6 c #2B262B",
"7 c #33262D",
"8 c #332A2A",
"9 c #3D322A",
"0 c #2E2534",
"q c #322731",
"w c #352832",
"e c #352C3A",
"r c #373835",
"t c #402614",
"y c #462A15",
"u c #4B2B16",
"i c #44261C",
"p c #452A1B",
"a c #4B2C1B",
"s c #512E17",
"d c #532E1B",
"f c #4E301B",
"g c #56301A",
"h c #5B321B",
"j c #62351C",
"k c #64381F",
"l c #4A2C22",
"z c #5E3722",
"x c #5F3A22",
"c c #43333B",
"v c #663B22",
"b c #693E25",
"n c #654027",
"m c #6B4127",
"M c #6C442A",
"N c #70462C",
"B c #72492E",
"V c #744B30",
"C c #363045",
"Z c #413B53",
"A c #4D4554",
"S c #50475A",
"D c #4E5D50",
"F c #556757",
"G c #5A5366",
"H c #625B6C",
"J c #837177",
"K c #8A7678",
"L c #69846A",
"P c #6E886B",
"I c #799E7C",
"U c #83AB84",
"Y c #8AAF85",
"T c #88B58B",
"R c #8CBB8F",
"E c #93C596",
"W c #9CCA97",
"Q c #9FCC98",
/* pixels */
"EEEEEEEEEEEEEEEEEEEEEEEEEEEEEEEEEEEEEEEEEEEEEEEEEEEEEEEEEEEEEEEE",
"WEEEEEEEEEEEEEEEEEEEEEEEEEEEEEEEEEEEREEEEEEEEEEEEEEEEEEEEEEEEEEW",
"QWEEEEEEEEEEEEEEEEEEEEEEEEEEEEEEEEEEEEEEEEEEEEEEEEEEEEEEEEEEEEWW",
"QQWEEEEEEEEEEEEEEEEEEEEEEEEEEEEEEEEEEEEEEEEEEEEEEEEEEEEEEEEEEWQQ",
"QQQWEEEEEEEEEEEEEEEEEEEEEEEEEEEEEEEEEEEEEEEEEEEEEEEEEEEEEEEEWQQQ",
"QQQQQEEEEEEEEEEEEEEEEEEEEEEEEEEEEEEEEEEEEEEEEEEEEEEEEREEEEEWQQQQ",
"QQQQQWEEEEEEEEEEEEEEEEEEEEEEEEEEEEEEEEEEEEEEEEEEEEEEEEEEEEWQQQQQ",
"QQQQQQQEEEEEEEEIDDDDDDDDDDDDDDDDDDDDDDDDDDDDDDDFTEEEEEEEEQQQQQQQ",
"QQQQQQQWEEEEEEEL-iiiiiiiiiiiiiii1iiiiiiiiiiiiii6UEEEEEEEWQQQQQQQ",
"QQQQQQQQWEEEEEEL:jjbjjjjjjjmjjjjjjhvbjjjjjjjbjh8UEEEEEEWQQQQQQQQ",
"QQQQQQQQQWEEEEEL:hdziiiiipjhhiiiiipjhhiiiiiavsd8UEEEEEWQQQQQQQQQ",
"QQQQQQQQQWWEEEEL:hhs*oooO1hdd=oooO:hsh-Oooo:hsh8UEEEEQQQQQQQQQQQ",
"QQQQQQQQQQQWEEEL:jjh%   X1jjd&   .,hjh;    ;hjh8UEEEWQQQQQQQQQQQ",
"QQQQQQQQQQQQWEEL:jjg#   Xujjh$   .tjjh$.  .>jjh8UEEEQQQQQQQQQQQQ",
"QQQQQQQQQQQQQWEL:jjd#   Xyjjh$   X,hjh$.  .,hjh8UEWQQQQQQQQQQQQQ",
"QQQQQQQQQQQQQQWL:jjg#   Xyjjh$   .tjjh,   .,hjh8UWQQQQQQQQQQQQQQ",
"QQQQQQQQQQQQQQQP:jjg#   Xyjjh$   .thjh,.  .,hhh8YQQQQQQQQQQQQQQQ",
"QQQQQQQQQQQQQQQP:jjg#   Xyjjh$   .tjjh;    ,hvh8YQQQQQQQQQQQQQQQ",
"QQQQQQQQQQQQQQQP:jjg,>>>>yjjh,;>>>tjjht>>>>thjh8YQQQQQQQQQQQQQQQ",
"QQQQQQQQQQQQQQQP:jjjgmmmvdjjhdmmmbsjjjdbmmbdjjh8YQQQQQQQQQQQQQQQ",
"QQQQQQQQQQQQQQQP:jjvvjjjjjvvjjjjjjjjvjjjjjjvvjh8YQQQQQQQQQQQQQQQ",
"QQQQQQQQQQQQQQQP:hhvppaapdjzhapuaaajxhaapapdvhd8YQQQQQQQQQQQQQQQ",
"QQQQQQQQQQQQQQQP8gdd=OOOO1hsg:;i1;:hsh-OOOO:gdg8YQQQQQQQQQQQQQQQ",
"QQQQQQQQQQQQQQQP:jjd%   X1jjh:sjji1jjh-   .;hjh8YQQQQQQQQQQQQQQQ",
"QQQQQQQQQQQQQQQP:jjh#   Xyjjhyjjjhyjjh,   .,hhh8YQQQQQQQQQQQQQQQ",
"QQQQQQQQQQQQQQQP:jjg#   Xyjjgyjjjhyhjh,   .,hjh8YQQQQQQQQQQQQQQQ",
"QQQQQQQQQQQQQQQP;jjg#   Xyjjgyjjjhyjjh,    ,hjh8YQQQQQQQQQQQQQQQ",
"QQQQQQQQQQQQQQQP:jjg#   Xyhjhyjjjhyhjh,   .,hjh8YQQQQQQQQQQQQQQQ",
"QQQQQQQQQQQQQQQP:jjg#   Xyjjhyvvbhyhjh,   .,hjz8YQQQQQQQQQQQQQQQ",
"QQQQQQQQQQQQQQQP:jjh$+++#yjjhuBVBMujjh,@%%@tjjg8YQQQQQQQQQQQQQQQ",
"QQQQQQQQQQQQQQQP:jjjhNmNbujjhgmMNnsjjhsmNbbshjh8YQQQQQQQQQQQQQQQ",
"QQQQQQQQQQQQQQQP:jjkjjjjjjjvjjjjjjjjkjjjjjjjvjh8YQQQQQQQQQQQQQQQ",
"QQQQQQQQQQQQQQQP<hhbddddddjbjdddgdgjbhggddddbzh8YQQQQQQQQQQQQQQQ",
"QQQQQQQQQQQQQQQP:had-:1:-<hud-::<-<hug<-1:::gid8YQQQQQQQQQQQQQQQ",
"QQQQQQQQQQQQQQQP:jjd<ujht1jjh;yjhy1hjh<pjhy<lcl6YQQQQQQQQQQQQQQQ",
"QQQQQQQQQQQQQQQP:jjhyjjjhyjjhyjjjhyhjhyhjjh,4A56YQQQQQQQQQQQQQQQ",
"QQQQQQQQQQQQQQQP:jjhujjjhtjjhyhjjhyhjhyhjjjt3526YQQQQQQQQQQQQQQQ",
"QQQQQQQQQQQQQQQP:jjhujjjhyjjhyjjjhyjjhyjjjhtqS06YQQQQQQQQQQQQQQQ",
"QQQQQQQQQQQQQQQP:jjdyjjjhyjjhyjjjhyhjhyhjjh,7Kq6YQQQQQQQQQQQQQQQ",
"QQQQQQQQQQQQQQQP:jjgyvjvhyjjhyjvkhyjjhykkvkt7Jq6YQQQQQQQQQQQQQQQ",
"QQQQQQQQQQQQQQQP:jjhaBVBnyjjhuVVBmyjjhuMVVMpeHe6YQQQQQQQQQQQQQQQ",
"QQQQQQQQQQQQQQQP:jjhgNNBnajjhfMMBmshjhaMBMMpeGe7YQQQQQQQQQQQQQQQ",
"QQQQQQQQQQQQQQQP:jjjhvjjjhjkjjjjjjjjjjhjjvjhwZ06YQQQQQQQQQQQQQQQ",
"QQQQQQQQQQQQQQQP:jjbdhghghkbjdhhgghjbvhgdgha4C26YQQQQQQQQQQQQQQQ",
"QQQQQQQQQQQQQQQP:hsd::1<:1hsd;;11:1hsg<;1:;-44=6YQQQQQQQQQQQQQQQ",
"QQQQQQQQQQQQQQQP:jjs;uzg,1jhg:phg,1hhh1yhht:djd8YQQQQQQQQQQQQQQQ",
"QQQQQQQQQQQQQQQP:jjgyhjjdyjjhyjjjgyhkgyhjjhyjjh8YQQQQQQQQQQQQQQQ",
"QQQQQQQQQQQQQQQL:jjdujjjhyhjhyhjkhyhjhyhjjhyhjh8YQQQQQQQQQQQQQQQ",
"QQQQQQQQQQQQQQWH:jjdyjjjhyjjhyhjjhyhjgyhjjhyhjh8YWQQQQQQQQQQQQQQ",
"QQQQQQQQQQQQQWQP:jjhyjjjdyjjhyjjjhyjjhuhjjhyjjh8UEWQQQQQQQQQQQQQ",
"QQQQQQQQQQQQWEEP<jjgukkvhyjjhyjvjhyjjhpkjvvyhjg8UEEWQQQQQQQQQQQQ",
"QQQQQQQQQQQQEEEL<jjggBBNbyjjhuBBBmyjjhuMBNmuhjh8UEEEWQQQQQQQQQQQ",
"QQQQQQQQWWWEEEEP<hkggNNNvyjkhuMBBMujjhuMNBmavhg8UEEEEWQQQQQQQQQQ",
"QQQQQQQQWWEEEEEL<hvmhkkkkhkmkhkkjjhkbvhvjvjjmhh8UEEEEEWQQQQQQQQQ",
"QQQQQQQQWEEEEEEL-gfhhhhhhhgphhhhhhhgughhhhhhzta8UEEEEEEWQQQQQQQQ",
"QQQQQQQQEEEEEEEP89999999999999999999999999rl999rUEEEEEEEWQQQQQQQ",
"QQQQQWEEEEEEEEEEUUUUUUUUUUUUUUUUUUUUUUUUUUUUUUUUREEEEEEEEQQQQQQQ",
"QQQQQWEEEEEEEEEEEEEEEEEEEEEEEEEEEEEEEEEWEEEEEEEEEEEEEEEEEEWQQQQQ",
"QQQWWEEEEEEEEEEEEEEEEEEEEEEEEEEEEEEEEEEEEEEEEEEEEEEEEEEEEEEQQQQQ",
"QQQQEEEEEEEEEEEEEEEEEEEEEEEEEEEEEEEEEEEEEEEEEEEEEEEEEEEEEEEEWQQQ",
"QWQEEEEEEEEEEEEEEEEEEEEEEEEEEEEEEEEEEEEEEEEEEEEEEEEEEEEEEEEEEWQQ",
"QQEEEEEEEEEEEEEEEEEEEEEEEEEEEEEEEEEEEEEEEEEEEEEEEEEEEEEEEEEEEEWQ",
"QEEEEEEEEEEEEEEEEEEEEEEEEEEEEEEEEEEEEEEEEEEEEEEEEEEEEEEEEEEEEEEW",
"EEEEEEEEEEEEEEEEEEEEEEEEEEEEEEEEEEEEEEEEEEEEEEEEEEEEEEEEEEEEEEEE"
};
