/* XPM */
static char *result[] = {
/* columns rows colors chars-per-pixel */
"64 64 193 2 ",
"   c #010D0E",
".  c #160B0F",
"X  c #030C11",
"o  c #060B1B",
"O  c #08081B",
"+  c #160B14",
"@  c #1A0B15",
"#  c #041315",
"$  c #091615",
"%  c #04161A",
"&  c #091519",
"*  c #031A1A",
"=  c #091A1E",
"-  c #1D1116",
";  c #1E1019",
":  c #151C1A",
">  c #19191B",
",  c #2E190B",
"<  c #230C13",
"1  c #2C0D17",
"2  c #390E1C",
"3  c #271313",
"4  c #22131A",
"5  c #2B141B",
"6  c #231B1C",
"7  c #2E1C1D",
"8  c #331415",
"9  c #3B1E16",
"0  c #36151E",
"q  c #3A141E",
"w  c #361A1E",
"e  c #3A191F",
"r  c #15231C",
"t  c #372511",
"y  c #060B22",
"u  c #080E24",
"i  c #080F29",
"p  c #0E1524",
"a  c #061E20",
"s  c #0C1E23",
"d  c #0A122B",
"f  c #171E22",
"g  c #11192B",
"h  c #131D35",
"j  c #2B1722",
"k  c #231821",
"l  c #2D1A23",
"z  c #341A24",
"x  c #3D1922",
"c  c #351D2A",
"v  c #391F2E",
"b  c #0D2225",
"n  c #0B2429",
"m  c #0D242A",
"M  c #172424",
"N  c #13212C",
"B  c #1B2C2E",
"V  c #1E3228",
"C  c #152B35",
"Z  c #1A2C33",
"A  c #15233C",
"S  c #192938",
"D  c #1A313D",
"F  c #2A2B28",
"G  c #332725",
"H  c #3F2222",
"J  c #34232B",
"K  c #3A212E",
"L  c #352D2B",
"P  c #293127",
"I  c #24352D",
"U  c #36332D",
"Y  c #2F2735",
"T  c #3E2231",
"R  c #263A34",
"E  c #343531",
"W  c #343E31",
"Q  c #3B3A34",
"!  c #4A0B1A",
"~  c #42230F",
"^  c #562F11",
"/  c #573617",
"(  c #5B3111",
")  c #772119",
"_  c #401B22",
"`  c #591C23",
"'  c #7B1621",
"]  c #422222",
"[  c #482426",
"{  c #552828",
"}  c #412433",
"|  c #5E2D34",
" . c #4B3632",
".. c #583534",
"X. c #653633",
"o. c #2F4135",
"O. c #3B4236",
"+. c #364739",
"@. c #3C4C3C",
"#. c #3C533F",
"$. c #6F471E",
"%. c #71471A",
"&. c #72491C",
"*. c #414539",
"=. c #434B3D",
"-. c #744A21",
";. c #192540",
":. c #1F2D48",
">. c #1D3541",
",. c #202F4A",
"<. c #22314C",
"1. c #423A56",
"2. c #3E5541",
"3. c #424F40",
"4. c #435442",
"5. c #455A44",
"6. c #495946",
"7. c #624A4C",
"8. c #7F424E",
"9. c #4E664E",
"0. c #52644E",
"q. c #4E6951",
"w. c #576B53",
"e. c #546C54",
"r. c #597358",
"t. c #5E795E",
"y. c #627F62",
"u. c #60617E",
"i. c #8F2718",
"p. c #9B281A",
"a. c #8E442B",
"s. c #9F5E3F",
"d. c #B37120",
"f. c #D05C10",
"g. c #C17733",
"h. c #8B534D",
"j. c #9D5F52",
"k. c #956B4D",
"l. c #99705F",
"z. c #A16356",
"x. c #B17650",
"c. c #957569",
"v. c #BC766C",
"b. c #5F8164",
"n. c #648264",
"m. c #678968",
"M. c #6C8D6A",
"N. c #6D926F",
"B. c #6E9270",
"V. c #719572",
"C. c #749B76",
"Z. c #799A74",
"A. c #779F79",
"S. c #7BA37C",
"D. c #ED8B09",
"F. c #DBC42E",
"G. c #B98667",
"H. c #B98573",
"J. c #B5967A",
"K. c #D9957E",
"L. c #6E6988",
"P. c #967B96",
"I. c #7FA981",
"U. c #A0938E",
"Y. c #BB9288",
"T. c #82AD84",
"R. c #85B187",
"E. c #8BB385",
"W. c #86B489",
"Q. c #8AB68A",
"!. c #8BBB8E",
"~. c #93BD8D",
"^. c #8EBE91",
"/. c #A692A3",
"(. c #DB9B83",
"). c #CC9E91",
"_. c #E29B83",
"`. c #EE9D86",
"'. c #D6A387",
"]. c #D7AB94",
"[. c #E8AE93",
"{. c #F2B89C",
"}. c #F9BC9C",
"|. c #C3A6AF",
" X c #8FC092",
".X c #93C596",
"XX c #9AC795",
"oX c #9CCA97",
"OX c #9FCC98",
"+X c #FCC19F",
"@X c #FDC3A1",
"#X c #F7C5A8",
"$X c #E9C6B7",
/* pixels */
".X.X.X.X.X.X.X.X.X.X.X.X.X.X.X.X.X.X.X.X.X.X.X.X.X.X.X.X.X.X.X.X.X.X.X.X.X.X.X.X.X.X.X.X.X.X.X.X.X.X.X.X.X.X.X.X.X.X.X.X.X.X.X.X",
"oX.X.X.X.X.X.X.X.X.X.X.X.X.X.X.X.X.X.X.X.X.X.X.X.X.X.X.X.X.X.X.X.X.X.X.X.X.X.X.X.X.X.X.X.X.X.X.X.X.X.X.X.X.X.X.X.X.X.X.X.X.X.XOX",
"OXoX.X.X.X.X.X.X.X.X.X.X.X.X.X.X.X.X.X.X.X.X.X.X.X.X.X.X.X.X.X.X.X.X.X.X.X.X.X.X.X.X.X.X.X.X.X.X.X.X.X.X.X.X.X.X.X.X.X.X.X.XOXOX",
"OXOXoXXX.X.X.X.X.X.X.X.X.X.X.X.X.X.X.X.X.X.X.X.X.X.X.X.X.X.X.X.X.X.X.X.X.X.X.X.X.X.X.X.X.X.X.X.X.X.X.X.X.X.X.X.X.X.X.X.X.XOXOXOX",
"OXOXOXoX.X.X.X.X.X.X.X.X.X.X.X.X.X.X.X.X.X.X.X.X.X.X.X.X.X.X.X.X.X.X.X.X.X.X.X.X.X.X.X.X.X.X.X.X.X.X.X.X.X.X.X.X.X.X.X.XOXOXOXOX",
"OXOXOXOXOX.X.X.X.X.X.X.X.X.X.X.X.X.X.X.X.X.X.X.X.X.X.X.X.X.X.X.X.X.X.X.X.X.X.X.X.X.X.X.X.X.X.X.X.X.X.X.X.X.X.X.X.X.X.XOXOXOXOXOX",
"OXOXOXOXOXoX.X.X.X.X.X.X.X.X.X.X.X.X.X.X.X.X.X.X.X.X.X.X.X.X.X X.X.X.X.X.X.X.X.X.X.X.X.X.X.X.X.X.X.X.X.X.X.X.X.X.X.XOXOXOXOXOXOX",
"OXOXOXOXOXOXoX.X.X.X.X.X.X.X.X.X.X.X.X.X.X.X.X.X.X.X X XI.V.S. X X.X.X.X.X.X.X.X.X.X.X.X.X.X.X.X.X.X.X.X.X.X.X.X.XOXOXOXOXOXOXOX",
"OXOXOXOXOXOXOXOXoX.X.X.X.X.X.X.X.X.X.X.X X.X X X!.S.C.S.w.5 L y.C.I. X.X.X.X.X.X.X.X.X.X.X.X.X.X.X.X.X.X.X.X.X.XOXOXOXOXOXOXOXOX",
"OXOXOXOXOXOXOXOXOX.X.X.X.X.X.X.X.X.X.X.X.XI.r.e.e.W G F 5 _ x c I O.e.B. X.X.X.X.X.X.X.X.X.X.X.X.X.X.X.X.X.X.X.XOXOXOXOXOXOXOXOX",
"OXOXOXOXOXOXOXOXOXoX.X.X.X.X.X.X.X.X.X.X XV.P 7 w x _ e 5 q _ _ _ e l L W W m.Q. X.X.X.X.X.X.X.X.X.X.X.X.X.XOXOXOXOXOXOXOXOXOXOX",
"OXOXOXOXOXOXOXOXOXOXoX.X.X.X.X.X.X.X.X.X.XW.t.O.5 5 _ _ x x _ _ _ _ _ e x x l *.I. X.X.X.X.X.X.X.X.X.X.X.XOXOXOXOXOXOXOXOXOXOXOX",
"OXOXOXOXOXOXOXOXOXOXOXoX.X.X.X.X.X.X.X XR.n.6.*.8 5 e _ x _ x 2 x _ _ x _ x _ x 3.I. X.X.X.X.X.X.X.X.X.XOXOXOXOXOXOXOXOXOXOXOXOX",
"OXOXOXOXOXOXOXOXOXOXOXOXOX.X.X.X.X X XR.=.7 q e ] _ _ _ _ _ _ _ _ e x _ _ _ x _ 0 3.I..X.X.X.X.X.X.X.XOXOXOXOXOXOXOXOXOXOXOXOXOX",
"OXOXOXOXOXOXOXOXOXOXOXOXOXoX.X.X X XR.=.x ] _ _ _ _ _ q x _ _ _ _ _ x z z _ x j z x *.I..X.X.X.X.X.XOXOXOXOXOXOXOXOXOXOXOXOXOXOX",
"OXOXOXOXOXOXOXOXOXOXOXOXOXOXOX.XS.e.O.x _ x _ q _ q z _ _ x x _ _ x z c c z x z c c z 5.^..X.X.X.XOXOXOXOXOXOXOXOXOXOXOXOXOXOXOX",
"OXOXOXOXOXOXOXOXOXOXOXOXOXOXOXE.=.j z z z _ _ x c c c x x x x x x z z c T T c x c T c F Z.XXoXXXOXOXOXOXOXOXOXOXOXOXOXOXOXOXOXOX",
"OXOXOXOXOXOXOXOXOXOXOXOXOXOXOXXXN.Q c 4 5 x _ z v v 0 x x x q z c c v c T T T c c T T J r.XX.X.XOXOXOXOXOXOXOXOXOXOXOXOXOXOXOXOX",
"OXOXOXOXOXOXOXOXOXOXOXOXOXOXOXOX.Xr.5 8 0 x z v j j x _ z c v } } v 5 z z T } v K } } } Q S..X.XOXOXOXOXOXOXOXOXOXOXOXOXOXOXOXOX",
"OXOXOXOXOXOXOXOXOXOXOXOXOXOXOXOXC.U z z x x v z @ x x c v v } c 5  .v.v.| l } T c T l } J n.^..XOXOXOXOXOXOXOXOXOXOXOXOXOXOXOXOX",
"OXOXOXOXOXOXOXOXOXOXOXOXOXOXOX~.0.j v c z z v 4 j x c v } z 4 z h.'.#X'. .< K T v c ; c c 0.!..XOXOXOXOXOXOXOXOXOXOXOXOXOXOXOXOX",
"OXOXOXOXOXOXOXOXOXOXOXOXOXoXoXZ.6 c T 5 x c j j c j v } z @ 4 X.[.#X@Xl.c 0 z } T T c ; } > S..XOXOXOXOXOXOXOXOXOXOXOXOXOXOXOXOX",
"OXOXOXOXOXOXOXOXOXOXOXOXOXoXXX6.l } c < z v @ c c c T c -.| ..H.+X+X@X(.X.{ 7 K } } c - } 6 S..X.XOXOXOXOXOXOXOXOXOXOXOXOXOXOXOX",
"OXOXOXOXOXOXOXOXOXOXOXOXOXXX~.O.c c 4 1 c T 4 c } T z | { { X.'.@X+X}.K.X.` ! l T T c ; } k S..XOXOXOXOXOXOXOXOXOXOXOXOXOXOXOXOX",
"OXOXOXOXOXOXOXOXOXOXOXOXOXoXXX0.l c 4 5 v } ; c T T Y ` i.i.` c.{.@X[.7.) p.' f T } T 6 5 e.^..XOXOXOXOXOXOXOXOXOXOXOXOXOXOXOXOX",
"OXOXOXOXOXOXOXOXOXOXOXOXOXOXoXQ.4.v ; j } T 4 c T c u.8.f.D.s.|.#X+X#XP.f.D.a.1.J T } j k n. X.XOXOXOXOXOXOXOXOXOXOXOXOXOXOXOXOX",
"OXOXOXOXOXOXOXOXOXOXOXOXOXOXOXOXn.l 6 z } } v ; K z U./.d.F.G.$X@X@X#X|.g.F.k.L.c T T l @.R..X.XOXOXOXOXOXOXOXOXOXOXOXOXOXOXOXOX",
"OXOXOXOXOXOXOXOXOXOXOXOXOXOXOXoXy.l c ; T } j + 4 [ '.$Xv.G.$X@X+X+X@X#X].x.).Y.H T T L B. X.X.XOXOXOXOXOXOXOXOXOXOXOXOXOXOXOXOX",
"OXOXOXOXOXOXOXOXOXOXOXOXOXOXOXOXy.l E ; T K ; @ w v.}.@X{.{.@X@X@X@X@X@X#X[.#X(.] T J 4.!..X.X.XOXOXOXOXOXOXOXOXOXOXOXOXOXOXOXOX",
"OXOXOXOXOXOXOXOXOXOXOXOXOXOXOXOXI.3.V.y.l c ; ; X.[.+X+X+X+X+X@X@X@X+X@X@X@X}.(.[ T J 9..X.X.X.XOXOXOXOXOXOXOXOXOXOXOXOXOXOXOXOX",
"OXOXOXOXOXOXOXOXOXOXOXOXOXOXOXOX.X^.^.T.E l ; k - h._.}.+X@X+X@X+X@X@X+X+X@X@XH. .Y R W..X.X.X.XOXOXOXOXOXOXOXOXOXOXOXOXOXOXOXOX",
"OXOXOXOXOXOXOXOXOXOXOXOXOXOXOXOX.X.X.X^.n.6 k : M B ..z._.}.@X@X@X@X@X@X@X(.J.M.m.O.y..X.X.X.XOXOXOXOXOXOXOXOXOXOXOXOXOXOXOXOXOX",
"OXOXOXOXOXOXOXOXOXOXOXOXOXOXOXOX.X.X.X.XT.m.@.C C N N f ..j.`.`.`.`.`.`.l.E E y.!.S. X.X.X.X.X.XoXOXOXOXOXOXOXOXOXOXOXOXOXOXOXOX",
"OXOXOXOXOXOXOXOXOXOXOXOXOXOXOXOX.X.X.X X.X XA.R = X X = s f ] ] H ] t H ; s b R N. X.X.X.X.X.X.XoXOXOXOXOXOXOXOXOXOXOXOXOXOXOXOX",
"OXOXOXOXOXOXOXOXOXOXOXOXOXOXOXoX.X.X.X.X.X.X XB.B D C & & = % o i o X % & & & = q.W..X.X.X.X.X.XOXOXOXOXOXOXOXOXOXOXOXOXOXOXOXOX",
"OXOXOXOXOXOXOXOXOXOXOXOXOXOXOXOX.X.X.X.X.X.X.Xb.B D D D C & # X d o   = D D Z o.W. X.X.X.X.X.X.XoXOXOXOXOXOXOXOXOXOXOXOXOXOXOXOX",
"OXOXOXOXOXOXOXOXOXOXOXOXOXOXOXOX.X.X.X.X.X.X^.o.D D D D D r t 3 i   # C D D Z 4. X.X.X.X.X.X.X.XOXOXOXOXOXOXOXOXOXOXOXOXOXOXOXOX",
"OXOXOXOXOXOXOXOXOXOXOXOXOXOXOXoX.X.X.X.X.X.X^.I D D D D N : %.9 y ~ / N D D D R C. X.X.X.X.X.X.XOXOXOXOXOXOXOXOXOXOXOXOXOXOXOXOX",
"OXOXOXOXOXOXOXOXOXOXOXOXOXOXOXOXXX.X.X.X.X.X!.I D D D D b : %.9 y ^ &.s D D D B m..X.X.X.X.X.XoXoXOXOXOXOXOXOXOXOXOXOXOXOXOXOXOX",
"OXOXOXOXOXOXOXOXOXOXOXOXOXOXOXoX.X.X.X.X.X.X^.I D D D D n : %.9 i ^ -.% C D D B N..X.X.X.X.X.X.XoXOXOXOXOXOXOXOXOXOXOXOXOXOXOXOX",
"OXOXOXOXOXOXOXOXOXOXOXOXOXOXOXOX.X.X.X.X.X.X!.I D D D C * : %.9 O ^ $.o n C D B M. X.X.X.X.X.X.XOXOXOXOXOXOXOXOXOXOXOXOXOXOXOXOX",
"OXOXOXOXOXOXOXOXOXOXOXOXOXOXOXoX.X.X.X.X.X.Xq.b D D D C * : %.~ < ( -.# a D D B M..X.X.X.X.X.X.XOXOXOXOXOXOXOXOXOXOXOXOXOXOXOXOX",
"OXOXOXOXOXOXOXOXOXOXOXOXOXOXOXOX.X.X.X.X.X.X5.s D D D m % $ t 8 8 , t X # C D B M.oX.X.X.X.X.X.XOXOXOXOXOXOXOXOXOXOXOXOXOXOXOXOX",
"OXOXOXOXOXOXOXOXOXOXOXOXOXOXOXOX.X.X.X.X.XOX=.s D >.C % % A A A A i y o # n D B M.oXoX.X.X.X.X.XOXOXOXOXOXOXOXOXOXOXOXOXOXOXOXOX",
"OXOXOXOXOXOXOXOXOXOXOXOXOXOXoXoX.X.X.X.XOXOX=.a C >.n # S <.<.<.<.;.i i X a C Z N.OXOXoX.X.X.X.XOXOXOXOXOXOXOXOXOXOXOXOXOXOXOXOX",
"OXOXOXOXOXOXOXOXOXOXOXOXOXOXOXoX.X.X.XoXOXOX5.* m D * & <.<.<.<.<.;.i d y X C B M.oXoXOXOX.X.X.XOXOXOXOXOXOXOXOXOXOXOXOXOXOXOXOX",
"OXOXOXOXOXOXOXOXOXOXOXOXOXOXOXoX.XXXoXOXOXOX5.* n C X p <.<.<.<.<.;.i d y   s +.J.OXOXOXOXoX.X.XOXOXOXOXOXOXOXOXOXOXOXOXOXOXOXOX",
"OXOXOXOXOXOXOXOXOXOXOXOXOXOXOXOX.XOXOXOXOXOX5.* * m X h ,.<.<.<.<.;.i d y   # 5..XoXoXOXoXoXoX.XOXOXOXOXOXOXOXOXOXOXOXOXOXOXOXOX",
"OXOXOXOXOXOXOXOXOXOXOXOXOXOXOXoX.X.X.X.X.X.X2.* * b   d :.<.<.<.:.h i d %   * 2..X.XOX.X.X.X.X.X.XOXOXOXOXOXOXOXOXOXOXOXOXOXOXOX",
"OXOXOXOXOXOXOXOXOXOXOXOXOXOX.X.X.X.X.X.X.X.X2.* * *   u ;.<.<.<.:.g i i   * * #..X.X.X.X.X.X.X.X.X.XOXOXOXOXOXOXOXOXOXOXOXOXOXOX",
"OXOXOXOXOXOXOXOXOXOXOXOXoXoX.X.X.X.X.X.X.X.XS.V * *   u A <.<.<.:.d i i   * n N..X.X.X.X.X.X.X.X.X.X.XoXOXOXOXOXOXOXOXOXOXOXOXOX",
"OXOXOXOXOXOXOXOXOXOXOXOX.X.X.X.X.X.X.X.X.X.X XC.V # # u g ,.<.<.:.d d o $ * #.!..X.X.X.X.X.X.X.X.X.X.X.XOXOXOXOXOXOXOXOXOXOXOXOX",
"OXOXOXOXOXOXOXOXOXOXoX.X.X.X.X.X.X.X.X.X.X.X.X XC.V $ O u h <.<.:.d i X a #.I..X.X.X.X.X.X.X.X.X.X.X.X.XoXoXOXOXOXOXOXOXOXOXOXOX",
"OXOXOXOXOXOXOXOXOXoX.X.X.X.X.X.X.X.X.X.X.X.X.X X XR.=.< < @ g N p o + . b.!..X.X.X.X.X.X.X.X.X.X.X.X.X.X.X.XoXOXOXOXOXOXOXOXOXOX",
"OXOXOXOXOXOXOXOXoX.X.X.X.X.X.X.X.X.X.X.X.X.X.X.X.X X5.2 2 G N.B.F 1 0 *.!..X.X.X.X.X.X.X.X.X.X.X.X.X.X.X.X.X.XOXOXOXOXOXOXOXOXOX",
"OXOXOXOXOXOXOXOX.X.X.X.X.X.X.X.X.X.X.X.X.X.X.X.X.X X6.0 q w. X.XO.2 z t..X.X.X.X.X.X.X.X.X.X.X.X.X.X.X.X.X.X.X.XOXOXOXOXOXOXOXOX",
"OXOXOXOXOXOXOX.X.X.X.X.X.X.X.X.X.X.X.X.X.X.X.X.X.X.Xw.z 6 I..X X4.0 Q T..X.X.X.X.X.X.X.X.X.X.X.X.X.X.X.X.X.X.X.X.XOXOXOXOXOXOXOX",
"OXOXOXOXOXOX.X.X.X.X.X.X.X.X.X.X.X.X.X.X.X.X.X.X.X.XR.e.q.W..X.XT.e.V..X.X.X.X.X.X.X.X.X.X.X.X.X.X.X.X.X.X.X.X.X.X.XoXOXOXOXOXOX",
"OXOXOXOXoX.X.X.X.X.X.X.X.X.X.X.X.X.X.X.X.X.X.X.X.X.X.X.X.X.X.X.X.X.X.X.X.X.X.X.X.X.X.X.X.X.X.X.X.X.X.X.X.X.X.X.X.X.X.XOXOXOXOXOX",
"OXOXOXOX.X.X.X.X.X.X.X.X.X.X.X.X.X.X.X.X.X.X.X.X.X.X.X.X.X.X.X.X.X.X.X.X.X.X.X.X.X.X.X.X.X.X.X.X.X.X.X.X.X.X.X.X.X.X.X.XOXOXOXOX",
"OXOXoX.XoX.X.X.X.X.X.X.X.X.X.X.X.X.X.X.X.X.X.X.X.X.X.X.X.X.X.X.X.X.X.X.X.X.X.X.X.X.X.X.X.X.X.X.X.X.X.X.X.X.X.X.X.X.X.X.X.XOXOXOX",
"OXoX.X.X.X.X.X.X.X.X.X.X.X.X.X.X.X.X.X.X.X.X.X.X.X.X.X.X.X.X.X.X.X.X.X.X.X.X.X.X.X.X.X.X.X.X.X.X.X.X.X.X.X.X.X.X.X.X.X.X.X.X.XOX",
"OX.X.X.X.X.X.X.X.X.X.X.X.X.X.X.X.X.X.X.X.X.X.X.X.X.X.X.X.X.X.X.X.X.X.X.X.X.X.X.X.X.X.X.X.X.X.X.X.X.X.X.X.X.X.X.X.X.X.X.X.X.X.XOX",
".X.X.X.X.X.X.X.X.X.X.X.X.X.X.X.X.X.X.X.X.X.X.X.X.X.X.X.X.X.X.X.X.X.X.X.X.X.X.X.X.X.X.X.X.X.X.X.X.X.X.X.X.X.X.X.X.X.X.X.X.X.X.X.X"
};
