/* XPM */
static char *result[] = {
/* columns rows colors chars-per-pixel */
"64 64 191 2 ",
"   c #0C070D",
".  c #010A0D",
"X  c #17060F",
"o  c #040A14",
"O  c #0F0A16",
"+  c #00041E",
"@  c #060B1C",
"#  c #120C13",
"$  c #1C0D13",
"%  c #1A0F1A",
"&  c #041415",
"*  c #0A1213",
"=  c #0C1A17",
"-  c #03141A",
";  c #0A1519",
":  c #031A1A",
">  c #0B1A1C",
",  c #161619",
"<  c #1D1318",
"1  c #1A1C1B",
"2  c #230C14",
"3  c #370E1A",
"4  c #241315",
"5  c #2C1C14",
"6  c #23131B",
"7  c #2C151D",
"8  c #2E1A1D",
"9  c #301C16",
"0  c #33161C",
"q  c #39121D",
"w  c #341B1E",
"e  c #39191E",
"r  c #14241D",
"t  c #1D241D",
"y  c #3D230E",
"u  c #2A211B",
"i  c #060B22",
"p  c #090E25",
"a  c #071F21",
"s  c #0B1C23",
"d  c #0A122B",
"f  c #151821",
"g  c #131C2B",
"h  c #0D1631",
"j  c #131D37",
"k  c #241621",
"l  c #2A1721",
"z  c #2D1923",
"x  c #351A25",
"c  c #3D1922",
"v  c #351D2A",
"b  c #391F2D",
"n  c #0B2125",
"m  c #0D252D",
"M  c #132522",
"N  c #14242E",
"B  c #1B2628",
"V  c #1F3026",
"C  c #142B33",
"Z  c #1A2D36",
"A  c #16243C",
"S  c #182E39",
"D  c #1B323D",
"F  c #2B2423",
"G  c #2C262A",
"H  c #332124",
"J  c #3B2125",
"K  c #33242B",
"L  c #3A202E",
"P  c #332A2A",
"I  c #2E322B",
"U  c #32342D",
"Y  c #36382F",
"T  c #332736",
"R  c #3E2231",
"E  c #233533",
"W  c #3B3734",
"Q  c #353C32",
"!  c #393C33",
"~  c #4A171B",
"^  c #4B391D",
"/  c #643E17",
"(  c #763F14",
")  c #441020",
"_  c #401A22",
"`  c #700E22",
"'  c #492A2B",
"]  c #582322",
"[  c #412433",
"{  c #553232",
"}  c #773C37",
"|  c #32473C",
" . c #3D4639",
".. c #344B3D",
"X. c #3B4D3C",
"o. c #3B503F",
"O. c #7A4114",
"+. c #42473B",
"@. c #7D453F",
"#. c #1D2A45",
"$. c #1E2A45",
"%. c #1B3340",
"&. c #202D48",
"*. c #22314C",
"=. c #3C3743",
"-. c #3F5848",
";. c #464F40",
":. c #475846",
">. c #4A5E49",
",. c #694F53",
"<. c #4D644D",
"1. c #4F684F",
"2. c #53654F",
"3. c #546750",
"4. c #536D53",
"5. c #57765C",
"6. c #5C765B",
"7. c #5C7A5E",
"8. c #6B6350",
"9. c #667A5C",
"0. c #6F5E7D",
"q. c #5F7D61",
"w. c #617E61",
"e. c #9A2C0F",
"r. c #A8341B",
"t. c #844F1C",
"y. c #87511D",
"u. c #B06B12",
"i. c #904E3C",
"p. c #A54423",
"a. c #CB4814",
"s. c #874B44",
"d. c #914B42",
"f. c #81574D",
"g. c #8F5151",
"h. c #9E5C56",
"j. c #896F5B",
"k. c #AB7663",
"l. c #B17061",
"z. c #BE7364",
"x. c #C57E6D",
"c. c #638364",
"v. c #668868",
"b. c #6A8B6B",
"n. c #6D916F",
"m. c #6E9371",
"M. c #719673",
"N. c #759B76",
"B. c #769E78",
"V. c #7DA47B",
"C. c #A8833B",
"Z. c #F99F0A",
"A. c #C48420",
"S. c #C7A533",
"D. c #BA916F",
"F. c #82A77D",
"G. c #CC8D7F",
"H. c #C7957D",
"J. c #D8937C",
"K. c #7FAA82",
"L. c #948087",
"P. c #A6899C",
"I. c #82AD84",
"U. c #88AE81",
"Y. c #87B489",
"T. c #8AB78A",
"R. c #8BBA8D",
"E. c #8EBE91",
"W. c #A997B4",
"Q. c #C79886",
"!. c #E79983",
"~. c #DCB09E",
"^. c #E7AE92",
"/. c #E8AF93",
"(. c #F4B798",
"). c #F5BB9B",
"_. c #FBBE9E",
"`. c #E5B9A6",
"'. c #E3BCB2",
"]. c #8FC092",
"[. c #93C596",
"{. c #9AC694",
"}. c #9CCA97",
"|. c #9FCC98",
" X c #FDC19F",
".X c #F7C3A0",
"XX c #FDC3A1",
"oX c #F9CAAC",
"OX c #F4C8B1",
"+X c #D7BECA",
"@X c #E0D2C8",
/* pixels */
"[.[.[.[.[.[.[.[.[.[.[.[.[.[.[.[.[.[.[.[.[.[.[.[.[.[.[.[.[.[.[.[.[.[.[.[.[.[.[.[.[.[.[.[.[.[.[.[.[.[.[.[.[.[.[.[.[.[.[.[.[.[.[.[.",
"}.[.[.[.[.[.[.[.[.[.[.[.[.[.[.[.[.[.[.[.[.[.[.[.[.[.[.[.[.[.[.[.[.[.[.[.[.[.[.[.[.[.[.[.[.[.[.[.[.[.[.[.[.[.[.[.[.[.[.[.[.[.[.|.",
"|.}.[.[.[.[.[.[.[.[.[.[.[.[.[.[.[.[.[.[.[.[.[.[.[.[.[.[.[.[.[.[.[.[.[.[.[.[.[.[.[.[.[.[.[.[.[.[.[.[.[.[.[.[.[.[.[.[.[.[.[.[.|.|.",
"|.|.|.[.[.[.[.[.[.[.[.[.[.[.[.[.[.[.[.[.[.[.[.[.[.[.[.[.[.[.[.[.[.[.[.[.[.[.[.[.[.[.[.[.[.[.[.[.[.[.[.[.[.[.[.[.[.[.[.[.[.}.|.|.",
"|.|.|.}.[.[.[.[.[.[.[.[.[.[.[.[.[.[.[.[.[.[.[.[.[.[.[.[.[.[.[.[.[.[.[.[.[.[.[.[.[.[.[.[.[.[.[.[.[.[.[.[.[.[.[.[.[.[.[.[.|.|.|.|.",
"|.|.|.|.|.[.[.[.[.[.[.[.[.[.[.[.[.[.[.[.[.[.[.[.[.[.[.[.[.[.[.[.[.[.[.[.[.[.[.[.[.[.[.[.[.[.[.[.[.[.[.[.[.[.[.[.[.[.[.}.|.|.|.|.",
"|.|.|.|.|.}.[.[.[.[.[.[.[.[.[.[.[.[.[.[.[.[.[.[.[.[.[.[.[.[.[.[.[.[.[.[.[.[.[.[.[.[.[.[.[.[.[.[.[.[.[.[.[.[.[.[.[.[.}.|.|.|.|.|.",
"|.|.|.|.|.|.|.[.[.[.[.[.[.[.[.[.[.[.[.[.[.[.[.[.[.[.[.].R.R.].[.[.[.[.[.[.[.[.[.[.[.[.[.[.[.[.[.[.[.[.[.[.[.[.[.[.|.|.|.|.|.|.|.",
"|.|.|.|.|.|.|.|.[.[.[.[.[.[.[.[.[.[.[.[.[.[.[.[.[.].[.R.6.3.B.E.].[.[.[.[.[.[.[.[.[.[.[.[.[.[.[.[.[.[.[.[.[.[.[.|.|.|.|.|.|.|.|.",
"|.|.|.|.|.|.|.|.|.[.[.[.[.[.[.[.[.[.[.[.[.[.{.].M.4.4.:.J w Y <.q.K.[.[.[.[.[.[.[.[.[.[.[.[.[.[.[.[.[.[.[.[.[.}.|.|.|.|.|.|.|.|.",
"|.|.|.|.|.|.|.|.|.|.[.[.[.[.[.[.[.[.[.[.Y.<.U | P w w 4 e _ c x x U ..B.K.T.].[.[.[.[.[.[.[.[.[.[.[.[.[.[.[.|.|.|.|.|.|.|.|.|.|.",
"|.|.|.|.|.|.|.|.|.|.|.[.[.[.[.[.[.[.[.[.R.1.u x e e _ 0 0 c _ _ c c e F u  .c.T.].[.[.[.[.[.[.[.[.[.[.[.[.|.|.|.|.|.|.|.|.|.|.|.",
"|.|.|.|.|.|.|.|.|.|.|.[.[.[.[.[.[.[.[.[.R.V.1.F 2 q _ _ _ c c c c e _ _ _ c 8 3.Y.[.[.[.[.[.[.[.[.[.[.[.|.|.|.|.|.|.|.|.|.|.|.|.",
"|.|.|.|.|.|.|.|.|.|.|.|.|.[.[.[.[.[.].I.4.Y P J w e c ~ _ _ ) c c _ c c c _ _ H 2.Y.].{.[.[.[.[.[.[.[.|.|.|.|.|.|.|.|.|.|.|.|.|.",
"|.|.|.|.|.|.|.|.|.|.|.|.|.|.[.[.[.].Y.+.w e c _ _ c c c c _ _ c _ c c c _ c c c x 2.T.[.[.[.[.[.[.[.|.|.|.|.|.|.|.|.|.|.|.|.|.|.",
"|.|.|.|.|.|.|.|.|.|.|.|.|.|.|.[.Y.V.>.c _ e _ c _ c c c _ c _ ) ~ x x v c c x v x H 2.R.[.[.[.[.[.|.|.|.|.|.|.|.|.|.|.|.|.|.|.|.",
"|.|.|.|.|.|.|.|.|.|.|.|.|.|.|.F. .U c c c _ _ c c x x ) c _ c c ) c v b b x x v R x u V.{.}.}.[.|.|.|.|.|.|.|.|.|.|.|.|.|.|.|.|.",
"|.|.|.|.|.|.|.|.|.|.|.|.|.|.|.9.G x x z x _ c c v v x q c c c x x v v b [ L x x L R l <.{.}.[.[.|.|.|.|.|.|.|.|.|.|.|.|.|.|.|.|.",
"|.|.|.|.|.|.|.|.|.|.|.|.|.|.|.{.c.P 6 2 c c x v v x c _ c v v b R v x v [ [ R v R R R W F.[.[.[.}.|.|.|.|.|.|.|.|.|.|.|.|.|.|.|.",
"|.|.|.|.|.|.|.|.|.|.|.|.|.|.|.{.M.u 0 c c x v 7 k c c x v R R R b b { _ v [ [ v R R [ L >.R.[.[.|.|.|.|.|.|.|.|.|.|.|.|.|.|.|.|.",
"|.|.|.|.|.|.|.|.|.|.|.|.|.|.|.R.U x x c c v v % x c x b R R x w { H.^.h.0 J R R v k v R Q Y.[.[.}.|.|.|.|.|.|.|.|.|.|.|.|.|.|.|.",
"|.|.|.|.|.|.|.|.|.|.|.|.|.|.|.7.z v b x x v l z x v b R z 7 $ g.^.XX/.,.< l [ R b z k R P v.[.[.|.|.|.|.|.|.|.|.|.|.|.|.|.|.|.|.",
"|.|.|.|.|.|.|.|.|.|.|.|.|.|.U.I v [ z 7 v v 6 v z R R v 7 6 b G.XX X^.' 8 w L R R R $ R v >.[.[.}.|.|.|.|.|.|.|.|.|.|.|.|.|.|.|.",
"|.|.|.|.|.|.|.|.|.|.|.|.|.}.9.K [ b 2 0 v v 6 R v R J } d.} l._. X X(.z.} q z [ [ L $ R v >.[.{.}.|.|.|.|.|.|.|.|.|.|.|.|.|.|.|.",
"|.|.|.|.|.|.|.|.|.|.|.|.|.{.6.K z l 2 x L v 6 R [ v e ] ~ y 8.). XXXH.@.~ ` 3 b [ [ 6 v K 7.[.[.|.|.|.|.|.|.|.|.|.|.|.|.|.|.|.|.",
"|.|.|.|.|.|.|.|.|.|.|.|.|.|.F.^ z L $ v [ v 2 R R T ;.e.a.r.,.`. X XL.] a.r.c b [ [ x < Q Y.[.[.|.|.|.|.|.|.|.|.|.|.|.|.|.|.|.|.",
"|.|.|.|.|.|.|.|.|.|.|.|.|.|.|.F.G v < R [ b 6 b R =.W.p.Z.A.P.OX X X+Xi.Z.u.0.z [ [ v , :.R.[.[.|.|.|.|.|.|.|.|.|.|.|.|.|.|.|.|.",
"|.|.|.|.|.|.|.|.|.|.|.|.|.|.|.T.F R 7 R [ R 6 x l f.@Xk.S.H.'.oX X XOXQ.S.C.P.T R [ K Q I.E.[.[.|.|.|.|.|.|.|.|.|.|.|.|.|.|.|.|.",
"|.|.|.|.|.|.|.|.|.|.|.|.|.|.|.T.F R < v R v # $ c x.oX~.x.`.XXXXXXXXXXoXQ.Q.`.s.k [ K q.[.[.[.[.|.|.|.|.|.|.|.|.|.|.|.|.|.|.|.|.",
"|.|.|.|.|.|.|.|.|.|.|.|.|.|.|.T.U W ..K R 7 % 4 l.).XX X_.).XX XXXXXXXXXXX X(.s.k R U K.].[.[.[.|.|.|.|.|.|.|.|.|.|.|.|.|.|.|.|.",
"|.|.|.|.|.|.|.|.|.|.|.|.|.|.|.|.n.c.Y.Q L # k x k.).XXXX_. XXXXXXXXX XXX X X(.s.k L -.K.[.[.[.[.|.|.|.|.|.|.|.|.|.|.|.|.|.|.|.|.",
"|.|.|.|.|.|.|.|.|.|.|.|.|.|.|.|.[.[.[.q.G < < O z h.J._.XX X X X X_. X X.XoXQ.8.Q G B.[.[.[.[.}.|.|.|.|.|.|.|.|.|.|.|.|.|.|.|.|.",
"|.|.|.|.|.|.|.|.|.|.|.|.|.|.|.}.[.[.[.Y. .U f C S F ' h.!.XXXXXXXXXXXX XD.j.9.I.c.c.].[.[.[.[.[.|.|.|.|.|.|.|.|.|.|.|.|.|.|.|.|.",
"|.|.|.|.|.|.|.|.|.|.|.|.|.|.|.}.[.[.[.[.I.M.E C a > n g ' h.z.z.z.x.z.h.E s | B.].].].[.[.[.[.[.}.|.|.|.|.|.|.|.|.|.|.|.|.|.|.|.",
"|.|.|.|.|.|.|.|.|.|.|.|.|.|.|.|.[.[.[.[.[.E.c.M - ; ; - s ;   O     # * & & g | K.[.[.[.[.[.[.[.|.|.|.|.|.|.|.|.|.|.|.|.|.|.|.|.",
"|.|.|.|.|.|.|.|.|.|.|.|.|.|.|.}.[.[.[.[.[.[.Y...D D Z s ; > o i i o & & s N ; :.V.].[.[.[.[.[.[.|.|.|.|.|.|.|.|.|.|.|.|.|.|.|.|.",
"|.|.|.|.|.|.|.|.|.|.|.|.|.|.|.}.[.[.[.[.[.[.m.E D D D D m 5 y i o . ; Z S %.B V.].[.[.[.[.[.[.[.}.|.|.|.|.|.|.|.|.|.|.|.|.|.|.|.",
"|.|.|.|.|.|.|.|.|.|.|.|.|.|.|.|.[.[.[.[.[.].5.C D D D S s ^ ( i 4 / B D D D B V.[.[.[.[.[.[.[.}.|.|.|.|.|.|.|.|.|.|.|.|.|.|.|.|.",
"|.|.|.|.|.|.|.|.|.|.|.|.|.|.|.}.[.[.[.[.[.[.5.N D D D C - ^ ( + 9 y.1 D D %.S o.[.[.[.[.[.[.[.[.}.|.|.|.|.|.|.|.|.|.|.|.|.|.|.|.",
"|.|.|.|.|.|.|.|.|.|.|.|.|.|.|.|.[.[.[.[.[.].5.N D D %.C - ^ ( + 5 y.t Z D D Z ..[.[.[.[.[.[.[.[.|.|.|.|.|.|.|.|.|.|.|.|.|.|.|.|.",
"|.|.|.|.|.|.|.|.|.|.|.|.|.|.|.|.[.[.[.[.[.[.7.N %.D D C & ^ ( + 9 t., n D D Z o.{.[.[.[.[.[.[.[.|.|.|.|.|.|.|.|.|.|.|.|.|.|.|.|.",
"|.|.|.|.|.|.|.|.|.|.|.|.|.|.|.|.[.[.[.[.[.R.<.N D D D n - ^ O.  y y.1 > C D Z o.|.[.[.[.[.[.[.[.|.|.|.|.|.|.|.|.|.|.|.|.|.|.|.|.",
"|.|.|.|.|.|.|.|.|.|.|.|.|.|.|.|.[.[.[.[.[.N.= C D D D : & 5 y 2 5 y * : m D Z o.}.}.[.[.[.[.[.[.|.|.|.|.|.|.|.|.|.|.|.|.|.|.|.|.",
"|.|.|.|.|.|.|.|.|.|.|.|.|.|.|.|.[.[.[.[.[.V.r C D D m & g A A A d i o . a D Z +.|.}.}.[.[.[.[.[.|.|.|.|.|.|.|.|.|.|.|.|.|.|.|.|.",
"|.|.|.|.|.|.|.|.|.|.|.|.|.|.|.|.[.[.[.[.{.V.= C D S > g *.*.*.*.#.d d @ o D Z o.}.|.|.}.[.[.[.{.|.|.|.|.|.|.|.|.|.|.|.|.|.|.|.|.",
"|.|.|.|.|.|.|.|.|.|.|.|.|.|.|.|.{.[.[.}.|.V.= n D S o A *.*.*.*.&.d d p o C Z X.|.}.|.|.}.[.[.[.|.|.|.|.|.|.|.|.|.|.|.|.|.|.|.|.",
"|.|.|.|.|.|.|.|.|.|.|.|.|.|.|.|.[.[.}.|.}.V.= a S n * A *.*.*.*.&.d d d o n Z :.}.|.|.|.|.}.[.[.|.|.|.|.|.|.|.|.|.|.|.|.|.|.|.|.",
"|.|.|.|.|.|.|.|.|.|.|.|.|.|.|.}.[.}.}.}.}.V.= : m > o &.*.*.*.*.&.h d d o : r F.|.}.}.|.|.|.}.[.|.|.|.|.|.|.|.|.|.|.|.|.|.|.|.|.",
"|.|.|.|.|.|.|.|.|.|.|.|.|.|.|.{.[.[.[.[.[.B.= : n : o $.*.*.*.*.$.d d d . : M R.[.[.[.[.[.[.[.[.[.|.|.|.|.|.|.|.|.|.|.|.|.|.|.|.",
"|.|.|.|.|.|.|.|.|.|.|.|.|.|.[.[.[.[.[.[.[.B.= : : & o #.*.*.*.*.A d p p & : r K.[.[.[.[.[.[.[.[.[.[.|.|.|.|.|.|.|.|.|.|.|.|.|.|.",
"|.|.|.|.|.|.|.|.|.|.|.|.|.}.[.[.[.[.[.[.[.V.n : : & o A &.*.*.*.j d d @ & : V Y.[.[.[.[.[.[.[.[.[.[.[.|.|.|.|.|.|.|.|.|.|.|.|.|.",
"|.|.|.|.|.|.|.|.|.|.|.|.[.[.[.[.[.[.[.[.[.E.c.n : & o h $.*.*.*.j d - . : & c.].[.[.[.[.[.[.[.[.[.[.[.[.}.|.|.|.|.|.|.|.|.|.|.|.",
"|.|.|.|.|.|.|.|.|.|.|.[.[.[.[.[.[.[.[.[.[.[.[.q.n &   @ d &.*.*.j p i . n ..K.[.[.[.[.[.[.[.[.[.[.[.[.[.[.|.|.|.|.|.|.|.|.|.|.|.",
"|.|.|.|.|.|.|.|.|.}.[.[.[.[.[.[.[.[.[.[.[.[.].E.c.X.X 2 X % j g @ O $ t v.R.[.[.[.[.[.[.[.[.[.[.[.[.[.[.[.[.|.|.|.|.|.|.|.|.|.|.",
"|.|.|.|.|.|.|.|.}.[.[.[.[.[.[.[.[.[.[.[.[.[.[.[.].N.$ ~ 2 q.n.<.2 q 8 b.[.[.[.[.[.[.[.[.[.[.[.[.[.[.[.[.[.[.[.|.|.|.|.|.|.|.|.|.",
"|.|.|.|.|.|.|.|.[.[.[.[.[.[.[.[.[.[.[.[.[.[.[.[.[.N.2 q ! I.[.v.7 q +.T.[.[.[.[.[.[.[.[.[.[.[.[.[.[.[.[.[.[.[.[.|.|.|.|.|.|.|.|.",
"|.|.|.|.|.|.|.[.[.[.[.[.[.[.[.[.[.[.[.[.[.[.[.[.[.V.F 2 q.].].n.x w b.[.[.[.[.[.[.[.[.[.[.[.[.[.[.[.[.[.[.[.[.[.[.|.|.|.|.|.|.|.",
"|.|.|.|.|.|.[.[.[.[.[.[.[.[.[.[.[.[.[.[.[.[.[.[.[.E.b.:.N.].[.E.w.7.R.[.[.[.[.[.[.[.[.[.[.[.[.[.[.[.[.[.[.[.[.[.[.[.|.|.|.|.|.|.",
"|.|.|.|.|.[.[.[.[.[.[.[.[.[.[.[.[.[.[.[.[.[.[.[.[.[.[.[.[.[.[.[.[.[.[.[.[.[.[.[.[.[.[.[.[.[.[.[.[.[.[.[.[.[.[.[.[.[.[.|.|.|.|.|.",
"|.|.|.|.[.[.[.[.[.[.[.[.[.[.[.[.[.[.[.[.[.[.[.[.[.[.[.[.[.[.[.[.[.[.[.[.[.[.[.[.[.[.[.[.[.[.[.[.[.[.[.[.[.[.[.[.[.[.[.[.}.|.|.|.",
"|.|.}.[.[.[.[.[.[.[.[.[.[.[.[.[.[.[.[.[.[.[.[.[.[.[.[.[.[.[.[.[.[.[.[.[.[.[.[.[.[.[.[.[.[.[.[.[.[.[.[.[.[.[.[.[.[.[.[.[.[.|.|.|.",
"|.}.[.[.[.[.[.[.[.[.[.[.[.[.[.[.[.[.[.[.[.[.[.[.[.[.[.[.[.[.[.[.[.[.[.[.[.[.[.[.[.[.[.[.[.[.[.[.[.[.[.[.[.[.[.[.[.[.[.[.[.[.}.|.",
"|.[.[.[.[.[.[.[.[.[.[.[.[.[.[.[.[.[.[.[.[.[.[.[.[.[.[.[.[.[.[.[.[.[.[.[.[.[.[.[.[.[.[.[.[.[.[.[.[.[.[.[.[.[.[.[.[.[.[.[.[.[.[.}.",
"[.[.[.[.[.[.[.[.[.[.[.[.[.[.[.[.[.[.[.[.[.[.[.[.[.[.[.[.[.[.[.[.[.[.[.[.[.[.[.[.[.[.[.[.[.[.[.[.[.[.[.[.[.[.[.[.[.[.[.[.[.[.[.[."
};
