/* XPM */
static char *result[] = {
/* columns rows colors chars-per-pixel */
"64 64 193 2 ",
"   c #03070C",
".  c #020C0D",
"X  c #140B0C",
"o  c #060714",
"O  c #040B12",
"+  c #080F15",
"@  c #060A1B",
"#  c #150B14",
"$  c #1A0D14",
"%  c #041414",
"&  c #051616",
"*  c #041518",
"=  c #0A151A",
"-  c #031B1B",
";  c #0B1B1D",
":  c #191619",
">  c #2D170D",
",  c #240C13",
"<  c #280E17",
"1  c #360E19",
"2  c #241415",
"3  c #281813",
"4  c #23131C",
"5  c #2A151C",
"6  c #231A1E",
"7  c #331E11",
"8  c #33141B",
"9  c #39161A",
"0  c #331A1E",
"q  c #3A181F",
"w  c #12251F",
"e  c #3E200D",
"r  c #2A211F",
"t  c #060C25",
"y  c #080F25",
"u  c #090F29",
"i  c #0C1325",
"p  c #061C20",
"a  c #0A1E23",
"s  c #09112A",
"d  c #131C27",
"f  c #0E1731",
"g  c #111B34",
"h  c #271625",
"j  c #2A1621",
"k  c #2C1A24",
"l  c #331722",
"z  c #391621",
"x  c #341A25",
"c  c #3D1922",
"v  c #351C2A",
"b  c #391F2D",
"n  c #062021",
"m  c #092225",
"M  c #0E262C",
"N  c #152625",
"B  c #14242B",
"V  c #10292F",
"C  c #1D2D2D",
"Z  c #0F2930",
"A  c #152C34",
"S  c #182A37",
"D  c #192D37",
"F  c #15233B",
"G  c #172E39",
"H  c #1B323D",
"J  c #2D2628",
"K  c #342423",
"L  c #372625",
"P  c #36232C",
"I  c #3A212E",
"U  c #332B2A",
"Y  c #2A362D",
"T  c #35342C",
"R  c #3D2231",
"E  c #392C35",
"W  c #253933",
"Q  c #363230",
"!  c #353C31",
"~  c #3A3D34",
"^  c #591916",
"/  c #6F141C",
"(  c #562D13",
")  c #5A3010",
"_  c #533D1C",
"`  c #683F17",
"'  c #421422",
"]  c #411A22",
"[  c #482525",
"{  c #4F2A28",
"}  c #542B2D",
"|  c #4F352F",
" . c #412433",
".. c #462738",
"X. c #6D3632",
"o. c #39443A",
"O. c #364A3D",
"+. c #3B4B3C",
"@. c #45493C",
"#. c #7A423B",
"$. c #1A2641",
"%. c #1F2D48",
"&. c #1D3642",
"*. c #202F4A",
"=. c #22314C",
"-. c #6A3C48",
";. c #384E40",
":. c #3E5544",
">. c #3E5844",
",. c #455342",
"<. c #455946",
"1. c #4C5D4A",
"2. c #5F5045",
"3. c #784844",
"4. c #4E654E",
"5. c #51634E",
"6. c #556B53",
"7. c #586A53",
"8. c #577459",
"9. c #59755A",
"0. c #5D7A5C",
"q. c #61795D",
"w. c #565571",
"e. c #5F7A60",
"r. c #657F62",
"t. c #7D747C",
"y. c #9F3D12",
"u. c #923926",
"i. c #89521E",
"p. c #AF631D",
"a. c #8C5520",
"s. c #83433D",
"d. c #D04309",
"f. c #F26F0C",
"g. c #854641",
"h. c #874842",
"j. c #915048",
"k. c #8F4F51",
"l. c #876157",
"z. c #A2764B",
"x. c #AA7659",
"c. c #937061",
"v. c #5E8062",
"b. c #638465",
"n. c #678968",
"m. c #6C8D6B",
"M. c #6C916F",
"N. c #6F9471",
"B. c #709572",
"V. c #749C77",
"C. c #789E78",
"Z. c #7BA47D",
"A. c #F0C51A",
"S. c #B68C43",
"D. c #B99177",
"F. c #84A97F",
"G. c #D18673",
"H. c #C9927B",
"J. c #7A6C89",
"K. c #7FAA82",
"L. c #9A889F",
"P. c #AB8A88",
"I. c #82AD84",
"U. c #85B287",
"Y. c #8AB185",
"T. c #86B388",
"R. c #88B68A",
"E. c #8BBA8E",
"W. c #8EBE91",
"Q. c #B79BA3",
"!. c #BAA5B1",
"~. c #CD9E8D",
"^. c #DA9886",
"/. c #CCA186",
"(. c #EAA68D",
"). c #F0A189",
"_. c #EAAD95",
"`. c #EAB697",
"'. c #F3B496",
"]. c #F7B99A",
"[. c #D9B3B0",
"{. c #E9B6A1",
"}. c #8FC092",
"|. c #93C596",
" X c #9AC693",
".X c #9CCA97",
"XX c #9FCC98",
"oX c #FDC19F",
"OX c #F6C6A7",
"+X c #FDC3A1",
"@X c #FEC9A4",
"#X c #FBCAAC",
"$X c #EAC8B5",
/* pixels */
"|.|.|.|.|.|.|.|.|.|.|.|.|.|.|.|.|.|.|.|.|.|.|.|.|.|.|.|.|.|.|.|.|.|.|.|.|.|.|.|.|.|.|.|.|.|.|.|.|.|.|.|.|.|.|.|.|.|.|.|.|.|.|.|.",
".X|.|.|.|.|.|.|.|.|.|.|.|.|.|.|.|.|.|.|.|.|.|.|.|.|.|.|.|.|.|.|.|.|.|.|.|.|.|.|.|.|.|.|.|.|.|.|.|.|.|.|.|.|.|.|.|.|.|.|.|.|.|.XX",
".X.X|.|.|.|.|.|.|.|.|.|.|.|.|.|.|.|.|.|.|.|.|.|.|.|.|.|.|.|.|.|.|.|.|.|.|.|.|.|.|.|.|.|.|.|.|.|.|.|.|.|.|.|.|.|.|.|.|.|.|.|.XXXX",
"XX.X.X X|.|.|.|.|.|.|.|.|.|.|.|.|.|.|.|.|.|.|.|.|.|.|.|.|.|.|.|.|.|.|.|.|.|.|.|.|.|.|.|.|.|.|.|.|.|.|.|.|.|.|.|.|.|.|.|.|..XXXXX",
"XXXXXX.X.X|.|.|.|.|.|.|.|.|.|.|.|.|.|.|.|.|.|.|.|.|.|.|.|.|.|.|.|.|.|.|.|.|.|.|.|.|.|.|.|.|.|.|.|.|.|.|.|.|.|.|.|.|.|.|.XXXXXXXX",
"XXXXXXXX.X|.|.|.|.|.|.|.|.|.|.|.|.|.|.|.|.|.|.|.|.|.|.|.|.|.|.|.|.|.|.|.|.|.|.|.|.|.|.|.|.|.|.|.|.|.|.|.|.|.|.|.|.|.|..XXXXXXXXX",
"XXXXXXXX.X.X.X|.|.|.|.|.|.|.|.|.|.|.|.|.|.|.|.|.|.|.|.|.|.|.|.|.|.|.|.|.|.|.|.|.|.|.|.|.|.|.|.|.|.|.|.|.|.|.|.|.|.|..XXXXXXXXXXX",
"XXXXXXXXXXXX.X|.|.|.|.|.|.|.|.|.|.|.|.|.|.|.|.|.|.|.|.|.|.|.}.|.|.|.|.|.|.|.|.|.|.|.|.|.|.|.|.|.|.|.|.|.|.|.|.|.|.XXXXXXXXXXXXXX",
"XXXXXXXXXXXXXX.X|.|.|.|.|.|.|.|.|.|.|.|.|.|.|.|.|.|.|.|.}.Z.T.|.|.|.|.|.|.|.|.|.|.|.|.|.|.|.|.|.|.|.|.|.|.|.|.|.XXXXXXXXXXXXXXXX",
"XXXXXXXXXXXXXXXXXX|.|.|.|.|.|.|.|.|.|.|.|.|.|.|.|.|.|.}.V.o.@.b.|.|.|.|.|.|.|.|.|.|.|.|.|.|.|.|.|.|.|.|.|.|.|..XXXXXXXXXXXXXXXXX",
"XXXXXXXXXXXXXXXXXXXX|.|.|.|.|.|.|.|.|.|.|.|.I.F.Z.,.! ! L c x L ! <.K.K.W.}.|.|.}.|.|.|.|.|.|.|.|.|.|.|.|.|.XXXXXXXXXXXXXXXXXXXX",
"XXXXXXXXXXXXXXXXXXXXXX|.|.|.|.|.|.|.|.|.|.Z.Y r r 0 9 0 2 q ] c z k J ~ q.0.V.E.|.|.|.|.|.|.|.|.|.|.|.|.|.XXXXXXXXXXXXXXXXXXXXXX",
"XXXXXXXXXXXXXXXXXXXXXXXX|.|.|.|.|.|.|.|.|.E.6.T q q c c 9 q c ' c ] ] q 5 8 U 6.U.|.|.|.|.|.|.|.|.|.|.|.XXXXXXXXXXXXXXXXXXXXXXXX",
"XXXXXXXXXXXXXXXXXXXXXXXXXX|.|.|.|.|.|.|.|.I.8.@.3 2 q ] ] ] c ] ] c c ] [ ] ] 0 1.R.|.|.|.|.|.|.|.|.|.XXXXXXXXXXXXXXXXXXXXXXXXXX",
"XXXXXXXXXXXXXXXXXXXXXXXXXXXX|.|.|.|.|.}.0.T 0 q ] q ] ] ] c c ] q ] c ] q c ] ] x <.E. X|.|.|.|.|.|.XXXXXXXXXXXXXXXXXXXXXXXXXXXX",
"XXXXXXXXXXXXXXXXXXXXXXXXXXXXXX|.|.|.E.b.L q ] q ] ] c c c ] ] c ] ] q z c ] c l c K 1.R.W. X|.|.|.XXXXXXXXXXXXXXXXXXXXXXXXXXXXXX",
"XXXXXXXXXXXXXXXXXXXXXXXXXXXXXX.XY.F.r.K q ] ] c ' c z c c c ] ' c ' z v v z c v v x 0 q. X.X.X|.XXXXXXXXXXXXXXXXXXXXXXXXXXXXXXXX",
"XXXXXXXXXXXXXXXXXXXXXXXXXXXXXX X1.4 5 ] c ] ] c x x v z ] ] ] ] c z v x R R x x v R x ! Y..X|.|.XXXXXXXXXXXXXXXXXXXXXXXXXXXXXXXX",
"XXXXXXXXXXXXXXXXXXXXXXXXXXXX.XW.r.J v h j c ] q b R v c q c x z v x R R R  .b v v R R 4 q.|.|.|.XXXXXXXXXXXXXXXXXXXXXXXXXXXXXXXX",
"XXXXXXXXXXXXXXXXXXXXXXXXXXXXXX XE.q.6 , 8 ] z v k v z ] c z v b  .R h 4 x  . .b b R R I U I.|.|..XXXXXXXXXXXXXXXXXXXXXXXXXXXXXXX",
"XXXXXXXXXXXXXXXXXXXXXXXXXXXXXX.XR.,.0 l c c v v $ x c z v b  .I x I 3.k.} x  .R v b R R P 4.|.|..XXXXXXXXXXXXXXXXXXXXXXXXXXXXXXX",
"XXXXXXXXXXXXXXXXXXXXXXXXXXXXXX X8.x b v z x b j h z z v  .R k 8 } c.OX_.3.$ R R R v : R I ,.W.}.XXXXXXXXXXXXXXXXXXXXXXXXXXXXXXXX",
"XXXXXXXXXXXXXXXXXXXXXXXXXXXX.XY.o.x I x l v v 4 v l v  .v 4 : K ^.+X@XD.L j k R R b l j R Q N.|..XXXXXXXXXXXXXXXXXXXXXXXXXXXXXXX",
"XXXXXXXXXXXXXXXXXXXXXXXXXXXX X0.J  .R 4 5 R 5 5 b k  .b { ] 4 k.].+X@XH.{ L c R  .R v 4  .U b.|..XXXXXXXXXXXXXXXXXXXXXXXXXXXXXXX",
"XXXXXXXXXXXXXXXXXXXXXXXXXXXX X1.b P 5 2 x  .j j  .R v [ u.#.X.~.+X+XOX(.j.X.1 l  . .v 4  .U b.|.XXXXXXXXXXXXXXXXXXXXXXXXXXXXXXXX",
"XXXXXXXXXXXXXXXXXXXXXXXXXXXX X7.k 5 j , v  .5 j  . .k [ ^ ^ 9 c.+X+X].l.^ / / 2  .R b 6 v ~ K.|.XXXXXXXXXXXXXXXXXXXXXXXXXXXXXXXX",
"XXXXXXXXXXXXXXXXXXXXXXXXXXXX.XI.o.R k $  . .6 j ..< w.-.d.f.i.L.+XoX#XJ.y.f.u.E I R R 4 j ,.}.|.XXXXXXXXXXXXXXXXXXXXXXXXXXXXXXXX",
"XXXXXXXXXXXXXXXXXXXXXXXX.X.X.X.X8.P k j  . .v 4  .< t.Q.y.A.z.[.+XoX#X!.p.A.x.w.k .. .4 Y N.|.|.XXXXXXXXXXXXXXXXXXXXXXXXXXXXXXXX",
"XXXXXXXXXXXXXXXXXXXXXXXXXXXXXX.X9.U P 4 I  .v $ j 8 G.$Xx.S.[.+XoXoXoX$X~.S.D.P.v R ..j n.|.|.|.XXXXXXXXXXXXXXXXXXXXXXXXXXXXXXXX",
"XXXXXXXXXXXXXXXXXXXXXXXXXXXXXXXX9.P P : I  .4 # $ j._.#X{.^.#XoX+XoX+XoX#X^.{.).{ P R +.K.|.|.|.XXXXXXXXXXXXXXXXXXXXXXXXXXXXXXXX",
"XXXXXXXXXXXXXXXXXXXXXXXXXXXXXXXXN.~ 4.6.I I $ : } (.+X].+X@XoXoX+X+XoX+XoX@X+X).{ P P 8.}.|.|.|.XXXXXXXXXXXXXXXXXXXXXXXXXXXXXXXX",
"XXXXXXXXXXXXXXXXXXXXXXXXXXXXXXXX|.C.E.Z.~ v $ h 0 x.'.+X+X+X+X+X+XoX+XoX+XoXOX^.| P E n.}.|.|.|.XXXXXXXXXXXXXXXXXXXXXXXXXXXXXXXX",
"XXXXXXXXXXXXXXXXXXXXXXXXXXXXXX.X|.|.|.W.4.k $ 4 = J #.G.'.+X+X+X+XoXoXoX+XOX`.r.v.N ,.R.|.|.|.|..XXXXXXXXXXXXXXXXXXXXXXXXXXXXXXX",
"XXXXXXXXXXXXXXXXXXXXXXXXXXXXXXXX|.|.}.|.K.<.:.N H A B L s.G._.'.'.'.'.'./.2.@.m.R.M.I.|.|.|.|.|.XXXXXXXXXXXXXXXXXXXXXXXXXXXXXXXX",
"XXXXXXXXXXXXXXXXXXXXXXXXXXXXXX.X|.|.|.|.|.W.N.D a % % a a L s.g.h.h.g.h.[ ; d o.V.}.}.|.|.|.|.|..XXXXXXXXXXXXXXXXXXXXXXXXXXXXXXX",
"XXXXXXXXXXXXXXXXXXXXXXXXXXXXXX.X.X|.|.|.|.}.W.v.; B B = = p = o @ o   O % + + ; >.}.|.|.|.|.|.|.XXXXXXXXXXXXXXXXXXXXXXXXXXXXXXXX",
"XXXXXXXXXXXXXXXXXXXXXXXXXXXXXXXX}.|.|.|.|.|.}.B.C H H G V = +   s O   ; V G A Y N.|.|.|.|.|.|..X.XXXXXXXXXXXXXXXXXXXXXXXXXXXXXXX",
"XXXXXXXXXXXXXXXXXXXXXXXXXXXXXXXX|.|.|.|.|.|.}.N.C H H H H a ` 3 t X : A H H S >.E.}.|.|.|.|.|.|..XXXXXXXXXXXXXXXXXXXXXXXXXXXXXXX",
"XXXXXXXXXXXXXXXXXXXXXXXXXXXXXXXX|.|.|.|.|.|.T.;.S &.H H A - i.7 t ( _ V H H A >.K.|.|.|.|.|.|.|.XXXXXXXXXXXXXXXXXXXXXXXXXXXXXXXX",
"XXXXXXXXXXXXXXXXXXXXXXXXXXXXXXXX|.|.|.|.|.}.U.+.S H H H V * i.7 u ( _ a D H H D V.|.|.|.|.|.|.|..XXXXXXXXXXXXXXXXXXXXXXXXXXXXXXX",
"XXXXXXXXXXXXXXXXXXXXXXXXXXXXXXXX|.|.|.|.|.}.K.;.D H H H V * i.7 t ) _ - V H &.B n.|.|.|.|.|.|.|.XXXXXXXXXXXXXXXXXXXXXXXXXXXXXXXX",
"XXXXXXXXXXXXXXXXXXXXXXXXXXXXXXXX.X|.|.|.|.|.R.;.D H H A - * a.e $ ) _ & p G &.B m.|.}.|.|.|.|.|.XXXXXXXXXXXXXXXXXXXXXXXXXXXXXXXX",
"XXXXXXXXXXXXXXXXXXXXXXXXXXXXXXXX|.|.|.|.|.|.T.O.D H H A - % e 3 9 > r % - A &.B m. X|.|.|.|.|.|.XXXXXXXXXXXXXXXXXXXXXXXXXXXXXXXX",
"XXXXXXXXXXXXXXXXXXXXXXXXXXXXXXXX|.|.|.|.|. Xn.; G H H m % i F F Z i @ . % m H B m. X.X|.|.|.|.|.XXXXXXXXXXXXXXXXXXXXXXXXXXXXXXXX",
"XXXXXXXXXXXXXXXXXXXXXXXXXXXXXXXX|.|.|. X X X0.; H H A + F =.=.=.*.F s u o a &.B m.XXXX X X X|.|.XXXXXXXXXXXXXXXXXXXXXXXXXXXXXXXX",
"XXXXXXXXXXXXXXXXXXXXXXXXXXXXXX.X|.|. X.X.X X0.% V H M % *.=.=.=.*.$.s s @ = H N m. X.XXX.X|.|.|.XXXXXXXXXXXXXXXXXXXXXXXXXXXXXXXX",
"XXXXXXXXXXXXXXXXXXXXXXXXXXXXXX.X|.|..XXXXX Xv.% M G ; + *.=.=.=.=.$.u u y   A B m.XXXXXX.X.X|.|.XXXXXXXXXXXXXXXXXXXXXXXXXXXXXXXX",
"XXXXXXXXXXXXXXXXXXXXXXXXXXXXXXXX|..X.X.X.X X0.% p M % i =.=.=.=.=.*.s u y   m N m.XX XXX.XXX.X.XXXXXXXXXXXXXXXXXXXXXXXXXXXXXXXXX",
"XXXXXXXXXXXXXXXXXXXXXXXXXXXXXX|.|.|.|.|.|.}.8.- - M % i =.=.=.=.=.F s s y . - W K.|.|.|.|.|.|.|. X.XXXXXXXXXXXXXXXXXXXXXXXXXXXXX",
"XXXXXXXXXXXXXXXXXXXXXXXXXXXX|.|.|.|.|.|.|.}.8.% - n . i =.=.=.=.%.g s s y . % >.K.|.|.|.|.|.|.|.|. X.XXXXXXXXXXXXXXXXXXXXXXXXXXX",
"XXXXXXXXXXXXXXXXXXXXXXXXXX|.|.|.|.|.|.|.}.}.8.& - - . * $.=.=.=.%.g s u @ % & >.}.|.|.|.|.|.|.|.|.|.|..XXXXXXXXXXXXXXXXXXXXXXXXX",
"XXXXXXXXXXXXXXXXXXXXXXXX|.|.|.|.|.|.|.|.|.}.e.- - - . t g *.=.=.%.f u s O % - >.K.|.|.|.|.|.|..X|.|.|.|..XXXXXXXXXXXXXXXXXXXXXXX",
"XXXXXXXXXXXXXXXXXXXXXX|.|.|.|.|.|.|.|.|.|.|.Z.W & - . o y g *.=.%.f s @ % - N n.|.|.|.|.|.|.|.|.|.|.|.|.|.XXXXXXXXXXXXXXXXXXXXXX",
"XXXXXXXXXXXXXXXXXXXX|.|.|.|.|.|.|.|.|.|.|.}.}.K.4.w   , , $ d g a @ # X . M n.}.|.|.|.|.|.|.|.|.|.|.|.|.|.|..XXXXXXXXXXXXXXXXXXX",
"XXXXXXXXXXXXXXXXXX|.|.|.|.|.|.|.|.|.|.|.|.|.|.}.R.Z.O.8 ' Q r.m.+.< 1 U M.K.|.|.|.|.|.|.|.|.|.|.|.|.|.|.|.|.|..XXXXXXXXXXXXXXXXX",
"XXXXXXXXXXXXXXXX|.|.|.|.|.|.|.|.|.|.|.|.|.|.|.|.}.}.4.8 9 5.R.E.5.1 8 7.K.|.|.|.|.|.|.|.|.|.|.|.|.|.|.|.|.|.|..XXXXXXXXXXXXXXXXX",
"XXXXXXXXXXXXXX.X|.|.|.|.|.|.|.|.|.|.|.|.|.|.|.|.|.|.9.0 k n.W.W.9.8 U Z.|.|.|.|.|.|.|.|.|.|.|.|.|.|.|.|.|.|.|.|.|.XXXXXXXXXXXXXX",
"XXXXXXXXXXXX|.|.|.|.|.|.|.|.|.|.|.|.|.|.|.|.|.|.|.|.E.9.4.K.|.|.T.6.B.W.|.|.|.|.|.|.|.|.|.|.|.|.|.|.|.|.|.|.|.|.|.|..XXXXXXXXXXX",
"XXXXXXXX.X|.|.|.|.|.|.|.|.|.|.|.|.|.|.|.|.|.|.|.|.|.|.|.|.|.|.|.|.|.|.|.|.|.|.|.|.|.|.|.|.|.|.|.|.|.|.|.|.|.|.|.|.|..X.XXXXXXXXX",
"XXXXXXXX|.|.|.|.|.|.|.|.|.|.|.|.|.|.|.|.|.|.|.|.|.|.|.|.|.|.|.|.|.|.|.|.|.|.|.|.|.|.|.|.|.|.|.|.|.|.|.|.|.|.|.|.|.|.|.|..XXXXXXX",
"XXXX.X|.|.|.|.|.|.|.|.|.|.|.|.|.|.|.|.|.|.|.|.|.|.|.|.|.|.|.|.|.|.|.|.|.|.|.|.|.|.|.|.|.|.|.|.|.|.|.|.|.|.|.|.|.|.|.|.|.|.XXXXXX",
"XX.X|.|.|.|.|.|.|.|.|.|.|.|.|.|.|.|.|.|.|.|.|.|.|.|.|.|.|.|.|.|.|.|.|.|.|.|.|.|.|.|.|.|.|.|.|.|.|.|.|.|.|.|.|.|.|.|.|.|.|.|.|.XX",
"XX|.|.|.|.|.|.|.|.|.|.|.|.|.|.|.|.|.|.|.|.|.|.|.|.|.|.|.|.|.|.|.|.|.|.|.|.|.|.|.|.|.|.|.|.|.|.|.|.|.|.|.|.|.|.|.|.|.|.|.|.|.|.XX",
"|.|.|.|.|.|.|.|.|.|.|.|.|.|.|.|.|.|.|.|.|.|.|.|.|.|.|.|.|.|.|.|.|.|.|.|.|.|.|.|.|.|.|.|.|.|.|.|.|.|.|.|.|.|.|.|.|.|.|.|.|.|.|.|."
};
