/* XPM */
static char *result[] = {
/* columns rows colors chars-per-pixel */
"64 64 148 2 ",
"   c #211F30",
".  c #1F2839",
"X  c #1E303F",
"o  c #222332",
"O  c #23363A",
"+  c #2E333D",
"@  c #23383C",
"#  c #1E3342",
"$  c #1F3843",
"%  c #1B3B4B",
"&  c #223C41",
"*  c #1D454F",
"=  c #174457",
"-  c #1F4C52",
";  c #264240",
":  c #2C4643",
">  c #304945",
",  c #3D4C4B",
"<  c #25554B",
"1  c #204E51",
"2  c #2F6250",
"3  c #286952",
"4  c #3D6C56",
"5  c #185661",
"6  c #145C6B",
"7  c #1D6C6A",
"8  c #146773",
"9  c #156B75",
"0  c #196C77",
"q  c #167177",
"w  c #197173",
"e  c #177479",
"r  c #17797B",
"t  c #197D7C",
"y  c #217567",
"u  c #4C5F58",
"i  c #47705C",
"p  c #577665",
"a  c #1F8477",
"s  c #1C817A",
"d  c #1F927F",
"f  c #288161",
"g  c #338C63",
"h  c #2D9265",
"j  c #289471",
"k  c #21957E",
"l  c #23997D",
"z  c #289F7D",
"x  c #2CAA76",
"c  c #27A179",
"v  c #28A279",
"b  c #33B374",
"n  c #38B677",
"m  c #39B877",
"M  c #36B17A",
"N  c #3AB37C",
"B  c #3EBC7A",
"V  c #459A6C",
"C  c #51A271",
"Z  c #41BE7B",
"A  c #48BE7F",
"S  c #56BF7E",
"D  c #46C17E",
"F  c #48C37F",
"G  c #1B8680",
"H  c #1C8C82",
"J  c #1E9180",
"K  c #249184",
"L  c #259880",
"P  c #2A9A84",
"I  c #369F8B",
"U  c #2EA183",
"Y  c #39AA85",
"T  c #3CA38D",
"R  c #3AB081",
"E  c #488390",
"W  c #48A38F",
"Q  c #40AA8B",
"!  c #41B385",
"~  c #45BB84",
"^  c #48B885",
"/  c #4DB68F",
"(  c #59B798",
")  c #5CBA99",
"_  c #7BA786",
"`  c #72AF84",
"'  c #62BE9B",
"]  c #6BA4A4",
"[  c #4BC581",
"{  c #4EC882",
"}  c #5CC482",
"|  c #51CA83",
" . c #58CF87",
".. c #53C28A",
"X. c #57CB89",
"o. c #5ACD8A",
"O. c #5AD087",
"+. c #5DD389",
"@. c #5DC492",
"#. c #63CA8F",
"$. c #72CC8E",
"%. c #62D68B",
"&. c #64D88C",
"*. c #69D98F",
"=. c #6ACC97",
"-. c #6AD590",
";. c #6DDC91",
":. c #73DD95",
">. c #76DC99",
",. c #7BDD9B",
"<. c #78E097",
"1. c #7DE19A",
"2. c #76CAA2",
"3. c #7ED2A5",
"4. c #91B2BC",
"5. c #81E39C",
"6. c #85D6A7",
"7. c #86D9A7",
"8. c #89DEA4",
"9. c #86D6A9",
"0. c #93D9A1",
"q. c #9BD2BB",
"w. c #85E3A1",
"e. c #8AE6A2",
"r. c #8FE8A4",
"t. c #8EE2AB",
"y. c #93EAA7",
"u. c #94E4AF",
"i. c #96EBA9",
"p. c #9BECAC",
"a. c #96E5B1",
"s. c #9FEAB1",
"d. c #A0EDAF",
"f. c #A2F0AF",
"g. c #A1ECB2",
"h. c #A7E9BE",
"j. c #A5F1B1",
"k. c #ABF4B5",
"l. c #B4CFD0",
"z. c #B4ECC4",
"x. c #BDEFCE",
"c. c #D0EBDD",
"v. c #C4F0D3",
"b. c #D5E1E5",
"n. c #DBF7E3",
"m. c #E2F7E9",
"M. c #E8EFF1",
"N. c #F5F8F9",
/* pixels */
"  o                                                     .                                                           .           ",
"  o O ; : > > > > > > > > > > > > > > > > > > > > > > > > > > > > > > > > > > > > > > > > > > > > > > > > > > > > > > , , , +   ",
"o @ 3 g V C C C C C C C C C C C C C C C C C C C C C C C C C C C C C C C C C C C C C C C C C C C C C C C C C C C C C C C ` _ u o ",
"  @ f M [ +.+.&.&.&.&.&.%.&.&.&.&.&.&.&.&.&.&.&.&.&.&.&.&.&.&.&.%.%.&.&.&.&.&.&.&.&.&.&.&.&.&.&.&.&.&.&.&.&.&.&.&.*.-.<.y.0.p o ",
"  & y z M D  .%.&.&.&.&.&.&.&.&.&.&.&.&.&.&.&.&.&.&.&.&.&.&.&.&.&.&.&.&.&.&.&.&.&.&.&.&.&.&.&.&.&.&.&.&.&.&.&.&.&.-.5.y.5.$.i o ",
"  $ 7 d c M [ +.+.&.&.&.&.&.&.&.&.&.&.&.&.&.&.&.&.&.&.&.&.&.&.&.&.&.&.&.&.&.&.&.&.&.&.&.&.&.&.&.&.&.&.&.&.&.&.*.>.w.p.p.1.} i o ",
"  $ 7 H d c M D +.%.&.&.&.&.&.&.*.&.&.*.&.&.&.&.&.&.&.*.&.&.&.*.&.&.&.&.&.&.&.&.&.&.&.&.&.&.&.&.&.&.&.&.&.&.&.>.h.x.p.,.;.} 4 o ",
"  $ 7 H H d c M { &.*.:.;.;.;.;.;.;.;.;.;.;.;.;.-.;.;.;.;.;.;.;.;.;.;.;.:.;.;.;.;.;.;.;.:.;.;.;.;.;.;.:.>.,.,.t.v.n.u.&.&.} 4 o ",
"  $ 7 H H H L v ~ *.5.y.y.y.y.y.u.y.y.y.y.y.y.y.y.y.y.u.y.y.y.u.y.y.y.y.y.y.y.y.y.y.y.y.y.y.y.y.y.t.i.g.z.v.v.x.h.a.>.&.&.} 4 o ",
"  $ 7 H H H H L ^ &.5.d.g.g.s.g.s.s.s.s.s.s.s.s.s.s.s.s.s.s.s.s.g.g.g.p.g.g.s.s.s.s.s.s.s.g.s.s.g.g.g.z.c.M.N.m.a.&.&.&.&.} 4 o ",
"  $ 7 H H H H J R D X.#.@.( ( ( ) ( ( ( ) ) ( ( ( ( ( ( ( ( ( ( ( ( ( ( ( ( ( ( ( ( ( ( ( ( ( ( ( ( ) ( ] 4.b.m.a.&.&.&.&.} 4 o ",
"  $ 7 H H H H d c b b M v K J H H J H H J H H K J J K H J H K H H K H H H H K H H K H H H K H H K a H t 0 E l.n.u.&.&.&.&.} i o ",
"  $ 7 H H H H d v b Z A N z l H H H H H H H H H H H H H H H H H H H H H H H H H H H H H H H H H H G e q e I q.v.e.&.&.&.&.} 4 o ",
"  $ 7 H H H H d v b { +.~ b z d J H H H H H H H H H H H H H H H H H H H H H H H H H H H H H H G G r 8 8 t T 9.g.1.&.&.&.&.} 4 o ",
"  $ 7 H H H H d v b { %.| [ N z J H H H H H H H H H H H H H H H H H H H H H H H H H H H H H H G r q e r s T 7.f.1.&.&.&.&.} 4 o ",
"  $ 7 H H H H K v b { %.%.+.A b z J H H H H H H H H H H H H H H H H H H H H H H H H H H H G H r 8 9 t H H T 7.f.1.&.&.&.&.} 4 o ",
"  $ 7 H H H H H v n { &.&.&. .D M c k H H H H H H H H H H H H H H H H H H H H H H H H H H G r q q r G H H T 6.f.1.&.&.&.&.} 4 o ",
"  $ 7 H H H H J v n { +.&.&.&.+.[ b c K K K K K K K K K K K K K K K K K K K K K K K K K K s 8 9 t H H H H T 6.f.1.&.&.&.&.} 4 o ",
"  $ 7 H H H H J v b { &.&.&.&.+. .[ ~ ! / ) ' ' @.' =.+.' @.' @.' ' ' ' ' ' =.) ' ' ' ' ' W t r G H H H H T 6.f.1.&.&.&.&.} 4 o ",
"  $ 7 H H H H J v n { +.&.&.&.&.+.+.+.+.,.p.g.g.g.g.s.p.h.s.h.s.g.g.g.g.g.s.d.s.g.g.g.g.g.2.I s H H H H H T 6.f.1.&.&.&.&.} 4 o ",
"  $ 7 H H H H J v n { &.&.&.&.&.%.%. .| -.e.r.r.r.r.r.r.r.r.r.r.t.r.r.r.r.r.r.r.y.r.r.p.k.3.T H H H H H H T 6.f.1.&.&.&.&.} 4 o ",
"  $ 7 H H H H J v b { &.&.&.&.&.&.%.{ B [ &.;.-.;.;.;.;.;.;.;.;.;.;.;.-.-.;.;.;.;.-.;.w.j.3.I H H H H H H T 6.f.1.&.&.&.&.} 4 o ",
"  $ 7 H H H H J v n { &.&.&.&.&.&.%.[ b D %.&.&.&.&.&.&.S ;.&.&.&.&.&.&.&.&.&.&.&.&.&.5.j.3.I H H H H H H T 6.f.1.&.&.&.*.} 4 o ",
"  $ 7 H H H H J v b { &.&.&.&.&.%.%.{ b D +.&.&.&.&.&.&.&.&.<.S &.&.&.&.&.&.&.&.&.&.&.1.j.3.I H H H H H H T 6.s.1.&.&.&.&.} 4 o ",
"  $ 7 H H H H J c b { &.&.&.&.&.&.%.F b D +.&.&.+.| | | F F F ;.+.O.{ { | { | O.&.&.&.5.f.3.I H H H H H H T 6.f.1.&.&.&.&.} 4 o ",
"  $ 7 H H H H J c b { &.&.&.&.&.&.%.{ b D %.&.&.| B n n b b F S +.{ m b n n m F +.&.&.5.j.3.I H H H H H H T 6.f.1.&.&.&.&.} 4 o ",
"  $ 7 H H H H J c m { &.&.&.&.&.&.%.F m D +.&.&.F b b b b b b B { D b b b b b D +.&.&.5.j.3.T H H H H H H T 6.f.1.&.&.&.&.#.4 o ",
"  $ 7 H H H H J v m { +.&.&.&.&.&.%.{ b D +.&.%.F b b x b b b b m b b x x b b D +.&.&.5.j.3.I H H H H H H T 6.f.1.&.&.&.&.F i o ",
"  $ 7 H H H H J v b { &.&.&.&.&.&.%.F m F %.&.&.O.m b b b b b b b b b b b b b Z +.&.&.5.f.3.I H H H H H H T 6.d.5.&.&.&.&.S i o ",
"  $ 7 H H H H J v m { &.&.&.&.&.&.%.F m F +.&.&.F m b b b x b x b b x x b x b Z +.&.&.5.j.3.I H H H H H H T 6.d.1.&.&.&.&.S i o ",
"  $ 7 H H H H J c n { +.&.&.&.&.&.+.F b D +.&.&.O.D m b x b b b x b b b b m B F %.&.%.5.j.3.I H H H H H d T 5.f.1.&.;.;.;.S 4 o ",
"  $ 7 H H H H J v b { &.&.&.&.&.&.%.F m D %.&.&.&.+.F m b b x b b b b b b D O.+.%.&.&.5.j.3.I H H H H H d T 8.f.1.&.S *.*.F 4 o ",
"  $ 7 H H H H J v m { %.&.&.&.&.&.;.F m F ;.&.&.;.F D b b b x b b x x b b m F F %.&.&.1.k.3.I H H H H H H T 3.j.1.&.&.&.&.} 4 o ",
"  $ 7 H H H H J v b { %.&.&.&.&.&.F F m F F &.&.F F m b x b b b b x b b b b F F %.&.&.1.j.3.I H H H H H H T 7.j.1.&.&.&.&.X.4 o ",
"  $ w H H H H J v b { &.&.&.&.&.&.F F Z F F &.&.F F b b b b x b x b b b b b D F +.&.*.1.j.3.I H H H H H H T 3.f.1.&.&.&.&.} 4 o ",
"  $ 9 H H H H J x b { &.&.&.&.&.S <.F Z F ;.&.&.F D x b b x b b b b b x b m m F %.&.*.1.j.3.I J H H H H H T 7.f.1.&.&.&.&.} 4 o ",
"  $ 7 H H H H J v m { &.&.&.&.&.;.;.F D F F <.&.F Z b b b b b b b b b b b b b m +.&.&.1.j.3.I H H H H H H T t.f.1.&.&.&.&.} 4 o ",
"  $ 7 H H H H J v b { &.&.&.&.&.;.F F Z F ;.&.&.F F b b x b b Z m m b b b b b Z %.&.&.1.j.3.I H H H H H H T 3.j.1.&.&.&.&.} 4 o ",
"  $ 7 H H H J J v b { &.&.&.&.&.<.F F B F F &.&.F b b b b b Z O.F F m b b m b Z +.&.*.1.j.3.I H H H H H H T 3.j.1.*.&.&.*.} 4 o ",
"  $ 7 H H H J J v m { +.&.&.&.&.;.F { m F &.&.;.F F D Z D D { +.S F D D Z F F F %.&.*.1.j.3.I H H H H H H T 3.j.1.&.&.&.&.} 4 o ",
"  $ 7 H H H H d v b { &.&.&.&.&.S ;.{ m Z +.&.&.&.%.+.+.+.+.%.&.S <.S S &.F &.&.&.&.&.<.j.3.I H H H H H H T 6.f.1.&.&.&.&.} 4 o ",
"  $ 7 H H H H d v b { &.&.&.&.&.&.&.{ m D +.&.&.&.&.&.&.&.&.&.&.<.S ;.<.&.&.;.&.&.&.&.1.j.3.I H H H H H H T 6.f.1.&.&.&.&.} 4 o ",
"  $ 7 H H H H d x b { &.&.&.&.&.&.F F Z F &.&.&.&.&.&.%.&.&.&.&.;.<.S ;.;.;.&.&.;.;.&.1.g.3.U H H H H H H T 6.f.1.&.&.&.*.} 4 o ",
"  $ 7 H H H H d c b { &.&.&.&.&.&.&.F D Z F F F { { { { { | { | F F F F F F F F F F F ;.e.=.U H H H H H H T 6.f.1.&.&.&.&.} 4 o ",
"  X 7 H H H H H c b { &.&.&.&.&.&.&.R P b b m m m m M m m m m m D Z Z B m m Z Z Z B Z F ;. .U J H H H H H T 9.f.5.&.&.&.&.} 4 o ",
"  % 7 H H H H d c m { &.&.&.&.&.:.>.@.Y m Z Z Z Z Z Z Z B Z Z B Z Z F F Z Z F F Z D F F %.{ U d H H H H H T 6.f.5.&.&.&.&.} 4 o ",
"  $ 7 H H H H d c b { &.&.&.&.*.1.p.1.%. . . . .O.+.O.+. .O.O.+.F F &.F F F &.F F &.%.F %.{ b v d H H H H T 6.f.,.%.&.&.;.F 4 o ",
"  $ 7 H H H H H U m { &.&.&.:.1.e.i.1.*.&.&.&.&.&.&.&.&.&.&.&.&.;.&.;.&.&.&.;.&.&.&.&.&.&.O.D m c k H H a Y 6.f.5.&.&.&.*. .4 o ",
"  $ 7 d H H H J c b | +.*.*.1.f.r.<.;.*.+.*.&.&.&.&.&.&.&.&.&.&.&.&.&.&.&.&.&.&.&.&.&.&.&.+.+.[ M c k H H I 9.f.1.&.&.&.&.} 4 o ",
"  $ 7 H H H H J c b | +.;.1.e.i.1.&.+.*.&.&.&.&.&.&.&.&.&.&.&.&.&.&.&.&.&.&.&.&.&.&.&.&.&.%.%.+.D M z d d T 6.d.1.&.&.&.&.} 4 o ",
"  $ 7 H H H H J c m { *.5.p.e.<.;.&.&.&.&.&.&.&.&.&.&.&.&.&.&.&.&.&.&.&.&.&.&.&.&.&.&.&.&.&.&.+. .[ M c k W 7.d.1.&.&.&.%.#.4 o ",
"  $ 7 H H H H J c m | <.r.i.1.*.&.&.&.&.&.&.&.&.&.&.&.&.&.&.&.&.&.&.&.&.&.&.&.&.&.&.&.&.&.&.&.&.&. .D M z Q 7.d.1.&.&.&.%.F i o ",
"  $ 7 H H H H J v N ;.i.5.<.;.&.&.&.&.&.&.&.&.+.&.&.&.&.&.&.&.&.&.&.&.&.&.&.&.&.&.&.&.&.&.&.&.&.&.%. .[ M ^ 8.d.1.&.&.&.&.S i o ",
"  $ 7 H H H H H c M =.e.<.+. .O. .O. . . . .O. .O.O. .O. . .O.O. . . . . .+. . . . . . . . . . . . . .{ m A 5.y.<.&.&.&.&.S i o ",
"  $ 7 H H G H H J L R ..[ B B B Z B B B B B B B B B B B B B B B B B B B Z B B B B B B B B B B B B B B B b Z %.>.;.&.;.;.;.S i   ",
"  $ 7 H H d G s H J c x x x x x x x x x x x x x x x x x x x x x x x x x x x x x x x x x x x x x x x x x x M ~ o.&.F S &.*.F 4   ",
". $ 7 H H G e 9 t H J l l l d l d d c d c d d c d d d d l d l d l l d l l d l l k k l d l l d l l l l k l l P Y D D  .&.&.} 4 o ",
"  $ 7 H G s 9 8 t H H H H H H J H H H H H J H H d J d H d H d H H H H H H H H J H H d H H d H H H H H H H H H d x b [ +.+.} 4 o ",
"  # 7 s e 9 e t s H H H H H H H H H H H H H H H J H H H H H H H H H H H H H H H H H H H H H H H H H H H H H H d d c M D  .} 4 o ",
"o # 7 t 9 8 t H H H H H H H H H H H H H H H H H H H H H H H H H H H H H H H H H H H H H H H H H H H H H H H H H d d c b [ S 4 o ",
"  X 5 9 e t s H H H s d H H H H s H H H H H J s H H H H d s H H G d G d H H H H d H H d H H H H H d H H H H H H H d k z M N 2   ",
"  . = 6 7 t s s s a s t s s s s s s s s s s s t s s s s t t s s s t s t s s s s s s t t t a t s s t t t s t t a t a t a j h <   ",
"  . # % * - - - - - - - - - - - - - - - - - - - - - - - - - - - - - - - - - - - - - - - - - - - - - 1 1 - - - - 1 - 1 1 < < O   ",
"      . . o       . . o       .   o o o o o o o o   o . o o o   o . o o o o o o o o o   o   o o o o     o   o o o   o o o o     "
};
