/* XPM */
static char *result[] = {
/* columns rows colors chars-per-pixel */
"64 64 161 2 ",
"   c #9F7100",
".  c #9F7A0F",
"X  c #A27400",
"o  c #A77800",
"O  c #AB7D00",
"+  c #A37E0F",
"@  c #9D811C",
"#  c #AF8100",
"$  c #AA860F",
"%  c #B18200",
"&  c #B78800",
"*  c #BB8C00",
"=  c #B48F0F",
"-  c #BF9001",
";  c #BB9B00",
":  c #A88A19",
">  c #B68A15",
",  c #B59516",
"<  c #BA9711",
"1  c #B3961B",
"2  c #B5981C",
"3  c #BB9E1B",
"4  c #9C8726",
"5  c #9B8C30",
"6  c #A89125",
"7  c #AD9A2A",
"8  c #B29A23",
"9  c #A29431",
"0  c #AC9E32",
"q  c #A69D3C",
"w  c #B7A126",
"e  c #B9A022",
"r  c #B5A22C",
"t  c #ADA135",
"y  c #A7A13F",
"u  c #B2A434",
"i  c #BAAB33",
"p  c #B3AB3D",
"a  c #BBB13A",
"s  c #C29300",
"d  c #C69900",
"f  c #CA9B00",
"g  c #C09709",
"h  c #C3A200",
"j  c #CCA400",
"k  c #CDAB00",
"l  c #CBA70A",
"z  c #D4A400",
"x  c #D8A700",
"c  c #D2AD01",
"v  c #DCAC00",
"b  c #D0A70A",
"n  c #D4B301",
"m  c #DDB200",
"M  c #DCBA00",
"N  c #DCB308",
"B  c #D9BB0A",
"V  c #C9A715",
"C  c #CEAB14",
"Z  c #C1A118",
"A  c #CAAC1B",
"S  c #D0AB17",
"D  c #D5B010",
"F  c #E2B200",
"G  c #E5BA00",
"H  c #EBBC00",
"J  c #E5BE0C",
"K  c #C3AB23",
"L  c #CDAE26",
"P  c #D0AC2C",
"I  c #C9B72C",
"U  c #D1B821",
"Y  c #D0B131",
"T  c #DFC300",
"R  c #DDCE17",
"E  c #E4C300",
"W  c #ECC402",
"Q  c #E7C802",
"!  c #EDCB00",
"~  c #E6C908",
"^  c #E9CC0F",
"/  c #F4C400",
"(  c #F4CB01",
")  c #FECD00",
"_  c #EED100",
"`  c #F2D100",
"'  c #FED300",
"]  c #FDDB00",
"[  c #FDDE1C",
"{  c #F4E500",
"}  c #FEE400",
"|  c #F4EF00",
" . c #FDEB00",
".. c #FEE408",
"X. c #FDF200",
"o. c #FFFD02",
"O. c #FEFB0D",
"+. c #FCE810",
"@. c #FEE01D",
"#. c #FEFE10",
"$. c #FFF51A",
"%. c #E9D82E",
"&. c #F8D02B",
"*. c #FDE925",
"=. c #FEF222",
"-. c #FEE43B",
";. c #FFFE33",
":. c #9EA14C",
">. c #9DA453",
",. c #9EAA5A",
"<. c #A7A647",
"1. c #A2A349",
"2. c #ADAE4A",
"3. c #A3AA52",
"4. c #ADB351",
"5. c #A6B059",
"6. c #A9B75D",
"7. c #B4B950",
"8. c #97A861",
"9. c #9BAF67",
"0. c #97AE6B",
"q. c #9CB065",
"w. c #9BB26C",
"e. c #9FB96D",
"r. c #97B372",
"t. c #98B270",
"y. c #9DB872",
"u. c #96B77A",
"i. c #97B87D",
"p. c #A3B464",
"a. c #B7C84B",
"s. c #A1C06F",
"d. c #F0CD42",
"f. c #F5D351",
"g. c #FFEB42",
"h. c #FFFF43",
"j. c #F7DB6E",
"k. c #FEF767",
"l. c #FEF071",
"z. c #95BB83",
"x. c #93BF8B",
"c. c #94C08D",
"v. c #93C596",
"b. c #9CCA97",
"n. c #9FCC98",
"m. c #FFFE86",
"M. c #ECE095",
"N. c #FEF996",
"B. c #FEF59F",
"V. c #C9CFA1",
"C. c #E1D0A2",
"Z. c #F2ECB1",
"A. c #F3E8B8",
"S. c #FEFEB4",
"D. c #FEF4BB",
"F. c #FFFEBB",
"G. c #FFF7C4",
"H. c #FEF9C1",
"J. c #FEFECE",
"K. c #FFFEDB",
"L. c #FEFEFB",
/* pixels */
"v.v.v.v.v.v.v.v.v.v.v.v.v.v.v.v.v.v.v.v.v.v.v.v.y.I ~ B l b b l b b b b b V 2.x.v.v.v.v.v.v.v.v.v.v.v.v.v.v.v.v.v.v.v.v.v.v.v.v.",
"b.v.v.v.v.v.v.v.v.v.v.v.v.v.v.v.v.v.v.v.v.v.v.p./ ' ] ] ] n F F F F F F F F v K x.v.v.v.v.v.v.v.v.v.v.v.v.v.v.v.v.v.v.v.v.v.v.v.",
"n.b.v.v.v.v.v.v.v.v.v.v.v.v.v.v.v.v.v.v.v.v.i.J ) ' ] ] ] ' F ) / ) / / / / / ) I v.v.v.v.v.v.v.v.v.v.v.v.v.v.v.v.v.v.v.v.v.v.n.",
"n.n.n.v.v.v.v.v.v.v.v.v.v.v.v.v.v.v.v.v.v.x.U ( ) } X.$.=.] ! ( ) ) ) ) ) ) ) ) ( 6.v.v.v.v.v.v.v.v.v.v.v.v.v.v.v.v.v.v.v.b.n.n.",
"n.n.n.b.v.v.v.v.v.v.v.v.v.v.v.v.v.v.v.v.v.p./ ) } o.o.O.F.$.] Q ) ) ) ' ) ) ) ) ) J x.v.v.v.v.v.v.v.v.v.v.v.v.v.v.v.v.v.n.n.n.n.",
"n.n.n.n.n.v.v.v.v.v.v.v.v.v.v.v.v.v.v.v.v.A ) ] ] ' ] ] l.F...! ) ) ) ' ) ) ) ) ) ) 7.v.v.v.v.v.v.v.v.v.v.v.v.v.v.v.v.b.n.n.n.n.",
"n.n.n.n.n.b.v.v.v.v.v.v.v.v.v.v.v.v.v.v.w.H ) ' ) Q M E ] D.k.] E } } } } } } } } } R v.v.v.v.v.v.v.v.v.v.v.v.v.v.v.b.n.n.n.n.n.",
"n.n.n.n.n.n.b.v.v.v.v.v.v.v.v.v.v.v.v.v.a H ) ) s ; ; ; j [ H...Q O.o.O.o.O.o.O.o.O.O.e.v.v.v.v.v.v.v.x.v.v.v.v.v.n.n.n.n.n.n.n.",
"n.n.n.n.n.n.n.n.v.v.v.v.v.v.v.v.v.v.v.v.D H ) z X M ! E h c +.X._ Z.K.K.K.K.K.K.K.K.K.V.v.v.v.v.v.v.v.v.v.v.v.v.n.n.n.n.n.n.n.n.",
"n.n.n.n.n.n.n.n.v.v.v.v.v.v.v.v.v.v.v.w.G H / X m X.o. .` h W X.] %.h.h.h.h.h.h.h.h.h.%.c.v.v.v.v.v.v.v.v.v.v.v.n.n.n.n.n.n.n.n.",
"n.n.n.n.n.n.n.n.n.n.v.v.v.v.v.v.v.v.v.p H H * d '  .o.#.=.E h }  .T o.o.o.o.o.o.o.o.O.o.s.v.v.v.v.v.v.v.v.v.n.n.n.n.n.n.n.n.n.n.",
"n.n.n.n.n.n.n.n.n.n.b.v.v.v.v.v.v.v.v.S H z o / ' ]  .O.S.+.k !  .M | o.o.o.o.o.o.o.o.o.a.v.v.v.v.v.v.v.v.n.n.n.n.n.n.n.n.n.n.n.",
"n.n.n.n.n.n.n.n.n.n.n.v.v.v.v.v.v.v.z.N F s f ) ) c E X.m.N.Q n { Q G ' ' ' ' ' ' ' ' ) U v.v.v.v.v.v.v.n.n.n.n.n.n.n.n.n.n.n.n.",
"n.n.n.n.n.n.n.n.n.n.n.n.b.v.v.v.v.v.w.F v % H ) / k h ] O.J.*.j } ( F ) ) ) ) ) ) ) ) ) W x.v.v.v.v.v.n.n.n.n.n.n.n.n.n.n.n.n.n.",
"n.n.n.n.n.n.n.n.n.n.n.n.n.n.v.v.v.v.3.F z % ) ) / & c ] } ;.B.n ! ! v ) ) ) ) ) ) ) ' ) ) p.v.v.v.v.n.n.n.n.n.n.n.n.n.n.n.n.n.n.",
"n.n.n.n.n.n.n.n.n.n.n.n.n.n.n.v.v.v.i F s s ) ) / % n Q ] o.;.^ M _ v H H / H / W H H / H 4.v.v.v.n.n.n.n.n.n.n.n.n.n.n.n.n.n.n.",
"n.n.n.n.n.n.n.n.n.n.n.n.n.n.n.n.v.b.Z v & v ) ) / % W Y ..} o.{ k ( v v F F F F F F F F v Y b.b.n.n.n.n.n.n.n.n.n.n.n.n.n.n.n.n.",
"n.n.n.n.n.n.n.n.n.n.n.n.n.n.n.n.v.v.f z % H ) ) / % / M.-.} o.X.k / v z F F F F F F F F m K v.v.n.n.n.n.n.n.n.n.n.n.n.n.n.n.n.n.",
"n.n.n.n.n.n.n.n.n.n.n.n.n.n.n.n.v.u.z z O H ) ) / > j.L.G.&.X.o.n G v z F F F F F F F F F C v.v.b.n.n.n.n.n.n.n.n.n.n.n.n.n.n.n.",
"n.n.n.n.n.n.n.n.n.n.n.n.n.n.n.n.v.q.z d * H ) ) &.C.L.L.L.K.g.o.M v F f F F F F F F F F F b x.v.n.n.n.n.n.n.n.n.n.n.n.n.n.n.n.n.",
"n.n.n.n.n.n.n.n.n.n.n.n.n.n.n.n.v.3.z s d H ) ) / O f.L.A.@.] o._ d m f F F F F F F F F F v u.v.b.n.n.n.n.n.n.n.n.n.n.n.n.n.n.n.",
"n.n.n.n.n.n.n.n.n.n.n.n.n.n.n.n.v.<.z % z H / ) / % / D.L ] ]  .{ & F f F F F F F F F F F F w.v.b.n.n.n.n.n.n.n.n.n.n.n.n.n.n.n.",
"n.n.n.n.n.n.n.n.n.n.n.n.n.n.n.n.v.<.z O v H H ) / % / d.k ! ] } X.% x f v F F F F F F F F F 5.v.n.n.n.n.n.n.n.n.n.n.n.n.n.n.n.n.",
"n.n.n.n.n.n.n.n.n.n.n.n.n.n.n.n.v.u f o F H H ) / % / z c z ) ' X.% z z v F F F F F F F F F 2.v.b.n.n.n.n.n.n.n.n.n.n.n.n.n.n.n.",
"n.n.n.n.n.n.n.n.n.n.n.n.n.n.n.n.v.r f O H H H ) / % / f d z ) ) o.& d f F v F F F F F F F F 2.v.n.n.n.n.n.n.n.n.n.n.n.n.n.n.n.n.",
"n.n.n.n.n.n.n.n.n.n.n.n.n.n.n.n.v.8 s O H H H / / O / j % c ( ) X.; s j v F F F F F F F F F i v.n.n.n.n.n.n.n.n.n.n.n.n.n.n.n.n.",
"n.n.n.n.n.n.n.n.n.n.n.n.n.n.n.n.b.e s O H H H H / % / c * j H ) } j * f x F F F F F F F F F K v.n.n.n.n.n.n.n.n.n.n.n.n.n.n.n.n.",
"n.n.n.n.n.n.n.n.n.n.n.n.n.n.n.n.v.8 * & H H H H / % / S v z H ) } k & f x F F F F F F F F F K v.n.n.n.n.n.n.n.n.n.n.n.n.n.n.n.n.",
"n.n.n.n.n.n.n.n.n.n.n.n.n.n.n.n.v.3 & & H H H H H O / P ) ) ) ) ] c % f x F F F F F F F F F L v.n.n.n.n.n.n.n.n.n.n.n.n.n.n.n.n.",
"n.n.n.n.n.n.n.n.n.n.n.n.n.n.n.n.b.3 & * H H H H H O / S ) ) ) ) ' c % f s d d s s s d s d d 2 v.n.n.n.n.n.n.n.n.n.n.n.n.n.n.n.n.",
"n.n.n.n.n.n.n.n.n.n.n.n.n.n.n.n.v.3 & * H H H H F O / c ) ) ) ) ( k % f * s s s s s s s s s 2 v.n.n.n.n.n.n.n.n.n.n.n.n.n.n.n.n.",
"n.n.n.n.n.n.n.n.n.n.n.n.n.n.n.n.v.3 % & H H H H F % / c / ) ) ) H k O d s * s s s s s s s * 2 v.n.n.n.n.n.n.n.n.n.n.n.n.n.n.n.n.",
"n.n.n.n.n.n.n.n.n.n.n.n.n.n.n.b.v.3 % & F H H H F % / c / ) ) H H j O d s s s s s s s s s * , v.n.n.n.n.n.n.n.n.n.n.n.n.n.n.n.n.",
"n.n.n.n.n.n.n.n.n.n.n.n.n.n.n.b.v.Z % & v H H H F O / k H H H H W d % d * s s s s s s s s s 1 v.n.n.n.n.n.n.n.n.n.n.n.n.n.n.n.n.",
"n.n.n.n.n.n.n.n.n.n.n.n.n.n.n.n.v.3 O & x H H H F & / k H H H H H s # f * s s s s s s s s s , v.n.n.n.n.n.n.n.n.n.n.n.n.n.n.n.n.",
"n.n.n.n.n.n.n.n.n.n.n.n.n.n.n.n.v.3 % % x F H H F % / c F H H H G - # d * * s s * s s s s * 1 v.n.n.n.n.n.n.n.n.n.n.n.n.n.n.n.n.",
"n.n.n.n.n.n.n.n.n.n.n.n.n.n.n.n.v.e & O x F H H F % / k H H H H F * O d * s s s s s s s s s 8 v.n.n.n.n.n.n.n.n.n.n.n.n.n.n.n.n.",
"n.n.n.n.n.n.n.n.n.n.n.n.n.n.n.n.v.e & O c v F H F % / c H H H H F & & d s s s s * s s s s s 7 v.n.n.n.n.n.n.n.n.n.n.n.n.n.n.n.n.",
"n.n.n.n.n.n.n.n.n.n.n.n.n.n.n.n.v.w % o z v v H F # H k F H H H F O & s * s s * s s s s s - 0 v.b.n.n.n.n.n.n.n.n.n.n.n.n.n.n.n.",
"n.n.n.n.n.n.n.n.n.n.n.n.n.n.n.n.v.r & o z v v F F # / c H H H H x % % s * s s s s - s s s s y v.b.n.n.n.n.n.n.n.n.n.n.n.n.n.n.n.",
"n.n.n.n.n.n.n.n.n.n.n.n.n.n.n.b.v.u & o f v v v v % H k H H H H z O % s * s s s s s s s s * 1.v.n.n.n.n.n.n.n.n.n.n.n.n.n.n.n.n.",
"n.n.n.n.n.n.n.n.n.n.n.n.n.n.n.n.v.<.* O s v v v x % / c H H H F z o & s * s s s s s s s s s ,.v.n.n.n.n.n.n.n.n.n.n.n.n.n.n.n.n.",
"n.n.n.n.n.n.n.n.n.n.n.n.n.n.n.n.v.<.s O * x v v z % H k F H H v f o & s s s s s s s s * s s q.v.n.n.n.n.n.n.n.n.n.n.n.n.n.n.n.n.",
"n.n.n.n.n.n.n.n.n.n.n.n.n.n.n.n.v.3.s O & z v v x % H c H H H f s O * * s s s s * s s s s * i.v.n.n.n.n.n.n.n.n.n.n.n.n.n.n.n.n.",
"n.n.n.n.n.n.n.n.n.n.n.n.n.n.n.b.v.9.s % % f v v x O H k v F z f s O s % O & % % O % % % % % x.v.n.n.n.n.n.n.n.n.n.n.n.n.n.n.n.n.",
"n.n.n.n.n.n.n.n.n.n.n.n.n.n.n.n.v.i.s % O f z v x % H z v x f f O O s % % O % % % % O % % : v.v.n.n.n.n.n.n.n.n.n.n.n.n.n.n.n.n.",
"n.n.n.n.n.n.n.n.n.n.n.n.n.n.b.b.v.v.s O o d d z z O H j x z f f O % s O % % % % % % % % # 6 v.v.n.n.n.n.n.n.n.n.n.n.n.n.n.n.n.n.",
"n.n.n.n.n.n.n.n.n.n.n.n.n.n.b.b.b.b.3 % o s f d z O H z f f f s o O s O % % % O % % % % # q n.v.n.n.n.n.n.n.n.n.n.n.n.n.n.n.n.n.",
"n.n.n.n.n.n.n.n.n.n.n.n.n.n.n.b.v.v.t & O O f f s O H z f f f s O % ; # # % # % # % % # O >.v.v.v.n.n.n.n.n.n.n.n.n.n.n.n.n.n.n.",
"n.n.n.n.n.n.n.n.n.n.n.n.n.n.b.v.v.v.3.s O o f f f O F z f f f O # % & % % % % % % % # # # 0.v.v.v.v.n.n.n.n.n.n.n.n.n.n.n.n.n.n.",
"n.n.n.n.n.n.n.n.n.n.n.n.b.v.x.v.v.v.w.s & O s f s O v f s f s o % - % % % % # % # % # # # x.v.v.v.v.v.n.n.n.n.n.n.n.n.n.n.n.n.n.",
"n.n.n.n.n.n.n.n.n.n.n.n.v.v.v.v.v.v.z.g O O O f d o z f f f * o % s # # % # % % # % # # 4 v.v.v.v.v.v.v.b.n.n.n.n.n.n.n.n.n.n.n.",
"n.n.n.n.n.n.n.n.n.n.b.v.v.v.v.v.v.v.v.2 * O X d s & s & d f o O % s # # % # % % % % % # :.v.v.v.v.v.v.v.v.n.n.n.n.n.n.n.n.n.n.n.",
"n.n.n.n.n.n.n.n.n.n.v.v.v.v.v.v.v.v.x.<.s O O O d s s s s * o & & & # # % % % # % # # # r.v.v.v.v.v.v.v.v.v.b.n.n.n.n.n.n.n.n.n.",
"n.n.n.n.n.n.n.n.b.v.v.v.v.v.v.v.v.v.v.u.s O O o * f f d s   O O - % # % % # % % % % # $ x.v.v.v.v.v.v.v.v.v.v.n.n.n.n.n.n.n.n.n.",
"n.n.n.n.n.n.n.n.v.v.v.v.v.v.v.v.v.v.v.x.g O % O   % s & o o O & d # # # % % # % # % # 9 v.v.v.v.v.v.v.v.v.v.v.v.b.n.n.n.n.n.n.n.",
"n.n.n.n.n.n.b.v.v.v.v.v.v.v.v.v.v.v.v.v.y * % % o   X X X O % & - # # % # % % # # # # 0.v.v.v.v.v.v.v.v.v.v.v.v.v.n.n.n.n.n.n.n.",
"n.n.n.n.n.b.v.v.v.v.v.v.v.v.v.v.v.v.v.v.t.s % % O O O O % % % s # # % # % # # % # # : v.v.v.v.v.v.v.v.v.v.v.v.v.v.v.b.n.n.n.n.n.",
"n.n.n.n.b.v.v.v.v.v.v.v.v.v.v.v.v.v.v.v.v.8 & % % % % O % % & s # # # % # # % % O # >.v.v.v.v.v.v.v.v.v.v.v.v.v.v.v.v.n.n.n.n.n.",
"n.n.n.b.v.v.v.v.v.v.v.v.v.v.v.v.v.v.v.v.v.9.s % O & & % % % d % o o o o o o o o . . x.v.v.v.v.v.v.v.v.v.v.v.v.v.v.v.v.v.b.n.n.n.",
"n.n.b.v.v.v.v.v.v.v.v.v.v.v.v.v.v.v.v.v.v.x.8 s & % & O % s * X X           X   . 8.x.v.v.v.v.v.v.v.v.v.v.v.v.v.v.v.v.v.v.n.n.n.",
"n.b.v.v.v.v.v.v.v.v.v.v.v.v.v.v.v.v.v.v.v.v.z.g s * & s d d X X     X           5 v.v.v.v.v.v.v.v.v.v.v.v.v.v.v.v.v.v.v.v.v.b.n.",
"b.v.v.v.v.v.v.v.v.v.v.v.v.v.v.v.v.v.v.v.v.v.v.w.d f s f d o   X X           X 4 x.v.v.v.v.v.v.v.v.v.v.v.v.v.v.v.v.v.v.v.v.v.v.b.",
"v.v.v.v.x.v.v.v.v.v.v.v.v.v.v.v.v.v.v.v.v.v.v.x.u.0 < = + . . . . . . . . @ >.c.x.v.v.v.v.v.v.v.v.v.v.v.v.v.v.v.v.v.v.v.v.v.v.v."
};
