/* XPM */
static char *result[] = {
/* columns rows colors chars-per-pixel */
"64 64 155 2 ",
"   c #9F7100",
".  c #9F7A0F",
"X  c #A27400",
"o  c #A77800",
"O  c #AB7D00",
"+  c #A37E0F",
"@  c #AF8100",
"#  c #AA860F",
"$  c #B18200",
"%  c #B78800",
"&  c #BB8C00",
"*  c #B48F0F",
"=  c #BF9001",
"-  c #BB9B00",
";  c #A98815",
":  c #B68A15",
">  c #BC9A13",
",  c #B99B1A",
"<  c #9B8C30",
"1  c #A58D22",
"2  c #A89125",
"3  c #AE9C2E",
"4  c #B39B23",
"5  c #B19E2B",
"6  c #A49837",
"7  c #AD9F32",
"8  c #B3A02B",
"9  c #ADA135",
"0  c #A7A13F",
"q  c #AAA23B",
"w  c #BDAF33",
"e  c #B3A939",
"r  c #B9AE39",
"t  c #BBB13A",
"y  c #C29300",
"u  c #C69900",
"i  c #CA9B00",
"p  c #C09709",
"a  c #C19809",
"s  c #C3A200",
"d  c #CCA400",
"f  c #CDAB00",
"g  c #CBA70A",
"h  c #D4A400",
"j  c #D8A700",
"k  c #D2AD01",
"l  c #DCAC00",
"z  c #D0A70A",
"x  c #D4B301",
"c  c #DDB200",
"v  c #DCBA00",
"b  c #D9BB0A",
"n  c #CEAB14",
"m  c #C1A118",
"M  c #D0AB17",
"N  c #D5B010",
"B  c #E2B200",
"V  c #E5BA00",
"C  c #EBBC00",
"Z  c #C4AB23",
"A  c #CDAE26",
"S  c #D0AC2C",
"D  c #C4B02A",
"F  c #C9B72C",
"G  c #D1B821",
"H  c #D0B131",
"J  c #DFC300",
"K  c #DDCE17",
"L  c #E4C300",
"P  c #ECC402",
"I  c #E7C802",
"U  c #EDCB00",
"Y  c #EAC009",
"T  c #E6C908",
"R  c #E9CC0F",
"E  c #F4C400",
"W  c #F4CB01",
"Q  c #FECD00",
"!  c #EED100",
"~  c #F2D100",
"^  c #FED300",
"/  c #FDDB00",
"(  c #FDDE1C",
")  c #F4E500",
"_  c #FEE400",
"`  c #F4EF00",
"'  c #FDEB00",
"]  c #FEE408",
"[  c #FDF200",
"{  c #FFFD02",
"}  c #FEFB0D",
"|  c #FCE810",
" . c #FEE01D",
".. c #FEFE10",
"X. c #FFF51A",
"o. c #E9D82E",
"O. c #F8D02B",
"+. c #FDE925",
"@. c #FEF222",
"#. c #FEE43B",
"$. c #FFFE33",
"%. c #989F52",
"&. c #9EA14C",
"*. c #9DA453",
"=. c #9EAA5A",
"-. c #A7A341",
";. c #A5A447",
":. c #ADAF4B",
">. c #B3AE40",
",. c #A3AA52",
"<. c #ADB351",
"1. c #A6B059",
"2. c #A9B75D",
"3. c #B4B950",
"4. c #97A861",
"5. c #9BAF67",
"6. c #97AE6B",
"7. c #9BB26C",
"8. c #9FB96D",
"9. c #97B372",
"0. c #98B270",
"q. c #9DB872",
"w. c #96B77A",
"e. c #97B87D",
"r. c #A3B464",
"t. c #B7C84B",
"y. c #F0CD42",
"u. c #F5D351",
"i. c #E8E740",
"p. c #FFEB42",
"a. c #FFFF43",
"s. c #F7DB6E",
"d. c #FEF767",
"f. c #FEF071",
"g. c #95BB83",
"h. c #93BF8B",
"j. c #94C08D",
"k. c #93C596",
"l. c #9CCA97",
"z. c #9FCC98",
"x. c #FFFE86",
"c. c #ECE095",
"v. c #FEF996",
"b. c #FEF59F",
"n. c #C9CFA1",
"m. c #E1D0A2",
"M. c #F2ECB1",
"N. c #F3E8B8",
"B. c #FEFEB4",
"V. c #FEF4BB",
"C. c #FFFEBB",
"Z. c #FEF9C1",
"A. c #FEFECE",
"S. c #FFFEDB",
"D. c #FEFEFB",
/* pixels */
"k.k.k.k.k.k.k.k.k.k.k.k.k.k.k.k.k.k.k.k.k.k.k.k.j.:.n z z z z z z z g g b T F q.k.k.k.k.k.k.k.k.k.k.k.k.k.k.k.k.k.k.k.k.k.k.k.k.",
"l.k.k.k.k.k.k.k.k.k.k.k.k.k.k.k.k.k.k.k.k.k.k.j.8 B B B B B B B B B c / / / ^ P r.k.k.k.k.k.k.k.k.k.k.k.k.k.k.k.k.k.k.k.k.k.k.k.",
"z.l.k.k.k.k.k.k.k.k.k.k.k.k.k.k.k.k.k.k.k.k.k.F E E E W W E E E E V / / / / ^ ^ Y w.k.k.k.k.k.k.k.k.k.k.k.k.k.k.k.k.k.k.k.k.l.z.",
"z.z.z.k.k.k.k.k.k.k.k.k.k.k.k.k.k.k.k.k.k.k.2.W Q Q Q Q Q Q Q Q E W / +.X.[ / Q Q G j.k.k.k.k.k.k.k.k.k.k.k.k.k.k.k.k.k.k.l.z.z.",
"z.z.z.l.k.k.k.k.k.k.k.k.k.k.k.k.k.k.k.k.k.j.Y Q Q ^ Q Q Q Q ^ Q L / X.C...[ { _ Q E r.k.k.k.k.k.k.k.k.k.k.k.k.k.k.k.k.k.l.z.z.z.",
"z.z.z.z.z.k.k.k.k.k.k.k.k.k.k.k.k.k.k.k.k.3.Q Q Q Q Q Q Q Q Q E U ] C.f._ / / / / Q Z k.k.k.k.k.k.k.k.k.k.k.k.k.k.k.k.l.z.z.z.z.",
"z.z.z.z.z.l.k.k.k.k.k.k.k.k.k.k.k.k.k.k.k.K _ _ _ _ ' ' ' _ ' L / d.V./ L c I Q ^ Q C 0.k.k.k.k.k.k.k.k.k.k.k.k.k.k.l.z.z.z.z.z.",
"z.z.z.z.z.z.l.k.k.k.k.k.k.k.k.k.k.k.k.k.8.` } { { } { } { } { I ] Z.( f - - - y Q Q C r k.k.k.k.k.k.k.k.k.k.k.k.k.z.z.z.z.z.z.z.",
"z.z.z.z.z.z.z.l.k.k.k.k.k.k.k.k.k.k.k.k.n.S.S.S.S.S.S.S.S.S.M.~ [ | k s L U v X h Q C N h.k.k.k.k.k.k.k.k.k.k.k.l.z.z.z.z.z.z.z.",
"z.z.z.z.z.z.z.z.k.k.k.k.k.k.k.k.k.k.k.j.i.a.a.a.a.a.a.a.a.a.o.~ ' U u ~ ' { [ c o E C V 0.k.k.k.k.k.k.k.k.k.k.l.z.z.z.z.z.z.z.z.",
"z.z.z.z.z.z.z.z.z.l.k.k.k.k.k.k.k.k.k.8.[ { { { { { { { { { J ' _ f I @...{ ' ^ u & C C e k.k.k.k.k.k.k.k.k.l.z.z.z.z.z.z.z.z.z.",
"z.z.z.z.z.z.z.z.z.z.l.k.k.k.k.k.k.k.k.t.{ { { { { { { { { ` V ' U s | B.} ' / Q E o j C M k.k.k.k.k.k.k.k.z.z.z.z.z.z.z.z.z.z.z.",
"z.z.z.z.z.z.z.z.z.z.z.l.k.k.k.k.k.k.k.G Q ^ ^ ^ ^ ^ ^ Q ^ C I _ x I v.x.' L x W Q i y B B g.k.k.k.k.k.k.z.z.z.z.z.z.z.z.z.z.z.z.",
"z.z.z.z.z.z.z.z.z.z.z.z.z.k.k.k.k.k.h.Y Q Q Q Q Q ^ Q Q Q B U _ s +.A.../ s f E Q P O j V 7.k.k.k.k.k.z.z.z.z.z.z.z.z.z.z.z.z.z.",
"z.z.z.z.z.z.z.z.z.z.z.z.z.l.k.k.k.k.r.Q Q Q Q Q Q Q Q ^ ^ l U ! v b.$.' / f % E Q Q $ d V ,.k.k.k.k.z.z.z.z.z.z.z.z.z.z.z.z.z.z.",
"z.z.z.z.z.z.z.z.z.z.z.z.z.z.z.k.k.k.<.P C E E C E C E C C j ~ x R $.{ / I c @ E Q Q y u l e k.k.k.l.z.z.z.z.z.z.z.z.z.z.z.z.z.z.",
"z.z.z.z.z.z.z.z.z.z.z.z.z.z.z.z.k.z.t B B B B B B B B B l j W f ) { ' ] H E $ E Q Q l % l m z.k.z.z.z.z.z.z.z.z.z.z.z.z.z.z.z.z.",
"z.z.z.z.z.z.z.z.z.z.z.z.z.z.z.z.k.k.Z B B B B B B B B B h l E f [ { _ #.c.E $ E Q Q C $ j i h.k.z.z.z.z.z.z.z.z.z.z.z.z.z.z.z.z.",
"z.z.z.z.z.z.z.z.z.z.z.z.z.z.z.z.k.k.n B B B B B B B B l h B C x { ' O.Z.D.s.: E Q Q C $ h h w.k.l.z.z.z.z.z.z.z.z.z.z.z.z.z.z.z.",
"z.z.z.z.z.z.z.z.z.z.z.z.z.z.z.z.k.k.z B B B B B B B B B i B j v { p.S.D.D.D.m.O.Q Q C & u h 5.k.z.z.z.z.z.z.z.z.z.z.z.z.z.z.z.z.",
"z.z.z.z.z.z.z.z.z.z.z.z.z.z.z.z.k.e.l B B B B B B B B B i c u ! { /  .N.D.u.O E Q E C u y h ,.k.l.z.z.z.z.z.z.z.z.z.z.z.z.z.z.z.",
"z.z.z.z.z.z.z.z.z.z.z.z.z.z.z.z.k.7.l B B B B B B B B B i l % ) ' / / A V.E $ E Q E C h $ h -.k.z.z.z.z.z.z.z.z.z.z.z.z.z.z.z.z.",
"z.z.z.z.z.z.z.z.z.z.z.z.z.z.z.z.k.1.B B B B B B B B B B d j @ [ / / I k y.E $ E Q C C j O h 9 k.z.z.z.z.z.z.z.z.z.z.z.z.z.z.z.z.",
"z.z.z.z.z.z.z.z.z.z.z.z.z.z.z.z.k.:.B B B B B B B B B B i h % [ ^ ^ h k h E $ E Q C C B o i 5 k.l.z.z.z.z.z.z.z.z.z.z.z.z.z.z.z.",
"z.z.z.z.z.z.z.z.z.z.z.z.z.z.z.z.k.>.B B B B B B B B B l h u & { ^ Q d u i W $ E Q C C V o i , k.z.z.z.z.z.z.z.z.z.z.z.z.z.z.z.z.",
"z.z.z.z.z.z.z.z.z.z.z.z.z.z.z.z.l.r B B B B B B B B B j i y - [ Q W k % d E $ E E C C C O y , k.z.z.z.z.z.z.z.z.z.z.z.z.z.z.z.z.",
"z.z.z.z.z.z.z.z.z.z.z.z.z.z.z.z.k.w B B B B B B B B B j i & s ' Q V h & k E $ E C C C C O y > k.z.z.z.z.z.z.z.z.z.z.z.z.z.z.z.z.",
"z.z.z.z.z.z.z.z.z.z.z.z.z.z.z.z.k.w B B B B B B B B B j i % k / Q C h l M E O E C C C C % & > k.z.z.z.z.z.z.z.z.z.z.z.z.z.z.z.z.",
"z.z.z.z.z.z.z.z.z.z.z.z.z.z.z.z.k.D B B B B B B B B B j i % x / Q Q Q Q S E O C C C C C % % a j.z.z.z.z.z.z.z.z.z.z.z.z.z.z.z.z.",
"z.z.z.z.z.z.z.z.z.z.z.z.z.z.z.z.k.4 y u u u u y u y y y i $ f ^ Q Q Q W M E $ B C C C C & % a k.z.z.z.z.z.z.z.z.z.z.z.z.z.z.z.z.",
"z.z.z.z.z.z.z.z.z.z.z.z.z.z.z.z.k.4 y y y & y y y y y & i O k W Q Q Q Q k E $ B C C C C & % a k.z.z.z.z.z.z.z.z.z.z.z.z.z.z.z.z.",
"z.z.z.z.z.z.z.z.z.z.z.z.z.z.z.z.k.4 y y y y y y y y y & i O f C W Q Q E k E $ B C C C C % $ m k.z.z.z.z.z.z.z.z.z.z.z.z.z.z.z.z.",
"z.z.z.z.z.z.z.z.z.z.z.z.z.z.z.l.k.4 y y y y y y y y y & i @ d C C Q Q E j E O B C C C B % O a l.l.z.z.z.z.z.z.z.z.z.z.z.z.z.z.z.",
"z.z.z.z.z.z.z.z.z.z.z.z.z.z.z.l.k.4 & y y y & y y y y & i O i C C C C V f E % B C C C l % % a h.l.z.z.z.z.z.z.z.z.z.z.z.z.z.z.z.",
"z.z.z.z.z.z.z.z.z.z.z.z.z.z.z.z.k.4 y y y y y y y y y y i O y C C C C C f E $ B C C V l % % a k.l.z.z.z.z.z.z.z.z.z.z.z.z.z.z.z.",
"z.z.z.z.z.z.z.z.z.z.z.z.z.z.z.z.k.5 & y y y y y y y y & i O y V C C C C k E $ B C C B l O O a k.z.z.z.z.z.z.z.z.z.z.z.z.z.z.z.z.",
"z.z.z.z.z.z.z.z.z.z.z.z.z.z.z.z.k.7 y y y & y y y y y & i O & V C C C B f C $ B C C l l O O a k.l.z.z.z.z.z.z.z.z.z.z.z.z.z.z.z.",
"z.z.z.z.z.z.z.z.z.z.z.z.z.z.z.l.k.7 y y y y y y y & y & i $ % B C C C C f E % B C B l j O % , k.z.z.z.z.z.z.z.z.z.z.z.z.z.z.z.z.",
"z.z.z.z.z.z.z.z.z.z.z.z.z.z.z.z.k.6 y y y y y y y y y & y $ $ B C C C C k C $ B C j j j O % m k.l.z.z.z.z.z.z.z.z.z.z.z.z.z.z.z.",
"z.z.z.z.z.z.z.z.z.z.z.z.z.z.z.l.l.0 & y y y y y y y y & u $ O j C C C C f E $ B B l l h o % 4 k.z.z.z.z.z.z.z.z.z.z.z.z.z.z.z.z.",
"z.z.z.z.z.z.z.z.z.z.z.z.z.z.z.z.k.;.y y y y y y y y y & u $ O h C C C C k C $ B l l l i o % 5 k.z.z.z.z.z.z.z.z.z.z.z.z.z.z.z.z.",
"z.z.z.z.z.z.z.z.z.z.z.z.z.z.z.z.k.=.y y y & y y = y y & y % o h B C C V k C $ j l l l u o % 9 k.z.z.z.z.z.z.z.z.z.z.z.z.z.z.z.z.",
"z.z.z.z.z.z.z.z.z.z.z.z.z.z.z.z.k.7.= y y y y y y y y = & % o i j C C V k C O j l l h & O y ;.k.z.z.z.z.z.z.z.z.z.z.z.z.z.z.z.z.",
"z.z.z.z.z.z.z.z.z.z.z.z.z.z.z.z.k.g.& y y y & y y = = = & & O y h V C C k C $ j l l d % O y ,.k.z.z.z.z.z.z.z.z.z.z.z.z.z.z.z.z.",
"z.z.z.z.z.z.z.z.z.z.z.z.z.z.z.l.k.j.# $ O $ $ $ % @ @ % % & O & i h B B h C $ j l j i $ O u 5.k.z.z.z.z.z.z.z.z.z.z.z.z.z.z.z.z.",
"z.z.z.z.z.z.z.z.z.z.z.z.z.z.z.z.k.k.; @ $ $ $ $ @ $ @ @ O y O % i i j l d C O j l h i O $ y e.k.z.z.z.z.z.z.z.z.z.z.z.z.z.z.z.z.",
"z.z.z.z.z.z.z.z.z.z.z.z.z.z.z.z.k.j.2 @ $ @ $ $ @ $ $ @ @ y $ o i i i l k V O j j i i o $ y h.k.z.z.z.z.z.z.z.z.z.z.z.z.z.z.z.z.",
"z.z.z.z.z.z.z.z.z.z.z.z.z.z.z.z.k.z.6 @ $ $ @ $ $ @ $ $ O y $ X y i i i d C $ d i i & o % , l.k.z.z.z.z.z.z.z.z.z.z.z.z.z.z.z.z.",
"z.z.z.z.z.z.z.z.z.z.z.z.z.z.z.l.k.k.*.@ @ @ % @ @ @ @ % @ = % o % i i i i C O i i i $ O % 7 k.k.l.l.z.z.z.z.z.z.z.z.z.z.z.z.z.z.",
"z.z.z.z.z.z.z.z.z.z.z.z.z.z.k.k.k.k.9.O @ @ @ @ @ @ @ @ @ % % O O i i u d V O y i i o $ & ,.k.k.k.k.l.z.z.z.z.z.z.z.z.z.z.z.z.z.",
"z.z.z.z.z.z.z.z.z.z.z.z.z.k.k.k.k.k.h.@ @ @ % @ @ @ @ @ @ % = $ o i i u i B O i i y X $ y 0.k.k.k.k.k.l.z.z.z.z.z.z.z.z.z.z.z.z.",
"z.z.z.z.z.z.z.z.z.z.z.z.k.k.k.k.k.k.k.1 @ @ @ @ @ @ % @ @ @ y @ o % i u u j X i i O O $ p g.k.k.k.k.h.l.l.z.z.z.z.z.z.z.z.z.z.z.",
"z.z.z.z.z.z.z.z.z.z.z.k.k.k.k.k.k.k.k.&.O % $ @ @ @ @ % @ @ y % O o i i $ y $ y u X $ % , k.k.k.k.k.k.k.k.z.z.z.z.z.z.z.z.z.z.z.",
"z.z.z.z.z.z.z.z.z.l.k.k.k.k.k.k.k.k.k.6.@ @ @ $ @ % @ @ @ @ % % O o % i y y y i O o O & 0 k.k.k.k.k.k.k.k.k.z.z.z.z.z.z.z.z.z.z.",
"z.z.z.z.z.z.z.z.l.k.k.k.k.k.k.k.k.k.k.h.# @ @ $ @ @ % @ @ @ % & O O X y i i i & X $ $ y 9.k.k.k.k.k.k.k.k.k.k.z.z.z.z.z.z.z.z.z.",
"z.z.z.z.z.z.z.z.k.k.k.k.k.k.k.k.k.k.k.k.6 @ $ @ @ @ @ @ @ @ @ = % O o o % y $ X O O $ > h.k.k.k.k.k.k.k.k.k.k.k.z.z.z.z.z.z.z.z.",
"z.z.z.z.z.z.k.k.k.k.k.k.k.k.k.k.k.k.k.k.6.O @ $ O % $ $ O O O y y O % o X     o $ $ & q k.k.k.k.k.k.k.k.k.k.k.k.k.l.z.z.z.z.z.z.",
"z.z.z.z.z.l.k.k.k.k.k.k.k.k.k.k.k.k.k.k.k.1 $ $ $ O $ O % % O % u O O % O o O O $ $ u 0.k.k.k.k.k.k.k.k.k.k.k.k.k.k.z.z.z.z.z.z.",
"z.z.z.z.l.k.k.k.k.k.k.k.k.k.k.k.k.k.k.k.k.%.O $ $ $ O % O % O O y % O O O O O % O % 4 k.k.k.k.k.k.k.k.k.k.k.k.k.k.k.k.z.z.z.z.z.",
"z.z.z.z.k.k.k.k.k.k.k.k.k.k.k.k.k.k.k.k.k.h.+ X o o o o o o o o O i % O y O y O $ y 5.k.k.k.k.k.k.k.k.k.k.k.k.k.k.k.k.k.l.z.z.z.",
"z.z.l.k.k.k.k.k.k.k.k.k.k.k.k.k.k.k.k.k.k.k.4.  X X       X   X   y y O O O y O & 4 k.k.k.k.k.k.k.k.k.k.k.k.k.k.k.k.k.k.k.l.z.z.",
"z.l.k.k.k.k.k.k.k.k.k.k.k.k.k.k.k.k.k.k.k.k.k.<       X           o i u y O y i * g.k.k.k.k.k.k.k.k.k.k.k.k.k.k.k.k.k.k.k.k.l.z.",
"z.k.k.k.k.k.k.k.k.k.k.k.k.k.k.k.k.k.k.k.k.k.k.h.<     X             O i i a y y 9.k.k.k.k.k.k.k.k.k.k.k.k.k.k.k.k.k.k.k.k.k.k.z.",
"k.k.k.k.k.k.k.k.k.k.k.k.k.k.k.k.k.k.k.k.k.k.k.k.h.%.. + . . . . . . . + : p 3 q.k.k.k.k.k.k.k.k.k.k.k.k.k.k.k.k.k.k.k.k.k.k.k.k."
};
