/* XPM */
static char *result[] = {
/* columns rows colors chars-per-pixel */
"64 64 165 2 ",
"   c #9F7100",
".  c #9F7A0F",
"X  c #9E7D14",
"o  c #A27300",
"O  c #A77900",
"+  c #AB7D00",
"@  c #AF8100",
"#  c #A7820F",
"$  c #AC840A",
"%  c #B18300",
"&  c #B68800",
"*  c #BB8C00",
"=  c #BE9102",
"-  c #BD9C00",
";  c #B7910F",
":  c #BB940C",
">  c #A78B1B",
",  c #B69413",
"<  c #B99613",
"1  c #BA9915",
"2  c #B3961B",
"3  c #9B8F36",
"4  c #AF9A28",
"5  c #B59E26",
"6  c #A79934",
"7  c #A29738",
"8  c #BDA626",
"9  c #BAA62B",
"0  c #AEA236",
"q  c #ACA43D",
"w  c #B4A532",
"e  c #B0A53A",
"r  c #B8AD38",
"t  c #BBAF39",
"y  c #C29300",
"u  c #C79800",
"i  c #CA9B00",
"p  c #C0990B",
"a  c #C7A700",
"s  c #CCA201",
"d  c #C6A800",
"f  c #CCAB01",
"g  c #CCA40C",
"h  c #D3A400",
"j  c #D4AB00",
"k  c #DBAC00",
"l  c #D0A70A",
"z  c #D2AB0D",
"x  c #CDB200",
"c  c #D3B300",
"v  c #DDB200",
"b  c #D3BC01",
"n  c #DCBB00",
"m  c #DAB508",
"M  c #DDBB09",
"N  c #CEAB14",
"B  c #C5A91A",
"V  c #C9AB1B",
"C  c #C9B01D",
"Z  c #DBBA17",
"A  c #DEB918",
"S  c #E2B200",
"D  c #E5BA00",
"F  c #EDBD00",
"G  c #C5AC24",
"H  c #C2AD28",
"J  c #C9BB25",
"K  c #C5B632",
"L  c #D3BE3C",
"P  c #D6C200",
"I  c #DAC500",
"U  c #DFCF13",
"Y  c #DDC918",
"T  c #D6D81E",
"R  c #E2C201",
"E  c #EDC400",
"W  c #E3CD00",
"Q  c #EDCB00",
"!  c #E2C60B",
"~  c #EDC60A",
"^  c #E4C90C",
"/  c #F5C500",
"(  c #F3CC00",
")  c #FECD00",
"_  c #E4D300",
"`  c #ECD300",
"'  c #E7DC00",
"]  c #ECDE01",
"[  c #F4D301",
"{  c #FED200",
"}  c #F6DD00",
"|  c #FDDC00",
" . c #E3CB10",
".. c #EDE401",
"X. c #F2E500",
"o. c #FEE400",
"O. c #FEEC00",
"+. c #FEE50A",
"@. c #FEEC0F",
"#. c #F6F203",
"$. c #FEF500",
"%. c #FFFE02",
"&. c #FEFC0B",
"*. c #FEE617",
"=. c #FDF114",
"-. c #D9C633",
";. c #F5E627",
":. c #FCEB26",
">. c #FDF135",
",. c #F6F23B",
"<. c #FEFC3C",
"1. c #9A9642",
"2. c #9E9F49",
"3. c #9CA555",
"4. c #9EAA5C",
"5. c #A7A343",
"6. c #A9A542",
"7. c #A4A54C",
"8. c #A5A94E",
"9. c #AAAD4E",
"0. c #B2AE41",
"q. c #B8BC44",
"w. c #A1A651",
"e. c #A9AE50",
"r. c #A0AD5B",
"t. c #A7B558",
"y. c #B2BA54",
"u. c #99AC65",
"i. c #9AB16B",
"p. c #97B374",
"a. c #9DBB75",
"s. c #95B77B",
"d. c #95B87E",
"f. c #99BB7B",
"g. c #A0B264",
"h. c #A2BA6C",
"j. c #B4C247",
"k. c #BAC94A",
"l. c #FEE544",
"z. c #FFF443",
"x. c #FFFF43",
"c. c #FEF755",
"v. c #E5D964",
"b. c #E2CE79",
"n. c #FEEA66",
"m. c #FEF766",
"M. c #FFFE62",
"N. c #F8F669",
"B. c #FDF974",
"V. c #FEFE7D",
"C. c #95BC85",
"Z. c #99BF81",
"A. c #93BD89",
"S. c #94C18D",
"D. c #93C596",
"F. c #9CCA97",
"G. c #9FCC98",
"H. c #FEFD8B",
"J. c #FBFA9D",
"K. c #DCDCB2",
"L. c #FEF9B1",
"P. c #FFF9CA",
"I. c #FEFED6",
"U. c #FFFFDB",
"Y. c #FEFEE6",
/* pixels */
"D.D.D.D.D.D.D.D.D.D.D.D.D.D.D.D.D.D.D.D.D.D.D.D.Z.K  .M g g g g l l g l l g r C.D.D.D.D.D.D.D.D.D.D.D.D.D.D.D.D.D.D.D.D.D.D.D.D.",
"F.D.D.D.D.D.D.D.D.D.D.D.D.D.D.D.D.D.D.D.D.D.D.Z. .| | | ) k S S S S S S S S S N s.D.D.D.D.D.D.D.D.D.D.D.D.D.D.D.D.D.D.D.D.D.D.D.",
"G.F.D.D.D.D.D.D.D.D.D.D.D.D.D.D.D.D.D.D.D.D.A.Y | | | | ) ) k / / / ) / / / / / Z A.D.D.D.D.D.D.D.D.D.D.D.D.D.D.D.D.D.D.D.D.D.F.",
"G.G.G.D.D.D.D.D.D.D.D.D.D.D.D.D.D.D.D.D.D.D.q.} +.z.$.O.{ ) / / ) ) ) ) ) ) ) ) ) K D.D.D.D.D.D.D.D.D.D.D.D.D.D.D.D.D.D.D.F.F.F.",
"G.G.G.F.D.D.D.D.D.D.D.D.D.D.D.D.D.D.D.D.D.f.[ o.H.M.%.$.$.{ ) v ) ) ) ) ) ) ) ) ) ( a.D.D.D.D.D.D.D.D.D.D.D.D.D.D.D.D.D.G.G.G.G.",
"G.G.G.G.G.D.D.D.D.D.D.D.D.D.D.D.D.D.D.D.D.j.| c.P.+.| | | | ) F D ) ) ) ) ) ) ) ) ) K D.D.D.D.D.D.D.D.D.D.D.D.D.D.D.D.F.G.G.G.G.",
"G.G.G.G.G.F.D.D.D.D.D.D.D.D.D.D.D.D.D.D.S.^ *.U.l.Q n n ( ) { / D o.O.o.o.O.o.o.o.o.} s.D.D.D.D.D.D.D.D.D.D.D.D.D.D.F.G.G.G.G.G.",
"G.G.G.G.G.G.F.D.D.D.D.D.D.D.D.D.D.D.D.D.t.| m.n.R - - - & F ) / S #.%.&.&.%.&.&.%.&.&.k.D.D.D.D.D.D.D.D.D.D.D.D.D.G.G.G.G.G.G.G.",
"G.G.G.G.G.G.G.F.D.D.D.D.D.D.D.D.D.D.D.D.J o.@.Q - c Q Q = + ) / D b.U.U.U.U.U.U.U.U.U.K.D.D.D.D.D.D.D.D.D.D.D.D.F.G.G.G.G.G.G.G.",
"G.G.G.G.G.G.G.G.D.D.D.D.D.D.D.D.D.D.D.C.! O.| d n o.$.$.X.% u / F A x.x.x.x.x.x.x.x.x.,.f.D.D.D.D.D.D.D.D.D.D.F.G.G.G.G.G.G.G.G.",
"G.G.G.G.G.G.G.G.G.G.D.D.D.D.D.D.D.D.D.h.[ O.Q d o.<.%.$.| F O S D D #.%.%.%.%.%.%.%.%.%.y.D.D.D.D.D.D.D.D.D.G.G.G.G.G.G.G.G.G.G.",
"G.G.G.G.G.G.G.G.G.G.F.D.D.D.D.D.D.D.D.0.} o.d Q B.M.$.| { ) u = S D ..$.%.%.%.%.%.%.%.%.T D.D.D.D.D.D.D.D.G.G.G.G.G.G.G.G.G.G.G.",
"G.G.G.G.G.G.G.G.G.G.G.F.D.D.D.D.D.D.D.B X.[ d :.I.&.| | { ) / + k F D ) ) { { { { { { ) ~ C.D.D.D.D.D.D.G.G.G.G.G.G.G.G.G.G.G.G.",
"G.G.G.G.G.G.G.G.G.G.G.G.F.D.D.D.D.D.C.j o.n R L.M.O.| | ) ) ) % i S h ) ) ) ) ) ) ) ) ) ( h.D.D.D.D.D.F.G.G.G.G.G.G.G.G.G.G.G.G.",
"G.G.G.G.G.G.G.G.G.G.G.G.G.F.D.D.D.D.i.D o.f l.H.$.| | | ) ) ) j * k h ) ) ) ) { ) ) ) ) ) y.D.D.D.D.G.G.G.G.G.G.G.G.G.G.G.G.G.G.",
"G.G.G.G.G.G.G.G.G.G.G.G.G.F.F.D.D.D.9.D } c >...` | | | ) D / E + k k S / F F F / F F / F K D.D.D.F.G.G.G.G.G.G.G.G.G.G.G.G.G.G.",
"G.G.G.G.G.G.G.G.G.G.G.G.G.G.G.G.D.F.t D E n ..I P Q | | s ] s / + h h h S S S S S S S S S V G.D.G.G.G.G.G.G.G.G.G.G.G.G.G.G.G.G.",
"G.G.G.G.G.G.G.G.G.G.G.G.G.G.G.G.D.D.G F j ` b N.B.f | Q -.*.W D y h h h S S S S S S S S S z A.D.G.G.G.G.G.G.G.G.G.G.G.G.G.G.G.G.",
"G.G.G.G.G.G.G.G.G.G.G.G.G.G.G.G.D.D.N F * X.C Y.V.b [ m ;.) [ h h y h h S S S S S S S S S k s.D.F.G.G.G.G.G.G.G.G.G.G.G.G.G.G.G.",
"G.G.G.G.G.G.G.G.G.G.G.G.G.G.G.G.D.D.l D & W v.V.%.X.R f | ) { u k O h i S S S S S S S S S S g.D.G.G.G.G.G.G.G.G.G.G.G.G.G.G.G.G.",
"G.G.G.G.G.G.G.G.G.G.G.G.G.G.G.G.D.d.h S y P J.@.o.$.j x ) ) ) y S O h i S S S S S S S S S S e.D.G.G.G.G.G.G.G.G.G.G.G.G.G.G.G.G.",
"G.G.G.G.G.G.G.G.G.G.G.G.G.G.G.G.D.i.i k j Z B.{ ) O.- W ) ) ) s h O i i S S S S S S S S S S 0.D.F.G.G.G.G.G.G.G.G.G.G.G.G.G.G.G.",
"G.G.G.G.G.G.G.G.G.G.G.G.G.G.G.G.D.r.i s I L =.) ) { x [ ) ) F k i + i i k S S S S S S S S S H D.G.G.G.G.G.G.G.G.G.G.G.G.G.G.G.G.",
"G.G.G.G.G.G.G.G.G.G.G.G.G.G.G.G.D.9.i y _ -.o.) ) ) _ { ) ) S h u y y u k S S S S S S S S S H D.F.G.G.G.G.G.G.G.G.G.G.G.G.G.G.G.",
"G.G.G.G.G.G.G.G.G.G.G.G.G.G.G.G.D.6.i * W U | ) ) ) o.) ) / S i u u y u h S S S S S S S S S G F.G.G.G.G.G.G.G.G.G.G.G.G.G.G.G.G.",
"G.G.G.G.G.G.G.G.G.G.G.G.G.G.G.G.D.e i % I ' { { ) ) ) ) ) F k u y i + u h S S S S S S S S S V D.G.G.G.G.G.G.G.G.G.G.G.G.G.G.G.G.",
"G.G.G.G.G.G.G.G.G.G.G.G.G.G.G.G.D.w u % b ..{ ) ) ) ) ) ) F k u y h + u h S S S S S S S S S N D.G.G.G.G.G.G.G.G.G.G.G.G.G.G.G.G.",
"G.G.G.G.G.G.G.G.G.G.G.G.G.G.G.G.D.w u % b X.) ) ) ) ) ) ) S k u y h + i i S S S S S S S S S z A.G.G.G.G.G.G.G.G.G.G.G.G.G.G.G.G.",
"G.G.G.G.G.G.G.G.G.G.G.G.G.G.G.G.D.9 y % b X.{ ) ) { ) ) / S k y & k + u i S S S S S S S S S k D.G.G.G.G.G.G.G.G.G.G.G.G.G.G.G.G.",
"G.G.G.G.G.G.G.G.G.G.G.G.G.G.G.G.D.9 = % b ..) ) ) ) ) ) F S h y & S O y y u u y y y u u u y p D.G.G.G.G.G.G.G.G.G.G.G.G.G.G.G.G.",
"G.G.G.G.G.G.G.G.G.G.G.G.G.G.G.G.D.9 = % x ..{ ) ) ) ) ) S S h & y k O y & y y y y y y y y y : D.G.G.G.G.G.G.G.G.G.G.G.G.G.G.G.G.",
"G.G.G.G.G.G.G.G.G.G.G.G.G.G.G.G.F.9 * @ c ' { ) D / / S S S h % y h o y y y y y y * y y y y : D.G.G.G.G.G.G.G.G.G.G.G.G.G.G.G.G.",
"G.G.G.G.G.G.G.G.G.G.G.G.G.G.G.F.D.8 * @ n _ { ) S S S S S S h + y h O y & y y y y y y * y y * D.G.G.G.G.G.G.G.G.G.G.G.G.G.G.G.G.",
"G.G.G.G.G.G.G.G.G.G.G.G.G.G.G.G.D.9 * + D I | / S S S S S S i + y h O y y y y y y * y y y y p A.G.G.G.G.G.G.G.G.G.G.G.G.G.G.G.G.",
"G.G.G.G.G.G.G.G.G.G.G.G.G.G.G.F.D.9 * + D b o./ S S S S S k y + y i + y & y y y y y y y y y & D.G.G.G.G.G.G.G.G.G.G.G.G.G.G.G.G.",
"G.G.G.G.G.G.G.G.G.G.G.G.G.G.G.F.D.9 * + D x O.F S S S S S h y & y u O y & y & y y y y * y * ; D.F.G.G.G.G.G.G.G.G.G.G.G.G.G.G.G.",
"G.G.G.G.G.G.G.G.G.G.G.G.G.G.G.G.D.w * + k j O.F S S S S S i + + i u O y y y y y y y y y y y < D.F.G.G.G.G.G.G.G.G.G.G.G.G.G.G.G.",
"G.G.G.G.G.G.G.G.G.G.G.G.G.G.G.G.D.0 * + h i $.F S S S S h u + + k y O y & y y y y * y y y y < A.G.G.G.G.G.G.G.G.G.G.G.G.G.G.G.G.",
"G.G.G.G.G.G.G.G.G.G.G.G.G.G.G.F.D.q * + s h o.F S S S S i u o + k y + y & y y y y y y * y y , D.F.G.G.G.G.G.G.G.G.G.G.G.G.G.G.G.",
"G.G.G.G.G.G.G.G.G.G.G.G.G.G.G.F.D.6.* + i k R F S S S h y y O & k & O y y & y y y y y y y y 4 D.G.G.G.G.G.G.G.G.G.G.G.G.G.G.G.G.",
"G.G.G.G.G.G.G.G.G.G.G.G.G.G.G.G.D.8.* + u k a [ S S S i i + O i h + + y & y y y y y * y y y 4 D.G.G.G.G.G.G.G.G.G.G.G.G.G.G.G.G.",
"G.G.G.G.G.G.G.G.G.G.G.G.G.G.G.G.D.4.= + u k s o.k S k i i O O h h + & y y y y y y y y y y * 6 D.G.G.G.G.G.G.G.G.G.G.G.G.G.G.G.G.",
"G.G.G.G.G.G.G.G.G.G.G.G.G.G.G.G.D.i.y @ & h s ] S S i u y   + k i + + y y y y y y y y y y y 5.D.G.G.G.G.G.G.G.G.G.G.G.G.G.G.G.G.",
"G.G.G.G.G.G.G.G.G.G.G.G.G.G.G.G.D.d.y @ @ i h W F k i u y   & h y O & y y y y y * y y * y y w.F.G.G.G.G.G.G.G.G.G.G.G.G.G.G.G.G.",
"G.G.G.G.G.G.G.G.G.G.G.G.G.G.G.F.D.A.y % O u u x Q h u u + o y s y + & * + + & + + + + y + + u.A.G.G.G.G.G.G.G.G.G.G.G.G.G.G.G.G.",
"G.G.G.G.G.G.G.G.G.G.G.G.G.G.G.G.D.D.1 % O u u * [ s u u o O h i * + y * + & + & + + + + & + C.D.G.G.G.G.G.G.G.G.G.G.G.G.G.G.G.G.",
"G.G.G.G.G.G.G.G.G.G.G.G.G.G.G.G.D.D.5 & + * u * n i y y o & i i + % y & + + & + & + & y + + A.D.G.G.G.G.G.G.G.G.G.G.G.G.G.G.G.G.",
"G.G.G.G.G.G.G.G.G.G.G.G.G.G.G.G.D.G.e * + & i i i h i & O * u i + + y + + & + & + & + + + 2 G.F.G.G.G.G.G.G.G.G.G.G.G.G.G.G.G.G.",
"G.G.G.G.G.G.G.G.G.G.G.G.G.G.G.D.D.D.w.y + + u i y v u O % u i u O % - @ @ % @ % @ % % @ $ 7 D.D.F.F.G.G.G.G.G.G.G.G.G.G.G.G.G.G.",
"G.G.G.G.G.G.G.G.G.G.G.G.G.G.F.D.D.D.i.y % O u i y h y + + i u * + & * @ % @ % % % @ % % + 3.A.D.A.F.F.G.G.G.G.G.G.G.G.G.G.G.G.G.",
"G.G.G.G.G.G.G.G.G.G.G.G.G.D.D.D.D.D.A.y % O * i u * y * * i u + + & * @ % @ % @ % @ @ @ @ p.D.D.D.D.D.F.G.G.G.G.G.G.G.G.G.G.G.G.",
"G.G.G.G.G.G.G.G.G.G.G.G.D.D.D.D.D.D.D.2 & + O i u * u * u i y o + * % @ % % @ % @ % @ @ # C.D.D.D.D.D.D.F.G.G.G.G.G.G.G.G.G.G.G.",
"G.G.G.G.G.G.G.G.G.G.G.D.D.D.D.D.D.D.D.7.* & o y u u * % u i % + % y + % % % @ % % % @ @ > D.D.D.D.D.D.D.D.F.G.G.G.G.G.G.G.G.G.G.",
"G.G.G.G.G.G.G.G.G.F.D.D.D.D.D.D.D.D.D.i.y + + O u i % y u y o % % y + % @ % % @ % @ % @ 2.D.D.D.D.D.D.D.D.D.F.G.G.G.G.G.G.G.G.G.",
"G.G.G.G.G.G.G.G.G.D.D.D.D.D.D.D.D.D.D.A.p + & o % i u i u O + % & * % % % @ @ % % @ @ @ s.D.D.D.D.D.D.D.D.D.D.G.G.G.G.G.G.G.G.G.",
"G.G.G.G.G.G.G.G.D.D.D.D.D.D.D.D.D.D.D.A.5 * + + o + * * O o + % * @ % % % @ % % @ % @ > D.D.D.D.D.D.D.D.D.D.D.D.G.G.G.G.G.G.G.G.",
"G.G.G.G.G.F.D.D.D.D.D.D.D.D.D.D.D.D.D.A.u.p + & + o   o o + % + y + + % % @ % % @ @ @ 2.D.D.D.D.D.D.D.D.D.D.D.D.D.G.G.G.G.G.G.G.",
"G.G.G.G.F.F.D.D.D.D.D.D.D.D.D.D.D.D.D.D.A.< & % + + O O + % % * * % % % % % % @ @ @ @ C.D.D.D.D.D.D.D.D.D.D.D.D.D.D.G.G.G.G.G.G.",
"G.G.G.G.F.D.D.D.D.D.D.D.D.D.D.D.D.D.D.D.D.5.y + & + + & & & + u + + % % @ @ @ % @ @ 3 D.D.D.D.D.D.D.D.D.D.D.D.D.D.D.D.G.G.G.G.G.",
"G.G.G.G.D.D.D.D.D.D.D.D.D.D.D.D.D.D.D.D.D.C.y * + & & + & + y & + O O O O O O O     C.D.D.D.D.D.D.D.D.D.D.D.D.D.D.D.D.D.F.G.G.G.",
"G.G.F.D.D.D.D.D.D.D.D.D.D.D.D.D.D.D.D.D.D.D.7.u y + + + + * u o             o   . 1.A.D.D.D.D.D.D.D.D.D.D.D.D.D.D.D.D.D.D.G.G.G.",
"G.F.D.D.D.D.D.D.D.D.D.D.D.D.D.D.D.D.D.D.D.D.A.2 i y + y y u +   o   o o   o     X A.D.D.D.D.D.D.D.D.D.D.D.D.D.D.D.D.D.D.D.D.F.G.",
"F.D.D.D.D.D.D.D.D.D.D.D.D.D.D.D.D.D.D.D.D.D.D.A.< i h i i %   o     o       o X A.A.D.D.D.D.D.D.D.D.D.D.D.D.D.D.D.D.D.D.D.D.D.F.",
"D.D.D.D.D.D.D.D.D.D.D.D.D.D.D.D.D.D.D.D.D.D.F.A.C.q ; ; X . . X X o . . X X 1.C.D.D.D.D.D.D.D.D.D.D.D.D.D.D.D.D.D.D.D.D.D.D.D.D."
};
