/* XPM */
static char *result[] = {
/* columns rows colors chars-per-pixel */
"64 64 94 2 ",
"   c #0A0707",
".  c #0F0904",
"X  c #0D0909",
"o  c #130B06",
"O  c #180E0D",
"+  c #1D110F",
"@  c #2C1B0D",
"#  c #2B1B12",
"$  c #2D1C1E",
"%  c #311F1C",
"&  c #352117",
"*  c #3D2617",
"=  c #36201D",
"-  c #3A231A",
";  c #2B1D20",
":  c #301F20",
">  c #382423",
",  c #34242A",
"<  c #3A2628",
"1  c #3A2A2D",
"2  c #2D2432",
"3  c #312734",
"4  c #353232",
"5  c #383635",
"6  c #373836",
"7  c #393A37",
"8  c #393C38",
"9  c #412715",
"0  c #462915",
"q  c #492A16",
"w  c #42261B",
"e  c #45291A",
"r  c #4C2C1B",
"t  c #522E17",
"y  c #532E1B",
"u  c #4D311E",
"i  c #56301A",
"p  c #5A321B",
"a  c #62351C",
"s  c #64381F",
"d  c #442A20",
"f  c #4A2C20",
"g  c #443C2F",
"h  c #563220",
"j  c #5C3720",
"k  c #5D3921",
"l  c #573E2F",
"z  c #583E2F",
"x  c #463E31",
"c  c #493E31",
"v  c #523732",
"b  c #643B22",
"n  c #693E24",
"m  c #603E2C",
"M  c #434137",
"N  c #4B4133",
"B  c #45453A",
"V  c #6B4127",
"C  c #654129",
"Z  c #6E462D",
"A  c #734A2F",
"S  c #363043",
"D  c #3C3444",
"F  c #403745",
"G  c #443A48",
"H  c #485449",
"J  c #4E5A4D",
"K  c #515E4F",
"L  c #464056",
"P  c #524B5F",
"I  c #536151",
"U  c #554E62",
"Y  c #5B5468",
"T  c #625560",
"R  c #615A6B",
"E  c #657F66",
"W  c #7E6F77",
"Q  c #668066",
"!  c #6C8368",
"~  c #6C8A6E",
"^  c #759676",
"/  c #779876",
"(  c #789977",
")  c #7B9E7A",
"_  c #7DA07C",
"`  c #948085",
"'  c #89B58B",
"]  c #8CBB8F",
"[  c #8DBD90",
"{  c #90BF91",
"}  c #93C596",
"|  c #98C392",
" . c #9CCA97",
".. c #9FCC98",
/* pixels */
"} } } } } } } } } } } } } } } } } } } } } } } } } } } } } } } } } } } } } } } } } } } } } } } } } } } } } } } } } } } } } } } } ",
" .} } } } } } } } } } } } [ ' ' ] } } } } } } } } } } } } } } } } } } } } } } } } } } } } } } } } } } } } } } } } } } } } } } } ",
".. .} } } } } } } } } } } ~ 4 4 I [ } } } } } } } } } } } } } } } } } } } } } } } } } } } } } } } } } } } } } } } } } } } } } } ",
".... .} } } } } } } } } } E > C l K [ } } } } } } } } } } } } } } } } } } } } } } } } } } } } } } } } } } } } } } } } } }  .....",
"........} } } } } } } } } E = n Z l K ' ] } } } } } } } } } } } } } } [ } } } } } } } } } } } } } } } } } } } } } } } } ........",
"........ .} } } } } } } } E = a n Z l 5 K ] } } } } } } { } } } } } } } } } } } } } } } } } } } } } } } } } } } } } }  .........",
"............} } } } } } } E = b n n Z m z K [ } } } } } } } } } } } } } } } } } } } } } } } } } } } } } } } } } } }  ...........",
"............ .} } } } } } E = p y b n A Z z J [ } } } } } } } } } } } } } } } } } } } } } } } } } } } } } } } } } ..............",
"................} } } } } Q = a r e a a n Z z J [ } } } } } } } } } } } } } } } } } } } } } } } } } } } } } } } ................",
"................ .} } } } Q % a r $ w b n n Z z K [ } } } } } } } } } } } } } } } } } } } } } } } } } } } } } ..................",
".................. .} } } E = a t # O w y b n Z v K { } } } } } } } } } } } } } } } } } } } } } } } } } } } ....................",
".................... .} } E = a y @ X % y w a n Z l J { { { } } } } } } } } } } } } } } } } } } } } } } } ......................",
"........................} E = a y @ o 0 y $ w s n Z l 8 J [ { } } } } } } } } } } } } } } } } } } } } } ........................",
"..........................E = a t @ o q t # O d Z n Z m z J { } } } } } } } } } } } } } } } } } } } }  .........................",
"..........................! % s y @ o q p @ X % y a n A Z z J { } } } } } } } } } } } } } } } } } } ............................",
"..........................! % a t @ o q t @ X 9 r w b b n A v J [ } } } } } } } } } } } } } } } }  .............................",
"..........................! % a p @ o q p @ . q y $ w a n n h 7 }  . ..... . ... ... . . .....} ................................",
"..........................! % b n p r q p @ . 0 p # O w y a y 7 } ..........................} }  ...............................",
"..........................! % p y s p q p @ . q p @ . % i a y 7 } ...................... .} } } ................................",
"..........................! w a r e a p y @ . q p @ . 9 a a y 5 } ......................} } } }  ...............................",
"..........................! % a r % e b n i u q p @ . 0 a a y 7  ................... .} } } } }  ...............................",
"..........................! - a y # + w y a p 0 p @ . q a b y 7 } ................ .} } } } } } ................................",
"..........................! % a y @ o > q e p p p @ . 0 a a y 7 | ................} } } } } } }  ...............................",
"..........................! - a y @ o e y % r a p @ . 9 a a y 7 | ..............} } } } } } } } ................................",
"..........................! - a t @ . q i & * r n y r 9 a a y 7 | ........ . .} } } } } } } } } ................................",
"..........................! - a t @ o q i 0 q % i b k 0 a a y 5 | ........ . .} } } } } } } } } ................................",
"..........................W % a t @ o q t 0 i * r e p p a a y 7 | ...... .} } } } } } } } } } } ................................",
"..........................E - a t @ o q p 0 p 0 y % r a n b y 8 | .... .} } } } } } } } } } } } ................................",
"..........................! % n b y w q y q p 0 p # O e p a y 8 |  . .} } } } } } } } } } } }  .................................",
"..........................! % p p b a q i q i 0 p @   % y a y 8 |  .} } } } } } } } } } } } } } ................................",
"..........................! e a q r a y i y b 0 p @ o * a a y 6 | } } } } } } } } } } } } } } } ................................",
"..........................! w a f % r b a p C 0 p @ o 0 a a y 6 { } } } } } } } } } } } } } } } ................................",
"..........................W - a t % % y j s a q p @ . 0 a a y 7 [ } } } } } } } } } } } } } } } ................................",
"..........................E = a i 0 q % q r p y p @ . 0 a b y 7 { } } } } } } } } } } } } } } } ................................",
"..........................! : a i q t w y : t s p @ o 0 a a y 7 | .. .} } } } } } } } } } } } } ................................",
"..........................! - a i q p q y % % y s t % 9 a a y 7 | .. .} } } } } } } } } } } } } ................................",
"..........................! w a i q t t p 0 0 * p b b 0 a a y 5 | .. . .} } } } } } } } } } } } ................................",
"..........................! : a i q i 0 t q t % y q p t a a y 5 | ...... .} } } } } } } } } } } ................................",
"..........................E % a y y a 0 i q p q p % r s n a i 7 | ........ .} } } } } } } } } } ................................",
"..........................E w n a p b 0 i q i q y % % r j b y 7 | .......... .} } } } } } } } } } ..............................",
"..........................! % s k b p q p 0 i 0 p 9 0 $ d a f 7 | ............ .} } } } } } } } ................................",
"..........................! % a q y p t p r a 0 p q y % 3 e y 7 | .............. .} } } } } } } ................................",
"..........................! w a y % y b b p C q p w j d F : y 7 | ................ .} } } } } } ................................",
"..........................! % a y % - u k s k 0 p e v T P : y 7 | ....................} } } } } ................................",
"..........................! % a y 9 w & q y p y p - G ` D : f 7 | .................... .} } } } ................................",
"..........................! % a t q y w y = y a p % G W 2 : y 7 | ........................} }  .................................",
"..........................! % a y q i q y & & i b w D R 3 : y 7 | ........................ .} } ................................",
"..........................! - a p q i 0 i 9 w > m h D R 3 1 y 8 | .. ... ... ..... ... . . . .} ................................",
"..........................! 0 a i q i q p q t * q d D Y G 1 y 6 [ } } } } } } } } } } } } } } }  . .............................",
"..........................! * s p u p q i 0 p 0 i ; 3 L U , f 5 [ } } } } } } } } } } } } } } } } }  ...........................",
"........................ .^ c h p p b q p q i 0 i & : 3 S % y 6 [ } } } } } } } } } } } } } } } } } } ..........................",
"........................} } ( x e b k 0 t q i 0 i * 9 : < > r 6 [ } } } } } } } } } } } } } [ } } } } }  .......................",
".................... .} } } } ( N p p y p q p 0 p 0 p * a a y 6 [ } } } } } } } } } } } } } } } } } } } }  .....................",
".................. .} } } } } } ( N i b k p C q i 0 p 0 a a y 5 [ } } } } } } } } } } } } } } } } } } } } }  . .................",
"................ .} } } } } } } } ( N r e b b q p 0 p 0 a a y 5 [ } } } } } } } } } } } } } } } } } } } } } }  .................",
"................} } } } } } } } } } ( B N i p q p 0 t 0 a a y 5 [ } } } } } } } } } } } } } } } } } } } } } }  .................",
"........ . . .} } } } } } } } } } } } } / x i a p q p 0 p a i 6 ] } } } } } } } } } } } } } } } } } } } } } } } }  .............",
"........ . .} } } } } } } } } } } } } } } ) c p C i C q a a y 6 [ } } } } } } } } } } } } } } } } } } } } } } } } }  ...........",
"........ .} } } } } } } } } } } } } } } } } ) 7 * s b q a a y 6 [ } } } } } } } } } } } } } } } } } } } } } } } } }  . .........",
".... . . .} } } } } } } } } } } } } } } } } } ) N i p t s a i 7 ] } } } } } } } } } } } } } } } } } } } } } } } } } } }  .......",
".... .} } } } } } } } } } } } } } } } } } } } } _ g i s V a i 6 ] } } } } } } } } } } } } } } } } } } } } } } } } } } } }  .....",
".. .} } } } } } } } } } } } } } } } } } } } } } } _ N r q p u 6 ] } } } } } } } } } } } } } } } } } } } } } } } } } } } } } ....",
"..} } } } } } } } } } } } } } } } } } } } } } } } } _ M M i < S ] } } } } } } } } } } } } } } } } } } } } } } } } } } } } } }  .",
"} } } } } } } } } } } } } } } } } } } } } } } } } } } ] _ B 8 H ] } } } } } } } } } } } } } } } } } } } } } } } } } } } } } } } "
};
