/* XPM */
static char *result[] = {
/* columns rows colors chars-per-pixel */
"64 64 106 2 ",
"   c #010100",
".  c #0A0604",
"X  c #0D0804",
"o  c #0E0A0A",
"O  c #110A05",
"+  c #130C0B",
"@  c #180F0D",
"#  c #26180F",
"$  c #2A1A0D",
"%  c #301E0E",
"&  c #221616",
"*  c #21151F",
"=  c #2D1C1B",
"-  c #321E12",
";  c #351F1D",
":  c #352011",
">  c #3D2514",
",  c #35211B",
"<  c #3B231B",
"1  c #201723",
"2  c #241A26",
"3  c #271E2B",
"4  c #2C222E",
"5  c #2D2A2E",
"6  c #372323",
"7  c #3C2627",
"8  c #32242D",
"9  c #342D2D",
"0  c #2C2331",
"q  c #2F2C30",
"w  c #312F30",
"e  c #352C3A",
"r  c #3B2F3B",
"t  c #373432",
"y  c #383634",
"u  c #3C3834",
"i  c #422716",
"p  c #472A15",
"a  c #492B16",
"s  c #42261C",
"d  c #452A1B",
"f  c #4B2B1B",
"g  c #512E17",
"h  c #532E1B",
"j  c #4E311D",
"k  c #55301A",
"l  c #5B321B",
"z  c #5F381F",
"x  c #62351C",
"c  c #65391F",
"v  c #402922",
"b  c #4A2D20",
"n  c #442F2D",
"m  c #523521",
"M  c #5A3320",
"N  c #573824",
"B  c #5D3922",
"V  c #563C2D",
"C  c #5A3D2C",
"Z  c #42343E",
"A  c #653B21",
"S  c #693E24",
"D  c #633E2B",
"F  c #474336",
"G  c #484437",
"H  c #45473C",
"J  c #4C4638",
"K  c #46493D",
"L  c #484B3F",
"P  c #6B4026",
"I  c #64402A",
"U  c #6C4329",
"Y  c #71472D",
"T  c #71492E",
"R  c #352E42",
"E  c #473840",
"W  c #433B4C",
"Q  c #404741",
"!  c #454C43",
"~  c #4A4E41",
"^  c #475046",
"/  c #4C5244",
"(  c #4B5348",
")  c #4E594B",
"_  c #525E4F",
"`  c #494152",
"'  c #554E63",
"]  c #575165",
"[  c #615A6B",
"{  c #7A6C75",
"}  c #668168",
"|  c #6E856A",
" . c #6C8B6F",
".. c #759777",
"X. c #7A9D79",
"o. c #7EA37D",
"O. c #927E82",
"+. c #84AE87",
"@. c #86B087",
"#. c #87B38A",
"$. c #8AB58A",
"%. c #8BB98E",
"&. c #8EBD91",
"*. c #93C596",
"=. c #9CCA97",
"-. c #9FCC98",
/* pixels */
"*.*.*.*.*.*.*.*.*.*.*.*.*.*.*.*.*.*.*.*.*.*.*.*.*.*.*.*.*.*.*.*.*.*.*.*.*.*.*.*.*.*.*.*.*.*.*.*.*.*.*.*.*.*.*.*.*.*.*.*.*.*.*.*.",
"=.*.*.*.*.*.*.*.*.*.*.*.*.*.*.*.*.*.*.*.*.*.*.*.*.*.*.*.*.*.*.*.*.*.*.*.*.*.*.*.*.*.*.*.*.*.*.*.*.*.*.*.*.*.*.*.*.*.*.*.*.*.*.*.",
"-.=.*.*.*.*.*.*.*.*.*.*.*.*.*.*.*.*.*.*.*.*.*.*.*.*.*.*.*.*.*.*.*.*.*.*.*.*.*.*.*.*.*.*.*.*.*.*.*.*.*.*.*.*.*.*.*.*.*.*.*.*.=.=.",
"-.-.=.*.*.*.*.*.*.*.*.*.*.*.&.@.+.%.*.*.*.*.*.*.*.*.*.*.*.*.*.*.*.*.*.*.*.*.*.*.*.*.&.*.*.*.*.*.*.*.*.*.*.*.*.*.*.*.*.*.*.=.-.-.",
"-.-.-.=.*.*.*.*.*.*.*.*.*.*. .q t _ $.$.#.%.*.*.*.*.*.*.*.*.*.*.*.*.*.*.*.*.*.*.*.*.*.*.*.*.*.*.*.*.*.*.*.*.*.*.*.*.*.*.=.-.-.-.",
"-.-.-.-.=.=.*.*.*.*.*.*.*.*.} 6 D V t t t ) $.$.#.#.*.*.*.*.*.*.*.*.*.*.*.*.*.*.*.*.*.*.*.*.*.*.*.*.*.*.*.*.*.*.*.*.*.=.-.-.-.-.",
"-.-.-.-.-.=.*.*.*.*.*.*.*.*.} , c A D D D V y t t ( #.%.#.&.*.*.*.*.*.*.*.*.*.*.*.*.*.*.*.*.*.*.*.*.*.*.*.*.*.*.*.*.=.-.-.-.-.-.",
"-.-.-.-.-.-.=.*.*.*.*.*.*.*.} 6 x x S A x A D D D C y t t ^ +.#.#.%.*.*.*.*.*.*.*.*.*.*.*.*.*.*.*.*.*.*.*.*.*.*.*.=.-.-.-.-.-.-.",
"-.-.-.-.-.-.-.=.*.*.*.*.*.*.} , A P x l l x A c A A D D I C y y y ^ +.%.%.&.*.*.*.*.*.*.*.*.*.*.*.*.*.*.*.*.*.*.-.-.-.-.-.-.-.-.",
"-.-.-.-.-.-.-.-.=.*.*.*.*.*.} ; x l i ; ; < l x x U x A A A D I C C y y y ! +.%.%.%.*.*.*.*.*.*.*.*.*.*.*.*.*.=.-.-.-.-.-.-.-.-.",
"-.-.-.-.-.-.-.-.=.=.*.*.*.*.} ; x x f & . + ; < l k x x l x c c c S D D D C u y y ! +.%.*.*.*.*.*.*.*.*.*.*.=.-.-.-.-.-.-.-.-.-.",
"-.-.-.-.-.-.-.-.-.-.=.*.*.*.} ; x x g $     + < x l k , ; < l l x D A A x A D D D C t Q $.*.*.*.*.*.*.*.*.-.-.-.-.-.-.-.-.-.-.-.",
"-.-.-.-.-.-.-.-.-.-.-.=.*.*.} < x x l $     o p x x h & . + ; < l k x l x x S A A A C 9 +.*.*.*.*.*.*.*.-.-.-.-.-.-.-.-.-.-.-.-.",
"-.-.-.-.-.-.-.-.-.-.-.-.=.*.} ; x x g $     O p x x l -     o ; x l k < ; < k x S x M 9 +.*.*.*.*.*.*.=.-.-.-.-.-.-.-.-.-.-.-.-.",
"-.-.-.-.-.-.-.-.-.-.-.-.=.=.} 6 x x h $     O p x x l $     X i x x k = . + ; < x f k 9 +.*.*.*.*.*.-.-.-.-.-.-.-.-.-.-.-.-.-.-.",
"-.-.-.-.-.-.-.-.-.-.-.-.-.-.| ; x x k $     O p x x l %     X i l x l -     o = l l k 9 +.*.*.*.*.=.-.-.-.-.-.-.-.-.-.-.-.-.-.-.",
"-.-.-.-.-.-.-.-.-.-.-.-.-.-.| , x x k $     O p x x l %     X i x x l :     . > l x l 9 $.-.-.*.=.-.-.-.-.-.-.-.-.-.-.-.-.-.-.-.",
"-.-.-.-.-.-.-.-.-.-.-.-.-.-.| , x x k a B s O p x x k %     X i l x l :     . > x x l 9 $.-.*.*.-.-.-.-.-.-.-.-.-.-.-.-.-.-.-.-.",
"-.-.-.-.-.-.-.-.-.-.-.-.-.-.| , x x x l A A k p x x l %     o i x x l : .   . > l x l 9 $.=.*.*.-.-.-.-.-.-.-.-.-.-.-.-.-.-.-.-.",
"-.-.-.-.-.-.-.-.-.-.-.-.-.-.| < S S x x z x A l x x l i N d X i x x l :     . > x x l 9 @.&.*.*.-.-.-.-.-.-.-.-.-.-.-.-.-.-.-.-.",
"-.-.-.-.-.-.-.-.-.-.-.-.-.-.{ ; x l i < , d x x A U x l A A m p x x k %     . > l x l 8 +.*.*.*.=.-.-.-.-.-.-.-.-.-.-.-.-.-.-.-.",
"-.-.-.-.-.-.-.-.-.-.-.-.-.-.| 6 x l d & X @ < s l k x x x x x l x x l p m f + > l x l 9 +.*.*.*.-.-.-.-.-.-.-.-.-.-.-.-.-.-.-.-.",
"-.-.-.-.-.-.-.-.-.-.-.-.-.-.| 6 x x h #     + < l l k < < s x x c P x l A A h i l x l 9 @.*.*.*.=.-.-.-.-.-.-.-.-.-.-.-.-.-.-.-.",
"-.-.-.-.-.-.-.-.-.-.-.-.-.-.| ; x x k $     o s x x k ; < f < s l g x x x x A l x A l 9 @.*.*.*.-.-.-.-.-.-.-.-.-.-.-.-.-.-.-.-.",
"-.-.-.-.-.-.-.-.-.-.-.-.-.-.| ; x x l $     O p x x l > l l : , l l l < < s l x S x k 8 @.*.*.*.-.-.-.-.-.-.-.-.-.-.-.-.-.-.-.-.",
"-.-.-.-.-.-.-.-.-.-.-.-.-.-.| < x x k $     O p x x l p x l f p x x k = + + ; d A h k w @.*.*.*.-.-.-.-.-.-.-.-.-.-.-.-.-.-.-.-.",
"-.-.-.-.-.-.-.-.-.-.-.-.-.-.| < x x k $     O p x x l p x x l p x x l %     + ; l k l 9 +.*.*.*.-.-.-.-.-.-.-.-.-.-.-.-.-.-.-.-.",
"-.-.-.-.-.-.-.-.-.-.-.-.-.-.| ; x x k $     O p x x k p x l l p x x l %     . : l x l 9 +.*.*.*.-.-.-.-.-.-.-.-.-.-.-.-.-.-.-.-.",
"-.-.-.-.-.-.-.-.-.-.-.-.-.-.| ; x x k s j , O p x x k p x x l p x x l : .   . > l x k 8 +.*.*.*.-.-.-.-.-.-.-.-.-.-.-.-.-.-.-.-.",
"-.-.-.-.-.-.-.-.-.-.-.-.-.-.| ; x x l l P z d p x x l a P P l p x x l :     . > x x l w +.*.*.*.-.-.-.-.-.-.-.-.-.-.-.-.-.-.-.-.",
"-.-.-.-.-.-.-.-.-.-.-.-.-.-.| ; c S x x x x A l x x l j T T A p l x l :     . > l x l 9 +.*.*.*.-.-.-.-.-.-.-.-.-.-.-.-.-.-.-.-.",
"-.-.-.-.-.-.-.-.-.-.-.-.-.-.| s c x a s < f x x c S l l S P U p x x l % .   . > x x l w +.*.*.*.-.-.-.-.-.-.-.-.-.-.-.-.-.-.-.-.",
"-.-.-.-.-.-.-.-.-.-.-.-.-.-.| , x l d = < a s a x k x l x A A h x x l i d > X > x x h 9 +.*.*.*.-.-.-.-.-.-.-.-.-.-.-.-.-.-.-.-.",
"-.-.-.-.-.-.-.-.-.-.-.-.-.-.| < x x h i l h ; < x h l s s f x x c c l l P c d p x x l 8 +.*.*.*.-.-.-.-.-.-.-.-.-.-.-.-.-.-.-.-.",
"-.-.-.-.-.-.-.-.-.-.-.-.-.-.| , x x l p x l p s x x k ; ; f d d x l x x x x I k x l l 9 +.*.*.*.-.-.-.-.-.-.-.-.-.-.-.-.-.-.-.-.",
"-.-.-.-.-.-.-.-.-.-.-.-.-.-.{ ; x x h p x x l p x x k > h k : , l k l i s f l x S A l 9 +.*.*.*.-.-.-.-.-.-.-.-.-.-.-.-.-.-.-.-.",
"-.-.-.-.-.-.-.-.-.-.-.-.-.-.| 6 x x k a x x l p x x k p x l a i l x k ; < i d f A k h w +.*.*.*.=.-.-.-.-.-.-.-.-.-.-.-.-.-.-.-.",
"-.-.-.-.-.-.-.-.-.-.-.-.-.-.| < x x k a x x k p x x l p x c l p x x k > g l , , k v h w +.*.*.*.=.-.-.-.-.-.-.-.-.-.-.-.-.-.-.-.",
"-.-.-.-.-.-.-.-.-.-.-.-.-.-.| ; x x k g S S l p x x k p l x l p x x l p x l f < < 8 ; 9 +.*.*.*.-.-.-.-.-.-.-.-.-.-.-.-.-.-.-.-.",
"-.-.-.-.-.-.-.-.-.-.-.-.-.-.| ; x x g h Y Y A p x x l p x x l p x x l p x x l > 4 W 1 9 +.*.*.=.=.-.-.-.-.-.-.-.-.-.-.-.-.-.-.-.",
"-.-.-.-.-.-.-.-.-.-.-.-.-.-.| < x x l l U U I p x x l a P A k p x x l p l x l n [ ' 4 8 +.*.*.*.-.-.-.-.-.-.-.-.-.-.-.-.-.-.-.-.",
"-.-.-.-.-.-.-.-.-.-.-.-.-.-.| ; c S x x x c A k x x l f T T A p l x l p x x k E O.W 3 5 +.*.*.*.-.-.-.-.-.-.-.-.-.-.-.-.-.-.-.-.",
"-.-.-.-.-.-.-.-.-.-.-.-.-.-.| ; c c f i f h x x x S l h P U P p x x l p S S M Z { e * 5 +.*.*.*.-.-.-.-.-.-.-.-.-.-.-.-.-.-.-.-.",
"-.-.-.-.-.-.-.-.-.-.-.-.-.-.| ; x l p = ; d i h x B x x x c A k x x l f Y Y D R [ e 2 5 +.*.*.*.-.-.-.-.-.-.-.-.-.-.-.-.-.-.-.-.",
"-.-.-.-.-.-.-.-.-.-.-.-.-.-.| ; x x h > h h ; < l h l f f f x x x c l k P U I E [ e 0 q +.*.*.*.-.-.-.-.-.-.-.-.-.-.-.-.-.-.-.-.",
"-.-.-.-.-.-.-.-.-.-.-.-.-.-.| ; x x k a x l p < x x k ; , s f h z c l x x c D r ] ` 0 w $.*.*.*.-.-.-.-.-.-.-.-.-.-.-.-.-.-.-.-.",
"-.-.-.-.-.-.-.-.-.-.-.-.-.-.| ; x x k a x x l p x x k < h h , , l g l f f f M n W ' 4 5 $.-.*.*.-.-.-.-.-.-.-.-.-.-.-.-.-.-.-.-.",
"-.-.-.-.-.-.-.-.-.-.-.-.-.-.| ; x x k p x x k p x x l p x l i > l x l , : d f d 4 R 1 5 $.-.=.*.-.-.-.-.-.-.-.-.-.-.-.-.-.-.-.-.",
"-.-.-.-.-.-.-.-.-.-.-.-.-.-.| < x x k a x x k p x x l i x x l p x x l ; g k ; = 6 7 1 q +.*.*.*.*.-.-.-.-.-.-.-.-.-.-.-.-.-.-.-.",
"-.-.-.-.-.-.-.-.-.-.-.-.-.-.} , x x l f S c l p x x l p x x l p x x x p x x p > x l ; 8 +.*.*.*.*.*.=.-.-.-.-.-.-.-.-.-.-.-.-.-.",
"-.-.-.-.-.-.-.-.-.-.-.-.=.*.} < x x k j T Y z p x x l p x x l p l x l p l x l p l x k 9 +.*.*.*.*.*.*.-.-.-.-.-.-.-.-.-.-.-.-.-.",
"-.-.-.-.-.-.-.-.-.-.-.-.*.*.{ ; x x z k U Y I p x x l p A c l p x x k p x x l p x x l w +.*.*.*.*.*.*.*.=.-.-.-.-.-.-.-.-.-.-.-.",
"-.-.-.-.-.-.-.-.-.-.=.*.*.*.} = h k A x x A A g x c k a T T z p x x l p x x k p l x h 7 +.*.*.*.*.*.*.*.*.=.-.-.-.-.-.-.-.-.-.-.",
"-.-.-.-.-.-.-.-.-.=.*.*.*.*...^ / F < h f k x x x A l k U Y P p l x l p A S x p x x k 9 +.*.*.*.*.*.*.*.*.*.-.-.-.-.-.-.-.-.-.-.",
"-.-.-.-.-.-.-.-.=.*.*.*.*.*.*.*.*.X./ / ( J f h a i x x x x I g x c l a Y Y A a l x k 9 +.*.*.*.*.*.*.*.*.*.*.-.-.-.-.-.-.-.-.-.",
"-.-.-.-.-.-.-.-.*.*.*.*.*.*.*.*.*.*.*.*.*.o.! ! / J k j h k x x x c x g S Y U f l x M 9 +.*.*.*.*.*.*.*.*.*.*.*.=.-.-.-.-.-.-.-.",
"-.-.-.-.=.=.=.*.*.*.*.*.*.*.*.*.*.*.*.*.*.*.*.*.*.+.~ L ~ J h f f i l x x A S h A x k 9 @.*.*.*.*.*.*.*.*.*.*.*.*.=.-.-.-.-.-.-.",
"-.-.-.-.-.=.*.*.*.*.*.*.*.*.*.*.*.*.*.*.*.*.*.*.*.*.*.*.*.+.~ H L J h h h h x x S l k 9 +.*.*.*.*.*.*.*.*.*.*.*.*.*.=.-.-.-.-.-.",
"-.-.-.-.=.*.*.*.*.*.*.*.*.*.*.*.*.*.*.*.*.*.*.*.*.*.*.*.*.*.*.*.*.+./ K H G m h f s h 9 +.*.*.*.*.*.*.*.*.*.*.*.*.*.*.-.-.-.-.-.",
"-.-.-.=.*.*.*.*.*.*.*.*.*.*.*.*.*.*.*.*.*.*.*.*.*.*.*.*.*.*.*.*.*.*.*.*.*.+.( H H F b 9 +.*.*.*.*.*.*.*.*.*.*.*.*.*.*.*.=.-.-.-.",
"-.-.=.*.*.*.*.*.*.*.*.*.*.*.*.*.*.*.*.*.*.*.*.*.*.*.*.*.*.*.*.*.*.*.*.*.*.*.*.*.*.+.( ! #.*.*.*.*.*.*.&.*.*.*.*.*.*.*.*.*.-.-.-.",
"-.=.=.*.*.*.*.*.*.*.*.*.*.*.*.*.*.*.*.*.*.*.*.*.*.*.*.*.*.*.*.*.*.*.*.*.*.*.*.*.*.*.*.*.*.*.*.*.*.*.*.*.*.*.*.*.*.*.*.*.*.*.=.-.",
"=.*.*.*.*.*.*.*.*.*.*.*.*.*.*.*.*.*.*.*.*.*.*.*.*.*.*.*.*.*.*.*.*.*.*.*.*.*.*.*.*.*.*.*.*.*.*.*.*.*.*.*.*.*.*.*.*.*.*.*.*.*.*.=.",
"*.*.*.*.*.*.*.*.*.*.*.*.*.*.*.*.*.*.*.*.*.*.*.*.&.*.*.*.*.*.*.*.*.*.*.*.*.*.*.*.*.*.*.*.*.*.*.*.*.*.*.*.*.*.*.*.*.*.*.*.*.*.*.*."
};
