/* XPM */
static char *result[] = {
/* columns rows colors chars-per-pixel */
"64 64 111 2 ",
"   c #2C1A1D",
".  c #2F1C1D",
"X  c #311F1F",
"o  c #2E282A",
"O  c #342222",
"+  c #362326",
"@  c #382528",
"#  c #352D2A",
"$  c #392F2A",
"%  c #3C292C",
"&  c #373937",
"*  c #383A37",
"=  c #383A38",
"-  c #393B38",
";  c #3B3B38",
":  c #4A291C",
">  c #522D1C",
",  c #542F1F",
"<  c #57301C",
"1  c #55301F",
"2  c #62351C",
"3  c #563121",
"4  c #583324",
"5  c #593524",
"6  c #593526",
"7  c #5E392A",
"8  c #5F3B2D",
"9  c #423138",
"0  c #45343D",
"q  c #6A3F25",
"w  c #603C2D",
"e  c #603E2C",
"r  c #603C2E",
"t  c #744B30",
"y  c #3E3442",
"u  c #3D3445",
"i  c #433844",
"p  c #443C4B",
"a  c #443E53",
"s  c #3F4140",
"d  c #444543",
"f  c #404841",
"g  c #454649",
"h  c #43414D",
"j  c #44424F",
"k  c #4C414E",
"l  c #47484A",
"z  c #48494A",
"x  c #4A4A4C",
"c  c #564349",
"v  c #524653",
"b  c #584853",
"n  c #584A53",
"m  c #5E4C52",
"M  c #544B5C",
"N  c #5E4D58",
"B  c #525658",
"V  c #525D5A",
"C  c #535E5B",
"Z  c #61625F",
"A  c #524B60",
"S  c #554E63",
"D  c #5A5460",
"F  c #585267",
"G  c #5D5668",
"H  c #5F5668",
"J  c #615A6C",
"K  c #616F61",
"L  c #6F636F",
"P  c #786C6E",
"I  c #647363",
"U  c #677E6A",
"Y  c #766771",
"T  c #746773",
"R  c #8C797E",
"E  c #6D826C",
"W  c #6F8D73",
"Q  c #708D73",
"!  c #709072",
"~  c #719172",
"^  c #729172",
"/  c #729376",
"(  c #769074",
")  c #779174",
"_  c #769374",
"`  c #739477",
"'  c #739676",
"]  c #7DA07F",
"[  c #917D80",
"{  c #7CA180",
"}  c #81A884",
"|  c #81A984",
" . c #8EBD91",
".. c #8EBE91",
"X. c #90BE91",
"o. c #97C091",
"O. c #97C292",
"+. c #93C596",
"@. c #94C596",
"#. c #94C696",
"$. c #95C696",
"%. c #99C492",
"&. c #99C493",
"*. c #99C594",
"=. c #9AC594",
"-. c #9BC694",
";. c #9BC997",
":. c #9CCA97",
">. c #9DCB98",
",. c #9ECC98",
"<. c #9FCC98",
/* pixels */
"@.+.+.+.+.+.+.+.+.+.+.+. .= e t O ! +.+.+.+.+.+.+.+.+.+.+.+.+.+.+.+.+.+.+.+.+.+.+.+.+.+.+.+.+.+.+.+.+.+.+.+.+.+.+.+.+.+.+.+.+.@.",
":.$.+.+.+.+.+.+.+.+.+.+. .= e t O ! +.+.+.+.+.+.+.+.+.+.+.+.+.+.+.+.+.+.+.+.+.+.+.+.+.+.+.+.+.+.+.+.+.+.+.+.+.+.+.+.+.+.+.+.$.:.",
",.:.$.+.+.+.+.+.+.+.+.+. .= e t O ! +.+.+.+.+.+.+.+.+.+.+.+.+.+.+.+.+.+.+.+.+.+.+.+.+.+.+.+.+.+.+.+.+.+.+.+.+.+.+.+.+.+.+.$.:.,.",
"<.,.:.$.+.+.+.+.+.+.+.+. .= e t O ! +.+.+.+.+.+.+.+.+.+.+.+.+.+.+.+.+.+.+.+.+.+.+.+.+.+.+.+.+.+.+.+.+.+.+.+.+.+.+.+.+.+.$.:.,.<.",
"<.<.,.:.$.+.+.+.+.+.+.+. .= e t O ! +.+.+.+.+.+.+.+.+.+.+.+.+.+.+.+.+.+.+.+.+.+.+.+.+.+.+.+.+.+.+.+.+.+.+.+.+.+.+.+.+.$.:.,.<.<.",
"<.<.<.,.:.$.+.+.+.+.+.+. .= e t O ! +.+.+.+.+.+.+.+.+.+.+.+.+.+.+.+.+.+.+.+.+.+.+.+.+.+.+.+.+.+.+.+.+.+.+.+.+.+.+.+.$.:.,.<.<.<.",
"<.<.<.<.,.:.$.+.+.+.+.+. .= e t O ! +.+.+.+.+.+.+.+.+.+.+.+.+.+.+.+.+.+.+.+.+.+.+.+.+.+.+.+.+.+.+.+.+.+.+.+.+.+.+.$.:.,.<.<.<.<.",
"<.<.<.<.<.,.:.$.+.+.+.+. .= e t O ! +.+.+.+.+.+.+.+.+.+.+.+.+.+.+.+.+.+.+.+.+.+.+.+.+.+.+.+.+.+.+.+.+.+.+.+.+.+.$.:.,.<.<.<.<.<.",
"<.<.<.<.<.<.,.:.$.+.+.+. .= e t O ! +.+.+.+.+.+.+.+.+.+.+.+.+.+.+.+.+.+.+.+.+.+.+.+.+.+.+.+.+.+.+.+.+.+.+.+.+.$.:.,.<.<.<.<.<.<.",
"<.<.<.<.<.<.<.,.:.$.+.+. .= e t O ! +.+.+.+.+.+.+.+.+.+.+.+.+.+.+.+.+.+.+.+.+.+.+.+.+.+.+.+.+.+.+.+.+.+.+.+.$.:.,.<.<.<.<.<.<.<.",
"<.<.<.<.<.<.<.<.,.:.$.+. .= e t O ! +.+.+.+.+.+.+.+.+.+.+.+.+.+.+.+.+.+.+.+.+.+.+.+.+.+.+.+.+.+.+.+.+.+.+.$.:.,.<.<.<.<.<.<.<.<.",
"<.<.<.<.<.<.<.<.<.,.:.$. .= e t O ! +.+.+.+.+.+.+.+.+.+.+.+.+.+.+.+.+.+.+.+.+.+.+.+.+.+.+.+.+.+.+.+.+.+.$.:.,.<.<.<.<.<.<.<.<.<.",
"<.<.<.<.<.<.<.<.<.<.,.:.X.= e t O ! +.+.+.+.+.+.+.+.+.+.+.+.+.+.+.+.+.+.+.+.+.+.+.+.+.+.+.+.+.+.+.+.+.$.:.,.<.<.<.<.<.<.<.<.<.<.",
"<.<.<.<.<.<.<.<.<.<.<.,.O.- e t O ! +.+.+.+.+.+.+.+.+.+.+.+.+.+.+.+.+.+.+.+.+.+.+.+.+.+.+.+.+.+.+.+.$.:.,.<.<.<.<.<.<.<.<.<.<.<.",
"<.<.<.<.<.<.<.<.<.<.<.<.%.; 5 q X ! +.+.+.+.+.+.+.+.+.+.+.+.+.+.+.+.+.+.+.+.+.+.+.+.+.+.+.+.+.+.+.$.:.,.<.<.<.<.<.<.<.<.<.<.<.<.",
"<.<.<.<.<.<.<.<.<.<.<.<.%.; > 2 . ~ #.#.#.#.#.#.#.#.#.#.#.#.#.#.#.#.#.#.#.#.#.#.#.#.#.#.#.#.@.+.$.:.,.<.<.<.<.<.<.<.<.<.<.<.<.<.",
"<.<.<.<.<.<.<.<.<.<.<.<.%.; > 2 . _ >.>.>.>.>.>.>.>.>.>.>.>.>.>.>.>.>.>.>.>.>.>.>.>.>.>.>.>.;.$.:.,.<.<.<.<.<.<.<.<.<.<.<.<.<.<.",
"<.<.<.<.<.<.<.<.<.<.<.<.%.; > 2 . ^ :.,.<.<.<.<.<.<.<.<.<.<.<.<.<.<.<.<.<.<.<.<.<.<.<.<.,.:.$.#.>.<.<.<.<.<.<.<.<.<.<.<.<.<.<.<.",
"<.<.<.<.<.<.<.<.<.<.<.<.%.; > 2 . ! $.:.,.<.<.<.<.<.<.<.<.<.<.<.<.<.<.<.<.<.<.<.<.<.<.,.:.$.+.#.>.<.<.<.<.<.<.<.<.<.<.<.<.<.<.<.",
"<.<.<.<.<.<.<.<.<.<.<.<.%.; > 2 . ! +.$.:.,.<.<.<.<.<.<.<.<.<.<.<.<.<.<.<.<.<.<.<.<.,.:.$.+.+.#.>.<.<.<.<.<.<.<.<.<.<.<.<.<.<.<.",
"<.<.<.<.<.<.<.<.<.<.<.<.%.; > 2 . ! +.+.$.:.,.<.<.<.<.<.<.<.<.<.<.<.<.<.<.<.<.<.<.,.:.$.+.+.+.#.>.<.<.<.<.<.<.<.<.<.<.<.<.<.<.<.",
"<.<.<.<.<.<.<.<.<.<.<.<.%.; > 2 . ! +.+.+.$.:.,.<.<.<.<.<.<.<.<.<.<.<.<.<.<.<.<.,.:.$.+.+.+.+.#.>.<.<.<.<.<.<.<.<.<.<.<.<.<.<.<.",
"<.<.<.<.<.<.<.<.<.<.<.<.%.; > 2 . ! +.+.+.+.$.:.,.<.<.<.<.<.<.<.<.<.<.<.<.<.<.,.:.$.+.+.+.+.+.#.>.<.<.<.<.<.<.<.<.<.<.<.<.<.<.<.",
"<.<.<.<.<.<.<.<.<.<.<.<.%.; > 2 . ! +.+.+.+.+.$.:.,.<.<.<.<.<.<.<.<.<.<.<.<.,.:.$.+.+.+.+.+.+.#.>.<.<.<.<.<.<.<.<.<.<.<.<.<.<.<.",
"<.<.<.<.<.<.<.<.<.<.<.<.%.; > 2 . ! +.+.+.+.+.+.$.:.,.<.<.<.<.<.<.<.<.<.<.,.:.$.+.+.+.+.+.+.+.#.>.<.<.<.<.<.<.<.<.<.<.<.<.<.<.<.",
"<.<.<.<.<.<.<.<.<.<.<.<.%.; > 2 . ! +.+.+.+.+.+.+.$.:.,.<.<.<.<.<.<.<.<.,.:.$.+.+.+.+.+.+.+.+.#.>.<.<.<.<.<.<.<.<.<.<.<.<.<.<.<.",
"<.<.<.<.<.<.<.<.<.<.<.<.%.; > 2 . ! +.+.+.+.+.+.+.+.$.:.,.<.<.<.<.<.<.,.:.$.+.+.+.+.+.+.+.+.+.#.>.<.<.<.<.<.<.<.<.<.<.<.<.<.<.<.",
"<.<.<.<.<.<.<.<.<.<.<.<.%.; > 2 . ! +.+.+.+.+.+.+.+.+.$.:.,.<.<.<.<.,.:.$.+.+.+.+.+.+.+.+.+.+.#.>.<.<.<.<.<.<.<.<.<.<.<.<.<.<.<.",
"<.<.<.<.<.<.<.<.<.<.<.<.%.; > 2 . ! +.+.+.+.+.+.+.+.+.+.$.:.,.<.<.,.:.$.+.+.+.+.+.+.+.+.+.+.+.#.>.<.<.<.<.<.<.<.<.<.<.<.<.<.<.<.",
"<.<.<.<.<.<.<.<.<.<.<.<.%.; > 2 . ! +.+.+.+.+.+.+.+.+.+.+.$.:.,.,.:.$.+.+.+.+.+.+.+.+.+.+.+.+.#.>.<.<.<.<.<.<.<.<.<.<.<.<.<.<.<.",
"<.<.<.<.<.<.<.<.<.<.<.<.%.; > 2 . ! +.+.+.+.+.+.+.+.+.+.+.+.$.:.:.$.+.+.+.+.+.+.+.+.+.+.+.+.+.#.>.<.<.<.<.<.<.<.<.<.<.<.<.<.<.<.",
"<.<.<.<.<.<.<.<.<.<.<.<.%.; > 2 . ! +.+.+.+.+.+.+.+.+.+.+.+.+.@.@.+.+.+.+.+.+.+.+.+.+.+.+.+.+.#.>.<.<.<.<.<.<.<.<.<.<.<.<.<.<.<.",
"<.<.<.<.<.<.<.<.<.<.<.<.%.; > 2 . ! +.+.+.+.+.+.+.+.+.+.+.+.+.@.@.+.+.+.+.+.+.+.+.+.+.+.+.+.+.#.>.<.<.<.<.<.<.<.<.<.<.<.<.<.<.<.",
"<.<.<.<.<.<.<.<.<.<.<.<.%.; > 2 . ! +.+.+.+.+.+.+.+.+.+.+.+.$.:.:.$.+.+.+.+.+.+.+.+.+.+.+.+.+.#.>.<.<.<.<.<.<.<.<.<.<.<.<.<.<.<.",
"<.<.<.<.<.<.<.<.<.<.<.<.%.; > 2 . ! +.+.+.+.+.+.+.+.+.+.+.$.:.,.,.:.$.+.+.+.+.+.+.+.+.+.+.+.+.#.>.<.<.<.<.<.<.<.<.<.<.<.<.<.<.<.",
"<.<.<.<.<.<.<.<.<.<.<.<.%.; > 2 . ! +.+.+.+.+.+.+.+.+.+.$.:.,.<.<.,.:.$.+.+.+.+.+.+.+.+.+.+.+.#.>.<.<.<.<.<.<.<.<.<.<.<.<.<.<.<.",
"<.<.<.<.<.<.<.<.<.<.<.<.%.; > 2 . ! +.+.+.+.+.+.+.+.+.$.:.,.<.<.<.<.,.:.$.+.+.+.+.+.+.+.+.+.+.#.>.<.<.<.<.<.<.<.<.<.<.<.<.<.<.<.",
"<.<.<.<.<.<.<.<.<.<.<.<.%.; > 2 . ! +.+.+.+.+.+.+.+.$.:.,.<.<.<.<.<.<.,.:.$.+.+.+.+.+.+.+.+.+.#.>.<.<.<.<.<.<.<.<.<.<.<.<.<.<.<.",
"<.<.<.<.<.<.<.<.<.<.<.<.%.; > 2 . ! +.+.+.+.+.+.+.$.:.,.<.<.<.<.<.<.<.<.,.:.$.+.+.+.+.+.+.+.+.#.>.<.<.<.<.<.<.<.<.<.<.<.<.<.<.<.",
"<.<.<.<.<.<.<.<.<.<.<.<.%.; > 2 . ! +.+.+.+.+.+.$.:.,.<.<.<.<.<.<.<.<.<.<.,.:.$.+.+.+.+.+.+.+.#.>.<.<.<.<.<.<.<.<.<.<.<.<.<.<.<.",
"<.<.<.<.<.<.<.<.<.<.<.<.%.; > 2 . ! +.+.+.+.+.$.:.,.<.<.<.<.<.<.<.<.<.<.<.<.,.:.$.+.+.+.+.+.+.#.>.<.<.<.<.<.<.<.<.<.<.<.<.<.<.<.",
"<.<.<.<.<.<.<.<.<.<.<.<.%.; > 2 . ! +.+.+.+.$.:.,.<.<.<.<.<.<.<.<.<.<.<.<.<.<.,.:.$.+.+.+.+.+.#.>.<.<.<.<.<.<.<.<.<.<.<.<.<.<.<.",
"<.<.<.<.<.<.<.<.<.<.<.<.&.d 1 2 @ ` +.+.+.$.:.,.<.<.<.<.<.<.<.<.<.<.<.<.<.<.<.<.,.:.$.+.+.+.+.#.>.<.<.<.<.<.<.<.<.<.<.<.<.<.<.<.",
"<.<.<.<.<.<.<.<.<.<.<.=.K D w 2 m B { +.$.:.,.<.<.<.<.<.<.<.<.<.<.<.<.<.<.<.<.<.<.,.:.$.+.+.+.#.>.<.<.<.<.<.<.<.<.<.<.<.<.<.<.<.",
"<.<.<.<.<.<.<.<.<.<.&.I P H 8 2 b Y Z ] :.,.<.<.<.<.<.<.<.<.<.<.<.<.<.<.<.<.<.<.<.<.,.:.$.+.+.#.>.<.<.<.<.<.<.<.<.<.<.<.<.<.<.<.",
"<.<.<.<.<.<.<.<.<.<.o.x [ v 4 2 9 R n ( ,.<.<.<.<.<.<.<.<.<.<.<.<.<.<.<.<.<.<.<.<.<.<.,.:.$.+.#.>.<.<.<.<.<.<.<.<.<.<.<.<.<.<.<.",
"<.<.<.<.<.<.<.<.<.<.o.z T i 3 2 % L k ) <.<.<.<.<.<.<.<.<.<.<.<.<.<.<.<.<.<.<.<.<.<.<.<.,.:.$.#.>.<.<.<.<.<.<.<.<.<.<.<.<.<.<.<.",
"<.<.<.<.<.<.<.<.<.<.o.l J y 3 2 % G p ( >.>.>.>.>.>.>.>.>.>.>.>.>.>.>.>.>.>.>.>.>.>.>.>.>.>.;.$.:.,.<.<.<.<.<.<.<.<.<.<.<.<.<.<.",
"<.<.<.<.<.<.<.<.<.<.o.l J y 3 2 % G p Q #.#.#.#.#.#.#.#.#.#.#.#.#.#.#.#.#.#.#.#.#.#.#.#.#.#.@.+.$.:.,.<.<.<.<.<.<.<.<.<.<.<.<.<.",
"<.<.<.<.<.<.<.<.<.<.o.g A M 7 2 c F u W +.+.+.+.+.+.+.+.+.+.+.+.+.+.+.+.+.+.+.+.+.+.+.+.+.+.+.+.+.$.:.,.<.<.<.<.<.<.<.<.<.<.<.<.",
"<.<.<.<.<.<.<.<.<.<.-.E j S r 2 N a C } +.+.+.+.+.+.+.+.+.+.+.+.+.+.+.+.+.+.+.+.+.+.+.+.+.+.+.+.+.+.$.:.,.<.<.<.<.<.<.<.<.<.<.<.",
"<.<.<.<.<.<.<.<.<.<.,.*.U h 6 2 0 V | +.+.+.+.+.+.+.+.+.+.+.+.+.+.+.+.+.+.+.+.+.+.+.+.+.+.+.+.+.+.+.+.$.:.,.<.<.<.<.<.<.<.<.<.<.",
"<.<.<.<.<.<.<.<.<.,.:.$. .s , 2 + / +.+.+.+.+.+.+.+.+.+.+.+.+.+.+.+.+.+.+.+.+.+.+.+.+.+.+.+.+.+.+.+.+.+.$.:.,.<.<.<.<.<.<.<.<.<.",
"<.<.<.<.<.<.<.<.,.:.$.+. .* > 2 . ! +.+.+.+.+.+.+.+.+.+.+.+.+.+.+.+.+.+.+.+.+.+.+.+.+.+.+.+.+.+.+.+.+.+.+.$.:.,.<.<.<.<.<.<.<.<.",
"<.<.<.<.<.<.<.,.:.$.+.+. .* > 2 . ! +.+.+.+.+.+.+.+.+.+.+.+.+.+.+.+.+.+.+.+.+.+.+.+.+.+.+.+.+.+.+.+.+.+.+.+.$.:.,.<.<.<.<.<.<.<.",
"<.<.<.<.<.<.,.:.$.+.+.+. .* > 2 . ! +.+.+.+.+.+.+.+.+.+.+.+.+.+.+.+.+.+.+.+.+.+.+.+.+.+.+.+.+.+.+.+.+.+.+.+.+.$.:.,.<.<.<.<.<.<.",
"<.<.<.<.<.,.:.$.+.+.+.+. .* > 2 . ! +.+.+.+.+.+.+.+.+.+.+.+.+.+.+.+.+.+.+.+.+.+.+.+.+.+.+.+.+.+.+.+.+.+.+.+.+.+.$.:.,.<.<.<.<.<.",
"<.<.<.<.,.:.$.+.+.+.+.+. .* > 2 . ! +.+.+.+.+.+.+.+.+.+.+.+.+.+.+.+.+.+.+.+.+.+.+.+.+.+.+.+.+.+.+.+.+.+.+.+.+.+.+.$.:.,.<.<.<.<.",
"<.<.<.,.:.$.+.+.+.+.+.+. .* > 2 . ! +.+.+.+.+.+.+.+.+.+.+.+.+.+.+.+.+.+.+.+.+.+.+.+.+.+.+.+.+.+.+.+.+.+.+.+.+.+.+.+.$.:.,.<.<.<.",
"<.<.,.:.$.+.+.+.+.+.+.+. .* > 2 . ! +.+.+.+.+.+.+.+.+.+.+.+.+.+.+.+.+.+.+.+.+.+.+.+.+.+.+.+.+.+.+.+.+.+.+.+.+.+.+.+.+.$.:.,.<.<.",
"<.,.:.$.+.+.+.+.+.+.+.+. .* > 2 . ! +.+.+.+.+.+.+.+.+.+.+.+.+.+.+.+.+.+.+.+.+.+.+.+.+.+.+.+.+.+.+.+.+.+.+.+.+.+.+.+.+.+.$.:.,.<.",
",.:.$.+.+.+.+.+.+.+.+.+. .* > 2 . ! +.+.+.+.+.+.+.+.+.+.+.+.+.+.+.+.+.+.+.+.+.+.+.+.+.+.+.+.+.+.+.+.+.+.+.+.+.+.+.+.+.+.+.$.:.,.",
":.$.+.+.+.+.+.+.+.+.+.+. .& : <   ! +.+.+.+.+.+.+.+.+.+.+.+.+.+.+.+.+.+.+.+.+.+.+.+.+.+.+.+.+.+.+.+.+.+.+.+.+.+.+.+.+.+.+.+.$.:.",
"@.+.+.+.+.+.+.+.+.+.+.+...f # $ o ' +.+.+.+.+.+.+.+.+.+.+.+.+.+.+.+.+.+.+.+.+.+.+.+.+.+.+.+.+.+.+.+.+.+.+.+.+.+.+.+.+.+.+.+.+.@."
};
