/* XPM */
static char *result[] = {
/* columns rows colors chars-per-pixel */
"64 64 193 2 ",
"   c #02060B",
".  c #020D0E",
"X  c #030C12",
"o  c #090B14",
"O  c #050A1C",
"+  c #160D14",
"@  c #1B0D14",
"#  c #031314",
"$  c #031817",
"%  c #03151A",
"&  c #091518",
"*  c #041B1C",
"=  c #0A1B1D",
"-  c #161717",
";  c #1C121B",
":  c #27130F",
">  c #371C0C",
",  c #220C13",
"<  c #2A0C16",
"1  c #370F1C",
"2  c #291116",
"3  c #241A12",
"4  c #281912",
"5  c #24131C",
"6  c #2C141B",
"7  c #2D1B1D",
"8  c #351516",
"9  c #34141D",
"0  c #3A171F",
"q  c #351B1F",
"w  c #3A1A1F",
"e  c #2F201F",
"r  c #38311D",
"t  c #050C24",
"y  c #090E25",
"u  c #090F28",
"i  c #0B1722",
"p  c #0A1E22",
"a  c #0A122B",
"s  c #11192D",
"d  c #141E39",
"f  c #221721",
"g  c #2C1622",
"h  c #2D1A23",
"j  c #351721",
"k  c #341A24",
"l  c #3D1922",
"z  c #351C2A",
"x  c #381E2D",
"c  c #062022",
"v  c #0C2125",
"b  c #0C2429",
"n  c #0F282F",
"m  c #15222C",
"M  c #1A2A2C",
"N  c #1E3026",
"B  c #152B34",
"V  c #192936",
"C  c #15243C",
"Z  c #19253E",
"A  c #172E39",
"S  c #192E3A",
"D  c #1A323D",
"F  c #282827",
"G  c #312523",
"H  c #3F2122",
"J  c #322825",
"K  c #34242B",
"L  c #3A212E",
"P  c #332E2C",
"I  c #2A372E",
"U  c #36372E",
"Y  c #3E2231",
"T  c #322835",
"R  c #213230",
"E  c #3A3B32",
"W  c #3A3B34",
"Q  c #460A18",
"!  c #711918",
"~  c #472C13",
"^  c #542D10",
"/  c #46371B",
"(  c #48391D",
")  c #6F3B14",
"_  c #713D14",
"`  c #401320",
"'  c #401A22",
"]  c #561B21",
"[  c #422122",
"{  c #4E2325",
"}  c #552A29",
"|  c #582B2D",
" . c #4F302F",
".. c #412433",
"X. c #472838",
"o. c #4E3D36",
"O. c #543332",
"+. c #622E36",
"@. c #673332",
"#. c #753A38",
"$. c #2C4037",
"%. c #2F4339",
"&. c #394639",
"*. c #414539",
"=. c #424B3C",
"-. c #1D2B45",
";. c #1F2E48",
":. c #1D3642",
">. c #1E3843",
",. c #22314C",
"<. c #43394E",
"1. c #3C5644",
"2. c #444E40",
"3. c #5E474B",
"4. c #465946",
"5. c #495946",
"6. c #45604A",
"7. c #4B644E",
"8. c #54634F",
"9. c #4A6651",
"0. c #4D6B52",
"q. c #536B53",
"w. c #566B54",
"e. c #557055",
"r. c #577458",
"t. c #5B745B",
"y. c #5F7B60",
"u. c #66657D",
"i. c #942717",
"p. c #8B521C",
"a. c #B44E09",
"s. c #AB6C1D",
"d. c #91512F",
"f. c #8C4739",
"g. c #B47236",
"h. c #D25305",
"j. c #8A505D",
"k. c #955852",
"l. c #A56557",
"z. c #AF7451",
"x. c #89706E",
"c. c #9D7663",
"v. c #A17864",
"b. c #B87A6D",
"n. c #648365",
"m. c #668969",
"M. c #6B8D6C",
"N. c #7D8467",
"B. c #6C906E",
"V. c #6D9371",
"C. c #729572",
"Z. c #769A74",
"A. c #779D77",
"S. c #77A07A",
"D. c #7AA27C",
"F. c #F49008",
"G. c #D9BD26",
"H. c #B88266",
"J. c #B79378",
"K. c #CF8E77",
"L. c #967F9E",
"P. c #7DA780",
"I. c #7FAA81",
"U. c #A18988",
"Y. c #82AD84",
"T. c #84B187",
"R. c #87B58A",
"E. c #8AB68A",
"W. c #8BBB8E",
"Q. c #93BD8D",
"!. c #8EBE90",
"~. c #C18D81",
"^. c #D99780",
"/. c #E49A83",
"(. c #EC9C85",
"). c #D5A487",
"_. c #D2A89A",
"`. c #E7A58B",
"'. c #EEB097",
"]. c #F2B79C",
"[. c #FBBC9C",
"{. c #C3A9AE",
"}. c #D9AFA1",
"|. c #93C596",
" X c #98C492",
".X c #9CCA97",
"XX c #9FCC98",
"oX c #FDC19F",
"OX c #FDC3A1",
"+X c #F8C7A7",
"@X c #E9C5B6",
"#X c #F7CAB4",
"$X c #C0ACC4",
/* pixels */
"|.|.|.|.|.|.|.|.|.|.|.|.|.|.|.|.|.|.|.|.|.|.|.|.|.|.|.|.|.|.|.|.|.|.|.|.|.|.|.|.|.|.|.|.|.|.|.|.|.|.|.|.|.|.|.|.|..X|.|.|.|.|.|.",
".X|.|.|.|.|.|.|.|.|.|.|.|.|.|.|.|.|.|.|.|.|.|.|.|.|.|.|.|.|.|.|.|.|.|.|.|.|.|.|.|.|.|.|.|.|.|.|.|.|.|.|.|.|.|.|.|.|.|.|.|.|.|.XX",
"XX.X|.|.|.|.|.|.|.|.|.|.|.|.|.|.|.|.|.|.|.|.|.|.|.|.|.|.|.|.|.|.|.|.|.|.|.|.|.|.|.|.|.|.|.|.|.|.|.|.|.|.|.|.|.|.|.|.|.|.|.|.XXXX",
"XXXXXX|.|.|.|.|.|.|.|.|.|.|.|.|.|.|.|.|.|.|.|.|.|.|.|.|.|.|.|.|.|.|.|.|.|.|.|.|.|.|.|.|.|.|.|.|.|.|.|.|.|.|.|.|.|.|.|.|.|.XXXXXX",
"XXXXXX.X|.|.|.|.|.|.|.|.|.|.|.|.|.|.|.|.|.|.|.|.|.|.|.|.|.|.|.|.|.|.|.|.|.|.|.|.|.|.|.|.|.|.|.|.|.|.|.|.|.|.|.|.|.|.|.|.XXXXXXXX",
"XXXXXXXXXX|.|.|.|.|.|.|.|.|.|.|.|.|.|.|.|.|.|.|.|.|.|.|.|.|.|.|.|.|.|.|.|.|.|.|.|.|.|.|.|.|.|.|.|.|.|.|.|.|.|.|.|.|.|..XXXXXXXXX",
"XXXXXXXXXX.X|.|.|.|.|.|.|.|.|.|.|.|.|.|.|.|.|.|.|.|.|.|.|.|.|.|.|.|.|.|.|.|.|.|.|.|.|.|.|.|.|.|.|.|.|.|.|.|.|.|.|.|..XXXXXXXXXXX",
"XXXXXXXXXXXX.X|.|.|.|.|.|.|.|.|.|.|.|.|.|.|.|.|.|.|.|.|.I.V.P.W.|.|.|.|.|.|.|.|.|.|.|.|.|.|.|.|.|.|.|.|.|.|.|.|.|.XXXXXXXXXXXXXX",
"XXXXXXXXXXXXXXXX|.|.|.|.|.|.|.|.|.|.|.|.|.|.|.|.|.D.A.A.w.G E w.V.T.|.|.|.|.|.|.|.|.|.|.|.|.|.|.|.|.|.|.|.|.|.|.XXXXXXXXXXXXXXXX",
"XXXXXXXXXXXXXXXXXX.X|.|.|.|.|.|.|.|.|.|.|.I.0.e.q.E P J 7 ' l q I &.0.M.|.|.|.|.|.|.|.|.|.|.|.|.|.|.|.|.|.|.|..XXXXXXXXXXXXXXXXX",
"XXXXXXXXXXXXXXXXXX.X|.|.|.|.|.|.|.|.|.|.|.S.F e q H l w 2 w ' ' l l k J U &.M.W.|.!.|.|.|.|.|.|.|.|.|.|.|.|..XXXXXXXXXXXXXXXXXXX",
"XXXXXXXXXXXXXXXXXXXXXX|.|.|.|.|.|.|.|.|.|.W.y.E 6 6 ' ' l w ` l ' ' ' w 0 j h 2.Y.|.|.|.|.|.|.|.|.|.|.|.|.XXXXXXXXXXXXXXXXXXXXXX",
"XXXXXXXXXXXXXXXXXXXXXX|.|.|.|.|.|.|.|.|.Y.B.=.*.6 6 ' w ` ' l ' l ' l ' ' ' ' l *.Y.|.|.|.|.|.|.|.|.|.|.XXXXXXXXXXXXXXXXXXXXXXXX",
"XXXXXXXXXXXXXXXXXXXXXXXXXX|.|.|.|.|.|.D.=.G l w ' ' ' ' l ' ' ' ' l ' l l ' l l j *.P.|.|.|.|.|.|.|.|.XXXXXXXXXXXXXXXXXXXXXXXXXX",
"XXXXXXXXXXXXXXXXXXXXXXXXXX.X|.|.|.|.I.2.H ' ' ' ' ' ' ' l ' ' ' w ' l k j l l k l l =.Y.|.|.|.|.|.|.XXXXXXXXXXXXXXXXXXXXXXXXXXXX",
"XXXXXXXXXXXXXXXXXXXXXXXXXXXX.X|.Z.q.2.l ' ' ' ' ` w j w ' ' l ' ' ' j x x k l k x z 7 t.W.|.|.|.|.XXXXXXXXXXXXXXXXXXXXXXXXXXXXXX",
"XXXXXXXXXXXXXXXXXXXXXXXXXXXX.XQ.o.7 j l k l l l k z z l ` ` ' l l j k z Y Y z j k Y h I J..X.X|.XXXXXXXXXXXXXXXXXXXXXXXXXXXXXXXX",
"XXXXXXXXXXXXXXXXXXXXXXXXXXXX.X.XM.W k 5 g l ' k x x j ` ' k k j z x x x Y ....z x ..Y h e. X|.|.XXXXXXXXXXXXXXXXXXXXXXXXXXXXXXXX",
"XXXXXXXXXXXXXXXXXXXXXXXXXXXXXX.X!.t., 6 0 l k x f g l l k z x ..X.z 1 g g ....x L ....Y N I.|.|.XXXXXXXXXXXXXXXXXXXXXXXXXXXXXXXX",
"XXXXXXXXXXXXXXXXXXXXXXXXXXXXXX.XV.U j k l l x k 5 k l k x ....z 5 O.b.b.+.g Y ..x x z T F 0.|.|.XXXXXXXXXXXXXXXXXXXXXXXXXXXXXXXX",
"XXXXXXXXXXXXXXXXXXXXXXXXXX.X.X X5.k x x j j L 5 f l k Y L z 5 q k.).[.).O.5 Y ..L h 5 x K 4.W.|..XXXXXXXXXXXXXXXXXXXXXXXXXXXXXXX",
"XXXXXXXXXXXXXXXXXXXXXXXXXX.X.XZ.F x Y g j x k f z k Y Y k @ 5  .'.+X+Xc.5 g j Y Y Y g f ..P B.|..XXXXXXXXXXXXXXXXXXXXXXXXXXXXXXX",
"XXXXXXXXXXXXXXXXXXXXXXXXXXXX X7.K ..x , g Y 5 g x z Y H #.@.| b.OXOX+X^.@.} 6 Y ....k f ..P M.|..XXXXXXXXXXXXXXXXXXXXXXXXXXXXXXX",
"XXXXXXXXXXXXXXXXXXXXXXXXXX.XQ.=.L g g < k ..f g ....h | } { @.).OXOXOXK.#.] Q g Y ..k 5 Y P B.|..XXXXXXXXXXXXXXXXXXXXXXXXXXXXXXX",
"XXXXXXXXXXXXXXXXXXXXXXXXXX.X X8.h z 7 5 L ..5 g X.x T ] i.i.} x.OXOX].3.! i.! 6 ......5 h 4.W.|.XXXXXXXXXXXXXXXXXXXXXXXXXXXXXXXX",
"XXXXXXXXXXXXXXXXXXXXXXXXXX.X.XQ.=.K g 5 Y ..f g X.5 u.j.h.F.d.$XOXOX#XL.a.F.f.<.z ....5 7 0.|.|.XXXXXXXXXXXXXXXXXXXXXXXXXXXXXXXX",
"XXXXXXXXXXXXXXXXXXXXXXXXXXXX.XXXe.K h h ..Y x 5 Y g U.{.s.G.H.@XOXoX+X{.g.G.v.u.6 X...; &.T.|.|.XXXXXXXXXXXXXXXXXXXXXXXXXXXXXXXX",
"XXXXXXXXXXXXXXXXXXXXXXXXXXXXXXXXq.K L 5 Y ..g + ; { `.@Xb.H.@XOXOXOXOX+X}.z._.~.j Y ..F D.|.|.|.XXXXXXXXXXXXXXXXXXXXXXXXXXXXXXXX",
"XXXXXXXXXXXXXXXXXXXXXXXXXXXXXXXXq.K P F Y Y ; + q b.[.OX].].OXOXoXOXoXOXoX'.+X/.[ Y z w.|.|.|..XXXXXXXXXXXXXXXXXXXXXXXXXXXXXXXXX",
"XXXXXXXXXXXXXXXXXXXXXXXXXXXXXXXXD.2.V.t.K z + f #.'.oXoXoXOXOXOXOXOXOXoXOX[.OX/.' T K y.I.|.|.|.XXXXXXXXXXXXXXXXXXXXXXXXXXXXXXXX",
"XXXXXXXXXXXXXXXXXXXXXXXXXXXXXXXX|.W.|.S.E h + f , k.`.[.OXOXOXoXOXOXoXoX[.+XOXK.o.h 1.I.|.|.|.|.XXXXXXXXXXXXXXXXXXXXXXXXXXXXXXXX",
"XXXXXXXXXXXXXXXXXXXXXXXXXXXXXXXX|.|.|.|.q.F f - v F | l./.[.OXOXOXOXoXoX+X).J.N.V.R y.|.|.|.|.|.XXXXXXXXXXXXXXXXXXXXXXXXXXXXXXXX",
"XXXXXXXXXXXXXXXXXXXXXXXXXXXXXX.X|.|.|.|.I.m.9.n D b n f  .l./.(.`.(.(.(.c.P R M.R.D.|.|.|.|.|.|..X.XXXXXXXXXXXXXXXXXXXXXXXXXXXXX",
"XXXXXXXXXXXXXXXXXXXXXXXXXXXXXX.X|.|.|.|.|.!.S.$.& # o * i F H [ H [ H H - * v R M.|.|.|.|.|.|.|..X.XXXXXXXXXXXXXXXXXXXXXXXXXXXXX",
"XXXXXXXXXXXXXXXXXXXXXXXXXXXXXX.X|.|.|.|.|.|.|.m.M S V = # * % O t O X % & & & v 6.|.|.|.|.|.|.|..XXXXXXXXXXXXXXXXXXXXXXXXXXXXXXX",
"XXXXXXXXXXXXXXXXXXXXXXXXXXXXXXXX|.|.|.|.|.|.!.B.M D D D V = # o a O . = S :.M &.D.|.|.|.|.|.|.|..XXXXXXXXXXXXXXXXXXXXXXXXXXXXXXX",
"XXXXXXXXXXXXXXXXXXXXXXXXXXXXXX.X|.|.|.|.|.|.R.0.B D D D D b ~ + t   # A D :.m 9.|.|.|.|.|.|.|.|..XXXXXXXXXXXXXXXXXXXXXXXXXXXXXXX",
"XXXXXXXXXXXXXXXXXXXXXXXXXXXXXXXX|.|.|.|.|.|.I.>.D D D D A % p.4 t ^ r B D D A 1.R.|.|.|.|.|.|.|.XXXXXXXXXXXXXXXXXXXXXXXXXXXXXXXX",
"XXXXXXXXXXXXXXXXXXXXXXXXXXXXXX.X|.|.|.|.|.!.J.%.D D D D b % p.4 t ) / b D D :.M V.|.|.|.|.|.|.|.XXXXXXXXXXXXXXXXXXXXXXXXXXXXXXXX",
"XXXXXXXXXXXXXXXXXXXXXXXXXXXXXXXX|.|.|.|.|.!.I.$.D D D D b # p.4 t ) / p D D >.M V.|.|.|.|.|.|..XXXXXXXXXXXXXXXXXXXXXXXXXXXXXXXXX",
"XXXXXXXXXXXXXXXXXXXXXXXXXXXXXX.X|.|.|.|.|.|.D.%.D D D A b # p.3 t ) / & B D >.M B.|.|.|.|.|.|.|.XXXXXXXXXXXXXXXXXXXXXXXXXXXXXXXX",
"XXXXXXXXXXXXXXXXXXXXXXXXXXXXXXXX|.|.|.|.|.|.S.$.D D D B * % p.> @ _ ( % c A >.M C.|.|.|.|.|.|.|.XXXXXXXXXXXXXXXXXXXXXXXXXXXXXXXX",
"XXXXXXXXXXXXXXXXXXXXXXXXXXXXXXXX|.|.|.|.|.|.n.* D D D B $ X ~ : 8 > 3 $ * A >.M Z..X|.|.|.|.|.|.XXXXXXXXXXXXXXXXXXXXXXXXXXXXXXXX",
"XXXXXXXXXXXXXXXXXXXXXXXXXXXXXXXX|.|.|.|.|.|.e.$ D D A p % Z C C C t O X # n >.M Z..X.X|.|.|.|.|.XXXXXXXXXXXXXXXXXXXXXXXXXXXXXXXX",
"XXXXXXXXXXXXXXXXXXXXXXXXXXXXXX.X|.|.|. X X Xe.$ A D n $ Z ,.,.,.,.d a u X p >.M Z..X.X.X X|.|.|.XXXXXXXXXXXXXXXXXXXXXXXXXXXXXXXX",
"XXXXXXXXXXXXXXXXXXXXXXXXXXXXXXXX|.|.|..X X Xe.$ B D b o ,.,.,.,.,.Z a u t % D M Z.XXXXXXXX|.|.|.XXXXXXXXXXXXXXXXXXXXXXXXXXXXXXXX",
"XXXXXXXXXXXXXXXXXXXXXXXXXXXXXXXX|.|..XXX X Xe.# n A & & ,.,.,.,.,.-.u u y X A M Z..X.XXXXX.X|.|.XXXXXXXXXXXXXXXXXXXXXXXXXXXXXXXX",
"XXXXXXXXXXXXXXXXXXXXXXXXXXXXXXXX|.XX.X.X.X Xe.# p n o a ,.,.,.,.,.Z u u y X $ 4.Q..XXX.XXXXX.X|.XXXXXXXXXXXXXXXXXXXXXXXXXXXXXXXX",
"XXXXXXXXXXXXXXXXXXXXXXXXXXXXXX.X|.|.|.|.|.!.0.# p b X s ,.,.,.,.;.-.a a y . $ 6.|.|.|.|.|.|.|.|..X.X.XXXXXXXXXXXXXXXXXXXXXXXXXXX",
"XXXXXXXXXXXXXXXXXXXXXXXXXXXX|.|.|.|.|.|.|.!.0.% * * . a ,.,.,.,.;.s u u O # $ 6.|.|.|.|.|.|.|.|.|.|..XXXXXXXXXXXXXXXXXXXXXXXXXXX",
"XXXXXXXXXXXXXXXXXXXXXXXXXX|.|.|.|.|.|.|.|.!.r.* * * . y -.,.,.,.;.a u y X $ * 9.!.|.|.|.|.|.|.|.|.|.|..XXXXXXXXXXXXXXXXXXXXXXXXX",
"XXXXXXXXXXXXXXXXXXXXXXXX|.|.|.|.|.|.|.|.|.!.I.1.* * . t d ,.,.,.;.a a O # * N P.!.|.|.|.|.|.|.|.|.|.|.|..XXXXXXXXXXXXXXXXXXXXXXX",
"XXXXXXXXXXXXXXXXXXXXXX|.|.|.|.|.|.|.|.|.|.|.|.T.&.c   o t d ,.,.;.a a O $ N r.I.|.|.|.|.|.|.|.|.|.|.|.|..X.XXXXXXXXXXXXXXXXXXXXX",
"XXXXXXXXXXXXXXXXXXXX|.|.|.|.|.|.|.|.|.|.|.|.|.|.I.r.F < , + s m i O + + %.P.|.|.|.|.|.|.|.|.|.|.|.|.|.|.|.|.XXXXXXXXXXXXXXXXXXXX",
"XXXXXXXXXXXXXXXXXX|.|.|.|.|.|.|.|.|.|.|.|.|.|.|.|.R.4.8 ` E n.m.&.< 9 U I.|.!.|.|.|.|.|.|.|.|.|.|.|.|.|.|.|.|.XXXXXXXXXXXXXXXXXX",
"XXXXXXXXXXXXXXXX|.|.|.|.|.|.|.|.|.|.|.|.|.|.|.|.|.|.6.8 0 e.W.E.5.9 9 t.!.|.|.|.|.|.|.|.|.|.|..X|.|.|.|.|.|.|.|.XXXXXXXXXXXXXXXX",
"XXXXXXXXXXXXXX|.|.|.|.|.|.|.|.|.|.|.|.|.|.|.|.|.|.!.w.6 F A.|.W.8.1 P Y.|.|.|.|.|.|.|.|.|.|.|.|.|.|.|.|.|.|.|.|.|.XXXXXXXXXXXXXX",
"XXXXXXXXXXXX|.|.|.|.|.|.|.|.|.|.|.|.|.|.|.|.|.|.|.|.T.q.q.I.|.|.Y.q.Z.|.|.|.|.|.|.|.|.|.|.|.|.|.|.|.|.|.|.|.|.|.|.|.XXXXXXXXXXXX",
"XXXXXXXX.X|.|.|.|.|.|.|.|.|.|.|.|.|.|.|.|.|.|.|.|.|.|.|.|.|.|.|.|.|.|.|.|.|.|.|.|.|.|.|.|.|.|.|.|.|.|.|.|.|.|.|.|.|.|.XXXXXXXXXX",
"XXXXXXXX|.|.|.|.|.|.|.|.|.|.|.|.|.|.|.|.|.|.|.|.|.|.|.|.|.|.|.|.|.|.|.|.|.|.|.|.|.|.|.|.|.|.|.|.|.|.|.|.|.|.|.|.|.|.|.|..XXXXXXX",
"XXXX.X|.|.|.|.|.|.|.|.|.|.|.|.|.|.|.|.|.|.|.|.|.|.|.|.|.|.|.|.|.|.|.|.|.|.|.|.|.|.|.|.|.|.|.|.|.|.|.|.|.|.|.|.|.|.|.|.|.|..XXXXX",
"XX.X|.|.|.|.|.|.|.|.|.|.|.|.|.|.|.|.|.|.|.|.|.|.|.|.|.|.|.|.|.|.|.|.|.|.|.|.|.|.|.|.|.|.|.|.|.|.|.|.|.|.|.|.|.|.|.|.|.|.|.|..XXX",
"XX|.|.|.|.|.|.|.|.|.|.|.|.|.|.|.|.|.|.|.|.|.|.|.|.|.|.|.|.|.|.|.|.|.|.|.|.|.|.|.|.|.|.|.|.|.|.|.|.|.|.|.|.|.|.|.|.|.|.|.|.|.|..X",
"|.|.|.|.|..X|.|.|.|.|.|.|.|.|.|.|.|.|.|.|.|.|.|.|.|.|.|.|.|.|.|.|.|.|.|.|.|.|.|.|.|.|.|.|.|.|.|.|.|.|.|.|.|.|.|.|.|.|.|.|.|.|.|."
};
