/* XPM */
static char *result[] = {
/* columns rows colors chars-per-pixel */
"64 64 193 2 ",
"   c #020B0E",
".  c #0C0A0E",
"X  c #19090F",
"o  c #040B13",
"O  c #090916",
"+  c #060B1C",
"@  c #120A14",
"#  c #180A16",
"$  c #1B0D14",
"%  c #041315",
"&  c #081717",
"*  c #071917",
"=  c #05141A",
"-  c #0A141C",
";  c #031B1B",
":  c #0B1B1B",
">  c #1E1119",
",  c #361D0F",
"<  c #230B13",
"1  c #2C0B16",
"2  c #22121B",
"3  c #291719",
"4  c #2A141B",
"5  c #311213",
"6  c #321813",
"7  c #34151D",
"8  c #38141D",
"9  c #341A1E",
"0  c #3A191F",
"q  c #0A201D",
"w  c #2D2212",
"e  c #2A201E",
"r  c #362411",
"t  c #000623",
"y  c #060E25",
"u  c #080E25",
"i  c #090F29",
"p  c #071724",
"a  c #0C1322",
"s  c #0B1D22",
"d  c #0A112B",
"f  c #171722",
"g  c #0E1732",
"h  c #111A33",
"j  c #261620",
"k  c #2B1721",
"l  c #2C1923",
"z  c #341721",
"x  c #341A25",
"c  c #3D1922",
"v  c #351C2A",
"b  c #391F2D",
"n  c #0A2226",
"m  c #0E252B",
"M  c #15272A",
"N  c #12242C",
"B  c #152A2C",
"V  c #152C35",
"C  c #1A2D34",
"Z  c #172439",
"A  c #15243A",
"S  c #162E38",
"D  c #192F39",
"F  c #1F3233",
"G  c #1B313D",
"H  c #252124",
"J  c #2F2225",
"K  c #342523",
"L  c #3C2327",
"P  c #342B27",
"I  c #34222A",
"U  c #3A212E",
"Y  c #332D2C",
"T  c #26362D",
"R  c #29342B",
"E  c #34322E",
"W  c #333B2F",
"Q  c #3D2231",
"!  c #342C3E",
"~  c #233532",
"^  c #293C31",
"/  c #343B31",
"(  c #3D3F35",
")  c #46171D",
"_  c #54131D",
"`  c #432512",
"'  c #762819",
"]  c #633313",
"[  c #401A22",
"{  c #690D21",
"}  c #442425",
"|  c #532D2C",
" . c #412433",
".. c #553331",
"X. c #56383B",
"o. c #602F2D",
"O. c #6B3532",
"+. c #6C3736",
"@. c #374C3E",
"#. c #3B483A",
"$. c #3E503E",
"%. c #5E401C",
"&. c #61431D",
"*. c #7C4C1D",
"=. c #434B3F",
"-. c #5F453D",
";. c #1B2742",
":. c #1E2B45",
">. c #1D3540",
",. c #202E49",
"<. c #22314C",
"1. c #3F5847",
"2. c #455442",
"3. c #475B47",
"4. c #445E49",
"5. c #495E48",
"6. c #545452",
"7. c #7E554A",
"8. c #47614C",
"9. c #4D634C",
"0. c #50674D",
"q. c #51684E",
"w. c #4D6A53",
"e. c #546A54",
"r. c #546C54",
"t. c #547257",
"y. c #5B7359",
"u. c #5F7B5E",
"i. c #607A5F",
"p. c #61597E",
"a. c #715D70",
"s. c #6E7F62",
"d. c #7A6A77",
"f. c #99291F",
"g. c #B43712",
"h. c #913320",
"j. c #BE4F16",
"k. c #945332",
"l. c #AB5827",
"z. c #AF7637",
"x. c #C94813",
"c. c #894846",
"v. c #A6584F",
"b. c #90705D",
"n. c #B16E5F",
"m. c #AB7455",
"M. c #9F7666",
"N. c #B06A62",
"B. c #BE7264",
"V. c #C27A69",
"C. c #5F8162",
"Z. c #648363",
"A. c #678868",
"S. c #6B8C6B",
"D. c #71936F",
"F. c #6E9371",
"G. c #719673",
"H. c #749A76",
"J. c #799D77",
"K. c #7BA47D",
"L. c #F6AD10",
"P. c #C9B438",
"I. c #BC8972",
"U. c #B89278",
"Y. c #C48773",
"T. c #DD937D",
"R. c #9B7A92",
"E. c #7EA981",
"W. c #9C8899",
"Q. c #82AD84",
"!. c #86B389",
"~. c #8AB68A",
"^. c #8BBA8E",
"/. c #8EBF91",
"(. c #B293B0",
"). c #CE9E83",
"_. c #D49E89",
"`. c #DEAD8F",
"'. c #DBA897",
"]. c #E8A68B",
"[. c #F3BA9A",
"{. c #EDBDA1",
"}. c #8FC092",
"|. c #93C596",
" X c #9AC795",
".X c #9CCA97",
"XX c #9FCC98",
"oX c #FCC19F",
"OX c #FDC3A1",
"+X c #F8C7A8",
"@X c #EDC4B4",
"#X c #F6CDB2",
"$X c #C3ADC1",
/* pixels */
"|.|.|.|.|.|.|.|.|.|.|.|.|.|.|.|.|.|.|.|.|.|.|.|.|.|.|.|.|.|.|.|.|.|.|.|.|.|.|.|.|.|.|.|.|.|.|.|.|.|.|.|.|.|.|.|.|.|.|.|.|.|.|.|.",
".X|.|.|.|.|.|.|.|.|.|.|.|.|.|.|.|.|.|.|.|.|.|.|.|.|.|.|.|.|.|.|.|.|.|.|.|.|.|.|.|.|.|.|.|.|.|.|.|.|.|.|.|.|.|.|.|.|.|.|.|.|.|.XX",
"XX.X|.|.|.|.|.|.|.|.|.|.|.|.|.|.|.|.|.|.|.|.|.|.|.|.|.|.|.|.|.|.|.|.|.|.|.|.|.|.|.|.|.|.|.|.|.|.|.|.|.|.|.|.|.|.|.|.|.|.|.|.XXXX",
"XXXXXX|.|.|.|.|.|.|.|.|.|.|.|.|.|.|.|.|.|.|.|.|.|.|.|.|.|.|.|.|.|.|.|.|.|.|.|.|.|.|.|.|.|.|.|.|.|.|.|.|.|.|.|.|.|.|.|.|.|.XXXXXX",
"XXXXXX.X|.|.|.|.|.|.|.|.|.|.|.|.|.|.|.|.|.|.|.|.|.|.|.|.|.|.|.|.|.|.|.|.|.|.|.|.|.|.|.|.|.|.|.|.|.|.|.|.|.|.|.|.|.|.|.|.XXXXXXXX",
"XXXXXXXX.X X|.|.|.|.|.|.|.|.|.|.|.|.|.|.|.|.|.|.|.|.|.|.|.|.|.|.|.|.|.|.|.|.|.|.|.|.|.|.|.|.|.|.|.|.|.|.|.|.|.|.|.|.|..XXXXXXXXX",
"XXXXXXXXXX.X|.|.|.|.|.|.|.|.|.|.|.|.|.|.|.|.|.|.|.|.|.|.|.|.|.|.|.|.|.|.|.|.|.|.|.|.|.|.|.|.|.|.|.|.|.|.|.|.|.|.|.|..XXXXXXXXXXX",
"XXXXXXXXXXXX.X X|.|.|.|.|.|.|.|.|.|.|.|.|.|.|.|.|.|.|.|.|.^.^.}.|.|.|.|.|.|.|.|.|.|.|.|.|.|.|.|.|.|.|.|.|.|.|.|.|.XXXXXXXXXXXXXX",
"XXXXXXXXXXXXXX.X|.|.|.|.|.|.|.|.|.|.|.|.|.|.|.|.|.}.}.}.!.r.y.Q.}.|.|.|.|.|.|.|.|.|.|.|.|.|.|.|.|.|.|.|.|.|.|.|.XXXXXXXXXXXXXXXX",
"XXXXXXXXXXXXXXXXXX|.|.|.|.|.|.|.|.|.|.|.|.|.|.}.}.A.w.t.2.c 7 ! 8.C.^.|.|.|.|.|.|.|.|.|.|.|.|.|.|.|.|.|.|.|.|..XXXXXXXXXXXXXXXXX",
"XXXXXXXXXXXXXXXXXX.X|.|.|.|.|.|.|.|.|.|.|.Q.$./ #.e x 9 < c [ c 9 K ^ 2.K.K.^.|.|.|.|.|.|.|.|.|.|.|.|.|.|.|..XXXXXXXXXXXXXXXXXXX",
"XXXXXXXXXXXXXXXXXXXX.X|.|.|.|.|.|.|.|.|.|.Q.2.9 0 0 c c 6 7 [ [ [ c x x J 3 2.S.^.}.|.|.|.|.|.|.|.|.|.|.|.XXXXXXXXXXXXXXXXXXXXXX",
"XXXXXXXXXXXXXXXXXXXXXXXX|.|.|.|.|.|.|.|.|.^.D.8.3 < ) c [ [ [ [ c [ [ [ [ [ z K u.^.}.|.|.|.|.|.|.|.|.|.XXXXXXXXXXXXXXXXXXXXXXXX",
"XXXXXXXXXXXXXXXXXXXXXXXXXX|.|.|.|.|.|./.K.9.E P e 0 c c [ [ [ 8 [ c c c [ [ [ c K u.^.}.|.|.|.|.|.|.|.XXXXXXXXXXXXXXXXXXXXXXXXXX",
"XXXXXXXXXXXXXXXXXXXXXXXXXXXX|.|.|.|./.K.( 6 c c [ [ [ 0 [ [ [ [ 0 [ ) z c [ c c c L s.^.|.|.|.|.|.|.XXXXXXXXXXXXXXXXXXXXXXXXXXXX",
"XXXXXXXXXXXXXXXXXXXXXXXXXXXXXX|./.!.J.#.c c c ) c [ [ [ 8 [ [ c [ [ c v x c c x x x J u.|.|.|.|.|..XXXXXXXXXXXXXXXXXXXXXXXXXXXXX",
"XXXXXXXXXXXXXXXXXXXXXXXXXXXXXX XS./ Y 0 c c c [ [ 8 v 8 [ [ c [ c [ x x U U x x v b v / ~. X.X|.XXXXXXXXXXXXXXXXXXXXXXXXXXXXXXXX",
"XXXXXXXXXXXXXXXXXXXXXXXXXXXX X Xq.9 x x x c [ c v v v 8 [ c c c c x x b Q  .U x x Q Q H i. X|.|.XXXXXXXXXXXXXXXXXXXXXXXXXXXXXXXX",
"XXXXXXXXXXXXXXXXXXXXXXXXXXXXXXXX^.y.I > 4 c c x v v z [ [ 8 v v v Q v l v  .Q Q v Q Q Q =.U.|.|..XXXXXXXXXXXXXXXXXXXXXXXXXXXXXXX",
"XXXXXXXXXXXXXXXXXXXXXXXXXXXXXXXX/.Z.3 7 0 [ x b 2 k c [ v v  .Q Q b  .o.[ b  .Q v Q Q Y F t./.|.XXXXXXXXXXXXXXXXXXXXXXXXXXXXXXXX",
"XXXXXXXXXXXXXXXXXXXXXXXXXXXXXXXXK.3 v v c c v l # b c v U Q b x l -._._.c.4 Q Q Q b j v Q 2./.|..XXXXXXXXXXXXXXXXXXXXXXXXXXXXXXX",
"XXXXXXXXXXXXXXXXXXXXXXXXXXXXXX/.9.4 b v x x b 2 v x x Q Q l 2 6 N.[.OX].X.$ v Q Q v l l Q / K.|.XXXXXXXXXXXXXXXXXXXXXXXXXXXXXXXX",
"XXXXXXXXXXXXXXXXXXXXXXXXXXXXXXJ.H b Q 2 z v x k v k Q b L 3 2 ..`.OXOX).L x x Q Q Q v >  .l S.|..XXXXXXXXXXXXXXXXXXXXXXXXXXXXXXX",
"XXXXXXXXXXXXXXXXXXXXXXXXXX X.X9.I  .v < z b l l Q b Q b k.c.+.Y.[.OXOX[.v.O.6 x  . .b >  .k S.|.XXXXXXXXXXXXXXXXXXXXXXXXXXXXXXXX",
"XXXXXXXXXXXXXXXXXXXXXXXXXXXXXX5.v l 2 3 x  .l k  . .x [ } ) ) M.OXOX[.I.O._ { 4 Q Q Q 2 I Y H.|.XXXXXXXXXXXXXXXXXXXXXXXXXXXXXXXX",
"XXXXXXXXXXXXXXXXXXXXXXXXXX.X.XG.E l l 2 v  .l l  .b ! X.g.x.h.a.{.[.{.d.' x.f.l Q  . .l 2 3./.|.XXXXXXXXXXXXXXXXXXXXXXXXXXXXXXXX",
"XXXXXXXXXXXXXXXXXXXXXXXXXXXXXX.XA.j l 4  . .v j  .b 6.R.j.L.z.(.#XOXOX$Xl.L.l.p.l  .Q l > y./.|.XXXXXXXXXXXXXXXXXXXXXXXXXXXXXXXX",
"XXXXXXXXXXXXXXXXXXXXXXXXXXXXXXXXH.> v k Q  .b > v x M.$Xz.P.Y.@XOXOXOX@XI.P.I.W.l  . .K $.!.|.|.XXXXXXXXXXXXXXXXXXXXXXXXXXXXXXXX",
"XXXXXXXXXXXXXXXXXXXXXXXXXXXXXXXXG.2 Q @ I  .l # $ | T.#X_.V.@XOXOXoXOXOX+Xm.'.'.o.v Q E F.|.|.|.XXXXXXXXXXXXXXXXXXXXXXXXXXXXXXXX",
"XXXXXXXXXXXXXXXXXXXXXXXXXXXXXXXXJ.l #.#.I Q 2 > 0 Y.oXoXoX+XOXoXOXOXOXOXoXoXoX].O.I U #.}.|.|..XXXXXXXXXXXXXXXXXXXXXXXXXXXXXXXXX",
"XXXXXXXXXXXXXXXXXXXXXXXXXXXXXXXX^.Z.H.E.E U @ f } Y.oXoXoXoXOXOXOXOXoXoXoXoXoX`.+.I I w.}.}.|.|.XXXXXXXXXXXXXXXXXXXXXXXXXXXXXXXX",
"XXXXXXXXXXXXXXXXXXXXXXXXXXXXXXXX|.|.}.}.e.l $ 2 . } n.].oXOXoXoXoXoXoXoXoX+X+XU.6.E ~ E.|.|.|.|.XXXXXXXXXXXXXXXXXXXXXXXXXXXXXXXX",
"XXXXXXXXXXXXXXXXXXXXXXXXXXXXXXXX|.|.|.|.K.W R f C S H ..n.].OXOXOXOXoXOXoXM.b.Z.E.t.G.}.|.|.|.|.XXXXXXXXXXXXXXXXXXXXXXXXXXXXXXXX",
"XXXXXXXXXXXXXXXXXXXXXXXXXXXXXX.X|.|.|././.Q.Z.C N p s s l ..n.B.B.V.B.B.7.M M 1.E.^.}.|.|.|.|.|.XXXXXXXXXXXXXXXXXXXXXXXXXXXXXXXX",
"XXXXXXXXXXXXXXXXXXXXXXXXXXXXXX.X|.|.|.|.|.|./.w.: - = % p n @ . @ . . @ . % * n 4.~.}.|.|.|.|.|.XXXXXXXXXXXXXXXXXXXXXXXXXXXXXXXX",
"XXXXXXXXXXXXXXXXXXXXXXXXXXXXXXXX|.|.|.|.|.|.|.E.^ G D V : * ; + p y o * : N M : w.!.|.|.|.|.|.|.XXXXXXXXXXXXXXXXXXXXXXXXXXXXXXXX",
"XXXXXXXXXXXXXXXXXXXXXXXXXXXXXX.X|.|.|.|.|.|.|.E.~ G G G D N r r y o   s D G G R ~.}.|.|.|.|.|.|.XXXXXXXXXXXXXXXXXXXXXXXXXXXXXXXX",
"XXXXXXXXXXXXXXXXXXXXXXXXXXXXXXXX|.|.|.|.|.|./.8.S G G G D s ] ] t r ] m G G G ^ }.|.|.|.|.|.|.|.XXXXXXXXXXXXXXXXXXXXXXXXXXXXXXXX",
"XXXXXXXXXXXXXXXXXXXXXXXXXXXXXX.X|.|.|.|.|.|./.@.C G G G B : %.] t ` *.- G G G T G.|.|.|.|.|.|.|.XXXXXXXXXXXXXXXXXXXXXXXXXXXXXXXX",
"XXXXXXXXXXXXXXXXXXXXXXXXXXXXXX.X X|.|.|.|.|./.@.S G G >.N & &.] t ` *.- S G G C 8.|.|..X|.|.|.|.XXXXXXXXXXXXXXXXXXXXXXXXXXXXXXXX",
"XXXXXXXXXXXXXXXXXXXXXXXXXXXXXXXX|.|.|.|.|.|.}.1.V G G G m : &.] t ` *.= B G G C 9.}.|.|.|.|.|.|.XXXXXXXXXXXXXXXXXXXXXXXXXXXXXXXX",
"XXXXXXXXXXXXXXXXXXXXXXXXXXXXXXXX X|.|.|.|.|./.@.V G G S p : &.] X ` k.+ ; V >.C 0.|.|.|.|.|.|.|.XXXXXXXXXXXXXXXXXXXXXXXXXXXXXXXX",
"XXXXXXXXXXXXXXXXXXXXXXXXXXXXXXXX|.|.|.|.|.|.J.T S G G V ; * w , 5 5 ,   ; V F C q. X|.|.|.|.|.|.XXXXXXXXXXXXXXXXXXXXXXXXXXXXXXXX",
"XXXXXXXXXXXXXXXXXXXXXXXXXXXXXXXX|.|.|.|.|.|.s.: S G G m % - Z A A p +   % n G C q.XX X|.|.|.|.|.XXXXXXXXXXXXXXXXXXXXXXXXXXXXXXXX",
"XXXXXXXXXXXXXXXXXXXXXXXXXXXXXX.X|.|.|.|..X.XZ.q S G V = Z <.<.<.<.A d d o p G C q.XXXX X|.|.|.|.XXXXXXXXXXXXXXXXXXXXXXXXXXXXXXXX",
"XXXXXXXXXXXXXXXXXXXXXXXXXXXXXXXX|.|.|.XXXXXXZ.* m G B % ,.<.<.<.<.:.d d + ; S C 0.XXXXXXXX|.|.|.XXXXXXXXXXXXXXXXXXXXXXXXXXXXXXXX",
"XXXXXXXXXXXXXXXXXXXXXXXXXXXXXXXX|.|. XXXXXXXA.* n G n O ,.,.<.<.<.:.d d y   N C 0.XXXXXXXX.X|.|.XXXXXXXXXXXXXXXXXXXXXXXXXXXXXXXX",
"XXXXXXXXXXXXXXXXXXXXXXXXXXXXXXXX|.XX.XXXXXXXZ.* ; m % - ,.,.<.<.<.:.d d y   ; C Z. XXX.X.XXX X X.XXXXXXXXXXXXXXXXXXXXXXXXXXXXXXX",
"XXXXXXXXXXXXXXXXXXXXXXXXXXXXXX X|.|.|.|.|.|.C.; ; n ; - ,.<.<.<.<.;.d d =   * T |.|.|.|.|.|.|.|.|.XXXXXXXXXXXXXXXXXXXXXXXXXXXXXX",
"XXXXXXXXXXXXXXXXXXXXXXXXXXXX|.|.|.|.|.|.|.|.C.; ; ;   u ,.<.<.,.<.h d i u   * T |.|.|.|.|.|.|.|.|.|.XXXXXXXXXXXXXXXXXXXXXXXXXXXX",
"XXXXXXXXXXXXXXXXXXXXXXXX.X X|.|.|.|.|.|.|.|.C.; ; ; % + Z <.<.<.<.g i d + % ; T |.|.|.|.|.|.|.|.|.|.|..XXXXXXXXXXXXXXXXXXXXXXXXX",
"XXXXXXXXXXXXXXXXXXXXXXXX|. X|.|.|.|.|.|.|.|.F.V ; ; % + h ,.<.<.<.g i u o ; q 1.|.|.|.|.|.|.|.|.|.|.|.|..XXXXXXXXXXXXXXXXXXXXXXX",
"XXXXXXXXXXXXXXXXXXXX.X|.|.|.|.|.|.|.|.|.|.|.|.A.^ * % . + h ,.<.<.g u + % ; 1.}.|.|.|.|.|.|.|.|.|.|.|.|.|.XXXXXXXXXXXXXXXXXXXXXX",
"XXXXXXXXXXXXXXXXXX.X|.|.|.|.|.|.|.|.|.|.|.|.|.|.E.t.^ < < $ f h a + @ X F w.~.|.|.|.|.|.|.|.|.|.|.|.|.|.|.|.XXXXXXXXXXXXXXXXXXXX",
"XXXXXXXXXXXXXXXX.X|.|.|.|.|.|.|.|.|.|.|.|.|.|.|.|.}.Z.1 ) 4 A.F.#.1 8 P E./.|.|.|.|.|.|.|.|.|.|.|.|.|.|.|.|.|.XXXXXXXXXXXXXXXXXX",
"XXXXXXXXXXXXXXXX|.|.|.|.|.|.|.|.|.|.|.|.|.|.|.|.|.|.Z.1 1 2./.|.4.8 z 3.}.|.|.|.|.|.|.|.|.|.|.|.|.|.|.|.|.|.|.|.XXXXXXXXXXXXXXXX",
"XXXXXXXXXXXXXX|.|.|.|.|.|.|.|.|.|.|.|.|.|.|.|.|.|.}.S.3 $ F.}.|.r.9 P K.|.|.|.|.|.|.|.|.|.|.|.|.|.|.|.|.|.|.|.|.|.XXXXXXXXXXXXXX",
"XXXXXXXXXXXX|.|.|.|.|.|.|.|.|.|.|.|.|.|.|.|.|.|.|.|./.s.2.E.|.}.~.t.A.|.|.|.|.|.|.|.|.|.|.|.|.|.|.|.|.|.|.|.|.|.|.|.XXXXXXXXXXXX",
"XXXXXXXXXX|.|.|.|.|.|.|.|.|.|.|.|.|.|.|.|.|.|.|.|.|.|.|.|.|.|.|.|.|.|.|.|.|.|.|.|.|.|.|.|.|.|.|.|.|.|.|.|.|.|.|.|.|.|.XXXXXXXXXX",
"XXXXXXXX|.|.|.|.|.|.|.|.|.|.|.|.|.|.|.|.|.|.|.|.|.|.|.|.|.|.|.|.|.|.|.|.|.|.|.|.|.|.|.|.|.|.|.|.|.|.|.|.|.|.|.|.|.|.|.|..XXXXXXX",
"XXXX.X|.|.|.|.|.|.|.|.|.|.|.|.|.|.|.|.|.|.|.|.|.|.|.|.|.|.|.|.|.|.|.|.|.|.|.|.|.|.|.|.|.|.|.|.|.|.|.|.|.|.|.|.|.|.|.|.|.|.XXXXXX",
"XX.X|.|.|.|.|.|.|.|.|.|.|.|.|.|.|.|.|.|.|.|.|.|.|.|.|.|.|.|.|.|.|.|.|.|.|.|.|.|.|.|.|.|.|.|.|.|.|.|.|.|.|.|.|.|.|.|.|.|.|.|..XXX",
"XX|.|.|.|.|.|.|.|.|.|.|.|.|.|.|.|.|.|.|.|.|.|.|.|.|.|.|.|.|.|.|.|.|.|.|.|.|.|.|.|.|.|.|.|.|.|.|.|.|.|.|.|.|.|.|.|.|.|.|.|.|.|..X",
"|.|.|.|.|.|.|.|.|.|.|.|.|.|.|.|.|.|.|.|.|.|.|.|.|.|.|.|.|.|.|.|.|.|.|.|.|.|.|.|.|.|.|.|.|.|.|.|.|.|.|.|.|.|.|.|.|.|.|.|.|.|.|.|."
};
