/* XPM */
static char *result[] = {
/* columns rows colors chars-per-pixel */
"64 64 195 2 ",
"   c #060B0C",
".  c #1C0C0C",
"X  c #040B13",
"o  c #080915",
"O  c #060A1C",
"+  c #0A0D1D",
"@  c #140A10",
"#  c #1C0D14",
"$  c #100B18",
"%  c #041415",
"&  c #081717",
"*  c #031419",
"=  c #0A1518",
"-  c #041B1B",
";  c #181216",
":  c #1E1119",
">  c #1D1B1B",
",  c #2A0D17",
"<  c #390D19",
"1  c #231014",
"2  c #2A1216",
"3  c #24131C",
"4  c #29151B",
"5  c #251B1C",
"6  c #2C1B1D",
"7  c #34151D",
"8  c #331D1E",
"9  c #3A181F",
"0  c #16241D",
"q  c #18251D",
"w  c #29261C",
"e  c #2F281B",
"r  c #090E24",
"t  c #080F29",
"y  c #0B1722",
"u  c #0C1D22",
"i  c #0A112B",
"p  c #131926",
"a  c #111A34",
"s  c #131E39",
"d  c #261523",
"f  c #2C1723",
"g  c #2D1A23",
"h  c #371520",
"j  c #341A25",
"k  c #3D1922",
"l  c #351D2A",
"z  c #391F2D",
"x  c #072024",
"c  c #0B2126",
"v  c #0E252B",
"b  c #122622",
"n  c #172927",
"m  c #12222A",
"M  c #162C2F",
"N  c #132B32",
"B  c #182834",
"V  c #16233C",
"C  c #19243C",
"Z  c #182E39",
"A  c #1D3033",
"S  c #1B313D",
"D  c #2C2325",
"F  c #2E2828",
"G  c #342423",
"H  c #3F2123",
"J  c #322A26",
"K  c #35232C",
"L  c #3B212E",
"P  c #332C2A",
"I  c #382C2D",
"U  c #25362B",
"Y  c #2D322B",
"T  c #25392C",
"R  c #34322C",
"E  c #39312C",
"W  c #333B2F",
"Q  c #2F2531",
"!  c #332632",
"~  c #3D2231",
"^  c #293B36",
"/  c #363630",
"(  c #510E1C",
")  c #43260E",
"_  c #703016",
"`  c #441523",
"'  c #401A22",
"]  c #412220",
"[  c #4D2525",
"{  c #52292C",
"}  c #58292A",
"|  c #412433",
" . c #4B3736",
".. c #663636",
"X. c #394136",
"o. c #32463B",
"O. c #3B453A",
"+. c #34483B",
"@. c #3D493D",
"#. c #3A513E",
"$. c #7F4816",
"%. c #40493B",
"&. c #5B423A",
"*. c #1C2943",
"=. c #1D3541",
"-. c #202F4A",
";. c #23324D",
":. c #383040",
">. c #62394E",
",. c #3B5342",
"<. c #424F40",
"1. c #554C4E",
"2. c #455442",
"3. c #495A47",
"4. c #4C5D49",
"5. c #774E47",
"6. c #4B624C",
"7. c #4A6550",
"8. c #546D54",
"9. c #586D54",
"0. c #577156",
"q. c #567459",
"w. c #5A755A",
"e. c #5D7A5E",
"r. c #5E7E60",
"t. c #627F63",
"y. c #882517",
"u. c #9E2420",
"i. c #A23D29",
"p. c #834A17",
"a. c #8C4F19",
"s. c #8F5119",
"d. c #DB780A",
"f. c #EC7404",
"g. c #8D534C",
"h. c #8D5B5B",
"j. c #936657",
"k. c #AC685B",
"l. c #B46B5E",
"z. c #B57652",
"x. c #8B626C",
"c. c #9E6C60",
"v. c #A87768",
"b. c #BB7766",
"n. c #C47E6C",
"m. c #628364",
"M. c #678968",
"N. c #6A8C6B",
"B. c #6D916E",
"V. c #72916D",
"C. c #6D9371",
"Z. c #749B76",
"A. c #7B9D75",
"S. c #779F79",
"D. c #77A07A",
"F. c #7AA37C",
"G. c #DAA21B",
"H. c #C9A731",
"J. c #AA8675",
"K. c #82A67C",
"L. c #C68B77",
"P. c #D9957E",
"I. c #746A8A",
"U. c #8A6A80",
"Y. c #7EA780",
"T. c #7EA980",
"R. c #83AD83",
"E. c #88AE82",
"W. c #85B287",
"Q. c #8BB386",
"!. c #86B388",
"~. c #8BB68A",
"^. c #8CBB8E",
"/. c #93BD8E",
"(. c #8EBE91",
"). c #C99E87",
"_. c #EE9D86",
"`. c #ECA289",
"'. c #F0AE92",
"]. c #E9B496",
"[. c #F3B99A",
"{. c #F8BA9A",
"}. c #D8B1A7",
"|. c #D1BABC",
" X c #EDBFAE",
".X c #8FC092",
"XX c #93C596",
"oX c #9AC694",
"OX c #9CCA97",
"+X c #9FCC98",
"@X c #FDC19F",
"#X c #FDC3A1",
"$X c #FAC4A5",
"%X c #ECC8B5",
"&X c #F4C8B3",
/* pixels */
"XXXXXXXXXXXXXXXXXXXXXXXXXXXXXXXXXXXXXXXXXXXXXXXXXXXXXXXXXXXXXXXXXXXXXXXXXXXXXXXXXXXXXXXXXXXXXXXXXXXXXXXXXXXXXXXXXXXXXXXXXXXXXXXX",
"OXXXXXXXXXXXXXXXXXXXXXXXXXXXXXXXXXXXXXXXXXXXXXXXXXXXXXXXXXXXXXXXXXXXXXXXXXXXXXXXXXXXXXXXXXXXXXXXXXXXXXXXXXXXXXXXXXXXXXXXXXXXXX+X",
"OXOXXXXXXXXXXXXXXXXXXXXXXXXXXXXXXXXXXXXXXXXXXXXXXXXXXXXXXXXXXXXXXXXXXXXXXXXXXXXXXXXXXXXXXXXXXXXXXXXXXXXXXXXXXXXXXXXXXXXXXXXX+X+X",
"+XOXOXoXXXXXXXXXXXXXXXXXXXXXXXXXXXXXXXXXXXXXXXXXXXXXXXXXXXXXXXXXXXXXXXXXXXXXXXXXXXXXXXXXXXXXXXXXXXXXXXXXXXXXXXXXXXXXXXXXXX+X+X+X",
"+X+X+XOXOXXXXXXXXXXXXXXXXXXXXXXXXXXXXXXXXXXXXXXXXXXXXXXXXXXXXXXXXXXXXXXXXXXXXXXXXXXXXXXXXXXXXXXXXXXXXXXXXXXXXXXXXXXXXXXX+X+X+X+X",
"+X+X+X+X+XXXXXXXXXXXXXXXXXXXXXXXXXXXXXXXXXXXXXXXXXXXXXXXXXXXXXXXXXXXXXXXXXXXXXXXXXXXXXXXXXXXXXXXXXXXXXXXXXXXXXXXXXXXXXOX+X+X+X+X",
"+X+X+X+X+X+XXXXXXXXXXXXXXXXXXXXXXXXXXXXXXXXXXXXXXXXXXXXX.X.XXXXXXXXXXXXXXXXXXXXXXXXXXXXXXXXXXXXXXXXXXXXXXXXXXXXXXXXXOX+X+X+X+X+X",
"+X+X+X+XOXOX+XXXXXXXXXXXXXXXXXXXXXXXXXXXXXXXXXXXXX.X.XXXT.C.!..XXXXXXXXXXXXXXXXXXXXXXXXXXXXXXXXXXXXXXXXXXXXXXXXXXX+X+X+X+X+X+X+X",
"+X+X+X+X+X+X+XOXXXXXXXXXXXXXXXXXXXXXXXXXXXXXXX.X^.Z.S.C.%.e 2.M.D.^..XXXXXXXXXXXXXXXXXXXXXXXXXXXXXXXXXXXXXXXXXXX+X+X+X+X+X+X+X+X",
"+X+X+X+X+X+X+X+X+XOXXXXXXXXXXXXXXXXXXXXX(.C.8.8.6.P P w k ' 9 G Y 4.q.T.XXXXXXXXXXXXXXXXXXXXXXXXXXXXXXXXXXXXXXOX+X+X+X+X+X+X+X+X",
"+X+X+X+X+X+X+X+X+X+XXXXXXXXXXXXXXXXXXXXX(.8.5 8 8 ' ' 7 , k ' ' ] j g R W 2.K.(.XXXXXXXXXXXXXXXXXXXXXXXXXXXX+X+X+X+X+X+X+X+X+X+X",
"+X+X+X+X+X+X+X+X+X+XOXXXXXXXXXXXXXXXXXXXXXR.6.J 2 9 ' k k k ' ' k k k k 9 8 P w.^.XXXXXXXXXXXXXXXXXXXXXXXX+X+X+X+X+X+X+X+X+X+X+X",
"+X+X+X+X+X+X+X+X+X+X+XOXXXXXXXXXXXXXXX(.F.w.2.J 2 9 k 9 ' ' 9 9 ' ' k ' ' ' ' K q.^.XXXXXXXXXXXXXXXXXXXX+X+X+X+X+X+X+X+X+X+X+X+X",
"+X+X+X+X+X+X+X+X+X+X+X+X+XXXXXXXXXXX(.M.E 8 9 k ' k ' ' ' ' ' ` ' k k k ` ' k k G w.^.XXXXXXXXXXXXXXXX+X+X+X+X+X+X+X+X+X+X+X+X+X",
"+X+X+X+X+X+X+X+X+X+X+X+X+XOXXXXXXXXXM.E ] ' k k k k ' ' 9 ' ' k k ' k j h k h g k G 0.XXXXXXXXXXXXXX+X+X+X+X+X+X+X+X+X+X+X+X+X+X",
"+X+X+X+X+X+X+X+X+X+X+X+X+X+XXX(.m.6.E k k ' ` ' 9 k 9 ' k ` k k ' 9 j z z j k l l z J F.XXXXXXXXXX+X+X+X+X+X+X+X+X+X+X+X+X+X+X+X",
"+X+X+X+X+X+X+X+X+X+X+X+X+X+XoXV.D g k l k k ` k j l j k k ` ` k j k l l | z j j z ~ g 2.OXOXOXXX+X+X+X+X+X+X+X+X+X+X+X+X+X+X+X+X",
"+X+X+X+X+X+X+X+X+X+X+X+X+X+X+X/.8.I d 3 j k k j z l h ` k j j l l l l z | | z j z ~ K P A.OXXXXX+X+X+X+X+X+X+X+X+X+X+X+X+X+X+X+X",
"+X+X+X+X+X+X+X+X+X+X+X+X+X+X+XOXR.W 2 7 k k l j 4 j k k j z L | | j < k l | | z ~ ~ | K 4.^.XXXX+X+X+X+X+X+X+X+X+X+X+X+X+X+X+X+X",
"+X+X+X+X+X+X+X+X+X+X+X+X+X+X+X/.9.G j k k j ~ : d k k l L | ~ f g 5.L.h.k z | L L l l | R S..XXX+X+X+X+X+X+X+X+X+X+X+X+X+X+X+X+X",
"+X+X+X+X+X+X+X+X+X+X+X+XOXOXOXK.R l L l h z f d j j z ~ ~ f # ..v.].$Xv.6 g ~ | z g d ~ P N..XXXOX+X+X+X+X+X+X+X+X+X+X+X+X+X+X+X",
"+X+X+X+X+X+X+X+X+X+X+X+X+XOXoX9.3 ~ l 4 j z 3 j g j ~ ~ 4 # d c.{.$X].&.l 4 L | z ~ 3 l L <.!.XX+X+X+X+X+X+X+X+X+X+X+X+X+X+X+X+X",
"+X+X+X+X+X+X+X+X+X+X+X+X+X+XE.R ~ | 4 2 j z : L l z L { i.~ >.`.@X#X$Xk.} [ f | ~ | : l L <.W.XXOX+X+X+X+X+X+X+X+X+X+X+X+X+X+X+X",
"+X+X+X+X+X+X+X+X+X+X+X+X+X+XK.D ~ f # f z z 1 ~ ~ L H } { | g. X#X#X[.l.} ( < K | ~ 3 l L 2.W.XX+X+X+X+X+X+X+X+X+X+X+X+X+X+X+X+X",
"+X+X+X+X+X+X+X+X+X+X+X+X+X+XQ.E g l # j ~ z 3 L | K ! _ y.y. .).#X$X).{ y.u.( d | | L : P B.(.XX+X+X+X+X+X+X+X+X+X+X+X+X+X+X+X+X",
"+X+X+X+X+X+X+X+X+X+X+X+X+XOXoXA.P z # l ~ L : L ~ Q I.i.f.d.x.%X@X@X|.h.d.d.>.:.L | L # R D.XXXX+X+X+X+X+X+X+X+X+X+X+X+X+X+X+X+X",
"+X+X+X+X+X+X+X+X+X+X+X+X+X+XOXQ.O.K : ~ ~ | d g z [ |.h.G.H.).&X@X#X%XJ.H.H.U.1.j | L > e.(.XXXX+X+X+X+X+X+X+X+X+X+X+X+X+X+X+X+X",
"+X+X+X+X+X+X+X+X+X+X+X+X+X+XOXQ.O.L 3 g | L : # 3 g. X}.z.).&X#X#X@X#X&XJ.b.}.h.j ~ L @.(..XXXXX+X+X+X+X+X+X+X+X+X+X+X+X+X+X+X+X",
"+X+X+X+X+X+X+X+X+X+X+X+X+X+XOXQ.X.K R g | g : @ ..`.@X#X'.$X#X#X#X#X@X$X{.'.@Xk.g | P C.XXXXXXXX+X+X+X+X+X+X+X+X+X+X+X+X+X+X+X+X",
"+X+X+X+X+X+X+X+X+X+X+X+X+X+X+XOXm.4.F.@.L d 3 1 l.#X@X@X@X#X#X#X#X#X#X@X@X@X@Xk.j | / F.XXXXXXXX+X+X+X+X+X+X+X+X+X+X+X+X+X+X+X+X",
"+X+X+X+X+X+X+X+X+X+X+X+X+X+X+X+XXX^.(.t.F d : 3 9 L.'.@X#X#X#X#X#X@X@X@X$X$X[.j.I g 7.XXXXXXXXXX+X+X+X+X+X+X+X+X+X+X+X+X+X+X+X+X",
"+X+X+X+X+X+X+X+X+X+X+X+X+X+X+X+XXXXXXXW.X.5 p p n K ..n.'.@X#X#X#X#X$X$X@XL.J.V.7.+.Y.XXXXXXXXXX+X+X+X+X+X+X+X+X+X+X+X+X+X+X+X+X",
"+X+X+X+X+X+X+X+X+X+X+X+X+X+X+X+XXXXXXX.XD.q.o.S N v m D ..n.`._.P.'._.P.1.F ,.R.T.!.XXXXXXXXXXXX+X+X+X+X+X+X+X+X+X+X+X+X+X+X+X+X",
"+X+X+X+X+X+X+X+X+X+X+X+X+X+X+XOXXXXXXXXX.X^.q.n % X % u m G ] ] ] ) ] 8 & 0 c ,.T..XXXXXXXXXXXXX+X+X+X+X+X+X+X+X+X+X+X+X+X+X+X+X",
"+X+X+X+X+X+X+X+X+X+X+X+X+X+X+XOXoXXXXXXXXXXX.X+.M Z m = = u X r y X % * & & = A C..XXXXXXXXXXXXX+X+X+X+X+X+X+X+X+X+X+X+X+X+X+X+X",
"+X+X+X+X+X+X+X+X+X+X+X+X+X+XOXOXXXXXXXXX.XXXC.^ *.^ S Z m & % + i X % c A -.M q..X.XXXXXXXXXXXXX+X+X+X+X+X+X+X+X+X+X+X+X+X+X+X+X",
"+X+X+X+X+X+X+X+X+X+X+X+X+X+X+XOXXXXXXXXXXX.Xm.A =.S S S N q ) r X   y =.S =.A 7.^.XXXXXXXXXXXXXX+X+X+X+X+X+X+X+X+X+X+X+X+X+X+X+X",
"+X+X+X+X+X+X+X+X+X+X+X+X+X+X+X+XXXXXXXXXXXXXe.A =.S S Z u e p.$ o $.u N S S Z o.^.XXXXXXXXXXXXXX+X+X+X+X+X+X+X+X+X+X+X+X+X+X+X+X",
"+X+X+X+X+X+X+X+X+X+X+X+X+X+X+XOXXXXXXXXXXX.Xm.A S S =.N - e p.p o a.q N S S Z o.T.XXXXXXXXXXXXXX+X+X+X+X+X+X+X+X+X+X+X+X+X+X+X+X",
"+X+X+X+X+X+X+X+X+X+X+X+X+X+X+XOXXXXXXXXX.X.Xe.A =.*.=.Z - e p.$ $ a.q u S S S o.^.XXXXXXXXXXXXXXOX+X+X+X+X+X+X+X+X+X+X+X+X+X+X+X",
"+X+X+X+X+X+X+X+X+X+X+X+X+X+X+X+XXXXXXXXXXXT.,.Z S S S v - e $.= $ a.0 * N S S o.!.XXXXXXXXXXXXXX+X+X+X+X+X+X+X+X+X+X+X+X+X+X+X+X",
"+X+X+X+X+X+X+X+X+X+X+X+X+X+X+X+XOXXXXXXXXXT.T N S S S x - e p.2 . s.q * v S Z o.~.XXXXXXXXXXXXXX+X+X+X+X+X+X+X+X+X+X+X+X+X+X+X+X",
"+X+X+X+X+X+X+X+X+X+X+X+X+X+X+X+XXXXXXXXXXXT.T M S S Z - % ; ) 7 1 ) % % u Z S +.~.+XXXXXXXXXXXOX+X+X+X+X+X+X+X+X+X+X+X+X+X+X+X+X",
"+X+X+X+X+X+X+X+X+X+X+X+X+X+X+X+XXXXXXXXXXXK.T M S S v X y C V V C t O X % N S +.~.+X+XXXXXXXXXXX+X+X+X+X+X+X+X+X+X+X+X+X+X+X+X+X",
"+X+X+X+X+X+X+X+X+X+X+X+X+X+X+XOXXXXXXXXXOXW.T c S S * B ;.;.;.;.;.a i t X c S o.~.+XOXOXoXXXXXXX+X+X+X+X+X+X+X+X+X+X+X+X+X+X+X+X",
"+X+X+X+X+X+X+X+X+X+X+X+X+X+X+X+XXXXXXXOX+XK.o.- Z N % a ;.;.;.;.;.a t i X - A 6.oX+X+XOX+XoXXXXX+X+X+X+X+X+X+X+X+X+X+X+X+X+X+X+X",
"+X+X+X+X+X+X+X+X+X+X+X+X+X+X+X+XXXXX+X+X+XK.U - v v X C ;.;.;.;.;.a t i X * n V.oX+X+XOXOXOXXXXX+X+X+X+X+X+X+X+X+X+X+X+X+X+X+X+X",
"+X+X+X+X+X+X+X+X+X+X+X+X+X+X+X+XXX+X+X+X+XK.U - u u X *.;.;.;.;.*.a t i X % b V.oXOX+XOXOXOXOXXX+X+X+X+X+X+X+X+X+X+X+X+X+X+X+X+X",
"+X+X+X+X+X+X+X+X+X+X+X+X+X+X+XOXXXXXXXXXXXT.T - - - X C ;.;.;.;.V t t i % - v C.XXXXXXXXXXXXXXXXXX+X+X+X+X+X+X+X+X+X+X+X+X+X+X+X",
"+X+X+X+X+X+X+X+X+X+X+X+X+X+XOXXXXXXXXXXXXX(.,.- - - X i ;.;.;.;.V i i r   x T T.XXXXXXXXXXXXXXXXXXXX+X+X+X+X+X+X+X+X+X+X+X+X+X+X",
"+X+X+X+X+X+X+X+X+X+X+X+X+XXXXXXXXXXXXXXXXX.Xm.v - - X i *.;.;.;.C i i + % - 7.XXXXXXXXXXXXXXXXXXXXXXXXOX+X+X+X+X+X+X+X+X+X+X+X+X",
"+X+X+X+X+X+X+X+X+X+X+X+XXXXXXXXXXXXXXXXXXX.X.X8.b - X t s ;.;.;.V t t % - #.T.XXXXXXXXXXXX+XXXXXXXXXXXXXOX+X+X+X+X+X+X+X+X+X+X+X",
"+X+X+X+X+X+X+X+X+X+XOXXXXXXXXXXXXXXXXXXXXXXXXX.Xm.+.  + i C ;.*.a i r = ,.T.XXXXXXXXXXXXXXXXXXXXXXXXXXXXXX+X+X+X+X+X+X+X+X+X+X+X",
"+X+X+X+X+X+X+X+X+XOXXXXXXXXXXXXXXXXXXXXXXXXXXXXX.XD.F , 1 ; B p O o # Y T.XXXXXXXXXXXXXXXXXXXXXXXXXXXXXXXXXXOX+X+X+X+X+X+X+X+X+X",
"+X+X+X+X+X+X+X+XOXXXXXXXXXXXXXXXXXXXXXXXXXXXXXXX.XF.R ` h 3.C.q.5 < 7 8..XXXXXXXXXXXXXXXXXXXXXXXXXXXXXXXXXXXOX+X+X+X+X+X+X+X+X+X",
"+X+X+X+X+X+X+X+XXXXXXXXXXXXXXXXXXXXXXXXXXXXXXXXX.XF.E 9 P Z.XXZ.G ` P S.XXXXXXXXXXXXXXXXXXXXXXXXXXXXXXXXXXXXXXXX+X+X+X+X+X+X+X+X",
"+X+X+X+X+X+X+XOXXXXXXXXXXXXXXXXXXXXXXXXXXXXXXXXXXXT. ., ,.^..XY.R 8 6..XXXXXXXXXXXXXXXXXXXXXXXXXXXXXXXXXXXXXXXXXXX+X+X+X+X+X+X+X",
"+X+X+X+X+X+XXXXXXXXXXXXXXXXXXXXXXXXXXXXXXXXXXXXXXX.XZ.4.r.(.XXXXN.9.~.XXXXXXXXXXXXXXXXXXXXXXXXXXXXXXXXXXXXXXXXXXXXXX+X+X+X+X+X+X",
"+X+X+X+X+XXXXXXXXXXXXXXXXXXXXXXXXXXXXXXXXXXXXXXXXXXXXXXXXXXXXXXXXXXXXXXXXXXXXXXXXXXXXXXXXXXXXXXXXXXXXXXXXXXXXXXXXXXXXX+X+X+X+X+X",
"+X+X+X+XXXXXXXXXXXXXXXXXXXXXXXXXXXXXXXXXXXXXXXXXXXXXXXXXXXXXXXXXXXXXXXXXXXXXXXXXXXXXXXXXXXXXXXXXXXXXXXXXXXXXXXXXXXXXXXXXXX+X+X+X",
"+X+XOXXXXXXXXXXXXXXXXXXXXXXXXXXXXXXXXXXXXXXXXXXXXXXXXXXXXXXXXXXXXXXXXXXXXXXXXXXXXXXXXXXXXXXXXXXXXXXXXXXXXXXXXXXXXXXXXXXXXX+X+X+X",
"+XOXXXXXXXXXXXXXXXXXXXXXXXXXXXXXXXXXXXXXXXXXXXXXXXXXXXXXXXXXXXXXXXXXXXXXXXXXXXXXXXXXXXXXXXXXXXXXXXXXXXXXXXXXXXXXXXXXXXXXXXXX+X+X",
"+XXXXXXXXXXXXXXXXXXXXXXXXXXXXXXXXXXXXXXXXXXXXXXXXXXXXXXXXXXXXXXXXXXXXXXXXXXXXXXXXXXXXXXXXXXXXXXXXXXXXXXXXXXXXXXXXXXXXXXXXXXXXX+X",
"XXXXXXXXXXXXXXXXXXXXXXXXXXXXXXXXXXXXXXXXXXXXXXXXXXXXXXXXXXXXXXXXXXXXXXXXXXXXXXXXXXXXXXXXXXXXXXXXXXXXXXXXXXXXXXXXXXXXXXXXXXXXXXXX"
};
